<svg width="108" height="112" viewBox="0 0 108 112" fill="none" xmlns="http://www.w3.org/2000/svg">
<path d="M51.3682 5.16992C60.7142 -2.01937 74.3625 2.25697 77.9346 13.4941L81.9775 26.2139C82.9896 29.3979 85.0363 32.1529 87.792 34.042L98.7998 41.5889C108.525 48.2558 108.676 62.557 99.0928 69.4268L88.2451 77.2031C85.5297 79.1496 83.5417 81.9468 82.5967 85.1514L78.8213 97.9531C75.4858 109.263 61.9304 113.824 52.4355 106.833L41.6875 98.9189C38.9973 96.9381 35.7224 95.9125 32.3828 96.0039L19.041 96.3691C7.25429 96.6917 -1.27289 85.2091 2.44238 74.0186L6.64746 61.3516C7.70002 58.1809 7.66389 54.7494 6.54492 51.6016L2.07422 39.0254C-1.87464 27.9154 6.41041 16.2569 18.2012 16.332L31.5479 16.418C34.8886 16.4393 38.141 15.3445 40.7891 13.3076L51.3682 5.16992Z" fill="#FDBCFF" stroke="white" stroke-width="2"/>
<path d="M81.3679 71.04C78.1011 70.0164 76.3843 74.2229 75.9343 76.4541C70.4747 70.1592 63.098 81.0343 72.2022 82.4012C71.966 83.9503 71.4163 87.2333 74.7843 88.888C78.1523 90.5427 81.2574 88.2965 81.6527 85.3626C84.5597 86.0238 91.2951 86.5862 90.5865 82.1691C89.8779 77.752 84.8335 77.8693 82.3999 78.4801C83.417 76.4266 84.6347 72.0637 81.3679 71.04Z" fill="#C7E3FF" stroke="#2F95DE" stroke-width="2" stroke-linecap="round" stroke-linejoin="round"/>
<path d="M33.9561 43.6079C35.2424 45.0027 38.0251 48.488 40.3725 52.7449C41.0708 54.0111 40.1353 55.5288 38.6955 55.6633C35.6762 55.9454 31.8047 56.6011 29.4708 57.9216" stroke="black" stroke-width="2" stroke-linecap="round" stroke-linejoin="round"/>
<path d="M71.4707 54.3154C69.6184 54.7267 65.3444 56.0008 60.9874 58.1567C59.6914 58.7981 59.5935 60.5782 60.699 61.5103C63.0174 63.465 65.8225 66.2128 66.9854 68.6291" stroke="black" stroke-width="2" stroke-linecap="round" stroke-linejoin="round"/>
<path d="M46.6981 63.4864C50.9725 62.7416 54.5361 64.0696 56.3049 66.497C58.0736 68.9244 49.8307 68.7595 47.5847 69.0157C49.1193 69.9077 55.9289 73.3562 54.1182 74.8774C52.3074 76.3986 48.6613 75.7348 47.0645 75.2127" stroke="black" stroke-width="2" stroke-linecap="round" stroke-linejoin="round"/>
<path d="M79.4016 20.6461C60.3655 17.9728 45.3033 11.09 45.3033 11.09C39.4179 15.3857 38.9588 16.4918 31.4365 17.4099C31.4365 17.4099 61.807 39.5178 84.9783 32.9506C81.2382 28.5723 80.9124 26.7805 79.4016 20.6461Z" fill="#DE3131"/>
</svg>
