<svg width="154" height="153" viewBox="0 0 154 153" fill="none" xmlns="http://www.w3.org/2000/svg">
<g clip-path="url(#clip0_0_5259)">
<path d="M153.497 37.9512H153.567V75.1553V77.8447V153H153.501L153.492 77.8447V75.1553L153.497 37.9512Z" fill="#AAA8B0"/>
<path d="M153.496 0H153.568V29.4223L153.504 29.4087L153.496 0Z" fill="#AAA8B0"/>
<path d="M153.503 29.4087L153.567 29.4223V37.9511H153.497C153.434 35.1111 153.476 32.2499 153.503 29.4087Z" fill="#8A7C89"/>
<mask id="path-4-outside-1_0_5259" maskUnits="userSpaceOnUse" x="9.39844" y="9.19482" width="136" height="134" fill="black">
<rect fill="white" x="9.39844" y="9.19482" width="136" height="134"/>
<path d="M69.4068 14.2529C69.9843 14.1764 70.615 14.197 71.2 14.1983C71.5927 14.1967 71.9851 14.2056 72.3774 14.2248C72.7696 14.244 73.161 14.2737 73.5517 14.3137C73.9423 14.3537 74.3316 14.404 74.7197 14.4647C75.1077 14.5254 75.4938 14.5964 75.8779 14.6775C76.2622 14.7587 76.644 14.85 77.0233 14.9515C77.4027 15.053 77.7791 15.1644 78.1526 15.2859C78.5261 15.4073 78.8961 15.5386 79.2625 15.6796C79.629 15.8207 79.9915 15.9714 80.35 16.1318C85.6145 18.4873 90.044 22.961 92.1166 28.3668C95.759 28.7107 98.6515 29.3298 102.09 30.5872C104.338 28.131 106.712 26.3944 110.078 25.8402C110.182 25.8224 110.288 25.8059 110.393 25.7906C110.498 25.7754 110.604 25.7615 110.71 25.749C110.815 25.7364 110.921 25.7252 111.027 25.7152C111.133 25.7054 111.239 25.6968 111.345 25.6895C111.452 25.6823 111.558 25.6764 111.664 25.6718C111.77 25.6672 111.877 25.6639 111.983 25.6619C112.09 25.6601 112.196 25.6595 112.303 25.6603C112.409 25.661 112.515 25.6631 112.622 25.6664C112.728 25.6698 112.834 25.6745 112.941 25.6806C113.047 25.6867 113.153 25.6941 113.259 25.7028C113.365 25.7116 113.471 25.7216 113.577 25.7329C113.683 25.7444 113.789 25.7571 113.894 25.771C114 25.7851 114.105 25.8005 114.21 25.8171C114.315 25.8338 114.42 25.8518 114.525 25.871C114.63 25.8903 114.734 25.9109 114.838 25.9328C114.942 25.9548 115.046 25.978 115.15 26.0024C115.253 26.027 115.357 26.0528 115.46 26.0799C115.562 26.107 115.665 26.1353 115.767 26.165C115.869 26.1947 115.971 26.2256 116.073 26.2577C116.174 26.29 116.275 26.3235 116.376 26.3583C116.476 26.393 116.577 26.429 116.676 26.4662C116.776 26.5034 116.875 26.5419 116.974 26.5816C117.073 26.6214 117.171 26.6624 117.269 26.7047C117.366 26.7468 117.464 26.7902 117.56 26.8348C117.657 26.8795 117.753 26.9253 117.848 26.9723C117.944 27.0194 118.039 27.0676 118.133 27.117C118.227 27.1665 118.321 27.2171 118.414 27.2688C118.507 27.3206 118.599 27.3735 118.691 27.4276C118.783 27.4816 118.874 27.5368 118.964 27.5932C119.054 27.6495 119.144 27.707 119.233 27.7657C119.322 27.8242 119.41 27.8839 119.497 27.9446C119.584 28.0055 119.671 28.0674 119.757 28.1303C119.845 28.1933 119.933 28.2574 120.02 28.3227C120.106 28.3878 120.192 28.4541 120.277 28.5214C120.362 28.5887 120.447 28.6571 120.53 28.7266C120.614 28.796 120.696 28.8665 120.778 28.938C120.859 29.0095 120.94 29.0821 121.02 29.1556C121.1 29.2292 121.179 29.3037 121.257 29.3792C121.335 29.4547 121.412 29.5312 121.488 29.6087C121.564 29.6862 121.639 29.7645 121.713 29.8438C121.787 29.9232 121.86 30.0035 121.932 30.0846C122.004 30.1658 122.075 30.2478 122.145 30.3308C122.215 30.4137 122.284 30.4975 122.352 30.5821C122.42 30.6668 122.487 30.7523 122.552 30.8387C122.618 30.925 122.683 31.0122 122.746 31.1002C122.81 31.1881 122.872 31.2768 122.934 31.3663C122.995 31.4559 123.055 31.5462 123.114 31.6372C123.173 31.7282 123.231 31.82 123.288 31.9125C123.345 32.005 123.401 32.0982 123.455 32.1921C123.509 32.286 123.563 32.3806 123.615 32.4758C123.667 32.5711 123.718 32.6669 123.768 32.7633C123.817 32.8599 123.866 32.957 123.913 33.0546C123.96 33.1524 124.006 33.2507 124.051 33.3496C124.096 33.4484 124.139 33.5478 124.182 33.6478C124.224 33.7477 124.265 33.8481 124.305 33.9492C124.344 34.0501 124.383 34.1516 124.42 34.2535C124.457 34.3555 124.493 34.4579 124.528 34.5607C124.563 34.6636 124.596 34.7669 124.628 34.8706C124.66 34.9742 124.691 35.0783 124.72 35.1828C124.75 35.2872 124.778 35.392 124.805 35.4972C124.832 35.6023 124.857 35.7078 124.882 35.8136C124.906 35.9194 124.929 36.0255 124.95 36.1319C124.972 36.2383 124.992 36.3449 125.011 36.4517C125.03 36.5587 125.047 36.6658 125.063 36.7731C125.956 42.3251 123.039 45.9249 119.999 50.115C120.53 51.254 120.911 52.4436 121.31 53.6325C122.936 53.8738 124.508 54.2427 126.053 54.8078C126.223 54.8713 126.393 54.9369 126.561 55.0045C126.73 55.0721 126.898 55.1417 127.065 55.2134C127.232 55.285 127.398 55.3587 127.564 55.4344C127.729 55.5102 127.893 55.5879 128.057 55.6677C128.22 55.7473 128.382 55.829 128.544 55.9127C128.705 55.9964 128.866 56.082 129.025 56.1696C129.184 56.2571 129.342 56.3465 129.5 56.4379C129.657 56.5293 129.813 56.6226 129.968 56.7178C130.123 56.8131 130.276 56.9101 130.429 57.009C130.581 57.108 130.733 57.2088 130.883 57.3114C131.033 57.4139 131.182 57.5183 131.329 57.6246C131.477 57.7308 131.623 57.8388 131.768 57.9487C131.913 58.0584 132.056 58.1699 132.198 58.2831C132.34 58.3964 132.481 58.5114 132.621 58.6281C132.76 58.7448 132.898 58.8632 133.035 58.9832C133.171 59.1032 133.306 59.2248 133.44 59.3482C133.573 59.4715 133.705 59.5965 133.836 59.723C133.966 59.8495 134.095 59.9776 134.223 60.1073C134.35 60.237 134.476 60.3681 134.6 60.5009C134.725 60.6336 134.847 60.7678 134.968 60.9035C135.089 61.0392 135.208 61.1764 135.326 61.315C135.444 61.4536 135.56 61.5936 135.674 61.7351C135.788 61.8765 135.901 62.0193 136.011 62.1634C136.122 62.3076 136.231 62.453 136.338 62.5998C136.445 62.7467 136.551 62.8947 136.655 63.044C136.758 63.1934 136.86 63.3441 136.96 63.4959C137.06 63.6477 137.158 63.8008 137.254 63.955C137.351 64.1092 137.445 64.2646 137.537 64.4211C137.63 64.5776 137.72 64.7352 137.809 64.894C137.898 65.0527 137.984 65.2124 138.069 65.3733C138.154 65.5341 138.237 65.696 138.318 65.8588C138.398 66.0216 138.477 66.1854 138.554 66.3502C141.015 71.6855 141.504 77.8826 139.454 83.432C139.396 83.59 139.338 83.7472 139.277 83.9038C139.216 84.0604 139.154 84.2164 139.09 84.3716C139.026 84.5267 138.96 84.6811 138.893 84.8349C138.825 84.9886 138.756 85.1416 138.685 85.2938C138.614 85.4459 138.541 85.5972 138.467 85.7477C138.392 85.8984 138.316 86.0481 138.239 86.1969C138.161 86.3457 138.082 86.4937 138.001 86.6407C137.92 86.7878 137.837 86.934 137.753 87.0792C137.668 87.2244 137.582 87.3687 137.495 87.512C137.407 87.6553 137.318 87.7975 137.227 87.9388C137.137 88.0801 137.044 88.2204 136.951 88.3595C136.857 88.4988 136.761 88.637 136.664 88.7741C136.567 88.9112 136.469 89.0471 136.369 89.1821C136.269 89.317 136.168 89.4507 136.065 89.5833C135.962 89.716 135.857 89.8474 135.751 89.9777C135.645 90.1079 135.538 90.2369 135.429 90.3649C135.32 90.4927 135.21 90.6193 135.098 90.7447C134.987 90.8701 134.874 90.9943 134.759 91.1171C134.645 91.24 134.529 91.3616 134.412 91.4818C134.294 91.6021 134.176 91.721 134.056 91.8386C133.936 91.9562 133.815 92.0725 133.693 92.1874C133.57 92.3023 133.446 92.4158 133.321 92.5279C133.197 92.6401 133.07 92.7508 132.943 92.8601C132.815 92.9694 132.687 93.0772 132.557 93.1836C132.427 93.2901 132.296 93.395 132.164 93.4985C132.031 93.602 131.898 93.704 131.763 93.8046C131.629 93.905 131.493 94.004 131.357 94.1015C131.22 94.1989 131.082 94.2947 130.943 94.3891C130.804 94.4835 130.664 94.5763 130.524 94.6676C130.383 94.7588 130.241 94.8485 130.098 94.9366C129.955 95.0246 129.811 95.111 129.666 95.1959C129.521 95.2808 129.375 95.3639 129.228 95.4455C128.214 96.0113 127.157 96.4068 126.107 96.8894C126.3 97.6943 126.551 98.4809 126.71 99.2953C126.783 99.677 126.844 100.06 126.895 100.446C126.947 100.831 126.987 101.217 127.017 101.604C127.048 101.992 127.067 102.38 127.076 102.768C127.085 103.156 127.083 103.545 127.071 103.933C127.059 104.322 127.036 104.709 127.003 105.096C126.969 105.483 126.925 105.869 126.871 106.254C126.816 106.639 126.751 107.022 126.676 107.403C126.6 107.784 126.515 108.163 126.419 108.539C126.375 108.71 126.329 108.879 126.281 109.049C126.233 109.218 126.183 109.387 126.131 109.555C126.079 109.723 126.025 109.89 125.969 110.057C125.912 110.224 125.854 110.39 125.794 110.555C125.734 110.72 125.671 110.885 125.607 111.049C125.543 111.212 125.476 111.375 125.408 111.537C125.34 111.7 125.269 111.861 125.197 112.021C125.125 112.182 125.05 112.341 124.974 112.5C124.898 112.658 124.82 112.816 124.74 112.973C124.66 113.129 124.578 113.285 124.494 113.44C124.41 113.594 124.324 113.748 124.236 113.9C124.149 114.053 124.059 114.204 123.968 114.355C123.876 114.505 123.783 114.654 123.688 114.802C123.593 114.95 123.496 115.097 123.397 115.243C123.299 115.389 123.198 115.533 123.096 115.676C122.994 115.819 122.89 115.961 122.784 116.102C122.678 116.243 122.571 116.382 122.462 116.52C122.353 116.658 122.242 116.795 122.129 116.93C122.017 117.065 121.903 117.199 121.787 117.332C121.671 117.464 121.554 117.595 121.435 117.725C121.316 117.854 121.195 117.982 121.073 118.109C120.951 118.236 120.827 118.361 120.702 118.484C120.577 118.608 120.45 118.73 120.322 118.851C120.194 118.971 120.064 119.09 119.933 119.207C119.802 119.325 119.669 119.44 119.535 119.554C119.401 119.668 119.266 119.781 119.129 119.891C118.992 120.002 118.854 120.111 118.715 120.218C118.575 120.326 118.435 120.431 118.293 120.535C118.15 120.639 118.007 120.741 117.863 120.842C117.718 120.942 117.572 121.04 117.425 121.137C117.278 121.234 117.13 121.329 116.981 121.422C116.832 121.515 116.681 121.606 116.53 121.696C111.746 124.514 106.762 124.863 101.343 124.601C98.7079 124.473 96.1845 124.228 93.6262 123.563C90.4382 126.366 87.0747 128.758 83.4271 130.928C82.8211 131.275 82.2093 131.611 81.5916 131.936C80.9739 132.261 80.3507 132.576 79.7221 132.879C79.0935 133.183 78.4598 133.476 77.8211 133.757C77.1824 134.039 76.5389 134.31 75.8907 134.569C75.2425 134.828 74.5901 135.076 73.9334 135.313C73.2765 135.549 72.6158 135.775 71.9512 135.988C71.2866 136.202 70.6185 136.404 69.9469 136.595C69.2753 136.785 68.6006 136.964 67.9228 137.131C56.3851 139.919 43.8769 139.952 33.4821 133.591C25.897 128.948 20.8969 121.278 18.8525 112.716C18.2122 110.034 18.0109 107.368 18.0703 104.617C18.2175 97.8096 19.9307 92.7156 23.4744 86.9448C22.4313 86.209 21.3512 85.4929 20.3924 84.6482C16.4254 81.1536 13.7739 76.2741 13.4419 70.9577C13.107 65.5961 14.7063 60.193 18.3095 56.1351C22.1571 51.802 27.4046 49.4279 33.1488 49.1023C33.3421 45.5957 33.9174 42.3251 35.6526 39.2071C37.8902 35.1866 41.4373 31.8439 45.6949 30.0447C46.86 29.5524 48.0894 29.2237 49.3035 28.8773C50.3053 26.5019 51.5766 24.4135 53.2338 22.4365C57.3185 17.5632 63.1211 14.8045 69.4068 14.2529Z"/>
</mask>
<path d="M69.4068 14.2529C69.9843 14.1764 70.615 14.197 71.2 14.1983C71.5927 14.1967 71.9851 14.2056 72.3774 14.2248C72.7696 14.244 73.161 14.2737 73.5517 14.3137C73.9423 14.3537 74.3316 14.404 74.7197 14.4647C75.1077 14.5254 75.4938 14.5964 75.8779 14.6775C76.2622 14.7587 76.644 14.85 77.0233 14.9515C77.4027 15.053 77.7791 15.1644 78.1526 15.2859C78.5261 15.4073 78.8961 15.5386 79.2625 15.6796C79.629 15.8207 79.9915 15.9714 80.35 16.1318C85.6145 18.4873 90.044 22.961 92.1166 28.3668C95.759 28.7107 98.6515 29.3298 102.09 30.5872C104.338 28.131 106.712 26.3944 110.078 25.8402C110.182 25.8224 110.288 25.8059 110.393 25.7906C110.498 25.7754 110.604 25.7615 110.71 25.749C110.815 25.7364 110.921 25.7252 111.027 25.7152C111.133 25.7054 111.239 25.6968 111.345 25.6895C111.452 25.6823 111.558 25.6764 111.664 25.6718C111.77 25.6672 111.877 25.6639 111.983 25.6619C112.09 25.6601 112.196 25.6595 112.303 25.6603C112.409 25.661 112.515 25.6631 112.622 25.6664C112.728 25.6698 112.834 25.6745 112.941 25.6806C113.047 25.6867 113.153 25.6941 113.259 25.7028C113.365 25.7116 113.471 25.7216 113.577 25.7329C113.683 25.7444 113.789 25.7571 113.894 25.771C114 25.7851 114.105 25.8005 114.21 25.8171C114.315 25.8338 114.42 25.8518 114.525 25.871C114.63 25.8903 114.734 25.9109 114.838 25.9328C114.942 25.9548 115.046 25.978 115.15 26.0024C115.253 26.027 115.357 26.0528 115.46 26.0799C115.562 26.107 115.665 26.1353 115.767 26.165C115.869 26.1947 115.971 26.2256 116.073 26.2577C116.174 26.29 116.275 26.3235 116.376 26.3583C116.476 26.393 116.577 26.429 116.676 26.4662C116.776 26.5034 116.875 26.5419 116.974 26.5816C117.073 26.6214 117.171 26.6624 117.269 26.7047C117.366 26.7468 117.464 26.7902 117.56 26.8348C117.657 26.8795 117.753 26.9253 117.848 26.9723C117.944 27.0194 118.039 27.0676 118.133 27.117C118.227 27.1665 118.321 27.2171 118.414 27.2688C118.507 27.3206 118.599 27.3735 118.691 27.4276C118.783 27.4816 118.874 27.5368 118.964 27.5932C119.054 27.6495 119.144 27.707 119.233 27.7657C119.322 27.8242 119.41 27.8839 119.497 27.9446C119.584 28.0055 119.671 28.0674 119.757 28.1303C119.845 28.1933 119.933 28.2574 120.02 28.3227C120.106 28.3878 120.192 28.4541 120.277 28.5214C120.362 28.5887 120.447 28.6571 120.53 28.7266C120.614 28.796 120.696 28.8665 120.778 28.938C120.859 29.0095 120.94 29.0821 121.02 29.1556C121.1 29.2292 121.179 29.3037 121.257 29.3792C121.335 29.4547 121.412 29.5312 121.488 29.6087C121.564 29.6862 121.639 29.7645 121.713 29.8438C121.787 29.9232 121.86 30.0035 121.932 30.0846C122.004 30.1658 122.075 30.2478 122.145 30.3308C122.215 30.4137 122.284 30.4975 122.352 30.5821C122.42 30.6668 122.487 30.7523 122.552 30.8387C122.618 30.925 122.683 31.0122 122.746 31.1002C122.81 31.1881 122.872 31.2768 122.934 31.3663C122.995 31.4559 123.055 31.5462 123.114 31.6372C123.173 31.7282 123.231 31.82 123.288 31.9125C123.345 32.005 123.401 32.0982 123.455 32.1921C123.509 32.286 123.563 32.3806 123.615 32.4758C123.667 32.5711 123.718 32.6669 123.768 32.7633C123.817 32.8599 123.866 32.957 123.913 33.0546C123.96 33.1524 124.006 33.2507 124.051 33.3496C124.096 33.4484 124.139 33.5478 124.182 33.6478C124.224 33.7477 124.265 33.8481 124.305 33.9492C124.344 34.0501 124.383 34.1516 124.42 34.2535C124.457 34.3555 124.493 34.4579 124.528 34.5607C124.563 34.6636 124.596 34.7669 124.628 34.8706C124.66 34.9742 124.691 35.0783 124.72 35.1828C124.75 35.2872 124.778 35.392 124.805 35.4972C124.832 35.6023 124.857 35.7078 124.882 35.8136C124.906 35.9194 124.929 36.0255 124.95 36.1319C124.972 36.2383 124.992 36.3449 125.011 36.4517C125.03 36.5587 125.047 36.6658 125.063 36.7731C125.956 42.3251 123.039 45.9249 119.999 50.115C120.53 51.254 120.911 52.4436 121.31 53.6325C122.936 53.8738 124.508 54.2427 126.053 54.8078C126.223 54.8713 126.393 54.9369 126.561 55.0045C126.73 55.0721 126.898 55.1417 127.065 55.2134C127.232 55.285 127.398 55.3587 127.564 55.4344C127.729 55.5102 127.893 55.5879 128.057 55.6677C128.22 55.7473 128.382 55.829 128.544 55.9127C128.705 55.9964 128.866 56.082 129.025 56.1696C129.184 56.2571 129.342 56.3465 129.5 56.4379C129.657 56.5293 129.813 56.6226 129.968 56.7178C130.123 56.8131 130.276 56.9101 130.429 57.009C130.581 57.108 130.733 57.2088 130.883 57.3114C131.033 57.4139 131.182 57.5183 131.329 57.6246C131.477 57.7308 131.623 57.8388 131.768 57.9487C131.913 58.0584 132.056 58.1699 132.198 58.2831C132.34 58.3964 132.481 58.5114 132.621 58.6281C132.76 58.7448 132.898 58.8632 133.035 58.9832C133.171 59.1032 133.306 59.2248 133.44 59.3482C133.573 59.4715 133.705 59.5965 133.836 59.723C133.966 59.8495 134.095 59.9776 134.223 60.1073C134.35 60.237 134.476 60.3681 134.6 60.5009C134.725 60.6336 134.847 60.7678 134.968 60.9035C135.089 61.0392 135.208 61.1764 135.326 61.315C135.444 61.4536 135.56 61.5936 135.674 61.7351C135.788 61.8765 135.901 62.0193 136.011 62.1634C136.122 62.3076 136.231 62.453 136.338 62.5998C136.445 62.7467 136.551 62.8947 136.655 63.044C136.758 63.1934 136.86 63.3441 136.96 63.4959C137.06 63.6477 137.158 63.8008 137.254 63.955C137.351 64.1092 137.445 64.2646 137.537 64.4211C137.63 64.5776 137.72 64.7352 137.809 64.894C137.898 65.0527 137.984 65.2124 138.069 65.3733C138.154 65.5341 138.237 65.696 138.318 65.8588C138.398 66.0216 138.477 66.1854 138.554 66.3502C141.015 71.6855 141.504 77.8826 139.454 83.432C139.396 83.59 139.338 83.7472 139.277 83.9038C139.216 84.0604 139.154 84.2164 139.09 84.3716C139.026 84.5267 138.96 84.6811 138.893 84.8349C138.825 84.9886 138.756 85.1416 138.685 85.2938C138.614 85.4459 138.541 85.5972 138.467 85.7477C138.392 85.8984 138.316 86.0481 138.239 86.1969C138.161 86.3457 138.082 86.4937 138.001 86.6407C137.92 86.7878 137.837 86.934 137.753 87.0792C137.668 87.2244 137.582 87.3687 137.495 87.512C137.407 87.6553 137.318 87.7975 137.227 87.9388C137.137 88.0801 137.044 88.2204 136.951 88.3595C136.857 88.4988 136.761 88.637 136.664 88.7741C136.567 88.9112 136.469 89.0471 136.369 89.1821C136.269 89.317 136.168 89.4507 136.065 89.5833C135.962 89.716 135.857 89.8474 135.751 89.9777C135.645 90.1079 135.538 90.2369 135.429 90.3649C135.32 90.4927 135.21 90.6193 135.098 90.7447C134.987 90.8701 134.874 90.9943 134.759 91.1171C134.645 91.24 134.529 91.3616 134.412 91.4818C134.294 91.6021 134.176 91.721 134.056 91.8386C133.936 91.9562 133.815 92.0725 133.693 92.1874C133.57 92.3023 133.446 92.4158 133.321 92.5279C133.197 92.6401 133.07 92.7508 132.943 92.8601C132.815 92.9694 132.687 93.0772 132.557 93.1836C132.427 93.2901 132.296 93.395 132.164 93.4985C132.031 93.602 131.898 93.704 131.763 93.8046C131.629 93.905 131.493 94.004 131.357 94.1015C131.22 94.1989 131.082 94.2947 130.943 94.3891C130.804 94.4835 130.664 94.5763 130.524 94.6676C130.383 94.7588 130.241 94.8485 130.098 94.9366C129.955 95.0246 129.811 95.111 129.666 95.1959C129.521 95.2808 129.375 95.3639 129.228 95.4455C128.214 96.0113 127.157 96.4068 126.107 96.8894C126.3 97.6943 126.551 98.4809 126.71 99.2953C126.783 99.677 126.844 100.06 126.895 100.446C126.947 100.831 126.987 101.217 127.017 101.604C127.048 101.992 127.067 102.38 127.076 102.768C127.085 103.156 127.083 103.545 127.071 103.933C127.059 104.322 127.036 104.709 127.003 105.096C126.969 105.483 126.925 105.869 126.871 106.254C126.816 106.639 126.751 107.022 126.676 107.403C126.6 107.784 126.515 108.163 126.419 108.539C126.375 108.71 126.329 108.879 126.281 109.049C126.233 109.218 126.183 109.387 126.131 109.555C126.079 109.723 126.025 109.89 125.969 110.057C125.912 110.224 125.854 110.39 125.794 110.555C125.734 110.72 125.671 110.885 125.607 111.049C125.543 111.212 125.476 111.375 125.408 111.537C125.34 111.7 125.269 111.861 125.197 112.021C125.125 112.182 125.05 112.341 124.974 112.5C124.898 112.658 124.82 112.816 124.74 112.973C124.66 113.129 124.578 113.285 124.494 113.44C124.41 113.594 124.324 113.748 124.236 113.9C124.149 114.053 124.059 114.204 123.968 114.355C123.876 114.505 123.783 114.654 123.688 114.802C123.593 114.95 123.496 115.097 123.397 115.243C123.299 115.389 123.198 115.533 123.096 115.676C122.994 115.819 122.89 115.961 122.784 116.102C122.678 116.243 122.571 116.382 122.462 116.52C122.353 116.658 122.242 116.795 122.129 116.93C122.017 117.065 121.903 117.199 121.787 117.332C121.671 117.464 121.554 117.595 121.435 117.725C121.316 117.854 121.195 117.982 121.073 118.109C120.951 118.236 120.827 118.361 120.702 118.484C120.577 118.608 120.45 118.73 120.322 118.851C120.194 118.971 120.064 119.09 119.933 119.207C119.802 119.325 119.669 119.44 119.535 119.554C119.401 119.668 119.266 119.781 119.129 119.891C118.992 120.002 118.854 120.111 118.715 120.218C118.575 120.326 118.435 120.431 118.293 120.535C118.15 120.639 118.007 120.741 117.863 120.842C117.718 120.942 117.572 121.04 117.425 121.137C117.278 121.234 117.13 121.329 116.981 121.422C116.832 121.515 116.681 121.606 116.53 121.696C111.746 124.514 106.762 124.863 101.343 124.601C98.7079 124.473 96.1845 124.228 93.6262 123.563C90.4382 126.366 87.0747 128.758 83.4271 130.928C82.8211 131.275 82.2093 131.611 81.5916 131.936C80.9739 132.261 80.3507 132.576 79.7221 132.879C79.0935 133.183 78.4598 133.476 77.8211 133.757C77.1824 134.039 76.5389 134.31 75.8907 134.569C75.2425 134.828 74.5901 135.076 73.9334 135.313C73.2765 135.549 72.6158 135.775 71.9512 135.988C71.2866 136.202 70.6185 136.404 69.9469 136.595C69.2753 136.785 68.6006 136.964 67.9228 137.131C56.3851 139.919 43.8769 139.952 33.4821 133.591C25.897 128.948 20.8969 121.278 18.8525 112.716C18.2122 110.034 18.0109 107.368 18.0703 104.617C18.2175 97.8096 19.9307 92.7156 23.4744 86.9448C22.4313 86.209 21.3512 85.4929 20.3924 84.6482C16.4254 81.1536 13.7739 76.2741 13.4419 70.9577C13.107 65.5961 14.7063 60.193 18.3095 56.1351C22.1571 51.802 27.4046 49.4279 33.1488 49.1023C33.3421 45.5957 33.9174 42.3251 35.6526 39.2071C37.8902 35.1866 41.4373 31.8439 45.6949 30.0447C46.86 29.5524 48.0894 29.2237 49.3035 28.8773C50.3053 26.5019 51.5766 24.4135 53.2338 22.4365C57.3185 17.5632 63.1211 14.8045 69.4068 14.2529Z" fill="#FDFDFC"/>
<path d="M69.4068 14.2529C69.9843 14.1764 70.615 14.197 71.2 14.1983C71.5927 14.1967 71.9851 14.2056 72.3774 14.2248C72.7696 14.244 73.161 14.2737 73.5517 14.3137C73.9423 14.3537 74.3316 14.404 74.7197 14.4647C75.1077 14.5254 75.4938 14.5964 75.8779 14.6775C76.2622 14.7587 76.644 14.85 77.0233 14.9515C77.4027 15.053 77.7791 15.1644 78.1526 15.2859C78.5261 15.4073 78.8961 15.5386 79.2625 15.6796C79.629 15.8207 79.9915 15.9714 80.35 16.1318C85.6145 18.4873 90.044 22.961 92.1166 28.3668C95.759 28.7107 98.6515 29.3298 102.09 30.5872C104.338 28.131 106.712 26.3944 110.078 25.8402C110.182 25.8224 110.288 25.8059 110.393 25.7906C110.498 25.7754 110.604 25.7615 110.71 25.749C110.815 25.7364 110.921 25.7252 111.027 25.7152C111.133 25.7054 111.239 25.6968 111.345 25.6895C111.452 25.6823 111.558 25.6764 111.664 25.6718C111.77 25.6672 111.877 25.6639 111.983 25.6619C112.09 25.6601 112.196 25.6595 112.303 25.6603C112.409 25.661 112.515 25.6631 112.622 25.6664C112.728 25.6698 112.834 25.6745 112.941 25.6806C113.047 25.6867 113.153 25.6941 113.259 25.7028C113.365 25.7116 113.471 25.7216 113.577 25.7329C113.683 25.7444 113.789 25.7571 113.894 25.771C114 25.7851 114.105 25.8005 114.21 25.8171C114.315 25.8338 114.42 25.8518 114.525 25.871C114.63 25.8903 114.734 25.9109 114.838 25.9328C114.942 25.9548 115.046 25.978 115.15 26.0024C115.253 26.027 115.357 26.0528 115.46 26.0799C115.562 26.107 115.665 26.1353 115.767 26.165C115.869 26.1947 115.971 26.2256 116.073 26.2577C116.174 26.29 116.275 26.3235 116.376 26.3583C116.476 26.393 116.577 26.429 116.676 26.4662C116.776 26.5034 116.875 26.5419 116.974 26.5816C117.073 26.6214 117.171 26.6624 117.269 26.7047C117.366 26.7468 117.464 26.7902 117.56 26.8348C117.657 26.8795 117.753 26.9253 117.848 26.9723C117.944 27.0194 118.039 27.0676 118.133 27.117C118.227 27.1665 118.321 27.2171 118.414 27.2688C118.507 27.3206 118.599 27.3735 118.691 27.4276C118.783 27.4816 118.874 27.5368 118.964 27.5932C119.054 27.6495 119.144 27.707 119.233 27.7657C119.322 27.8242 119.41 27.8839 119.497 27.9446C119.584 28.0055 119.671 28.0674 119.757 28.1303C119.845 28.1933 119.933 28.2574 120.02 28.3227C120.106 28.3878 120.192 28.4541 120.277 28.5214C120.362 28.5887 120.447 28.6571 120.53 28.7266C120.614 28.796 120.696 28.8665 120.778 28.938C120.859 29.0095 120.94 29.0821 121.02 29.1556C121.1 29.2292 121.179 29.3037 121.257 29.3792C121.335 29.4547 121.412 29.5312 121.488 29.6087C121.564 29.6862 121.639 29.7645 121.713 29.8438C121.787 29.9232 121.86 30.0035 121.932 30.0846C122.004 30.1658 122.075 30.2478 122.145 30.3308C122.215 30.4137 122.284 30.4975 122.352 30.5821C122.42 30.6668 122.487 30.7523 122.552 30.8387C122.618 30.925 122.683 31.0122 122.746 31.1002C122.81 31.1881 122.872 31.2768 122.934 31.3663C122.995 31.4559 123.055 31.5462 123.114 31.6372C123.173 31.7282 123.231 31.82 123.288 31.9125C123.345 32.005 123.401 32.0982 123.455 32.1921C123.509 32.286 123.563 32.3806 123.615 32.4758C123.667 32.5711 123.718 32.6669 123.768 32.7633C123.817 32.8599 123.866 32.957 123.913 33.0546C123.96 33.1524 124.006 33.2507 124.051 33.3496C124.096 33.4484 124.139 33.5478 124.182 33.6478C124.224 33.7477 124.265 33.8481 124.305 33.9492C124.344 34.0501 124.383 34.1516 124.42 34.2535C124.457 34.3555 124.493 34.4579 124.528 34.5607C124.563 34.6636 124.596 34.7669 124.628 34.8706C124.66 34.9742 124.691 35.0783 124.72 35.1828C124.75 35.2872 124.778 35.392 124.805 35.4972C124.832 35.6023 124.857 35.7078 124.882 35.8136C124.906 35.9194 124.929 36.0255 124.95 36.1319C124.972 36.2383 124.992 36.3449 125.011 36.4517C125.03 36.5587 125.047 36.6658 125.063 36.7731C125.956 42.3251 123.039 45.9249 119.999 50.115C120.53 51.254 120.911 52.4436 121.31 53.6325C122.936 53.8738 124.508 54.2427 126.053 54.8078C126.223 54.8713 126.393 54.9369 126.561 55.0045C126.73 55.0721 126.898 55.1417 127.065 55.2134C127.232 55.285 127.398 55.3587 127.564 55.4344C127.729 55.5102 127.893 55.5879 128.057 55.6677C128.22 55.7473 128.382 55.829 128.544 55.9127C128.705 55.9964 128.866 56.082 129.025 56.1696C129.184 56.2571 129.342 56.3465 129.5 56.4379C129.657 56.5293 129.813 56.6226 129.968 56.7178C130.123 56.8131 130.276 56.9101 130.429 57.009C130.581 57.108 130.733 57.2088 130.883 57.3114C131.033 57.4139 131.182 57.5183 131.329 57.6246C131.477 57.7308 131.623 57.8388 131.768 57.9487C131.913 58.0584 132.056 58.1699 132.198 58.2831C132.34 58.3964 132.481 58.5114 132.621 58.6281C132.76 58.7448 132.898 58.8632 133.035 58.9832C133.171 59.1032 133.306 59.2248 133.44 59.3482C133.573 59.4715 133.705 59.5965 133.836 59.723C133.966 59.8495 134.095 59.9776 134.223 60.1073C134.35 60.237 134.476 60.3681 134.6 60.5009C134.725 60.6336 134.847 60.7678 134.968 60.9035C135.089 61.0392 135.208 61.1764 135.326 61.315C135.444 61.4536 135.56 61.5936 135.674 61.7351C135.788 61.8765 135.901 62.0193 136.011 62.1634C136.122 62.3076 136.231 62.453 136.338 62.5998C136.445 62.7467 136.551 62.8947 136.655 63.044C136.758 63.1934 136.86 63.3441 136.96 63.4959C137.06 63.6477 137.158 63.8008 137.254 63.955C137.351 64.1092 137.445 64.2646 137.537 64.4211C137.63 64.5776 137.72 64.7352 137.809 64.894C137.898 65.0527 137.984 65.2124 138.069 65.3733C138.154 65.5341 138.237 65.696 138.318 65.8588C138.398 66.0216 138.477 66.1854 138.554 66.3502C141.015 71.6855 141.504 77.8826 139.454 83.432C139.396 83.59 139.338 83.7472 139.277 83.9038C139.216 84.0604 139.154 84.2164 139.09 84.3716C139.026 84.5267 138.96 84.6811 138.893 84.8349C138.825 84.9886 138.756 85.1416 138.685 85.2938C138.614 85.4459 138.541 85.5972 138.467 85.7477C138.392 85.8984 138.316 86.0481 138.239 86.1969C138.161 86.3457 138.082 86.4937 138.001 86.6407C137.92 86.7878 137.837 86.934 137.753 87.0792C137.668 87.2244 137.582 87.3687 137.495 87.512C137.407 87.6553 137.318 87.7975 137.227 87.9388C137.137 88.0801 137.044 88.2204 136.951 88.3595C136.857 88.4988 136.761 88.637 136.664 88.7741C136.567 88.9112 136.469 89.0471 136.369 89.1821C136.269 89.317 136.168 89.4507 136.065 89.5833C135.962 89.716 135.857 89.8474 135.751 89.9777C135.645 90.1079 135.538 90.2369 135.429 90.3649C135.32 90.4927 135.21 90.6193 135.098 90.7447C134.987 90.8701 134.874 90.9943 134.759 91.1171C134.645 91.24 134.529 91.3616 134.412 91.4818C134.294 91.6021 134.176 91.721 134.056 91.8386C133.936 91.9562 133.815 92.0725 133.693 92.1874C133.57 92.3023 133.446 92.4158 133.321 92.5279C133.197 92.6401 133.07 92.7508 132.943 92.8601C132.815 92.9694 132.687 93.0772 132.557 93.1836C132.427 93.2901 132.296 93.395 132.164 93.4985C132.031 93.602 131.898 93.704 131.763 93.8046C131.629 93.905 131.493 94.004 131.357 94.1015C131.22 94.1989 131.082 94.2947 130.943 94.3891C130.804 94.4835 130.664 94.5763 130.524 94.6676C130.383 94.7588 130.241 94.8485 130.098 94.9366C129.955 95.0246 129.811 95.111 129.666 95.1959C129.521 95.2808 129.375 95.3639 129.228 95.4455C128.214 96.0113 127.157 96.4068 126.107 96.8894C126.3 97.6943 126.551 98.4809 126.71 99.2953C126.783 99.677 126.844 100.06 126.895 100.446C126.947 100.831 126.987 101.217 127.017 101.604C127.048 101.992 127.067 102.38 127.076 102.768C127.085 103.156 127.083 103.545 127.071 103.933C127.059 104.322 127.036 104.709 127.003 105.096C126.969 105.483 126.925 105.869 126.871 106.254C126.816 106.639 126.751 107.022 126.676 107.403C126.6 107.784 126.515 108.163 126.419 108.539C126.375 108.71 126.329 108.879 126.281 109.049C126.233 109.218 126.183 109.387 126.131 109.555C126.079 109.723 126.025 109.89 125.969 110.057C125.912 110.224 125.854 110.39 125.794 110.555C125.734 110.72 125.671 110.885 125.607 111.049C125.543 111.212 125.476 111.375 125.408 111.537C125.34 111.7 125.269 111.861 125.197 112.021C125.125 112.182 125.05 112.341 124.974 112.5C124.898 112.658 124.82 112.816 124.74 112.973C124.66 113.129 124.578 113.285 124.494 113.44C124.41 113.594 124.324 113.748 124.236 113.9C124.149 114.053 124.059 114.204 123.968 114.355C123.876 114.505 123.783 114.654 123.688 114.802C123.593 114.95 123.496 115.097 123.397 115.243C123.299 115.389 123.198 115.533 123.096 115.676C122.994 115.819 122.89 115.961 122.784 116.102C122.678 116.243 122.571 116.382 122.462 116.52C122.353 116.658 122.242 116.795 122.129 116.93C122.017 117.065 121.903 117.199 121.787 117.332C121.671 117.464 121.554 117.595 121.435 117.725C121.316 117.854 121.195 117.982 121.073 118.109C120.951 118.236 120.827 118.361 120.702 118.484C120.577 118.608 120.45 118.73 120.322 118.851C120.194 118.971 120.064 119.09 119.933 119.207C119.802 119.325 119.669 119.44 119.535 119.554C119.401 119.668 119.266 119.781 119.129 119.891C118.992 120.002 118.854 120.111 118.715 120.218C118.575 120.326 118.435 120.431 118.293 120.535C118.15 120.639 118.007 120.741 117.863 120.842C117.718 120.942 117.572 121.04 117.425 121.137C117.278 121.234 117.13 121.329 116.981 121.422C116.832 121.515 116.681 121.606 116.53 121.696C111.746 124.514 106.762 124.863 101.343 124.601C98.7079 124.473 96.1845 124.228 93.6262 123.563C90.4382 126.366 87.0747 128.758 83.4271 130.928C82.8211 131.275 82.2093 131.611 81.5916 131.936C80.9739 132.261 80.3507 132.576 79.7221 132.879C79.0935 133.183 78.4598 133.476 77.8211 133.757C77.1824 134.039 76.5389 134.31 75.8907 134.569C75.2425 134.828 74.5901 135.076 73.9334 135.313C73.2765 135.549 72.6158 135.775 71.9512 135.988C71.2866 136.202 70.6185 136.404 69.9469 136.595C69.2753 136.785 68.6006 136.964 67.9228 137.131C56.3851 139.919 43.8769 139.952 33.4821 133.591C25.897 128.948 20.8969 121.278 18.8525 112.716C18.2122 110.034 18.0109 107.368 18.0703 104.617C18.2175 97.8096 19.9307 92.7156 23.4744 86.9448C22.4313 86.209 21.3512 85.4929 20.3924 84.6482C16.4254 81.1536 13.7739 76.2741 13.4419 70.9577C13.107 65.5961 14.7063 60.193 18.3095 56.1351C22.1571 51.802 27.4046 49.4279 33.1488 49.1023C33.3421 45.5957 33.9174 42.3251 35.6526 39.2071C37.8902 35.1866 41.4373 31.8439 45.6949 30.0447C46.86 29.5524 48.0894 29.2237 49.3035 28.8773C50.3053 26.5019 51.5766 24.4135 53.2338 22.4365C57.3185 17.5632 63.1211 14.8045 69.4068 14.2529Z" stroke="white" stroke-width="8" mask="url(#path-4-outside-1_0_5259)"/>
<path d="M70.1731 16.7676C70.4215 16.7567 70.6701 16.7513 70.9188 16.7515C71.1676 16.7517 71.4161 16.7574 71.6646 16.7688C71.913 16.7801 72.161 16.7969 72.4087 16.8195C72.6564 16.8419 72.9035 16.8698 73.1499 16.9033C73.3963 16.9367 73.6419 16.9757 73.8865 17.0203C74.1311 17.0647 74.3747 17.1146 74.6171 17.17C74.8596 17.2254 75.1007 17.2862 75.3405 17.3524C75.5801 17.4186 75.8182 17.4901 76.0548 17.567C76.2913 17.6438 76.526 17.7258 76.7588 17.8132C76.9917 17.9006 77.2225 17.9931 77.4512 18.0908C77.6799 18.1885 77.9063 18.2913 78.1303 18.3991C78.3544 18.5069 78.576 18.6197 78.7951 18.7375C79.0141 18.8552 79.2304 18.9778 79.444 19.1052C79.6575 19.2326 79.8681 19.3647 80.0758 19.5016C80.2835 19.6384 80.488 19.7799 80.6893 19.9259C80.8906 20.0719 81.0886 20.2224 81.2831 20.3773C81.395 20.4643 81.5057 20.5526 81.6154 20.6422C81.7252 20.732 81.8337 20.8231 81.9411 20.9155C82.0485 21.0078 82.1547 21.1015 82.2598 21.1965C82.3649 21.2917 82.4688 21.388 82.5715 21.4857C82.6742 21.5833 82.7756 21.6822 82.8758 21.7824C82.9761 21.8825 83.075 21.9839 83.1727 22.0864C83.2705 22.1891 83.3669 22.293 83.462 22.398C83.5571 22.5031 83.6509 22.6092 83.7434 22.7165C83.8358 22.8239 83.9269 22.9324 84.0166 23.0421C84.1065 23.1517 84.1949 23.2624 84.2818 23.3742C84.3688 23.4861 84.4544 23.599 84.5387 23.713C84.6228 23.8269 84.7056 23.9419 84.787 24.058C84.8683 24.174 84.9481 24.2911 85.0265 24.4091C85.1049 24.527 85.1819 24.646 85.2574 24.7659C85.3329 24.8858 85.4068 25.0067 85.4792 25.1285C85.5517 25.2502 85.6226 25.3729 85.692 25.4965C85.7613 25.62 85.8292 25.7444 85.8955 25.8696C85.9617 25.9948 86.0265 26.1209 86.0896 26.2478C86.1528 26.3746 86.2143 26.5022 86.2743 26.6306C86.3343 26.759 86.3927 26.8881 86.4494 27.0179C86.5062 27.1476 86.5613 27.2782 86.6148 27.4095C86.6684 27.5407 86.7203 27.6725 86.7705 27.805C86.8207 27.9375 86.8692 28.0705 86.9162 28.2042C86.9631 28.338 87.0083 28.4723 87.0518 28.607C87.0955 28.7419 87.1373 28.8773 87.1775 29.0131C87.2177 29.149 87.2562 29.2853 87.293 29.4221C87.3298 29.5589 87.3649 29.6963 87.3983 29.834C87.4317 29.9717 87.4634 30.1097 87.4933 30.2482C87.5232 30.3867 87.5514 30.5256 87.5779 30.6648C87.6044 30.804 87.6292 30.9435 87.6522 31.0833C87.6752 31.2231 87.6964 31.3632 87.716 31.5036C87.7355 31.6439 87.7533 31.7845 87.7693 31.9252C94.1612 31.1889 99.6804 32.253 105.229 35.5162C107.538 33.2779 109.178 29.9138 112.51 29.1297C112.628 29.1022 112.746 29.0776 112.865 29.0559C112.984 29.0342 113.103 29.0156 113.222 28.9998C113.342 28.9841 113.462 28.9713 113.583 28.9616C113.703 28.9518 113.823 28.945 113.944 28.9413C114.065 28.9375 114.185 28.9367 114.306 28.939C114.427 28.9412 114.547 28.9464 114.668 28.9547C114.788 28.9629 114.908 28.9741 115.028 28.9883C115.148 29.0025 115.268 29.0197 115.387 29.0399C115.506 29.06 115.624 29.0831 115.742 29.1091C115.86 29.1352 115.977 29.1641 116.093 29.1959C116.21 29.2277 116.325 29.2625 116.44 29.3002C116.555 29.3378 116.669 29.3783 116.781 29.4215C116.894 29.4647 117.006 29.5107 117.116 29.5595C117.226 29.6083 117.335 29.6599 117.443 29.7142C117.551 29.7684 117.658 29.8252 117.763 29.8848C117.868 29.9444 117.971 30.0065 118.073 30.0711C119.735 31.1143 120.997 32.8471 121.426 34.7666C121.67 35.8588 121.698 37.0718 121.387 38.1535C120.937 39.7203 119.778 41.1621 118.917 42.5348C117.827 44.2891 116.725 46.0366 115.613 47.7771C116.025 48.8139 116.526 49.8141 116.921 50.8596C117.819 53.2352 118.206 55.6906 118.444 58.2073C123.955 58.3772 128.829 59.7344 132.848 63.7458C136.101 66.9928 138.038 71.2928 138.023 75.9164C138.024 76.0572 138.023 76.198 138.02 76.3388C138.018 76.4796 138.013 76.6203 138.007 76.7609C138.001 76.9016 137.993 77.0421 137.983 77.1826C137.973 77.3231 137.962 77.4635 137.949 77.6036C137.935 77.7438 137.92 77.8838 137.904 78.0236C137.887 78.1634 137.868 78.3029 137.848 78.4423C137.828 78.5816 137.806 78.7207 137.783 78.8596C137.759 78.9983 137.734 79.1368 137.706 79.275C137.679 79.4131 137.651 79.5509 137.62 79.6884C137.59 79.8259 137.557 79.9629 137.524 80.0996C137.49 80.2362 137.454 80.3725 137.417 80.5082C137.379 80.644 137.34 80.7793 137.3 80.9142C137.259 81.049 137.217 81.1832 137.173 81.317C137.129 81.4508 137.083 81.584 137.036 81.7165C136.989 81.8491 136.94 81.9811 136.889 82.1126C136.839 82.244 136.786 82.3747 136.732 82.5048C136.679 82.6349 136.623 82.7643 136.566 82.893C136.509 83.0218 136.451 83.1499 136.39 83.2772C136.33 83.4044 136.268 83.5308 136.205 83.6565C136.142 83.7823 136.077 83.9073 136.01 84.0314C135.944 84.1555 135.876 84.2788 135.806 84.4012C135.737 84.5236 135.666 84.6452 135.593 84.7659C135.52 84.8866 135.446 85.0063 135.371 85.1251C135.295 85.244 135.218 85.3618 135.14 85.4788C135.061 85.5956 134.981 85.7115 134.9 85.8265C134.819 85.9414 134.736 86.0553 134.652 86.1682C134.568 86.281 134.482 86.3928 134.395 86.5036C134.308 86.6144 134.22 86.724 134.13 86.8325C134.041 86.941 133.95 87.0485 133.857 87.1548C133.765 87.261 133.671 87.3662 133.576 87.4702C133.481 87.5742 133.385 87.6769 133.288 87.7784C133.19 87.88 133.091 87.9804 132.991 88.0795C130.343 90.7035 126.754 92.4914 123.025 92.8247C121.197 92.9882 119.329 92.8866 117.494 92.8796C120.072 94.7099 121.92 97.1628 122.949 100.162C124.268 104.005 123.766 108.497 121.98 112.103C121.921 112.222 121.86 112.341 121.798 112.459C121.736 112.577 121.672 112.694 121.607 112.811C121.542 112.927 121.475 113.043 121.407 113.158C121.339 113.273 121.269 113.387 121.199 113.5C121.128 113.613 121.056 113.726 120.982 113.837C120.908 113.948 120.834 114.059 120.757 114.169C120.681 114.278 120.603 114.387 120.525 114.494C120.446 114.602 120.365 114.709 120.284 114.815C120.202 114.92 120.119 115.025 120.035 115.129C119.951 115.232 119.866 115.335 119.779 115.437C119.693 115.538 119.605 115.639 119.516 115.738C119.427 115.838 119.336 115.936 119.245 116.033C119.153 116.13 119.061 116.226 118.967 116.321C118.873 116.416 118.778 116.51 118.682 116.603C118.586 116.696 118.489 116.787 118.39 116.877C118.292 116.967 118.192 117.057 118.092 117.144C117.991 117.232 117.89 117.319 117.787 117.404C117.684 117.489 117.58 117.574 117.476 117.656C117.371 117.739 117.265 117.821 117.159 117.901C117.052 117.981 116.944 118.06 116.835 118.138C116.727 118.215 116.617 118.291 116.507 118.366C116.396 118.441 116.285 118.515 116.172 118.587C116.06 118.659 115.947 118.73 115.833 118.799C115.719 118.868 115.604 118.936 115.488 119.003C115.372 119.07 115.256 119.135 115.139 119.198C115.021 119.262 114.903 119.324 114.784 119.385C114.665 119.446 114.546 119.505 114.426 119.563C114.305 119.621 114.184 119.678 114.063 119.733C113.941 119.788 113.818 119.841 113.695 119.893C113.573 119.945 113.449 119.995 113.325 120.044C113.2 120.093 113.076 120.14 112.95 120.186C112.825 120.232 112.699 120.277 112.572 120.319C112.036 120.496 111.491 120.644 110.938 120.761C110.386 120.879 109.828 120.966 109.266 121.023C108.013 121.153 106.731 121.11 105.472 121.101C102.956 121.082 100.393 121.067 97.9189 120.556C97.533 120.48 97.1502 120.391 96.7706 120.288C96.391 120.185 96.0155 120.069 95.644 119.939C95.2726 119.81 94.9062 119.667 94.5449 119.512C94.1835 119.356 93.8281 119.188 93.4787 119.008C92.473 119.871 91.5062 120.777 90.4906 121.629C88.1611 123.582 85.7322 125.402 83.2038 127.09C74.9724 132.371 66.0795 135.544 56.3195 136.361C47.445 137.104 38.4337 135.534 31.4767 129.636C31.2268 129.427 30.9805 129.215 30.7378 128.998C30.4952 128.781 30.2563 128.561 30.0211 128.336C29.786 128.111 29.5548 127.882 29.3275 127.649C29.1001 127.417 28.8768 127.18 28.6577 126.94C28.4384 126.699 28.2233 126.455 28.0124 126.207C27.8015 125.96 27.5949 125.708 27.3926 125.454C27.1903 125.199 26.9924 124.941 26.7988 124.679C26.6053 124.418 26.4163 124.153 26.2318 123.885C26.0473 123.617 25.8675 123.346 25.6924 123.072C25.5172 122.798 25.3467 122.521 25.1808 122.241C25.0151 121.961 24.8541 121.678 24.6981 121.393C24.542 121.107 24.3908 120.819 24.2446 120.528C24.0984 120.238 23.9571 119.945 23.8209 119.649C23.6846 119.354 23.5534 119.056 23.4273 118.756C23.3012 118.456 23.1803 118.154 23.0645 117.85C22.9487 117.546 22.8381 117.24 22.7328 116.933C22.3434 115.759 22.0841 114.556 21.8063 113.353C21.4594 111.85 21.0809 110.394 20.9546 108.85C20.2564 100.311 24.0498 92.9846 29.2284 86.4817C29.9562 85.5678 30.7529 84.7092 31.5101 83.8197C30.531 83.7913 29.5431 83.7761 28.5746 83.6181C25.6395 83.1399 22.7113 81.5894 20.5932 79.5075C20.5068 79.423 20.4215 79.3374 20.3373 79.2508C20.253 79.1642 20.1698 79.0766 20.0876 78.9879C20.0055 78.8993 19.9245 78.8096 19.8445 78.719C19.7646 78.6285 19.6858 78.5369 19.6081 78.4442C19.5304 78.3517 19.4539 78.2582 19.3786 78.1638C19.3032 78.0693 19.229 77.974 19.156 77.8776C19.083 77.7814 19.0111 77.6842 18.9404 77.5861C18.8698 77.4881 18.8003 77.3893 18.7321 77.2896C18.664 77.1898 18.597 77.0893 18.5313 76.9879C18.4656 76.8865 18.4011 76.7843 18.3378 76.6813C18.2746 76.5784 18.2126 76.4747 18.1519 76.3702C18.0912 76.2656 18.0318 76.1604 17.9737 76.0545C17.9156 75.9485 17.8588 75.8418 17.8034 75.7344C17.7479 75.6272 17.6937 75.5192 17.6409 75.4105C17.588 75.3018 17.5365 75.1925 17.4864 75.0826C17.4362 74.9726 17.3874 74.862 17.34 74.7509C17.2926 74.6398 17.2466 74.5281 17.202 74.4159C17.1572 74.3035 17.1139 74.1907 17.072 74.0774C17.0301 73.9641 16.9896 73.8502 16.9505 73.7359C16.9113 73.6215 16.8736 73.5067 16.8374 73.3915C16.8011 73.2762 16.7663 73.1605 16.7328 73.0444C16.6993 72.9283 16.6673 72.8119 16.6367 72.6949C16.6061 72.578 16.577 72.4607 16.5493 72.3432C16.5216 72.2256 16.4953 72.1076 16.4704 71.9894C16.4456 71.871 16.4223 71.7525 16.4005 71.6336C16.3786 71.5148 16.3581 71.3957 16.3391 71.2764C16.3202 71.157 16.3027 71.0375 16.2866 70.9178C16.2706 70.798 16.2561 70.678 16.243 70.5578C16.2299 70.4377 16.2183 70.3175 16.2082 70.1972C16.198 70.0767 16.1894 69.9562 16.1822 69.8356C16.175 69.715 16.1694 69.5942 16.1652 69.4734C16.1609 69.3527 16.1582 69.2319 16.157 69.1111C16.1206 65.284 17.4844 61.5918 20.2043 58.8577C20.3521 58.7071 20.5031 58.5597 20.6572 58.4154C20.8112 58.2712 20.9682 58.1303 21.1283 57.9927C21.2883 57.8552 21.4512 57.721 21.617 57.5904C21.7827 57.4598 21.9512 57.3327 22.1223 57.2092C22.2934 57.0857 22.4672 56.9659 22.6435 56.8499C22.8197 56.7337 22.9983 56.6214 23.1793 56.5129C23.3604 56.4045 23.5436 56.2999 23.729 56.1992C23.9144 56.0984 24.1019 56.0016 24.2915 55.9088C24.4811 55.8161 24.6725 55.7274 24.8659 55.6427C25.0592 55.5582 25.2543 55.4777 25.4511 55.4013C25.6478 55.325 25.8461 55.2529 26.0459 55.1849C26.2457 55.1171 26.4469 55.0535 26.6494 54.9941C26.8519 54.9348 27.0556 54.8797 27.2605 54.829C27.4654 54.7782 27.6713 54.7319 27.878 54.6899C28.0848 54.648 28.2925 54.6104 28.5009 54.5773C28.7093 54.5442 28.9184 54.5155 29.128 54.4912C30.6019 54.3292 32.1017 54.3715 33.5821 54.3754L39.238 54.3844C38.2123 52.4658 37.4861 50.6153 37.2826 48.4302C37.2709 48.3081 37.2606 48.1859 37.2518 48.0636C37.2432 47.9411 37.236 47.8187 37.2303 47.6962C37.2246 47.5736 37.2205 47.451 37.2181 47.3283C37.2155 47.2057 37.2144 47.083 37.2149 46.9603C37.2155 46.8377 37.2176 46.7151 37.2212 46.5924C37.2248 46.4698 37.23 46.3472 37.2367 46.2247C37.2434 46.1022 37.2516 45.9798 37.2614 45.8575C37.2712 45.7352 37.2825 45.6131 37.2953 45.4911C37.3082 45.3691 37.3225 45.2473 37.3385 45.1256C37.3543 45.004 37.3718 44.8826 37.3908 44.7614C37.4097 44.6401 37.4302 44.5192 37.4522 44.3986C37.4742 44.2779 37.4977 44.1574 37.5227 44.0373C37.5478 43.9173 37.5744 43.7975 37.6024 43.6781C37.6304 43.5587 37.66 43.4396 37.691 43.3209C37.722 43.2022 37.7546 43.0839 37.7885 42.966C37.8226 42.8482 37.8581 42.7308 37.8951 42.6138C37.932 42.4968 37.9705 42.3803 38.0104 42.2644C38.0502 42.1483 38.0916 42.0328 38.1344 41.9179C38.1771 41.8029 38.2214 41.6885 38.2671 41.5747C38.3128 41.4607 38.3599 41.3474 38.4084 41.2347C38.457 41.1221 38.5069 41.0101 38.5582 40.8987C38.6096 40.7873 38.6623 40.6765 38.7164 40.5664C38.7706 40.4564 38.8261 40.3469 38.883 40.2382C38.9399 40.1295 38.9981 40.0216 39.0576 39.9144C39.1172 39.8071 39.1781 39.7006 39.2404 39.5949C39.3026 39.4892 39.3662 39.3844 39.4312 39.2803C39.4961 39.1762 39.5623 39.0729 39.6297 38.9704C39.6973 38.868 39.7661 38.7664 39.8362 38.6657C39.9063 38.565 39.9775 38.4652 40.0501 38.3663C40.1227 38.2674 40.1965 38.1694 40.2715 38.0724C40.3466 37.9753 40.4228 37.8792 40.5002 37.784C40.5777 37.6889 40.6564 37.5948 40.7362 37.5016C43.9828 33.6414 48.0032 32.1616 52.911 31.7516C53.5681 28.4179 54.9141 25.2464 57.2485 22.7331C60.6807 19.0381 65.1361 16.9542 70.1731 16.7676Z" fill="black"/>
<path d="M89.8855 32.379C92.2403 32.1462 94.7416 32.3781 97.047 32.8718C102.446 34.0283 107.784 37.1707 110.806 41.8719C114.506 47.6257 115.024 54.5304 113.579 61.0755C111.199 71.8526 104.02 82.3695 97.2915 90.9568C94.8845 94.0285 92.442 97.0303 89.7798 99.8865C88.266 101.511 86.3326 103.997 84.519 105.14C83.6872 105.665 82.7875 105.995 81.825 106.192C80.3126 106.501 78.7277 106.482 77.1901 106.474C72.9778 106.451 68.9083 106.076 64.798 105.129C59.0668 103.79 53.4656 101.194 48.9772 97.3413C44.1946 93.2355 41.2818 88.2937 39.6784 82.231C39.3086 80.8328 38.8952 79.4217 38.7955 77.9726C38.6766 76.2424 39.2248 74.4746 40.0329 72.9599C41.2468 70.6846 43.1783 68.6459 44.8088 66.6477C47.2362 63.6127 49.7207 60.6252 52.2622 57.685C54.9273 54.6286 57.6317 51.5916 60.5482 48.7704C68.0033 41.5589 79.2048 33.1095 89.8855 32.379Z" fill="#FC417F"/>
<path d="M89.9599 34.5457C92.1814 34.4071 94.4974 34.4844 96.6734 34.9748C101.703 36.1082 106.289 39.02 109.051 43.4267C112.421 48.8042 112.51 55.2367 111.131 61.247C110.211 65.2588 108.533 68.9566 106.629 72.5865C101.78 81.8312 95.2952 90.2622 88.3141 97.9918C86.9719 99.4777 84.8734 102.259 83.262 103.254C82.6262 103.647 81.895 103.856 81.1609 103.976C79.974 104.169 78.7111 104.14 77.5109 104.135C76.1696 104.14 74.8297 104.099 73.491 104.014C72.1525 103.928 70.8184 103.798 69.4887 103.622C67.8776 103.379 66.2798 103.069 64.6952 102.69C59.2402 101.248 54.5035 98.9962 50.1815 95.3213C46.0148 91.7784 43.3027 87.0689 41.8834 81.8289C41.5444 80.5768 41.1956 79.258 41.0994 77.9627C41.0066 76.7143 41.2318 75.5359 41.773 74.4074C42.5968 72.689 43.9417 71.1292 45.1345 69.6532C46.3753 68.0908 47.6464 66.5535 48.9478 65.0412C50.7487 62.9151 52.5019 60.7453 54.333 58.6452C58.1338 54.2864 62.1689 50.0233 66.551 46.2422C72.6784 40.9555 81.6859 35.1092 89.9599 34.5457Z" fill="black"/>
<path d="M90.1935 35.1436C92.353 34.9144 94.9494 35.184 97.0395 35.6876C101.632 36.7938 106.026 39.6893 108.504 43.7452C111.687 48.9572 111.954 55.2051 110.548 61.0254C107.554 73.4237 96.9045 87.3445 88.5164 96.8864C87.6168 97.9123 86.7078 98.9297 85.7894 99.9386C84.8996 100.927 84.0731 102.025 82.9163 102.719C80.4907 104.174 72.2875 103.393 69.3879 102.977C67.7199 102.741 66.0698 102.414 64.4378 101.996C63.6743 101.819 62.9032 101.536 62.1587 101.292C57.9465 99.9108 53.9436 97.8184 50.5999 94.8727C46.4989 91.2599 43.7778 86.7119 42.4187 81.4298C42.1051 80.2106 41.7794 78.9325 41.7064 77.6737C41.6983 77.5458 41.6942 77.4178 41.6943 77.2897C41.6945 77.1615 41.6988 77.0335 41.7072 76.9057C41.7157 76.7778 41.7282 76.6503 41.7448 76.5232C41.7615 76.3962 41.7822 76.2698 41.8071 76.1441C41.832 76.0184 41.8609 75.8937 41.8938 75.7698C41.9268 75.6459 41.9637 75.5233 42.0047 75.4018C42.0455 75.2804 42.0903 75.1604 42.139 75.0419C42.1876 74.9234 42.24 74.8065 42.2963 74.6914C43.3129 72.6148 45.0762 70.7083 46.5222 68.9149C49.1431 65.6642 51.8346 62.4119 54.5973 59.2798C57.1499 56.3857 59.7503 53.4647 62.5168 50.7733C69.5284 43.9524 80.0178 35.7848 90.1935 35.1436Z" fill="#FCD946"/>
<path d="M80.6486 47.7689C81.1091 47.719 81.5832 47.7297 82.0462 47.7273C87.3084 47.7015 92.1826 49.4405 95.9477 53.1896C99.4268 56.6539 101.288 61.057 101.27 65.9666C101.241 74.3251 95.583 82.197 90.766 88.6069C87.8218 92.5247 84.6608 96.4025 81.1667 99.85C79.7252 99.2568 78.0265 98.0699 76.6609 97.2463C74.9033 96.205 73.1307 95.1898 71.3431 94.2008C66.2532 91.2467 61.144 88.3264 56.0154 85.4399C52.3487 83.3466 48.6994 81.119 44.9238 79.2311C48.974 73.0258 53.2215 66.8555 58.0176 61.1958C63.9683 54.1735 71.1851 48.5488 80.6486 47.7689Z" fill="black"/>
<path d="M80.5339 48.3654C81.2618 48.2708 82.0745 48.3149 82.8099 48.3359C86.7213 48.4477 90.2353 49.61 93.4492 51.8455C97.0492 54.3499 99.6429 58.5225 100.381 62.8273C101.841 71.3327 96.9339 78.915 92.2572 85.5203C89.622 82.9465 86.7117 80.7186 83.7496 78.5415C82.6999 77.7891 81.6376 77.055 80.5627 76.3391C79.4877 75.6232 78.4008 74.926 77.3021 74.2475C76.2032 73.5688 75.093 72.9093 73.9716 72.2689C72.8501 71.6285 71.718 71.0074 70.5751 70.4057C69.4323 69.8042 68.2795 69.2224 67.1168 68.6604C65.9541 68.0983 64.782 67.5564 63.6005 67.0347C62.4191 66.5129 61.2291 66.0116 60.0305 65.5307C58.832 65.0497 57.6256 64.5894 56.4111 64.1499C57.0213 63.335 57.6858 62.5454 58.3378 61.763C64.0472 54.9139 71.3903 49.1975 80.5339 48.3654Z" fill="#FDFDFC"/>
<path d="M93.6276 59.7212C94.1973 59.7032 94.8021 59.9241 95.2604 60.2541C95.9253 60.7326 96.3581 61.4008 96.4608 62.219C96.687 64.0229 95.4388 66.2302 94.3998 67.6203C93.5341 68.7786 92.6283 69.9117 91.7391 71.0525C90.08 73.1812 88.4661 75.6419 85.5854 76.0574C84.8181 76.0205 84.1177 75.8844 83.4957 75.3922C82.907 74.9264 82.6491 74.2667 82.5706 73.5365C82.2472 70.5282 85.4442 66.6408 87.2857 64.4388C89.0679 62.3076 90.6418 59.9903 93.6276 59.7212Z" fill="black"/>
<path d="M93.1362 60.4488C93.2172 60.4431 93.2988 60.4415 93.3799 60.4389C94.0716 60.4182 94.6183 60.5244 95.1303 61.0264C95.5851 61.4726 95.8414 62.0713 95.8302 62.7124C95.8251 63.005 95.736 63.4598 95.5233 63.6685C95.2031 63.4661 94.9864 62.7777 94.722 62.4656C94.3309 62.0038 93.9097 61.879 93.3251 61.8257L93.219 61.8165C92.2887 61.903 91.6086 62.2355 90.8084 62.6899C90.6023 62.8067 90.3505 62.9932 90.13 63.07C89.9689 63.126 89.8805 63.0508 89.7426 62.9808C89.71 62.7994 89.7436 62.7136 89.8375 62.5597C90.5482 61.3952 91.8675 60.7632 93.1362 60.4488Z" fill="#FDFDFC"/>
<path d="M77.8349 51.0426C78.4734 51.0073 79.0571 51.059 79.6525 51.3206C80.3951 51.647 80.9405 52.2694 81.2109 53.0307C81.5868 54.0885 81.3068 55.3146 80.8262 56.2952C80.048 57.8823 78.7311 59.3204 77.644 60.704C76.4034 62.2829 75.1661 64.0908 73.625 65.3901C72.9698 65.9425 72.2757 66.297 71.467 66.5686C70.6905 66.7072 69.8259 66.6749 69.1395 66.247C68.4786 65.835 68.0593 65.043 67.8902 64.2996C67.5086 62.6232 68.326 60.9589 69.2092 59.5897C70.3153 57.875 73.9918 53.0813 75.4794 52.0144C76.1961 51.5002 76.9798 51.2265 77.8349 51.0426Z" fill="black"/>
<path d="M78.0529 51.72C78.2964 51.6998 78.55 51.708 78.7908 51.75C79.4267 51.8607 80.0382 52.348 80.374 52.886C80.675 53.3677 80.8478 53.9862 80.703 54.5485C80.6461 54.7695 80.565 54.992 80.3655 55.1051C80.0697 54.8909 79.8518 54.065 79.5845 53.722C79.2131 53.2452 78.7689 53.0853 78.185 53.0188L78.0802 53.0078C76.3651 53.0815 75.7912 54.0843 74.6171 54.2541L74.5098 54.1463C74.4871 53.9228 74.5636 53.7877 74.6932 53.6129C75.4673 52.5696 76.7891 51.887 78.0529 51.72Z" fill="#FDFDFC"/>
<path d="M54.8074 66.1616C55.4448 66.4778 56.6177 67.631 57.2134 68.1325C58.7498 69.4259 60.2811 70.7338 61.8909 71.9357C67.4974 76.1217 73.696 79.4856 80.0216 82.4386C82.5154 83.6029 85.0183 84.7928 87.6741 85.5464C89.0135 85.9266 90.3093 86.1377 91.6953 86.2101C88.6783 90.3949 85.5826 94.4326 81.9493 98.1122C81.6088 98.446 81.2938 98.7854 80.9887 99.1521C78.0465 97.3055 74.9778 95.628 71.9689 93.8923C67.5742 91.3329 63.165 88.7989 58.7411 86.2904C54.4438 83.8652 50.096 81.4942 45.8506 78.9813C46.3789 78.0628 47.0102 77.1761 47.5947 76.2914C49.1149 74.0017 50.6902 71.7505 52.3205 69.5378C53.1492 68.4142 54.0231 67.3164 54.8074 66.1616Z" fill="#7683FA"/>
<path d="M56.0215 64.5854C56.7578 64.7413 57.5848 65.2305 58.3108 65.493C68.2373 69.0818 78.6458 75.2364 86.9228 81.7442C88.0687 82.645 90.357 84.3526 91.2042 85.4694C91.0241 85.5553 90.6321 85.4734 90.4218 85.456C86.7926 85.4438 75.62 79.7732 72.1563 77.8231C69.0983 76.1079 66.1341 74.2439 63.2634 72.231C60.3518 70.1647 57.9241 67.7914 55.1377 65.6579L56.0215 64.5854Z" fill="#7683FA"/>
<path d="M95.5601 37.7574C95.5757 37.7557 95.5912 37.7535 95.6068 37.7526C97.4861 37.6444 99.5039 38.4309 100.937 39.6212C102.311 40.7616 103.407 42.5693 103.557 44.3709C103.563 44.449 103.568 44.5271 103.571 44.6053C103.574 44.6836 103.575 44.762 103.574 44.8404C103.573 44.9186 103.57 44.9969 103.565 45.0751C103.56 45.1533 103.553 45.2313 103.545 45.3091C103.536 45.387 103.525 45.4646 103.513 45.5419C103.5 45.6191 103.485 45.6961 103.469 45.7727C103.452 45.8493 103.434 45.9254 103.414 46.0012C103.394 46.0768 103.371 46.1519 103.347 46.2265C103.323 46.3011 103.298 46.375 103.27 46.4482C103.242 46.5215 103.213 46.5941 103.182 46.6659C103.15 46.7377 103.117 46.8087 103.082 46.879C103.048 46.9491 103.011 47.0183 102.973 47.0866C102.934 47.1551 102.895 47.2225 102.853 47.2888C102.811 47.3551 102.768 47.4204 102.723 47.4847C102.678 47.5488 102.632 47.6119 102.584 47.6738C102.536 47.7357 102.486 47.7964 102.435 47.8558C101.281 49.178 99.6472 49.6504 97.9511 49.7562C95.9031 49.7791 93.8981 49.2251 92.2662 47.9504C91.0008 46.9622 89.9093 45.4299 89.7175 43.8042C89.561 42.4769 89.9509 41.0742 90.797 40.0371C91.9621 38.6089 93.7745 37.938 95.5601 37.7574Z" fill="black"/>
<path d="M95.6328 38.3526C97.3622 38.2389 99.1847 38.9259 100.491 40.0422C101.747 41.1157 102.855 42.7604 102.953 44.4523C102.957 44.5247 102.96 44.5971 102.96 44.6697C102.961 44.7422 102.959 44.8146 102.956 44.8871C102.953 44.9596 102.948 45.0319 102.941 45.1042C102.934 45.1764 102.926 45.2483 102.915 45.3201C102.905 45.3919 102.892 45.4633 102.878 45.5345C102.864 45.6056 102.848 45.6763 102.83 45.7466C102.813 45.817 102.793 45.8868 102.772 45.9561C102.751 46.0254 102.727 46.0942 102.703 46.1623C102.678 46.2305 102.651 46.298 102.623 46.3648C102.595 46.4316 102.565 46.4977 102.534 46.563C102.502 46.6283 102.469 46.6927 102.434 46.7564C102.399 46.8199 102.363 46.8826 102.325 46.9443C102.287 47.0061 102.247 47.0669 102.206 47.1266C102.165 47.1864 102.122 47.2451 102.078 47.3026C102.034 47.3602 101.988 47.4166 101.942 47.4719C101.895 47.5272 101.846 47.5812 101.796 47.634C100.749 48.7496 99.2476 49.1143 97.773 49.1711C95.9514 49.1461 94.2596 48.6112 92.7925 47.5138C91.5703 46.5993 90.5417 45.2585 90.3488 43.7064C90.2033 42.5344 90.5874 41.3195 91.3331 40.4108C92.4009 39.1098 94.0017 38.5178 95.6328 38.3526Z" fill="#7683FA"/>
<path d="M38.6648 81.2065C38.9314 81.6088 39.4598 84.033 39.6926 84.7323C39.7854 85.0125 39.8826 85.2912 39.984 85.5685C40.0853 85.8457 40.1909 86.1214 40.3007 86.3954C40.4106 86.6694 40.5246 86.9417 40.6427 87.2122C40.761 87.4828 40.8833 87.7514 41.0097 88.0182C41.1362 88.2849 41.2667 88.5497 41.4013 88.8125C41.5359 89.0751 41.6744 89.3358 41.817 89.5943C41.9595 89.8528 42.106 90.1091 42.2564 90.3631C42.4069 90.6171 42.5613 90.8687 42.7194 91.1179C42.8775 91.3672 43.0394 91.614 43.2052 91.8583C43.3709 92.1026 43.5404 92.3443 43.7135 92.5834C43.8867 92.8225 44.0635 93.059 44.2439 93.2926C44.4243 93.5262 44.6082 93.7571 44.7957 93.9852C44.9832 94.2132 45.1741 94.4383 45.3686 94.6604C45.563 94.8826 45.7608 95.1017 45.9619 95.3178C46.163 95.5339 46.3674 95.7469 46.5751 95.9567C46.7828 96.1665 46.9936 96.3731 47.2075 96.5765C55.8145 104.725 67.5404 107.442 79.1062 107.119C81.0137 107.066 82.868 106.809 84.5681 105.886C86.318 104.936 87.6393 103.154 88.9644 101.701C89.9391 100.632 90.9567 99.6034 91.9097 98.5148C92.9998 97.2696 94.032 95.9643 95.1693 94.762C95.143 95.996 94.9618 96.9953 94.3124 98.0633C93.2321 99.84 91.3797 101.349 89.9273 102.837L79.1264 113.691C77.7865 114.978 76.4697 116.305 75.161 117.624C74.3807 118.411 73.6487 119.255 72.7962 119.966C67.2041 124.629 59.1731 127.431 51.9371 127.796C44.3116 128.181 36.4055 125.972 30.6871 120.762C26.9833 117.387 24.601 112.684 24.3845 107.653C23.9209 96.8804 31.8937 88.5665 38.6648 81.2065Z" fill="#7683FA"/>
<path d="M36.3521 109.472C39.9162 109.294 45.2169 111.877 48.088 113.946C50.0014 115.325 53.1494 117.859 53.488 120.307C53.5655 120.868 53.469 121.498 53.1028 121.947C52.6247 122.533 51.8589 122.587 51.1622 122.643C47.2487 122.663 43.1691 120.796 39.9907 118.583C37.8555 117.097 34.348 114.381 33.9295 111.717C33.8563 111.25 33.9058 110.792 34.1988 110.408C34.7001 109.75 35.5789 109.568 36.3521 109.472Z" fill="black"/>
<path d="M36.2062 110.13C39.0004 109.949 41.976 111.214 44.4294 112.457C47.1514 113.836 51.9301 117.099 52.833 120.072C52.9474 120.449 52.9885 120.873 52.7861 121.228C52.5224 121.691 52 121.874 51.5162 122.004C48.5587 122.276 45.3929 120.9 42.8172 119.536C40.2162 118.16 35.4821 114.923 34.6713 112.051C34.5632 111.669 34.5556 111.267 34.775 110.921C35.0923 110.42 35.6623 110.252 36.2062 110.13Z" fill="#FDFDFC"/>
<path d="M59.8186 111.347C63.1506 111.305 66.8994 112.533 69.4153 114.756C70.3394 115.572 71.3246 116.674 71.3677 117.973C71.384 118.465 71.2344 118.914 70.894 119.273C70.0694 120.144 68.7026 120.321 67.5673 120.359C64.3826 120.3 60.8495 119.106 58.3265 117.145C57.2751 116.327 56.0544 115.129 55.9212 113.732C55.8737 113.233 56.0107 112.782 56.3508 112.411C57.1862 111.5 58.6655 111.396 59.8186 111.347Z" fill="black"/>
<path d="M59.0824 112.012C61.7258 111.645 65.0575 112.675 67.2961 114.041C68.5402 114.8 70.3733 116.122 70.7038 117.649C70.7838 118.018 70.7548 118.397 70.5329 118.712C70.1021 119.325 69.1217 119.559 68.4185 119.67C65.3173 120.079 61.3441 118.622 58.8825 116.785C57.9972 116.124 56.6907 114.96 56.5561 113.795C56.5193 113.476 56.6057 113.183 56.808 112.933C57.3474 112.268 58.285 112.116 59.0824 112.012Z" fill="#FCD946"/>
<path d="M30.327 95.5734C32.2422 95.4503 34.2314 96.0862 35.9314 96.9196C38.2125 98.038 40.9844 100.04 41.7946 102.581C41.9904 103.196 42.0514 103.882 41.732 104.467C41.309 105.242 40.5241 105.526 39.7252 105.738C37.3245 106.14 34.5556 104.991 32.5729 103.738C30.6797 102.542 28.5042 100.502 28.0386 98.2113C27.9242 97.6485 27.9431 97.0717 28.2851 96.5888C28.7585 95.9206 29.5607 95.6946 30.327 95.5734Z" fill="black"/>
<path d="M30.6931 96.1776C32.8662 96.1448 35.1703 97.1138 36.9887 98.2335C38.6376 99.2488 40.8289 101.067 41.2531 103.073C41.3439 103.501 41.3105 103.92 41.0458 104.282C40.6069 104.883 39.8499 105.07 39.1549 105.168C36.7119 105.331 33.9841 104.086 32.0717 102.653C30.3684 101.377 28.887 99.7287 28.5801 97.5634C28.6823 97.32 28.799 97.0588 28.969 96.8553C29.415 96.3212 30.0485 96.2562 30.6931 96.1776Z" fill="#FCD946"/>
<path d="M59.979 106.393C61.6995 106.308 64.6633 106.969 66.489 107.215C67.9255 107.409 69.4529 107.448 70.8604 107.783C71.3624 107.902 71.7264 108.12 71.9885 108.577C72.0172 108.627 72.0433 108.677 72.0669 108.729C72.0905 108.781 72.1115 108.834 72.1297 108.889C72.1479 108.943 72.1634 108.998 72.176 109.053C72.1888 109.109 72.1986 109.165 72.2056 109.222C72.2126 109.279 72.2167 109.336 72.218 109.393C72.2192 109.45 72.2175 109.507 72.2131 109.564C72.2086 109.621 72.2012 109.677 72.1909 109.733C72.1807 109.79 72.1676 109.845 72.1518 109.9C71.9641 110.544 71.4188 110.905 70.8576 111.198C69.7615 111.319 61.0789 110.107 60.0419 109.753C59.5205 109.575 58.9975 109.257 58.7679 108.733C58.5789 108.302 58.6061 107.752 58.8017 107.328C59.0382 106.814 59.4734 106.584 59.979 106.393Z" fill="black"/>
<path d="M60.1078 106.981C61.3105 106.954 62.7926 107.307 64.0101 107.478C65.995 107.758 67.9912 107.98 69.9729 108.275C70.5048 108.354 71.1152 108.39 71.4442 108.879C71.5849 109.088 71.6232 109.346 71.5676 109.59C71.4614 110.056 71.1923 110.316 70.798 110.555C69.7126 110.676 68.3748 110.364 67.2819 110.222C65.1402 109.945 62.9731 109.695 60.8507 109.295C60.3951 109.21 59.6158 109.1 59.3733 108.653C59.2293 108.387 59.2318 108.121 59.3216 107.837C59.4652 107.384 59.7035 107.205 60.1078 106.981Z" fill="#FDFDFC"/>
<path d="M38.3982 88.9821C38.7528 88.9623 39.0854 88.9633 39.403 89.1445C39.7404 89.3371 39.9721 89.6699 40.1807 89.9884C40.8868 91.0665 41.4468 92.2746 42.0763 93.4012C42.8911 94.8593 44.6268 97.525 45.0516 98.9684C44.9875 99.2263 44.928 99.4977 44.8164 99.7396C44.5535 100.309 44.1333 100.589 43.5567 100.79C43.2616 100.8 42.9664 100.788 42.6838 100.694C42.4021 100.601 42.1327 100.434 41.9459 100.201C41.1582 99.2158 40.5765 97.8697 39.9603 96.7632C39.0886 95.1976 38.1258 93.6501 37.3414 92.0396C37.0665 91.4751 36.7336 90.7718 36.9794 90.1495C37.2287 89.5179 37.8085 89.2227 38.3982 88.9821Z" fill="black"/>
<path d="M38.5476 89.5684C38.6928 89.577 38.8285 89.5876 38.9652 89.6417C39.1834 89.7279 39.3262 89.8791 39.4586 90.0686C39.839 90.6131 40.1368 91.2443 40.4561 91.8274L42.1748 94.9467C42.8564 96.1777 43.8195 97.5653 44.3243 98.8586C44.3984 99.0487 44.3933 99.2138 44.2969 99.3944C44.1169 99.7326 43.805 99.9141 43.4553 100.035C43.2564 100.037 42.9883 100.064 42.8014 99.9894C42.5905 99.9048 42.4915 99.7972 42.3636 99.6184C41.7433 98.7506 41.274 97.7034 40.7422 96.7724C39.7588 95.0501 38.6341 93.3239 37.8167 91.5194C37.631 91.1097 37.466 90.7399 37.6579 90.2954C37.8298 89.8972 38.1623 89.7164 38.5476 89.5684Z" fill="#FDFDFC"/>
<path d="M118.429 58.8628C122.828 58.8583 127.079 59.9819 130.634 62.6503C134.164 65.3005 136.594 69.1698 137.219 73.5502C137.239 73.6863 137.257 73.8226 137.274 73.9592C137.291 74.0956 137.306 74.2323 137.319 74.3693C137.333 74.5062 137.345 74.6432 137.355 74.7803C137.365 74.9176 137.373 75.0549 137.379 75.1923C137.386 75.3297 137.391 75.4672 137.394 75.6046C137.397 75.7422 137.398 75.8798 137.398 76.0173C137.398 76.1549 137.396 76.2924 137.392 76.43C137.388 76.5675 137.383 76.7049 137.376 76.8422C137.369 76.9796 137.36 77.1169 137.349 77.254C137.338 77.3912 137.326 77.5282 137.312 77.6651C137.298 77.8019 137.282 77.9386 137.265 78.0751C137.248 78.2115 137.228 78.3477 137.208 78.4837C137.187 78.6197 137.164 78.7553 137.14 78.8907C137.116 79.0262 137.09 79.1613 137.063 79.2961C137.035 79.4308 137.006 79.5652 136.975 79.6992C136.944 79.8333 136.911 79.9669 136.877 80.1001C136.843 80.2333 136.807 80.3661 136.769 80.4984C136.732 80.6308 136.693 80.7627 136.652 80.894C136.611 81.0253 136.568 81.1561 136.524 81.2864C136.48 81.4167 136.434 81.5464 136.387 81.6756C136.34 81.8048 136.291 81.9334 136.24 82.0613C136.189 82.1892 136.137 82.3164 136.084 82.443C136.03 82.5697 135.975 82.6957 135.918 82.8209C135.861 82.9461 135.802 83.0706 135.742 83.1944C135.682 83.3183 135.621 83.4413 135.558 83.5635C135.495 83.6858 135.43 83.8073 135.364 83.9279C135.298 84.0485 135.23 84.1683 135.161 84.2872C135.092 84.4062 135.022 84.5243 134.95 84.6415C134.878 84.7587 134.804 84.8749 134.729 84.9904C134.654 85.1057 134.578 85.2201 134.5 85.3336C134.422 85.447 134.343 85.5595 134.263 85.671C134.182 85.7824 134.1 85.8929 134.017 86.0024C131.369 89.4897 127.508 91.6037 123.202 92.1799C121.033 92.3861 118.784 92.2818 116.605 92.2867L104.318 92.2703C105.463 90.6865 106.68 89.1592 107.784 87.5446C109.827 84.4896 111.682 81.3241 113.349 78.0482C114.027 76.7263 114.744 75.4023 115.339 74.0409C117.491 69.1147 118.352 64.2051 118.429 58.8628Z" fill="#7683FA"/>
<path d="M126.478 70.4067C126.501 70.4151 126.524 70.4221 126.547 70.432C126.722 70.5085 126.841 70.6226 126.929 70.7913C127.213 71.341 127.321 72.0324 127.465 72.6326C127.812 74.0853 128.072 75.6497 128.601 77.0455C130.155 77.621 134.259 77.8943 135.277 78.7358C135.463 78.8894 135.507 79.0228 135.534 79.2556C134.983 80.0076 129.841 80.5944 128.605 81.0018C128.576 81.0114 128.547 81.0216 128.519 81.0314C128.28 81.6159 128.178 82.2589 128.036 82.8724C127.708 84.2882 127.384 85.9631 126.856 87.3058C126.747 87.5825 126.666 87.6469 126.392 87.7561C126.355 87.7383 126.317 87.7216 126.28 87.7025C126.093 87.6062 126.028 87.4682 125.957 87.2796C125.667 86.5054 125.554 85.6065 125.363 84.7973C125.065 83.5319 124.709 82.2766 124.372 81.0211C122.914 80.5103 118.212 79.9165 117.411 79.2909C117.254 79.1684 117.21 79.0932 117.187 78.8999C117.797 77.9961 123.354 77.7624 124.255 76.9411C125.236 76.0474 125.19 71.5662 126.478 70.4067Z" fill="black"/>
<path d="M126.476 71.4849C126.878 72.7325 127.418 76.3353 128 77.2118C128.166 77.4629 128.393 77.6282 128.669 77.7434C129.295 78.0044 130.096 78.092 130.76 78.2323L134.946 79.1266C133.866 79.262 128.777 80.0324 128.164 80.4896C127.652 80.8706 126.727 85.4041 126.495 86.3487L126.45 86.4508C126.39 86.3652 125.455 82.5599 125.333 82.0741C125.222 81.6296 125.203 81.0616 124.925 80.6831C124.49 80.0934 119.397 79.2303 118.365 79.0297C119.83 78.7225 123.942 78.0727 124.981 77.3114C125.646 75.7668 126.094 73.1773 126.476 71.4849Z" fill="#FDFDFC"/>
<path d="M111.129 92.8999C112.245 92.8632 113.361 92.846 114.478 92.8484C112.483 95.7159 110.628 98.6719 108.538 101.477C107.378 103.043 106.178 104.577 104.938 106.081C103.699 107.585 102.422 109.057 101.107 110.495C99.7927 111.934 98.442 113.338 97.0552 114.707C95.6685 116.076 94.2475 117.409 92.7924 118.705C90.1816 121.064 87.5187 123.338 84.6252 125.349C76.1712 131.223 66.4906 134.909 56.2132 135.726C52.6092 136.012 48.8876 135.954 45.3238 135.306C37.3727 133.86 31.1275 129.795 26.5263 123.152C25.4469 121.518 24.5607 119.721 23.834 117.905C25.4692 120.496 27.3279 122.687 29.7249 124.598C36.824 130.258 45.8026 132.21 54.7279 131.195C61.7312 130.399 69.5119 127.424 74.9475 122.879C76.8568 121.283 78.5156 119.453 80.2511 117.678C82.3604 115.52 84.5106 113.387 86.6599 111.269C92.7527 105.264 98.4518 99.6237 103.795 92.9078C106.234 92.9731 108.688 92.9081 111.129 92.8999Z" fill="#FC417F"/>
<path d="M31.1024 55.0192C33.8901 54.9418 36.6886 55.0359 39.4778 55.0419L53.6742 55.0471C52.6136 56.3746 51.4499 57.6224 50.3578 58.9248L44.3853 66.1637C42.6392 68.2707 40.5601 70.4753 39.3191 72.9348C38.654 74.2532 38.4741 75.5585 38.0562 76.9397L38.0295 77.0262C37.22 77.7565 36.4911 78.5592 35.7523 79.3595C34.5703 80.5911 33.4434 81.882 32.2126 83.0654C31.9511 83.1023 31.6883 83.1251 31.4243 83.1337C27.7078 83.2677 23.956 81.7831 21.2549 79.2343C21.1705 79.1542 21.087 79.0731 21.0047 78.991C20.9222 78.9089 20.8407 78.8258 20.7604 78.7416C20.68 78.6576 20.6006 78.5724 20.5223 78.4863C20.4441 78.4002 20.3668 78.3132 20.2906 78.2253C20.2145 78.1373 20.1394 78.0484 20.0654 77.9586C19.9915 77.8687 19.9187 77.778 19.8468 77.6863C19.7751 77.5947 19.7046 77.5022 19.6351 77.4089C19.5657 77.3155 19.4974 77.2213 19.4303 77.1263C19.3631 77.0312 19.2972 76.9353 19.2325 76.8387C19.1677 76.742 19.1042 76.6445 19.0418 76.5463C18.9794 76.4481 18.9183 76.3491 18.8583 76.2494C18.7985 76.1496 18.7398 76.0491 18.6823 75.9479C18.6248 75.8467 18.5687 75.7448 18.5138 75.6423C18.4588 75.5397 18.4051 75.4365 18.3527 75.3326C18.3003 75.2287 18.2492 75.1242 18.1994 75.019C18.1496 74.9138 18.1011 74.8081 18.0539 74.7018C18.0067 74.5954 17.9608 74.4885 17.9163 74.381C17.8716 74.2735 17.8284 74.1655 17.7864 74.0569C17.7446 73.9483 17.704 73.8393 17.6648 73.7298C17.6256 73.6203 17.5877 73.5102 17.5512 73.3998C17.5147 73.2892 17.4795 73.1783 17.4458 73.067C17.412 72.9557 17.3796 72.8439 17.3485 72.7317C17.3175 72.6196 17.2879 72.5071 17.2596 72.3942C17.2313 72.2813 17.2045 72.1681 17.1791 72.0546C17.1536 71.941 17.1295 71.8272 17.1069 71.713C17.0842 71.5989 17.0629 71.4845 17.0431 71.3698C17.0233 71.2552 17.0048 71.1403 16.9878 71.0251C16.9708 70.9101 16.9552 70.7948 16.941 70.6792C16.9269 70.5638 16.9141 70.4482 16.9028 70.3323C16.8915 70.2166 16.8817 70.1007 16.8732 69.9846C16.8647 69.8686 16.8577 69.7524 16.8521 69.6362C16.8465 69.5199 16.8423 69.4036 16.8396 69.2873C16.7372 65.4816 18.038 62.087 20.6709 59.3286C23.438 56.4295 27.1583 55.1119 31.1024 55.0192Z" fill="#FDFDFC"/>
<path d="M26.2782 62.1226C26.735 62.9977 26.8388 65.5866 27.3041 66.8675C28.8885 67.3978 30.6191 67.5333 32.2342 67.9897C30.8488 68.2378 29.4159 68.4612 28.0516 68.8018C27.8344 68.8561 27.4481 68.9408 27.3005 69.1225C26.8517 69.6748 26.8169 72.8355 26.3138 73.6718L26.245 73.5612C25.9673 72.0541 25.7479 70.5326 25.4999 69.02C23.7176 68.5472 21.8166 68.5454 20.0381 68.0794C21.8107 67.7069 23.7791 67.5302 25.4657 66.8684C25.9752 65.4899 25.8651 63.6122 26.2782 62.1226Z" fill="#FCD946"/>
<path d="M113.146 46.5972C113.663 47.1764 114.08 47.9268 114.449 48.608C114.659 49.0022 114.857 49.4019 115.044 49.807C115.231 50.2121 115.407 50.6221 115.572 51.037C115.737 51.4518 115.89 51.8708 116.032 52.294C116.173 52.7173 116.303 53.1441 116.422 53.5745C116.54 54.0049 116.646 54.4383 116.74 54.8746C116.835 55.3107 116.917 55.7492 116.987 56.19C117.058 56.6308 117.116 57.0731 117.162 57.5171C117.208 57.9611 117.241 58.406 117.263 58.8518C117.469 62.5718 116.841 66.6996 115.732 70.2512C114.662 73.6798 113.064 76.9297 111.339 80.0705C110.892 80.8927 110.433 81.708 109.961 82.5163C109.489 83.3246 109.005 84.1257 108.509 84.9195C108.013 85.7132 107.505 86.4992 106.986 87.2775C106.466 88.056 105.934 88.8264 105.391 89.5887C104.848 90.351 104.294 91.1049 103.728 91.8505C103.163 92.5962 102.586 93.3331 101.998 94.0612C101.41 94.7894 100.811 95.5085 100.201 96.2186C99.5912 96.9286 98.9709 97.6293 98.34 98.3207C93.8128 103.381 88.9668 108.097 84.1594 112.884C82.3897 114.625 80.6374 116.383 78.9024 118.159C77.4199 119.676 75.9727 121.256 74.351 122.627C68.3096 127.735 59.6035 130.87 51.7379 131.295C43.1378 131.761 34.7415 129.253 28.282 123.458C24.1078 119.712 21.322 114.252 21.0399 108.613C20.6463 100.749 24.152 93.6333 29.0102 87.6688C30.6666 85.6355 32.507 83.7473 34.2669 81.8032C35.2979 80.5756 36.4288 79.3799 37.6048 78.2891C37.6228 79.2388 37.7743 80.1267 37.9757 81.052C37.1339 81.7096 36.3931 82.7168 35.6738 83.5089C33.0241 86.4265 30.4138 89.3081 28.2285 92.6044C24.6612 97.9854 22.1868 104.516 23.5365 111.053C24.701 116.695 28.3322 121.23 33.0776 124.337C40.1564 128.973 49.2907 129.877 57.4289 128.147C57.9959 128.021 58.5598 127.883 59.1205 127.732C59.6811 127.581 60.238 127.417 60.7912 127.24C61.3443 127.064 61.8932 126.875 62.4377 126.673C62.9822 126.471 63.5218 126.257 64.0566 126.031C64.5914 125.804 65.1206 125.566 65.6445 125.315C66.1684 125.065 66.6863 124.803 67.1981 124.528C67.71 124.254 68.2153 123.968 68.714 123.671C69.2129 123.374 69.7047 123.065 70.1894 122.745C71.1673 122.09 72.1772 121.397 73.0571 120.613C73.902 119.86 74.663 118.969 75.4671 118.168L81.4525 112.197C84.2125 109.505 86.9403 106.781 89.636 104.025C91.2097 102.438 93.0817 100.856 94.2912 98.9708C95.1662 97.6076 95.5089 96.1841 95.1551 94.591C97.3315 91.7272 99.6226 88.9444 101.721 86.0232C103.47 83.5873 105.076 80.9999 106.598 78.4189C111.271 70.4968 115.283 61.5498 114.294 52.1212C114.097 50.2439 113.616 48.4205 113.146 46.5972Z" fill="#FC417F"/>
<path d="M53.119 32.3791C54.7984 32.2673 56.5146 32.4873 58.1427 32.8941C62.8512 34.0704 66.4617 36.6873 68.964 40.8386C67.59 41.8906 66.2059 42.9137 64.8729 44.0207C62.1873 46.2763 59.6388 48.6776 57.2274 51.2244C56.6671 51.8093 54.7177 54.1577 54.2356 54.3624C54.1744 54.3884 54.0008 54.3751 53.9269 54.3789L40.0107 54.3854C38.8177 52.3218 38.0578 50.2589 37.8808 47.8642C37.6112 44.213 38.9541 40.5446 41.339 37.7977C44.4449 34.2208 48.4961 32.7035 53.119 32.3791Z" fill="#FC417F"/>
<path d="M49.3905 37.9788C50.9507 37.8509 52.6696 38.4017 53.9016 39.3589C54.958 40.1795 55.723 41.39 55.8664 42.734C55.9954 43.9432 55.5564 45.137 54.7809 46.0564C53.6037 47.4519 51.8971 48.0865 50.1164 48.2336C48.4987 48.3243 46.8547 47.9109 45.566 46.9077C44.521 46.0943 43.7258 44.8866 43.5811 43.5514C43.4549 42.3863 43.8934 41.2001 44.6149 40.2947C45.7958 38.8125 47.5656 38.1926 49.3905 37.9788Z" fill="black"/>
<path d="M48.9533 38.6441C50.3819 38.4849 51.7761 38.7383 53.011 39.4927C54.0454 40.1246 54.8629 41.1384 55.1364 42.3325C55.1511 42.3947 55.1642 42.4574 55.1757 42.5203C55.1871 42.5834 55.197 42.6466 55.2053 42.7101C55.2135 42.7735 55.2201 42.8371 55.2251 42.9009C55.2301 42.9647 55.2335 43.0286 55.2353 43.0926C55.237 43.1566 55.237 43.2206 55.2354 43.2846C55.2338 43.3485 55.2307 43.4124 55.2259 43.4763C55.221 43.5401 55.2145 43.6038 55.2064 43.6672C55.1983 43.7307 55.1886 43.7939 55.1773 43.857C55.166 43.9199 55.153 43.9826 55.1383 44.0449C55.1238 44.1073 55.1076 44.1692 55.0899 44.2306C55.0722 44.2921 55.0529 44.3531 55.0321 44.4137C55.0112 44.4741 54.9888 44.5341 54.9648 44.5934C54.9409 44.6528 54.9155 44.7115 54.8885 44.7696C54.8616 44.8277 54.8332 44.885 54.8033 44.9416C54.7734 44.9981 54.7421 45.0539 54.7093 45.1089C54.6767 45.1639 54.6426 45.218 54.607 45.2713C53.7062 46.6229 52.1705 47.2826 50.6274 47.5739C49.0667 47.7398 47.6108 47.5043 46.2745 46.6382C45.252 45.9752 44.4676 44.9435 44.2317 43.7338C44.0345 42.7223 44.3681 41.6852 44.9544 40.8584C45.9169 39.5011 47.3716 38.9266 48.9533 38.6441Z" fill="#FDFDFC"/>
<path d="M70.4105 17.3657C74.4138 17.3695 78.313 18.6221 81.3817 21.2433C84.5376 23.939 86.7748 27.9118 87.1147 32.0748C80.8399 33.1273 75.1189 36.6011 69.9369 40.1086L69.5058 40.4197C69.1139 39.7963 68.689 39.1961 68.2313 38.6191C67.7736 38.0421 67.2858 37.4918 66.7678 36.9684C63.3208 33.4664 58.4108 31.7772 53.5693 31.7331C54.1789 28.502 55.4791 25.5116 57.7465 23.0869C57.847 22.9773 57.9489 22.8689 58.0522 22.7618C58.1555 22.6547 58.2601 22.5489 58.3661 22.4445C58.4721 22.3401 58.5794 22.237 58.688 22.1352C58.7965 22.0335 58.9064 21.9332 59.0174 21.8342C59.1286 21.7352 59.2409 21.6377 59.3545 21.5415C59.4681 21.4454 59.5828 21.3508 59.6988 21.2577C59.8147 21.1644 59.9318 21.0727 60.0502 20.9824C60.1684 20.8922 60.2878 20.8034 60.4083 20.7162C60.5288 20.6289 60.6505 20.5432 60.7732 20.459C60.8959 20.3749 61.0196 20.2923 61.1443 20.2113C61.2691 20.1302 61.3949 20.0507 61.5217 19.9728C61.6486 19.8951 61.7763 19.8189 61.905 19.7442C62.0337 19.6695 62.1633 19.5965 62.2939 19.5252C62.4245 19.4539 62.5559 19.3842 62.6882 19.3162C62.8205 19.2481 62.9537 19.1818 63.0878 19.1172C63.2217 19.0525 63.3565 18.9896 63.4921 18.9283C63.6276 18.867 63.764 18.8075 63.9012 18.7496C64.0382 18.6918 64.176 18.6358 64.3144 18.5815C64.453 18.5271 64.5922 18.4745 64.7321 18.4237C64.8719 18.3729 65.0124 18.3239 65.1534 18.2767C65.2945 18.2294 65.4361 18.1839 65.5783 18.1403C65.7206 18.0966 65.8634 18.0547 66.0067 18.0146C66.1499 17.9746 66.2937 17.9363 66.4379 17.8999C66.5823 17.8634 66.727 17.8288 66.8721 17.796C67.0172 17.7633 67.1627 17.7323 67.3086 17.7032C67.4545 17.6742 67.6008 17.6469 67.7474 17.6215C67.894 17.5961 68.0409 17.5726 68.188 17.5508C68.3352 17.5291 68.4827 17.5093 68.6304 17.4914C68.7781 17.4735 68.926 17.4574 69.074 17.4431C69.2221 17.4289 69.3704 17.4165 69.5188 17.4061C69.6673 17.3956 69.8158 17.387 69.9644 17.3802C70.1131 17.3735 70.2618 17.3687 70.4105 17.3657Z" fill="#FCD946"/>
<path d="M73.4308 21.9934C73.5309 21.9853 73.6311 21.9793 73.7314 21.9755C73.8317 21.9716 73.9321 21.9699 74.0325 21.9703C74.1329 21.9707 74.2333 21.9732 74.3336 21.9777C74.4339 21.9824 74.534 21.9892 74.634 21.9982C74.734 22.0072 74.8338 22.0182 74.9333 22.0314C75.0328 22.0445 75.132 22.0598 75.2309 22.0771C75.3299 22.0945 75.4283 22.114 75.5263 22.1355C75.6243 22.1571 75.7219 22.1808 75.819 22.2065C75.9161 22.2322 76.0125 22.26 76.1083 22.2899C76.2042 22.3196 76.2994 22.3515 76.394 22.3853C76.4885 22.4192 76.5822 22.4551 76.6752 22.4929C76.7682 22.5308 76.8603 22.5706 76.9516 22.6125C77.0429 22.6542 77.1333 22.6979 77.2228 22.7435C77.3122 22.7891 77.4006 22.8366 77.488 22.886C77.5754 22.9353 77.6618 22.9865 77.7471 23.0396C77.8323 23.0927 77.9164 23.1476 77.9993 23.2041C79.1051 23.9563 79.9796 25.0657 80.2021 26.411C80.4008 27.6121 80.0401 28.8414 79.3264 29.8108C78.1976 31.3438 76.508 31.9954 74.6829 32.2676C72.8957 32.345 71.2529 32.0479 69.7936 30.9511C68.7365 30.1567 67.9551 29.013 67.7958 27.6807C67.6501 26.4633 68.0585 25.2063 68.8214 24.2563C69.9341 22.8709 71.7061 22.1765 73.4308 21.9934Z" fill="black"/>
<path d="M73.7664 22.5942C75.3017 22.5959 76.7501 22.9479 77.9833 23.9052C78.8483 24.5768 79.5023 25.5292 79.6167 26.639C79.7295 27.7326 79.3433 28.8007 78.6568 29.6422C77.5224 31.0324 76.0314 31.4999 74.3069 31.6626C72.7394 31.6871 71.3749 31.4183 70.121 30.422C69.2023 29.692 68.5478 28.6808 68.4295 27.4935C68.321 26.4049 68.6725 25.3594 69.3838 24.5345C70.4799 23.2632 72.1357 22.7021 73.7664 22.5942Z" fill="#FDFDFC"/>
<path d="M115.237 92.8833C115.674 92.8851 116.112 92.9072 116.549 92.9217C117.537 93.5769 118.505 94.387 119.313 95.2536C121.991 98.1295 123.175 101.858 123.018 105.742C122.85 109.922 120.848 113.81 117.778 116.61C113.07 120.905 107.849 120.658 101.926 120.399C99.0264 120.238 96.5944 119.658 93.8994 118.578C95.1664 117.333 96.5038 116.161 97.7655 114.908C100.386 112.266 102.896 109.523 105.296 106.679C108.936 102.328 112.092 97.5948 115.237 92.8833Z" fill="#FDFDFC"/>
<path d="M113.419 29.6106C114.83 29.3732 116.547 29.8328 117.737 30.5918C119.282 31.5771 120.459 33.3378 120.836 35.1251C121.025 36.0239 121.045 37.0108 120.794 37.8995C120.312 39.6018 119.039 41.2149 118.095 42.699C117.158 44.1933 116.208 45.6796 115.246 47.1577C115.011 46.8065 114.753 46.4707 114.501 46.1316C113.965 45.3735 113.295 44.7061 112.78 43.9432C112.287 43.2115 111.923 42.3866 111.444 41.6411C110.009 39.4077 107.983 37.3409 105.735 35.919C106.699 34.9685 107.556 33.9212 108.425 32.8859C109.919 31.1061 111.016 29.9138 113.419 29.6106Z" fill="#7683FA"/>
</g>
<defs>
<clipPath id="clip0_0_5259">
<rect width="153" height="153" fill="white" transform="translate(0.567383)"/>
</clipPath>
</defs>
</svg>
