<svg width="156" height="156" viewBox="0 0 156 156" fill="none" xmlns="http://www.w3.org/2000/svg">
<path d="M17.9817 84.9222C16.4822 84.8984 14.6519 84.3508 12.596 82.4441C9.14637 79.2257 8.62806 73.443 9.83644 67.0062C11.185 59.682 14.7661 51.5143 18.607 45.5589C21.4177 41.2531 24.367 38.097 26.7389 37.2715C32.2852 35.3279 35.2643 38.2309 36.6748 40.5352C36.256 40.9339 35.8023 41.3846 35.4357 41.8183C33.8302 43.5351 32.3817 45.1306 31.1425 46.64C30.4444 47.4554 29.8335 48.2536 29.2749 49.0869C23.7589 56.637 19.5833 66.8218 18.3712 77.7854C18.0728 80.152 17.9139 82.5366 17.9817 84.9222Z" fill="#8B7EE2"/>
<path d="M9.80152 67.0583C8.77424 65.3128 6.19553 62.6494 9.12379 54.4098C12.052 46.1703 18.6243 45.646 18.6243 45.646C14.7312 51.5664 11.185 59.682 9.80152 67.0583Z" fill="#D0C9FC"/>
<path d="M26.4099 36.3272C29.4008 35.2795 31.8082 35.5101 33.6885 36.4079C35.5382 37.2911 36.7634 38.7651 37.5275 40.0134L37.9498 40.7024L37.3639 41.2596C36.9517 41.6519 36.5302 42.0725 36.1998 42.4634L36.1837 42.4829L36.1658 42.5011C34.5642 44.2137 33.1332 45.791 31.9149 47.2749L31.9093 47.2827L31.9027 47.2902C31.2274 48.0788 30.6399 48.8466 30.1052 49.6442L30.0822 49.6772C24.839 56.854 20.8167 66.4809 19.4858 76.886L19.3655 77.8958L19.3641 77.9024L19.3634 77.9103C19.0699 80.2387 18.9151 82.5711 18.9811 84.894L19.0112 85.9389L17.9654 85.9218C16.1981 85.8936 14.1365 85.2365 11.9161 83.1774L11.9137 83.1749C8.15314 79.6662 7.65808 73.6176 8.76824 67.2952C8.26763 66.5105 7.40206 65.2637 7.00082 63.3771C6.54447 61.231 6.67593 58.3116 8.18146 54.0752C9.73029 49.7171 12.271 47.3445 14.4721 46.0725C15.5643 45.4414 16.5605 45.0874 17.2919 44.8909C17.5444 44.823 17.7664 44.7752 17.9502 44.7395C19.3231 42.664 20.7374 40.8407 22.1189 39.414C23.5431 37.9433 25.0047 36.8164 26.4099 36.3272Z" stroke="white" stroke-width="2"/>
<path d="M38.4946 37.3109C36.1923 39.5491 34.0859 41.7329 32.2677 43.7918C32.3097 43.5234 32.3542 43.2527 32.4011 42.9878C32.5277 42.273 32.6635 41.6061 32.7675 41.1171C32.8037 40.9469 32.8356 40.7983 32.8623 40.6775C32.9808 40.5905 33.1366 40.4774 33.3285 40.3434C33.8273 39.9952 34.5686 39.5019 35.5252 38.9308C36.3583 38.4335 37.3547 37.8804 38.4946 37.3109Z" fill="black" stroke="white" stroke-width="2"/>
<path d="M17.9827 84.9222C16.4832 84.8984 14.6529 84.3508 12.597 82.4441C9.14735 79.2257 8.62903 73.443 9.83742 67.0062C11.186 59.682 14.7671 51.5143 18.6079 45.5589C21.4187 41.2531 24.3679 38.097 26.7399 37.2715C32.2862 35.3279 35.2653 38.2309 36.6757 40.5352C36.2569 40.9339 35.8032 41.3846 35.4367 41.8183C33.8312 43.5351 32.3827 45.1306 31.1435 46.64C30.4454 47.4554 29.8345 48.2536 29.2758 49.0869C23.7599 56.637 19.5843 66.8218 18.3722 77.7854C18.0738 80.152 17.9149 82.5366 17.9827 84.9222Z" fill="#8B7EE2"/>
<path d="M9.8025 67.0583C8.77521 65.3128 6.1965 62.6494 9.12476 54.4098C12.053 46.1703 18.6253 45.646 18.6253 45.646C14.7322 51.5664 11.186 59.682 9.8025 67.0583Z" fill="#D0C9FC"/>
<path d="M79.0141 35.2897C93.04 37.5337 106.874 45.9762 116.181 58.2737L116.896 59.2186L115.845 59.7647C114.468 60.4799 113.154 61.2242 111.984 61.9806L111.975 61.9866L111.965 61.9928C111.32 62.3903 110.675 62.7874 110.029 63.185L110.018 63.1928C109.033 63.7817 108.097 64.4066 107.242 65.0166L106.539 65.5186L105.94 64.8949C97.0761 55.6711 88.3432 49.8907 75.3078 45.5519L74.3368 45.229L74.683 44.2654C75.1225 43.0413 75.5966 41.7656 76.1056 40.4387L76.1459 40.3329L76.1698 40.2972C76.1706 40.2947 76.1713 40.2914 76.1723 40.2883C76.1768 40.2742 76.1839 40.2513 76.1925 40.2266C76.201 40.202 76.2149 40.1639 76.2337 40.1213C76.2375 40.1125 76.2432 40.1032 76.2484 40.0924C76.787 38.7275 77.3591 37.3127 77.9294 35.9028L78.2279 35.1647L79.0141 35.2897Z" fill="black" stroke="white" stroke-width="2"/>
<path d="M111.441 61.1401C110.795 61.5377 110.15 61.9354 109.504 62.3331C108.493 62.9381 107.533 63.5782 106.661 64.2012C97.6889 54.8652 88.8188 48.9945 75.6234 44.6024C76.0603 43.3855 76.5321 42.1165 77.0388 40.7955C77.1087 40.6913 77.1262 40.5521 77.1611 40.5C81.0488 41.1436 89.4163 43.3559 99.645 50.8169C106.093 55.4411 109.577 58.8338 111.441 61.1401Z" fill="#36363F"/>
<path d="M131.125 105.136C129.834 107.063 128.542 108.99 127.145 110.847C106.757 139 67.1539 146.194 38.5068 124.725C23.8173 113.745 18.1801 99.0961 17.9303 84.8877C17.8625 82.5021 18.0214 80.1175 18.2675 77.7159C19.4447 66.8043 23.7074 56.6025 29.1712 49.0174C29.7472 48.2712 30.3581 47.4729 31.0388 46.5705C32.278 45.0611 33.7265 43.4655 35.332 41.7487C35.6985 41.315 36.1173 40.9164 36.571 40.4656C38.5954 38.3502 40.8813 36.1837 43.2543 34.0001C57.929 20.5872 77.6257 6.69096 83.674 9.08485C89.0774 11.1974 83.5566 24.6323 78.9092 36.0861C77.6862 39.0406 76.5505 41.9782 75.6418 44.4641C88.8372 48.8561 97.7073 54.7269 106.679 64.0629C109.017 62.3841 112.052 60.569 115.367 58.7899C129.566 51.1728 149.64 44.1729 151.814 50.7635C153.849 56.8835 148.622 74.2893 138.511 92.6492C138.319 93.0488 138.109 93.3613 137.917 93.7609C135.874 97.3736 133.709 101.055 131.335 104.597C131.3 104.875 131.195 105.032 131.125 105.136Z" fill="#F5AD5B" stroke="white" stroke-width="2"/>
<path d="M67.1634 91.6973C61.4939 95.0681 63.0401 101.917 70.8875 100.384" stroke="black"/>
<path d="M60.0868 88.916C54.6273 91.2952 55.8778 97.3422 63.7252 95.8089" stroke="black"/>
<path d="M97.3313 108.298C93.1979 109.604 89.0652 110.004 85.4389 109.535C79.6856 108.849 75.1545 106.114 73.7631 101.859C71.5196 94.9201 78.4835 86.4536 89.2618 83.0352C95.5752 81.0775 101.8 81.1739 106.349 83.0912C109.556 84.4108 111.943 86.6149 112.83 89.4741C115.039 96.4653 108.11 104.88 97.3313 108.298Z" fill="white"/>
<path d="M53.897 88.5419C51.6651 88.7065 49.399 88.0177 47.4473 86.6338C43.0211 83.5157 39.6439 77.0243 38.9878 69.1866C38.0555 57.9177 43.2071 48.3117 50.4783 47.7509C55.692 47.3207 60.588 51.6596 63.3548 58.2703C64.4686 60.9041 65.1984 63.8845 65.4225 67.0542C66.3547 78.3231 61.2032 87.9292 53.897 88.5419Z" fill="white"/>
<path d="M45.6013 84.9143C42.2817 82.651 39.6439 77.0243 38.9878 69.1866C38.0555 57.9177 43.2071 48.3117 50.4783 47.7509C55.692 47.3207 60.588 51.6596 63.3548 58.2703L45.6013 84.9143Z" fill="black"/>
<path d="M106.35 83.0913L92.1773 109.895C80.3883 110.337 75.2075 106.149 73.8161 101.894C71.5726 94.9553 78.5365 86.4887 89.3147 83.0703C95.5759 81.0776 101.8 81.174 106.35 83.0913Z" fill="black"/>
<path d="M99.516 144.714C99.2547 144.539 98.9061 144.381 98.5924 144.17C97.2854 143.294 96.1007 142.123 94.9511 140.673C89.3943 134.381 93.7287 121.811 104.529 112.595C114.475 104.089 126.49 101.425 132.659 106.013C133.356 106.556 137.207 108.609 140.15 113.375C140.673 114.178 140.951 115.12 141.02 116.147C142.317 128.567 112.992 149.679 99.516 144.714Z" fill="#3A55BF"/>
<path d="M139.116 118.232C138.089 116.26 138.285 112.427 135.374 112.136C128.906 111.499 114.501 114.675 105.423 128.669C99.7838 137.194 98.9949 142.327 99.516 144.714C99.2547 144.539 98.9061 144.381 98.5924 144.17C97.2854 143.294 96.1007 142.123 94.9511 140.673C89.3943 134.381 93.7287 121.811 104.529 112.595C114.475 104.089 126.49 101.425 132.659 106.013C133.356 106.556 137.207 108.609 140.15 113.375C140.725 114.213 139.047 117.205 139.116 118.232Z" fill="#8B7EE2"/>
<path d="M134.257 112.671C128.904 112.404 115.825 114.959 105.999 127.47" stroke="black"/>
<path d="M140.202 93.0877C146.041 105.39 140.155 118.657 138.714 122.139L138.713 122.139C138.323 123.145 137.586 123.953 136.584 124.39L136.579 124.392C135.412 124.896 134.266 124.947 133.163 124.74L133.163 124.741C131.895 124.511 130.753 123.905 129.909 123.339C129.207 122.869 128.705 122.223 128.425 121.426L128.324 121.14L128.4 120.845C128.747 119.493 129.162 118.139 129.563 116.812C129.966 115.478 130.357 114.167 130.671 112.861C131.301 110.248 131.608 107.735 131.117 105.274L131.036 104.866L131.267 104.521C133.813 100.722 136.476 97.0792 138.397 93.0828L139.305 91.1962L140.202 93.0877Z" fill="black" stroke="white" stroke-width="2"/>
<path d="M104.745 83.2232C104.745 83.2232 113.374 85.1581 113.124 92.3129C112.874 99.4677 104.815 104.709 104.815 104.709" stroke="#2D2D2D" stroke-miterlimit="10"/>
<path d="M108.179 84.5449L110.781 79.4199" stroke="black"/>
<path d="M112.617 94.7656L117.95 96.9823" stroke="black"/>
<path d="M112.743 89.4908L119.825 85.4819" stroke="#2D2D2D" stroke-miterlimit="10"/>
<path d="M57.5903 50.4797L61.3949 46.1608" stroke="black"/>
<path d="M46.4487 50.2577L42.3721 46.166" stroke="black"/>
<path d="M51.2804 48.1369L52.3506 40.0977" stroke="#2D2D2D" stroke-miterlimit="10"/>
<path d="M111.116 139.901C111.307 140.443 111.503 140.86 111.815 141.237L111.895 141.333L111.947 141.446C112.002 141.561 112.128 141.698 112.297 141.812L113.802 142.821L112.147 143.556C108.547 145.156 99.6007 148.085 86.191 146.152C77.2302 144.878 67.123 139.284 59.5802 133.667C55.7968 130.85 52.6079 127.988 50.4909 125.6C49.4377 124.412 48.6138 123.301 48.1236 122.342C47.8792 121.864 47.6934 121.377 47.6246 120.905C47.5553 120.43 47.5945 119.885 47.9147 119.408C48.5844 118.409 49.4638 117.753 50.4974 117.437C51.5126 117.126 52.6047 117.164 53.6919 117.417C55.7106 117.888 57.8961 119.143 59.9715 120.733L60.385 121.056L60.3934 121.063C61.5744 122.022 62.2807 123.012 62.6558 124.018C63.0294 125.02 63.0446 125.957 62.9719 126.754C62.9362 127.146 62.8771 127.519 62.8283 127.835C62.7773 128.165 62.7394 128.423 62.7252 128.653C62.6979 129.096 62.7749 129.214 62.8522 129.29C81.555 146.917 105.032 140.807 109.873 139.279L110.795 138.989L111.116 139.901Z" fill="black" stroke="white" stroke-width="2"/>
<path d="M132.871 123.669C132.209 123.527 131.25 123.035 130.466 122.51C129.943 122.159 129.578 121.687 129.369 121.095C130.314 117.585 133.117 110.06 132.121 105.06C133.238 103.394 134.467 101.72 135.532 100.018C139.669 115.096 132.871 123.669 132.871 123.669Z" fill="#36363F"/>
<path d="M129.72 138.994C123.073 144.275 115.347 145.74 111.706 142.694C111.479 142.467 111.2 142.205 110.974 141.977C110.556 141.471 110.26 140.895 110.103 140.337C108.939 136.31 113.006 130.582 119.217 125.612C126.388 120.002 133.678 117.491 136.883 121.527C140.123 125.51 136.874 133.296 129.72 138.994Z" fill="#D0C9FC"/>
<path d="M130.849 140.412L130.847 140.413C127.333 143.205 123.481 145.034 119.942 145.744C116.459 146.443 112.96 146.107 110.542 144.085L110.479 144.032L110.421 143.974C110.321 143.873 110.207 143.762 110.078 143.637L111.705 142.694C115.347 145.739 123.072 144.275 129.72 138.993C136.873 133.296 139.252 126.709 137.498 122.662L138.297 120.392C140.516 123.129 140.29 126.875 138.875 130.308C137.433 133.803 134.617 137.411 130.849 140.412Z" fill="white"/>
<path d="M15.7468 51.3084C15.0392 52.4323 13.1823 56.0208 11.4164 61.3831" stroke="black"/>
</svg>
