<svg width="156" height="156" viewBox="0 0 156 156" fill="none" xmlns="http://www.w3.org/2000/svg">
<path d="M77.768 21.8212C84.3735 19.0979 92.3212 22.1276 99.6913 28.5997C107.114 35.1182 114.228 45.3428 119.329 57.714C124.429 70.085 126.588 82.3517 125.916 92.2075C125.249 101.993 121.745 109.744 115.14 112.467C108.535 115.19 100.588 112.16 93.2176 105.688C85.7948 99.17 78.6811 88.9461 73.5807 76.5751C68.4802 64.2039 66.3211 51.9365 66.9931 42.0806C67.6603 32.295 71.1627 24.5446 77.768 21.8212Z" fill="url(#paint0_linear_0_5629)" stroke="white" stroke-width="2"/>
<path d="M43.4721 36.9452C50.0776 34.2219 58.0253 37.2516 65.3954 43.7237C72.8182 50.2422 79.9322 60.4668 85.0326 72.838C90.1329 85.209 92.2918 97.4758 91.6199 107.332C90.9526 117.117 87.4495 124.868 80.8441 127.591C74.2387 130.314 66.2917 127.284 58.9217 120.812C51.4989 114.294 44.3852 104.07 39.2848 91.6991C34.1843 79.3279 32.0252 67.0606 32.6972 57.2046C33.3644 47.4191 36.8668 39.6687 43.4721 36.9452Z" fill="url(#paint1_linear_0_5629)" stroke="white" stroke-width="2"/>
<ellipse cx="64.5874" cy="75.9901" rx="13.5051" ry="30.7353" transform="rotate(-22.4056 64.5874 75.9901)" fill="#0B0B0B"/>
<ellipse cx="101.193" cy="58.0149" rx="12.7586" ry="30.7353" transform="rotate(-22.4056 101.193 58.0149)" fill="#0B0B0B"/>
<path d="M74.5571 57.0304C86.9996 74.898 88.711 92.5899 88.711 92.5899" stroke="black"/>
<defs>
<linearGradient id="paint0_linear_0_5629" x1="104.967" y1="60.8243" x2="96.4543" y2="120.592" gradientUnits="userSpaceOnUse">
<stop stop-color="#FDF8F0"/>
<stop offset="1" stop-color="#888BBB"/>
</linearGradient>
<linearGradient id="paint1_linear_0_5629" x1="70.6709" y1="75.9483" x2="62.1584" y2="135.716" gradientUnits="userSpaceOnUse">
<stop stop-color="#FDF8F0"/>
<stop offset="1" stop-color="#888BBB"/>
</linearGradient>
</defs>
</svg>
