<svg width="203" height="200" viewBox="0 0 203 200" fill="none" xmlns="http://www.w3.org/2000/svg">
<mask id="path-1-outside-1_0_5824" maskUnits="userSpaceOnUse" x="91.2666" y="123.241" width="57" height="44" fill="black">
<rect fill="white" x="91.2666" y="123.241" width="57" height="44"/>
<path d="M101.927 144.57C97.5386 138.865 120.184 126.241 120.184 126.241C120.184 126.241 151.143 136.527 145.081 144.4C142.983 147.125 133.769 145.159 127.199 143.317C140.873 148.403 143.605 155.485 131.676 161.81C117.962 169.083 91.5069 161.465 94.5007 152.679C95.6803 149.218 101.387 148.268 107.487 148.372C105.16 147.408 103.15 146.16 101.927 144.57Z"/>
<path d="M107.487 148.372C114.624 151.33 124.734 151.617 124.182 150.904C123.772 150.372 115.306 148.506 107.487 148.372Z"/>
<path d="M120.337 141.177C120.337 141.177 123.303 142.225 127.199 143.317C125.152 142.556 122.861 141.839 120.337 141.177Z"/>
</mask>
<path d="M101.927 144.57C97.5386 138.865 120.184 126.241 120.184 126.241C120.184 126.241 151.143 136.527 145.081 144.4C142.983 147.125 133.769 145.159 127.199 143.317C140.873 148.403 143.605 155.485 131.676 161.81C117.962 169.083 91.5069 161.465 94.5007 152.679C95.6803 149.218 101.387 148.268 107.487 148.372C105.16 147.408 103.15 146.16 101.927 144.57Z" fill="#8CE096"/>
<path d="M107.487 148.372C114.624 151.33 124.734 151.617 124.182 150.904C123.772 150.372 115.306 148.506 107.487 148.372Z" fill="#8CE096"/>
<path d="M120.337 141.177C120.337 141.177 123.303 142.225 127.199 143.317C125.152 142.556 122.861 141.839 120.337 141.177Z" fill="#8CE096"/>
<path d="M138.101 152.459C138.239 152.994 138.784 153.315 139.319 153.177C139.854 153.039 140.175 152.493 140.037 151.959L138.101 152.459ZM139.069 152.209L140.037 151.959C139.539 150.032 138.103 148.279 136.013 146.713C133.912 145.139 131.058 143.686 127.547 142.38L127.199 143.317L126.85 144.254C130.255 145.521 132.918 146.894 134.814 148.314C136.72 149.742 137.762 151.149 138.101 152.459L139.069 152.209ZM120.184 126.241L120.815 124.343L119.979 124.066L119.21 124.494L120.184 126.241ZM101.927 144.57L103.512 143.351V143.351L101.927 144.57ZM124.182 150.904L125.765 149.68L125.765 149.68L124.182 150.904ZM94.5007 152.679L92.6076 152.034L94.5007 152.679ZM131.676 161.81L132.613 163.577L131.676 161.81ZM120.337 141.177L120.845 139.242C119.807 138.97 118.74 139.564 118.425 140.589C118.11 141.614 118.659 142.705 119.67 143.063L120.337 141.177ZM145.081 144.4L146.666 145.62L145.081 144.4ZM120.184 126.241C119.21 124.494 119.21 124.494 119.209 124.495C119.209 124.495 119.209 124.495 119.208 124.495C119.207 124.496 119.206 124.497 119.204 124.498C119.201 124.5 119.196 124.502 119.19 124.506C119.178 124.512 119.16 124.522 119.138 124.535C119.092 124.561 119.026 124.598 118.941 124.646C118.77 124.744 118.523 124.885 118.212 125.067C117.588 125.431 116.705 125.956 115.661 126.603C113.577 127.893 110.827 129.686 108.203 131.671C105.609 133.634 103.011 135.88 101.335 138.091C100.5 139.192 99.7878 140.42 99.4998 141.708C99.1942 143.075 99.3717 144.528 100.342 145.79L101.927 144.57L103.512 143.351C103.385 143.186 103.311 142.996 103.403 142.581C103.514 142.087 103.851 141.392 104.522 140.508C105.857 138.747 108.098 136.767 110.617 134.861C113.105 132.978 115.742 131.258 117.767 130.003C118.777 129.377 119.63 128.871 120.227 128.522C120.526 128.348 120.761 128.213 120.92 128.122C121 128.077 121.061 128.043 121.101 128.02C121.121 128.009 121.136 128.001 121.145 127.995C121.15 127.992 121.153 127.991 121.156 127.989C121.157 127.989 121.157 127.988 121.158 127.988C121.158 127.988 121.158 127.988 121.158 127.988C121.158 127.988 121.158 127.988 120.184 126.241ZM101.927 144.57L100.342 145.79C101.875 147.783 104.259 149.199 106.721 150.22L107.487 148.372L108.253 146.524C106.061 145.616 104.425 144.537 103.512 143.351L101.927 144.57ZM107.487 148.372L106.721 150.22C110.535 151.8 115.056 152.641 118.509 153.004C120.242 153.186 121.77 153.255 122.866 153.224C123.386 153.21 123.926 153.171 124.365 153.07C124.516 153.035 124.989 152.927 125.413 152.587C125.655 152.394 126.071 151.971 126.179 151.276C126.293 150.545 125.998 149.982 125.765 149.68L124.182 150.904L122.6 152.127C122.401 151.869 122.12 151.349 122.227 150.659C122.329 150.004 122.719 149.62 122.915 149.463C123.115 149.303 123.292 149.232 123.349 149.21C123.422 149.182 123.467 149.172 123.468 149.172C123.472 149.171 123.458 149.174 123.421 149.18C123.385 149.185 123.335 149.191 123.271 149.197C123.14 149.21 122.968 149.22 122.755 149.226C121.887 149.25 120.545 149.196 118.927 149.026C115.679 148.684 111.576 147.902 108.253 146.524L107.487 148.372ZM124.182 150.904L125.765 149.68C125.43 149.248 124.988 149.04 124.902 148.997C124.717 148.906 124.52 148.828 124.34 148.764C123.974 148.633 123.515 148.499 123.001 148.366C121.962 148.098 120.567 147.8 118.957 147.518C115.74 146.956 111.562 146.441 107.521 146.372L107.487 148.372L107.453 150.372C111.231 150.436 115.195 150.922 118.268 151.459C119.804 151.727 121.09 152.004 121.999 152.239C122.458 152.358 122.789 152.458 122.995 152.531C123.102 152.569 123.136 152.587 123.124 152.581C123.118 152.578 123.07 152.554 123.001 152.507C122.952 152.474 122.774 152.352 122.6 152.127L124.182 150.904ZM107.487 148.372L107.521 146.372C104.391 146.319 101.216 146.529 98.607 147.263C96.0716 147.976 93.5226 149.349 92.6076 152.034L94.5007 152.679L96.3939 153.324C96.6584 152.548 97.5523 151.715 99.69 151.114C101.754 150.533 104.482 150.321 107.453 150.372L107.487 148.372ZM94.5007 152.679L92.6076 152.034C91.457 155.411 93.3223 158.341 95.8612 160.391C98.4344 162.469 102.185 164.114 106.314 165.201C114.523 167.362 125.139 167.541 132.613 163.577L131.676 161.81L130.739 160.043C124.499 163.352 115.03 163.359 107.332 161.333C103.507 160.326 100.348 158.873 98.3744 157.279C96.3664 155.658 96.0476 154.34 96.3939 153.324L94.5007 152.679ZM131.676 161.81L132.613 163.577C135.726 161.927 138.083 160.127 139.54 158.157C141.044 156.124 141.613 153.857 140.964 151.556C140.345 149.362 138.71 147.469 136.536 145.856C134.341 144.228 131.419 142.753 127.896 141.443L127.199 143.317L126.502 145.192C129.815 146.424 132.363 147.741 134.153 149.069C135.965 150.413 136.831 151.639 137.114 152.641C137.366 153.537 137.236 154.545 136.324 155.778C135.366 157.073 133.591 158.531 130.739 160.043L131.676 161.81ZM127.199 143.317L127.896 141.443C125.778 140.655 123.422 139.919 120.845 139.242L120.337 141.177L119.829 143.111C122.299 143.76 124.527 144.457 126.502 145.192L127.199 143.317ZM120.337 141.177C119.67 143.063 119.67 143.063 119.671 143.063C119.671 143.063 119.671 143.063 119.671 143.063C119.671 143.063 119.671 143.063 119.672 143.063C119.672 143.063 119.673 143.064 119.674 143.064C119.676 143.065 119.678 143.065 119.682 143.067C119.688 143.069 119.698 143.072 119.71 143.076C119.734 143.085 119.77 143.097 119.816 143.114C119.908 143.146 120.043 143.192 120.217 143.251C120.564 143.369 121.065 143.537 121.69 143.74C122.937 144.145 124.679 144.688 126.659 145.243L127.199 143.317L127.739 141.391C125.822 140.854 124.133 140.327 122.924 139.935C122.32 139.739 121.836 139.577 121.505 139.464C121.34 139.408 121.213 139.364 121.128 139.335C121.085 139.32 121.053 139.309 121.032 139.301C121.022 139.298 121.014 139.295 121.009 139.293C121.007 139.293 121.005 139.292 121.004 139.292C121.004 139.291 121.003 139.291 121.003 139.291C121.003 139.291 121.003 139.291 121.003 139.291C121.003 139.291 121.003 139.291 121.003 139.291C121.003 139.291 121.003 139.291 120.337 141.177ZM127.199 143.317L126.659 145.243C129.977 146.173 134.045 147.159 137.593 147.558C139.36 147.757 141.098 147.823 142.593 147.621C144.013 147.43 145.65 146.94 146.666 145.62L145.081 144.4L143.497 143.18C143.464 143.222 143.162 143.508 142.059 143.657C141.03 143.796 139.661 143.766 138.041 143.583C134.815 143.22 130.991 142.303 127.739 141.391L127.199 143.317ZM145.081 144.4L146.666 145.62C147.792 144.157 148.112 142.504 147.689 140.86C147.297 139.337 146.311 137.987 145.17 136.834C142.884 134.524 139.342 132.383 135.813 130.586C132.239 128.766 128.49 127.207 125.649 126.106C124.225 125.555 123.021 125.116 122.172 124.814C121.747 124.663 121.411 124.546 121.179 124.467C121.063 124.427 120.973 124.397 120.912 124.376C120.881 124.366 120.858 124.358 120.841 124.352C120.833 124.349 120.827 124.347 120.822 124.346C120.82 124.345 120.818 124.344 120.817 124.344C120.816 124.344 120.816 124.344 120.815 124.344C120.815 124.343 120.815 124.343 120.184 126.241C119.553 128.139 119.553 128.139 119.553 128.139C119.553 128.139 119.553 128.139 119.554 128.139C119.554 128.14 119.555 128.14 119.557 128.14C119.56 128.141 119.565 128.143 119.571 128.145C119.585 128.15 119.606 128.157 119.633 128.166C119.689 128.185 119.772 128.213 119.881 128.25C120.1 128.326 120.423 128.437 120.833 128.583C121.653 128.875 122.821 129.301 124.204 129.836C126.979 130.911 130.591 132.415 133.998 134.15C137.452 135.909 140.513 137.815 142.327 139.648C143.236 140.567 143.675 141.312 143.815 141.858C143.925 142.284 143.886 142.674 143.497 143.18L145.081 144.4Z" fill="white" mask="url(#path-1-outside-1_0_5824)"/>
<path d="M122.575 22.6221C122.992 22.2572 123.54 21.9313 124.198 22.0127C124.829 22.0908 125.25 22.5117 125.5 22.8076C125.757 23.1113 126.022 23.5223 126.251 23.8564C126.551 24.2939 127.071 25.259 127.684 26.4297C128.309 27.6249 129.076 29.1214 129.874 30.6602C131.488 33.7728 133.226 37.0444 134.354 38.6982C136.708 42.1465 138.822 45.4561 142.588 49.1777C145.552 52.1072 146.837 55.3646 147.197 57.0645C147.266 57.1255 147.327 57.1961 147.378 57.2764C147.602 57.6311 147.581 58.0876 147.325 58.4199L145.918 60.2461C146.716 60.9004 147.858 61.7238 149.349 62.7646C151.309 64.1333 153.042 65.9406 154.972 68.374C156.897 70.8008 159.059 73.9047 161.854 77.8838C166.392 84.3413 169.288 90.5742 170.185 92.9297C170.308 93.2544 170.254 93.6202 170.042 93.8955L105.586 177.61C105.392 177.863 105.088 178.008 104.77 178C104.451 177.992 104.155 177.833 103.973 177.571L73.4727 133.719C73.305 133.478 73.251 133.174 73.3262 132.891C73.3785 132.693 73.4505 132.312 73.4707 131.887C73.4915 131.449 73.4529 131.057 73.3516 130.786C73.3411 130.759 73.2225 130.586 72.7441 130.404C72.3195 130.243 71.8315 130.161 71.5273 130.139C71.2134 130.116 70.9282 129.947 70.7578 129.683L57.4229 108.957C57.1942 108.602 57.2138 108.141 57.4717 107.806L110.438 39.0127L110.529 38.9092C110.562 38.877 110.598 38.8478 110.635 38.8203L113.717 36.5303L113.704 35.1201C113.702 34.9084 113.767 34.7014 113.891 34.5293C115.658 32.0616 119.587 26.5629 121.182 24.2852C121.694 23.5534 122.149 22.9955 122.575 22.6221Z" stroke="white" stroke-width="2" stroke-linecap="round" stroke-linejoin="round"/>
<path d="M193.851 77.5984C195.165 79.7643 179.565 86.6684 176.366 87.8034L174.409 83.4993L189.447 70.3584L193.851 77.5984Z" fill="#EA494B"/>
<path d="M199.105 88.375C196.049 87.7466 183.46 90.614 177.547 92.1262C177.036 93.3001 176.236 95.7575 177.126 96.1956C178.016 96.6337 192.619 97.6755 199.809 98.1417C200.848 95.148 202.16 89.0034 199.105 88.375Z" fill="#EA494B"/>
<path d="M179.108 100.918C181.194 101.052 186.406 101.782 190.555 103.622L189.91 110.071L178.8 104.807L179.108 100.918Z" fill="#EA494B"/>
<path d="M179.172 99.9199C181.32 100.058 186.661 100.801 190.96 102.707L191.622 103.001L191.55 103.721L190.905 110.17L190.765 111.582L189.482 110.975L178.371 105.711L177.748 105.416L177.803 104.729L178.11 100.839L178.188 99.8564L179.172 99.9199ZM195.159 87.4902C196.845 87.2881 198.36 87.2012 199.306 87.3955C200.467 87.6344 201.189 88.4212 201.575 89.3672C201.944 90.2693 202.031 91.3543 201.991 92.4092C201.91 94.5335 201.291 96.9222 200.754 98.4697L200.505 99.1885L199.744 99.1396C196.146 98.9064 190.693 98.5293 186.025 98.1553C183.693 97.9683 181.55 97.7811 179.932 97.6133C179.124 97.5295 178.437 97.45 177.92 97.376C177.662 97.3391 177.435 97.3018 177.251 97.2646C177.106 97.2354 176.873 97.1855 176.685 97.0928C176.025 96.7684 175.814 96.1259 175.753 95.6748C175.69 95.21 175.744 94.7036 175.828 94.2529C175.999 93.3375 176.357 92.3538 176.63 91.7266L176.825 91.2783L177.299 91.1572C180.268 90.3977 184.914 89.2979 189.207 88.4658C191.352 88.0501 193.423 87.6984 195.159 87.4902ZM190.302 69.8389L194.705 77.0791C195.221 77.9291 194.746 78.7748 194.4 79.2227C194.006 79.7349 193.399 80.2536 192.713 80.7549C191.322 81.7708 189.34 82.9003 187.261 83.9756C183.096 86.1291 178.354 88.1595 176.701 88.7461L175.836 89.0527L175.456 88.2178L173.499 83.9131L173.19 83.2363L173.751 82.7461L188.789 69.6055L189.685 68.8232L190.302 69.8389Z" fill="#EA494B" stroke="white" stroke-width="2"/>
<path d="M177.547 92.1271C177.036 93.301 176.236 95.7584 177.126 96.1965C178.016 96.6346 192.619 97.6764 199.809 98.1426" stroke="#120101" stroke-linecap="round" stroke-linejoin="round"/>
<path d="M193.85 77.599L189.447 70.359L174.409 83.4999" stroke="#120101" stroke-linecap="round" stroke-linejoin="round"/>
<path d="M154.462 100.738L107.361 161.912L68.8561 105.596L101.869 62.7199L103.96 61.0241L104.048 60.9521L104.098 60.8481L105.31 58.2506L114.411 46.4303L154.462 100.738Z" fill="#FDF8F0" stroke="#120101"/>
<path d="M154.462 100.738L148.486 108.5L108.564 54.025L114.411 46.4303L154.462 100.738Z" fill="#518FC0" stroke="#120101"/>
<path d="M127.035 63.333L80.855 123.311" stroke="#120101"/>
<path d="M133.718 72.0303L87.1855 132.567" stroke="#120101"/>
<path d="M139.818 80.8564L93.2269 141.369" stroke="#120101"/>
<path d="M101.927 144.57C97.5386 138.865 120.184 126.241 120.184 126.241C120.184 126.241 151.143 136.527 145.081 144.4C142.983 147.125 133.769 145.159 127.199 143.317C140.873 148.403 143.605 155.485 131.676 161.81C117.962 169.083 91.5069 161.465 94.5007 152.679C95.6803 149.218 101.387 148.268 107.487 148.372C105.16 147.408 103.15 146.16 101.927 144.57Z" fill="#8CE096"/>
<path d="M107.487 148.372C114.624 151.33 124.734 151.617 124.182 150.904C123.772 150.372 115.306 148.506 107.487 148.372Z" fill="#8CE096"/>
<path d="M120.337 141.177C120.337 141.177 123.303 142.225 127.199 143.317C125.152 142.556 122.861 141.839 120.337 141.177Z" fill="#8CE096"/>
<path d="M120.184 126.241L120.342 125.767L120.133 125.697L119.941 125.804L120.184 126.241ZM101.927 144.57L102.323 144.265L101.927 144.57ZM124.182 150.904L124.578 150.598L124.578 150.598L124.182 150.904ZM94.5007 152.679L94.0275 152.518H94.0275L94.5007 152.679ZM131.676 161.81L131.91 162.252L131.676 161.81ZM120.337 141.177L120.464 140.693C120.204 140.625 119.938 140.774 119.859 141.03C119.78 141.286 119.917 141.559 120.17 141.648L120.337 141.177ZM145.081 144.4L145.478 144.705L145.081 144.4ZM138.585 152.334C138.654 152.602 138.927 152.762 139.194 152.693C139.461 152.624 139.622 152.351 139.553 152.084L138.585 152.334ZM120.184 126.241C119.941 125.804 119.94 125.805 119.94 125.805C119.94 125.805 119.94 125.805 119.939 125.805C119.938 125.806 119.937 125.806 119.936 125.807C119.933 125.809 119.929 125.811 119.923 125.814C119.912 125.82 119.895 125.83 119.874 125.842C119.83 125.866 119.766 125.903 119.683 125.95C119.517 126.045 119.274 126.184 118.967 126.363C118.354 126.721 117.482 127.239 116.451 127.878C114.389 129.155 111.681 130.92 109.108 132.867C106.542 134.809 104.078 136.955 102.53 138.997C101.756 140.017 101.185 141.045 100.964 142.035C100.738 143.046 100.877 144.025 101.531 144.875L101.927 144.57L102.323 144.265C101.88 143.689 101.767 143.026 101.94 142.254C102.117 141.462 102.594 140.567 103.327 139.601C104.79 137.672 107.164 135.592 109.712 133.665C112.251 131.743 114.93 129.996 116.977 128.728C118 128.094 118.864 127.581 119.471 127.227C119.775 127.049 120.015 126.912 120.178 126.819C120.26 126.772 120.322 126.737 120.365 126.713C120.386 126.701 120.401 126.692 120.412 126.687C120.417 126.684 120.421 126.681 120.424 126.68C120.425 126.679 120.426 126.679 120.427 126.678C120.427 126.678 120.427 126.678 120.427 126.678C120.427 126.678 120.427 126.678 120.184 126.241ZM101.927 144.57L101.531 144.875C102.831 146.566 104.935 147.856 107.295 148.834L107.487 148.372L107.678 147.91C105.386 146.96 103.469 145.754 102.323 144.265L101.927 144.57ZM107.487 148.372L107.295 148.834C110.925 150.338 115.29 151.157 118.666 151.512C120.355 151.69 121.814 151.753 122.824 151.725C123.322 151.711 123.741 151.674 124.028 151.608C124.155 151.579 124.336 151.528 124.477 151.416C124.554 151.354 124.668 151.234 124.697 151.045C124.728 150.847 124.649 150.69 124.578 150.598L124.182 150.904L123.787 151.209C123.75 151.162 123.685 151.048 123.709 150.89C123.733 150.742 123.82 150.66 123.852 150.635C123.901 150.595 123.915 150.608 123.804 150.634C123.617 150.677 123.28 150.712 122.796 150.725C121.843 150.752 120.431 150.692 118.77 150.517C115.445 150.168 111.186 149.364 107.678 147.91L107.487 148.372ZM124.182 150.904L124.578 150.598C124.475 150.465 124.322 150.384 124.235 150.341C124.124 150.286 123.988 150.231 123.836 150.177C123.53 150.067 123.119 149.946 122.625 149.819C121.635 149.563 120.281 149.273 118.699 148.996C115.536 148.443 111.438 147.94 107.495 147.872L107.487 148.372L107.478 148.872C111.355 148.938 115.399 149.435 118.527 149.981C120.09 150.254 121.417 150.539 122.375 150.787C122.855 150.911 123.234 151.024 123.5 151.119C123.634 151.166 123.729 151.206 123.791 151.237C123.878 151.28 123.838 151.276 123.787 151.209L124.182 150.904ZM107.487 148.372L107.495 147.872C104.425 147.82 101.418 148.031 99.0131 148.707C96.6269 149.378 94.6985 150.549 94.0275 152.518L94.5007 152.679L94.974 152.84C95.4825 151.348 96.9971 150.313 99.2839 149.67C101.552 149.032 104.448 148.82 107.478 148.872L107.487 148.372ZM94.5007 152.679L94.0275 152.518C93.1784 155.009 94.4638 157.335 96.8036 159.224C99.152 161.121 102.681 162.693 106.696 163.75C114.713 165.861 124.899 165.97 131.91 162.252L131.676 161.81L131.442 161.369C124.739 164.923 114.84 164.86 106.95 162.783C103.011 161.746 99.6304 160.222 97.4319 158.446C95.2249 156.664 94.3261 154.742 94.974 152.84L94.5007 152.679ZM131.676 161.81L131.91 162.252C134.925 160.653 137.064 158.982 138.334 157.265C139.616 155.532 140.02 153.737 139.52 151.963C139.028 150.216 137.681 148.573 135.643 147.061C133.599 145.546 130.818 144.13 127.373 142.848L127.199 143.317L127.024 143.786C130.417 145.047 133.105 146.424 135.047 147.864C136.994 149.309 138.149 150.785 138.558 152.234C138.959 153.657 138.664 155.137 137.53 156.67C136.385 158.218 134.392 159.804 131.442 161.369L131.676 161.81ZM127.199 143.317L127.373 142.848C125.309 142.081 123.001 141.359 120.464 140.693L120.337 141.177L120.21 141.661C122.721 142.32 124.996 143.031 127.024 143.786L127.199 143.317ZM120.337 141.177C120.17 141.648 120.17 141.648 120.17 141.648C120.17 141.648 120.17 141.648 120.17 141.648C120.171 141.648 120.171 141.649 120.171 141.649C120.171 141.649 120.172 141.649 120.173 141.649C120.174 141.65 120.176 141.651 120.179 141.652C120.185 141.654 120.194 141.657 120.206 141.661C120.229 141.669 120.263 141.681 120.308 141.696C120.398 141.728 120.53 141.773 120.7 141.831C121.041 141.947 121.536 142.113 122.152 142.313C123.386 142.713 125.108 143.25 127.064 143.799L127.199 143.317L127.334 142.836C125.394 142.292 123.685 141.759 122.461 141.362C121.849 141.163 121.359 140.999 121.022 140.884C120.854 140.827 120.724 140.782 120.636 140.752C120.592 140.737 120.559 140.725 120.536 140.717C120.525 140.713 120.517 140.71 120.511 140.708C120.509 140.707 120.507 140.707 120.505 140.706C120.505 140.706 120.504 140.706 120.504 140.706C120.504 140.706 120.504 140.706 120.503 140.706C120.503 140.706 120.503 140.706 120.503 140.706C120.503 140.705 120.503 140.706 120.337 141.177ZM127.199 143.317L127.064 143.799C130.357 144.722 134.334 145.682 137.761 146.068C139.473 146.26 141.073 146.313 142.393 146.135C143.694 145.959 144.83 145.546 145.478 144.705L145.081 144.4L144.685 144.095C144.284 144.616 143.481 144.979 142.259 145.144C141.056 145.306 139.548 145.262 137.873 145.074C134.526 144.697 130.611 143.754 127.334 142.836L127.199 143.317ZM145.081 144.4L145.478 144.705C146.327 143.601 146.542 142.421 146.236 141.234C145.938 140.077 145.158 138.954 144.104 137.889C141.995 135.758 138.633 133.705 135.133 131.923C131.621 130.134 127.923 128.596 125.107 127.505C123.698 126.959 122.508 126.525 121.67 126.227C121.251 126.078 120.919 125.963 120.692 125.886C120.579 125.847 120.492 125.817 120.432 125.797C120.403 125.787 120.38 125.78 120.365 125.775C120.357 125.772 120.352 125.77 120.348 125.769C120.346 125.768 120.344 125.768 120.343 125.767C120.343 125.767 120.342 125.767 120.342 125.767C120.342 125.767 120.342 125.767 120.184 126.241C120.026 126.716 120.026 126.716 120.027 126.716C120.027 126.716 120.027 126.716 120.027 126.716C120.028 126.716 120.03 126.717 120.031 126.717C120.035 126.719 120.04 126.72 120.048 126.723C120.062 126.728 120.084 126.735 120.113 126.745C120.17 126.764 120.256 126.793 120.368 126.832C120.592 126.908 120.919 127.022 121.335 127.17C122.166 127.465 123.347 127.896 124.746 128.438C127.545 129.522 131.209 131.046 134.679 132.814C138.161 134.587 141.402 136.581 143.393 138.593C144.389 139.599 145.033 140.571 145.268 141.484C145.495 142.366 145.351 143.23 144.685 144.095L145.081 144.4ZM139.069 152.209L139.553 152.084C139.094 150.311 137.757 148.645 135.713 147.114C133.663 145.578 130.857 144.144 127.373 142.848L127.199 143.317L127.024 143.786C130.456 145.062 133.167 146.456 135.114 147.914C137.066 149.376 138.206 150.87 138.585 152.334L139.069 152.209Z" fill="#120101"/>
<path d="M143.208 69.1435L137.469 72.3725" stroke="#120101" stroke-linecap="round"/>
<mask id="path-16-outside-2_0_5824" maskUnits="userSpaceOnUse" x="0.732422" y="46.6562" width="83" height="75" fill="black">
<rect fill="white" x="0.732422" y="46.6562" width="83" height="75"/>
<path fill-rule="evenodd" clip-rule="evenodd" d="M37.9184 60.6523C38.3446 61.2062 38.7719 61.7937 39.1976 62.4165C40.7658 64.711 41.9495 66.6848 42.8402 68.3331C39.2233 65.5751 35.3238 64.4253 31.72 65.4421C23.1061 67.8725 19.4435 81.7607 23.5394 96.4622C27.6353 111.164 37.9386 121.111 46.5524 118.681C53.0489 116.848 56.7291 108.498 56.3888 98.1968C60.9462 103.49 66.4322 106.157 71.3643 104.765C79.9782 102.335 83.6408 88.4465 79.5449 73.745C75.449 59.0435 65.1458 49.0959 56.5319 51.5263C50.7513 53.1573 47.2005 59.9482 46.7279 68.6822C45.0722 64.8144 42.4981 59.7464 39.285 55.7154C33.3572 48.2784 33.2078 48.6595 33.2078 48.6595L27.9758 52.2374C27.9758 52.2374 30.7393 53.2824 34.2572 56.5898C31.8259 55.0834 28.408 53.4871 24.026 52.6727C14.3187 50.8685 2.73242 57.6725 2.73242 57.6725C2.73242 57.6725 10.4318 63.9041 20.2902 65.1707C28.3724 66.2092 35.5826 62.1491 37.9184 60.6523Z"/>
</mask>
<path fill-rule="evenodd" clip-rule="evenodd" d="M37.9184 60.6523C38.3446 61.2062 38.7719 61.7937 39.1976 62.4165C40.7658 64.711 41.9495 66.6848 42.8402 68.3331C39.2233 65.5751 35.3238 64.4253 31.72 65.4421C23.1061 67.8725 19.4435 81.7607 23.5394 96.4622C27.6353 111.164 37.9386 121.111 46.5524 118.681C53.0489 116.848 56.7291 108.498 56.3888 98.1968C60.9462 103.49 66.4322 106.157 71.3643 104.765C79.9782 102.335 83.6408 88.4465 79.5449 73.745C75.449 59.0435 65.1458 49.0959 56.5319 51.5263C50.7513 53.1573 47.2005 59.9482 46.7279 68.6822C45.0722 64.8144 42.4981 59.7464 39.285 55.7154C33.3572 48.2784 33.2078 48.6595 33.2078 48.6595L27.9758 52.2374C27.9758 52.2374 30.7393 53.2824 34.2572 56.5898C31.8259 55.0834 28.408 53.4871 24.026 52.6727C14.3187 50.8685 2.73242 57.6725 2.73242 57.6725C2.73242 57.6725 10.4318 63.9041 20.2902 65.1707C28.3724 66.2092 35.5826 62.1491 37.9184 60.6523Z" fill="white"/>
<path d="M3.02746 58.9378C3.57905 58.9654 4.04865 58.5407 4.07635 57.9892C4.10404 57.4376 3.67934 56.968 3.12775 56.9403L3.02746 58.9378ZM3.00575 56.9341C2.45416 56.9065 1.98456 57.3312 1.95686 57.8827C1.92917 58.4343 2.35387 58.9039 2.90546 58.9316L3.00575 56.9341ZM10.6982 61.7901C10.2225 62.0708 10.0644 62.6839 10.3451 63.1596C10.6257 63.6352 11.2388 63.7933 11.7145 63.5127L10.6982 61.7901ZM11.7656 63.4825C12.2413 63.2019 12.3994 62.5888 12.1188 62.1131C11.8381 61.6374 11.225 61.4793 10.7493 61.76L11.7656 63.4825ZM3.0776 57.939L3.12775 56.9403L3.00575 56.9341L2.9556 57.9329L2.90546 58.9316L3.02746 58.9378L3.0776 57.939ZM11.2064 62.6514L11.7145 63.5127L11.7656 63.4825L11.2575 62.6213L10.7493 61.76L10.6982 61.7901L11.2064 62.6514ZM39.1976 62.4165L40.8488 61.288L40.8488 61.288L39.1976 62.4165ZM37.9184 60.6523L39.5035 59.4327C38.8705 58.61 37.7134 58.4083 36.8394 58.9684L37.9184 60.6523ZM42.8402 68.3331L41.6275 69.9235C42.3769 70.495 43.4235 70.4657 44.1399 69.8533C44.8562 69.2408 45.0478 68.2114 44.5997 67.3823L42.8402 68.3331ZM31.72 65.4421L32.2631 67.367L31.72 65.4421ZM46.5524 118.681L47.0955 120.606H47.0955L46.5524 118.681ZM56.3888 98.1968L57.9044 96.8919C57.351 96.249 56.4522 96.0253 55.662 96.3335C54.8717 96.6418 54.3619 97.415 54.3899 98.2628L56.3888 98.1968ZM71.3643 104.765L71.9074 106.69L71.3643 104.765ZM79.5449 73.745L77.6183 74.2818L79.5449 73.745ZM56.5319 51.5263L57.075 53.4511L56.5319 51.5263ZM46.7279 68.6822L44.8893 69.4692C45.255 70.3237 46.1613 70.8136 47.0765 70.6516C47.9917 70.4895 48.6747 69.7184 48.725 68.7902L46.7279 68.6822ZM39.285 55.7154L37.7211 56.962L37.7211 56.962L39.285 55.7154ZM33.2078 48.6595L34.3368 50.3104C34.668 50.0839 34.9234 49.7631 35.0698 49.3895L33.2078 48.6595ZM27.9758 52.2374L26.8468 50.5865C26.2316 51.0072 25.9014 51.7351 25.99 52.4751C26.0786 53.2152 26.5713 53.8445 27.2684 54.1081L27.9758 52.2374ZM34.2572 56.5898L33.2039 58.2899C34.0772 58.831 35.2183 58.6224 35.8438 57.8075C36.4693 56.9925 36.3756 55.8363 35.6272 55.1326L34.2572 56.5898ZM24.026 52.6727L24.3915 50.7063L24.026 52.6727ZM2.73242 57.6725L1.71965 55.9479C1.15382 56.2801 0.786984 56.8688 0.738002 57.5232C0.68902 58.1775 0.964126 58.8143 1.47417 59.2271L2.73242 57.6725ZM20.2902 65.1707L20.0353 67.1544H20.0354L20.2902 65.1707ZM39.1976 62.4165L40.8488 61.288C40.4019 60.6341 39.9525 60.0162 39.5035 59.4327L37.9184 60.6523L36.3333 61.8719C36.7367 62.3963 37.142 62.9534 37.5464 63.545L39.1976 62.4165ZM42.8402 68.3331L44.5997 67.3823C43.6741 65.6695 42.4539 63.6365 40.8488 61.288L39.1976 62.4165L37.5464 63.545C39.0777 65.7855 40.2248 67.7001 41.0807 69.2839L42.8402 68.3331ZM31.72 65.4421L32.2631 67.367C35.0638 66.5768 38.3209 67.4021 41.6275 69.9235L42.8402 68.3331L44.0529 66.7427C40.1256 63.7481 35.5838 62.2739 31.1769 63.5173L31.72 65.4421ZM23.5394 96.4622L25.466 95.9254C23.4966 88.8563 23.4224 82.0747 24.7974 76.8605C26.1867 71.5926 28.9181 68.3108 32.2631 67.367L31.72 65.4421L31.1769 63.5173C25.908 65.0039 22.5012 69.8813 20.9297 75.8405C19.344 81.8534 19.4864 89.3665 21.6128 96.9989L23.5394 96.4622ZM46.5524 118.681L46.0093 116.756C42.6678 117.699 38.6454 116.327 34.7408 112.557C30.8751 108.825 27.4356 102.995 25.466 95.9254L23.5394 96.4622L21.6128 96.9989C23.7391 104.631 27.4992 111.126 31.9625 115.435C36.387 119.707 41.8232 122.093 47.0955 120.606L46.5524 118.681ZM56.3888 98.1968L54.3899 98.2628C54.5523 103.179 53.7483 107.513 52.2235 110.765C50.7 114.016 48.5393 116.042 46.0093 116.756L46.5524 118.681L47.0955 120.606C51.0621 119.487 53.9897 116.422 55.8453 112.463C57.6996 108.508 58.5656 103.515 58.3877 98.1307L56.3888 98.1968ZM71.3643 104.765L70.8212 102.84C66.9953 103.92 62.2529 101.943 57.9044 96.8919L56.3888 98.1968L54.8731 99.5017C59.6396 105.038 65.8691 108.394 71.9074 106.69L71.3643 104.765ZM79.5449 73.745L77.6183 74.2818C79.5877 81.3509 79.662 88.1325 78.2869 93.3467C76.8976 98.6146 74.1662 101.896 70.8212 102.84L71.3643 104.765L71.9074 106.69C77.1763 105.203 80.5831 100.326 82.1546 94.3667C83.7404 88.3538 83.5979 80.8406 81.4715 73.2082L79.5449 73.745ZM56.5319 51.5263L57.075 53.4511C60.4165 52.5083 64.4389 53.8802 68.3435 57.65C72.2092 61.3823 75.6488 67.2125 77.6183 74.2818L79.5449 73.745L81.4715 73.2082C79.3452 65.5761 75.5851 59.0816 71.1218 54.7724C66.6973 50.5006 61.2611 48.1138 55.9888 49.6014L56.5319 51.5263ZM46.7279 68.6822L48.725 68.7902C49.1841 60.3058 52.579 54.7197 57.075 53.4511L56.5319 51.5263L55.9888 49.6014C48.9236 51.5949 45.2169 59.5906 44.7308 68.5741L46.7279 68.6822ZM39.285 55.7154L37.7211 56.962C40.7754 60.794 43.2666 65.6787 44.8893 69.4692L46.7279 68.6822L48.5665 67.8951C46.8778 63.9502 44.2207 58.6989 40.849 54.4688L39.285 55.7154ZM33.2078 48.6595C35.0698 49.3895 35.0625 49.408 35.055 49.4264C35.0524 49.4326 35.0444 49.4514 35.0389 49.4639C35.0278 49.4892 35.0159 49.5149 35.0031 49.5409C34.9776 49.5929 34.9485 49.6464 34.9154 49.7007C34.849 49.8096 34.7671 49.9204 34.667 50.0271C34.4601 50.2477 34.2069 50.417 33.9277 50.5242C33.3911 50.7302 32.9288 50.6474 32.7188 50.5924C32.4939 50.5334 32.3353 50.4482 32.2672 50.4092C32.1886 50.3642 32.137 50.3262 32.119 50.3126C32.078 50.2817 32.1829 50.3576 32.561 50.7629C33.2835 51.5374 34.7627 53.2505 37.7211 56.962L39.285 55.7154L40.849 54.4688C37.8795 50.7433 36.3201 48.9286 35.4859 48.0343C35.0857 47.6053 34.7828 47.3116 34.5286 47.1198C34.4411 47.0538 34.1496 46.8322 33.7328 46.723C33.5071 46.6639 33.0359 46.582 32.4941 46.7899C32.2124 46.8981 31.9577 47.0687 31.7498 47.2903C31.6493 47.3975 31.5671 47.5087 31.5005 47.6179C31.4673 47.6723 31.4381 47.7259 31.4125 47.7781C31.3997 47.8041 31.3878 47.8298 31.3767 47.8551C31.3713 47.8677 31.3633 47.8865 31.3607 47.8927C31.3531 47.9111 31.3458 47.9296 33.2078 48.6595ZM27.9758 52.2374L29.1047 53.8883L34.3368 50.3104L33.2078 48.6595L32.0789 47.0086L26.8468 50.5865L27.9758 52.2374ZM34.2572 56.5898L35.6272 55.1326C33.7539 53.3715 32.0657 52.1979 30.8221 51.4558C30.2005 51.0849 29.6899 50.8218 29.3229 50.6469C29.1393 50.5594 28.9916 50.494 28.8836 50.4481C28.8297 50.4252 28.7857 50.4071 28.7521 50.3936C28.7353 50.3869 28.7211 50.3813 28.7096 50.3768C28.7038 50.3746 28.6988 50.3726 28.6944 50.3709C28.6922 50.3701 28.6901 50.3693 28.6882 50.3686C28.6873 50.3683 28.6864 50.3679 28.6856 50.3676C28.6852 50.3674 28.6846 50.3672 28.6843 50.3671C28.6837 50.3669 28.6832 50.3667 27.9758 52.2374C27.2684 54.1081 27.2679 54.1079 27.2673 54.1077C27.2671 54.1077 27.2666 54.1074 27.2663 54.1073C27.2656 54.1071 27.2649 54.1068 27.2643 54.1066C27.2631 54.1061 27.2621 54.1057 27.2613 54.1054C27.2595 54.1047 27.2585 54.1043 27.258 54.1042C27.2572 54.1038 27.259 54.1045 27.2633 54.1063C27.2719 54.1097 27.2907 54.1174 27.3192 54.1294C27.3761 54.1536 27.4717 54.1957 27.6022 54.2579C27.8633 54.3822 28.2635 54.5871 28.7724 54.8908C29.7901 55.498 31.2426 56.5007 32.8873 58.0469L34.2572 56.5898ZM24.026 52.6727L23.6606 54.639C27.7611 55.4011 30.9482 56.8924 33.2039 58.2899L34.2572 56.5898L35.3106 54.8896C32.7036 53.2745 29.0549 51.5731 24.3915 50.7063L24.026 52.6727ZM2.73242 57.6725C3.7452 59.3971 3.74483 59.3973 3.74452 59.3975C3.74447 59.3975 3.74419 59.3977 3.7441 59.3977C3.74391 59.3978 3.74389 59.3978 3.74405 59.3978C3.74436 59.3976 3.74537 59.397 3.74706 59.396C3.75045 59.394 3.75659 59.3905 3.76542 59.3854C3.78309 59.3752 3.81155 59.3588 3.85038 59.3369C3.92805 59.2929 4.04715 59.2263 4.20441 59.1408C4.51907 58.9697 4.98566 58.7235 5.57812 58.4317C6.76514 57.8471 8.44625 57.085 10.4147 56.3784C14.413 54.943 19.3305 53.8342 23.6606 54.639L24.026 52.6727L24.3915 50.7063C19.0141 49.7069 13.2848 51.0981 9.06319 52.6136C6.92169 53.3824 5.09953 54.2086 3.81077 54.8433C3.16535 55.1612 2.65093 55.4325 2.29404 55.6265C2.11554 55.7235 1.97623 55.8013 1.87944 55.8561C1.83104 55.8835 1.79325 55.9052 1.76649 55.9206C1.75311 55.9284 1.74248 55.9345 1.73465 55.9391C1.73074 55.9414 1.72753 55.9432 1.72503 55.9447C1.72378 55.9454 1.7227 55.9461 1.7218 55.9466C1.72136 55.9469 1.72082 55.9472 1.72059 55.9473C1.7201 55.9476 1.71965 55.9479 2.73242 57.6725ZM20.2902 65.1707L20.5451 63.187C15.9448 62.596 11.7981 60.8357 8.7696 59.1894C7.26305 58.3705 6.05291 57.5905 5.22491 57.0195C4.81135 56.7343 4.49442 56.5021 4.28487 56.3445C4.18013 56.2657 4.10233 56.2056 4.05282 56.1669C4.02807 56.1476 4.0104 56.1336 3.99999 56.1253C3.99478 56.1211 3.99138 56.1184 3.98982 56.1172C3.98904 56.1165 3.98872 56.1163 3.98886 56.1164C3.98893 56.1165 3.98912 56.1166 3.98942 56.1168C3.98957 56.117 3.98988 56.1172 3.98996 56.1173C3.9903 56.1176 3.99067 56.1179 2.73242 57.6725C1.47417 59.2271 1.4746 59.2274 1.47506 59.2278C1.47526 59.228 1.47574 59.2283 1.47613 59.2287C1.4769 59.2293 1.47779 59.23 1.4788 59.2308C1.48081 59.2324 1.4833 59.2344 1.48626 59.2368C1.49217 59.2416 1.49997 59.2478 1.50963 59.2555C1.52895 59.2709 1.55572 59.292 1.58977 59.3186C1.65786 59.3718 1.7551 59.4469 1.88015 59.5409C2.13016 59.729 2.49176 59.9936 2.95406 60.3124C3.87776 60.9494 5.20861 61.8065 6.85921 62.7038C10.145 64.4899 14.7772 66.4788 20.0353 67.1544L20.2902 65.1707ZM37.9184 60.6523L36.8394 58.9684C34.5925 60.4081 27.8961 64.1315 20.5451 63.187L20.2902 65.1707L20.0354 67.1544C28.8487 68.2868 36.5727 63.8901 38.9975 62.3363L37.9184 60.6523Z" fill="white" mask="url(#path-16-outside-2_0_5824)"/>
<path d="M24.059 52.687C33.7663 54.4912 38.7426 60.1325 38.7426 60.1325C38.7426 60.1325 30.1816 66.4517 20.3232 65.185C10.4647 63.9184 2.76538 57.6868 2.76538 57.6868C2.76538 57.6868 14.3516 50.8828 24.059 52.687Z" fill="#8CE096"/>
<path d="M39.2305 62.4308C33.7598 54.4264 28.0087 52.2517 28.0087 52.2517L33.2408 48.6739C33.2408 48.6739 33.3901 48.2928 39.318 55.7297C45.2458 63.1667 48.9991 74.1334 48.8217 74.5802L45.4922 74.5362C45.4922 74.5362 44.7012 70.4353 39.2305 62.4308Z" fill="#120101"/>
<ellipse cx="16.2057" cy="27.6332" rx="16.2057" ry="27.6332" transform="matrix(-0.962425 0.271549 0.268381 0.963313 47.3506 61.0557)" fill="#FFE4B8"/>
<ellipse cx="16.2057" cy="27.6332" rx="16.2057" ry="27.6332" transform="matrix(-0.962425 0.271549 0.268381 0.963313 72.1621 47.1396)" fill="#EA494B"/>
<path d="M51.8058 54.686C47.0726 60.1809 45.5911 70.9467 48.6508 82.2198C52.2801 95.5917 61.0513 105.079 69.0945 104.939C73.8268 99.4435 75.3085 88.6784 72.2491 77.4061C68.6199 64.0348 59.8487 54.5466 51.8058 54.686Z" fill="#FDF8F0"/>
<path d="M51.3516 55.007C46.6556 60.5339 45.2456 71.3093 48.3803 82.5611C52.0987 95.9075 60.9331 105.335 68.9748 105.142C73.6703 99.6144 75.0799 88.8393 71.9453 77.5881C68.227 64.2421 59.3931 54.8139 51.3516 55.007Z" fill="#FFE4B8"/>
<ellipse cx="0.957377" cy="2.19698" rx="0.957377" ry="2.19698" transform="matrix(-0.962425 0.271549 0.268381 0.963313 55.5527 80.9268)" fill="#120101"/>
<ellipse cx="0.957377" cy="2.19698" rx="0.957377" ry="2.19698" transform="matrix(-0.962425 0.271549 0.268381 0.963313 47.4287 85.0449)" fill="#120101"/>
<path d="M56.6299 98.5322C59.3159 101.675 66.5993 107.019 74.2453 103.247C81.8913 99.4752 81.554 84.4508 80.4295 77.4102" stroke="black"/>
<path d="M5.27539 58.2965C8.92546 57.8742 16.2068 57.4737 24.1807 58.0068M37.381 59.8629C33.0932 58.8671 28.5338 58.2978 24.1807 58.0068M24.1807 58.0068L20.7774 60.9241" stroke="black"/>
<path d="M19.6642 57.6187L16.7783 54.5732" stroke="black"/>
</svg>
