<svg width="200" height="200" viewBox="0 0 200 200" fill="none" xmlns="http://www.w3.org/2000/svg">
<path d="M133.46 26.0752C133.809 25.9507 134.254 25.8637 134.753 26.0068C135.23 26.1439 135.618 26.4526 135.955 26.8262C136.293 27.2008 136.638 27.7087 137.019 28.3555C138.189 30.3473 141.09 35.1841 142.396 37.3564C142.53 37.5807 142.572 37.849 142.512 38.1035L142.355 38.7549L144.854 41.2148C144.907 41.2665 144.953 41.3239 144.993 41.3857L184.856 103.242C185.01 103.48 185.055 103.772 184.98 104.046C184.906 104.32 184.719 104.549 184.466 104.677L181.329 106.257C183.346 108.664 185.433 111.162 186.924 112.954C187.143 113.217 187.212 113.574 187.107 113.899C187.003 114.225 186.74 114.475 186.409 114.562C185.71 114.745 184.961 114.944 184.17 115.152C185.091 116.535 185.952 117.829 186.658 118.893C186.847 119.177 186.877 119.539 186.738 119.852C186.599 120.164 186.311 120.384 185.973 120.435C184.957 120.586 183.92 120.733 182.863 120.88L181.638 123.288C181.5 123.558 181.247 123.751 180.951 123.813L129.639 134.569C129.277 134.645 128.902 134.515 128.665 134.231C128.428 133.948 128.368 133.556 128.507 133.214L129.334 131.175C129.3 131.164 129.265 131.153 129.229 131.142C129.181 131.133 129.132 131.124 129.082 131.114C128.568 131.473 128.054 131.868 127.557 132.295C124.962 134.522 122.98 137.485 123.354 140.949C123.764 144.763 125.442 150.207 127.052 154.765C127.851 157.029 128.625 159.049 129.198 160.503C129.485 161.229 129.721 161.814 129.886 162.217C129.968 162.418 130.033 162.574 130.076 162.679C130.098 162.731 130.115 162.771 130.126 162.798C130.131 162.811 130.136 162.821 130.139 162.827C130.14 162.83 130.141 162.833 130.142 162.835L130.143 162.837C130.355 163.343 130.121 163.926 129.616 164.144C129.112 164.361 128.527 164.13 128.306 163.628L128.305 163.627C128.304 163.626 128.304 163.624 128.303 163.621C128.3 163.616 128.296 163.607 128.291 163.595C128.28 163.571 128.264 163.535 128.242 163.487C128.198 163.392 128.132 163.249 128.044 163.066C127.869 162.702 127.609 162.179 127.273 161.552C126.601 160.295 125.633 158.632 124.44 156.992C123.243 155.346 121.849 153.762 120.335 152.631C118.82 151.499 117.266 150.879 115.714 150.993C114.309 151.096 112.768 152.247 111.166 154.521C109.597 156.746 108.131 159.819 106.815 163.274C104.188 170.175 102.235 178.393 101.244 183.854C101.147 184.391 100.637 184.751 100.099 184.663C99.5603 184.575 99.1915 184.071 99.2705 183.531L99.2715 183.53C99.2716 183.529 99.2712 183.527 99.2715 183.525C99.2721 183.521 99.2731 183.513 99.2744 183.504C99.2771 183.485 99.2817 183.456 99.2871 183.417C99.2979 183.339 99.314 183.223 99.334 183.071C99.374 182.767 99.4306 182.318 99.4961 181.747C99.627 180.604 99.7932 178.97 99.9346 177.011C100.218 173.087 100.399 167.881 99.999 162.712C99.5971 157.521 98.6162 152.474 96.6436 148.802C95.663 146.977 94.4575 145.531 92.9951 144.562C91.5445 143.602 89.7882 143.076 87.6299 143.163C78.4346 143.534 68.3933 147.571 59.5195 152.543C50.6626 157.506 43.0747 163.339 38.8125 167.181C38.4119 167.542 37.7971 167.52 37.4229 167.132C37.0487 166.743 37.05 166.128 37.4258 165.741L37.4268 165.74C37.4276 165.739 37.4288 165.737 37.4307 165.735C37.4344 165.732 37.4407 165.726 37.4482 165.718C37.4634 165.702 37.4865 165.679 37.5166 165.647C37.5772 165.585 37.667 165.49 37.7842 165.367C38.0186 165.121 38.3612 164.759 38.792 164.296C39.6538 163.37 40.8684 162.043 42.2744 160.441C45.0894 157.234 48.6611 152.939 51.7168 148.561C54.7957 144.149 57.2633 139.772 57.9932 136.382C58.3564 134.694 58.2555 133.403 57.75 132.486C57.2655 131.608 56.2941 130.871 54.4375 130.526C46.3286 129.022 36.3797 128.739 28.4219 128.836C24.4507 128.885 20.9899 129.028 18.5225 129.159C17.2892 129.225 16.3044 129.287 15.6289 129.333C15.2912 129.356 15.03 129.375 14.8545 129.388C14.7669 129.394 14.7005 129.4 14.6562 129.403C14.6341 129.405 14.6174 129.406 14.6064 129.407C14.6013 129.408 14.5974 129.408 14.5947 129.408H14.5908C14.0473 129.452 13.5683 129.052 13.5146 128.51C13.4612 127.967 13.8523 127.482 14.3936 127.418C21.1802 126.624 31.9122 125.098 42.0342 123.103C45.9872 122.323 49.8384 121.472 53.3213 120.569L10.8428 54.3779C10.6906 54.1407 10.6455 53.8503 10.7188 53.5781C10.7921 53.306 10.9769 53.077 11.2275 52.9482C11.7526 52.6786 12.5625 52.3266 13.6396 51.9307C13.5204 51.7058 13.4903 51.4433 13.5586 51.1963C13.633 50.9268 13.8168 50.701 14.0654 50.5732C15.1098 50.037 17.2805 49.1732 20.4434 48.291C20.005 47.5105 19.6308 46.838 19.3359 46.2949C19.1197 45.8966 18.9422 45.5628 18.8115 45.3047C18.6977 45.08 18.5761 44.8319 18.5215 44.6543C18.4299 44.3565 18.3668 43.967 18.4971 43.5635C18.6391 43.1236 18.9519 42.8428 19.2695 42.6787C19.5617 42.5278 19.8879 42.4572 20.1797 42.417C20.4821 42.3754 20.8236 42.3576 21.1865 42.3496C22.6968 42.3164 24.7528 42.4424 27.752 42.2588C30.8398 42.0697 36.5494 42.3843 42.7021 42.9199C48.8784 43.4576 55.5783 44.2254 60.6865 44.9639C64.8892 45.5715 69.5453 47.2369 73.6162 49.1172C77.083 50.7184 80.1856 52.5053 82.2793 53.9863C83.2087 53.1522 84.8168 51.7946 86.6992 50.3525C89.1694 48.4603 92.187 46.3642 94.8311 45.0977C98.0344 43.5632 102.212 41.7173 105.842 40.1328C109.494 38.5386 112.56 37.2223 113.599 36.7227C114.713 36.1867 116.433 35.5622 118.134 34.9297C119.873 34.2828 121.62 33.6178 122.899 32.9785C124.15 32.3535 126.203 30.9312 128.159 29.5342C129.117 28.8501 130.051 28.1732 130.806 27.6406C131.533 27.1272 132.19 26.6778 132.569 26.4893C132.81 26.3694 133.151 26.1855 133.46 26.0752Z" fill="#EA494B" stroke="white" stroke-width="2" stroke-linecap="round" stroke-linejoin="round"/>
<path d="M87.5169 142.164C106.372 141.403 100.187 183.677 100.187 183.677C102.183 172.68 108.054 150.547 115.568 149.996C123.083 149.445 129.148 163.225 129.148 163.225C129.148 163.225 123.136 148.942 122.286 141.057C121.436 133.173 131.363 128.022 133.972 127.652L79.4512 102.755C78.7046 105.244 75.0178 111.565 66.243 116.929C57.4682 122.293 28.0496 126.819 14.4372 128.412C14.4372 128.412 38.1329 126.5 54.5473 129.544C70.9618 132.589 38.07 166.439 38.07 166.439C46.6962 158.664 68.6622 142.925 87.5169 142.164Z" fill="#FF4646"/>
<path d="M57.5381 121.067L88.7373 106.774L130.638 130.478L129.341 133.582L55.9121 126.666V126.542L55.7715 126.599L10.1611 55.625L12.9834 53.4746L57.5381 121.067Z" fill="#518FC0"/>
<path d="M130.637 130.477L129.34 133.582L55.9121 126.666" stroke="#120101" stroke-linecap="round" stroke-linejoin="round"/>
<path d="M129.358 133.591L130.623 130.478L146.112 101.916L182.566 119.116L180.672 122.835L129.358 133.591Z" fill="#518FC0" stroke="#120101" stroke-linejoin="round"/>
<path d="M185.75 119.447C182.434 114.45 175.71 104.366 175.344 104.001L130.844 130.642C131.055 130.515 138.001 127.931 144.177 126.408C160.413 122.405 174.466 121.133 185.75 119.447Z" fill="#FDF8F0"/>
<path d="M186.081 113.595C182.245 108.985 174.472 99.6853 174.069 99.3623L131.076 130.311C133.33 129.134 139.526 127.182 145.502 125.001C151.478 122.821 175.044 116.489 186.081 113.595Z" fill="#FDF8F0" stroke="#120101" stroke-linejoin="round"/>
<path d="M11.6094 53.839C13.5096 52.8632 19.6826 50.6036 29.174 49.3711L129.502 130.948C129.502 130.948 115.341 127.401 95.4104 125.072C80.1344 123.286 62.8184 124.411 57.8881 125.951L11.6094 53.839Z" fill="#FDF8F0"/>
<path d="M14.4482 51.463C16.3485 50.4872 22.5215 48.2276 32.0129 46.9951L129.503 130.947C129.503 130.947 116.971 125.892 98.2493 122.696C83.0887 120.107 64.213 121.874 59.2827 123.414L14.4482 51.463Z" fill="#FDF8F0"/>
<path d="M14.4473 51.4629L59.2818 123.414C64.212 121.873 83.0877 120.107 98.2483 122.695C116.97 125.892 129.502 130.947 129.502 130.947" stroke="#120101" stroke-linecap="round" stroke-linejoin="round"/>
<path d="M134.598 36.0669L155.3 68.2529L111.108 89.0664L99.6703 71.7772L98.9618 69.761L98.9216 69.6474L98.8439 69.5696L97.3748 68.0898L91.4226 58.5238L134.598 36.0669Z" fill="#FDF8F0" stroke="#120101"/>
<path d="M91.3705 58.4401C97.0934 54.1027 103.049 50.8408 109.953 47.5215C113.493 45.8196 117.277 44.1051 121.405 42.2201C125.444 40.3758 129.809 38.369 134.588 36.0595L138.432 42.2384L95.1759 64.5559L91.3705 58.4401Z" fill="#518FC0" stroke="#120101"/>
<path d="M98.375 53.8691L118.24 85.0849" stroke="#120101"/>
<path d="M115.913 45.0316L135.994 77.7868" stroke="#120101"/>
<path d="M79.5799 59.5348C87.1674 70.1837 91.3027 77.0218 98.0235 90.1323C92.6788 89.1005 82.7731 87.8448 73.3118 87.0388C68.3091 86.6125 63.4166 86.3103 59.3739 86.2333C55.7224 86.1638 52.6955 86.2767 50.921 86.6728L39.5706 68.8143L33.2928 57.5143L79.5799 59.5348Z" fill="#FDF8F0" stroke="#120101"/>
<path d="M32.5057 56.5042C47.5666 55.4137 62.5352 55.6314 79.4919 59.4615L82.3749 64.6509C61.342 61.9968 51.0312 61.5081 36.0654 62.5287L32.5057 56.5042Z" fill="#518FC0" stroke="#120101"/>
<path d="M41.9863 55.8369C48.7426 67.1647 53.0179 73.8119 59.2369 85.9448" stroke="#120101"/>
<path d="M59.9482 56.457C66.7852 68.226 72.457 77.714 77.2136 87.2272" stroke="#120101"/>
<path d="M138.004 86.9645C142.761 83.8862 150.074 85.1221 154.339 89.7251C158.604 94.3281 158.205 100.554 153.449 103.633C151.448 104.928 148.994 105.456 146.505 105.295L134.23 94.9861C133.836 91.8635 135.116 88.8337 138.004 86.9645Z" fill="#8CE096"/>
<path d="M134.248 94.9781C137.708 93.3167 142.484 94.3407 145.28 97.461C147.474 99.9098 147.836 102.967 146.495 105.282L134.248 94.9781Z" fill="#518FC0"/>
<path d="M81.1523 98.4316L93.2748 105.401" stroke="#120101" stroke-linecap="round"/>
<path d="M131 131L81.5 54" stroke="black"/>
</svg>
