<svg width="200" height="200" viewBox="0 0 200 200" fill="none" xmlns="http://www.w3.org/2000/svg">
<path d="M133.46 26.0757C133.809 25.9512 134.254 25.8642 134.753 26.0073C135.23 26.1444 135.618 26.4531 135.955 26.8267C136.293 27.2012 136.638 27.7092 137.019 28.356C138.189 30.3478 141.09 35.1846 142.396 37.3569C142.53 37.5812 142.572 37.8495 142.512 38.104L142.355 38.7554L144.854 41.2153C144.907 41.2669 144.953 41.3244 144.993 41.3862L184.856 103.243C185.01 103.481 185.055 103.773 184.98 104.046C184.906 104.32 184.719 104.55 184.466 104.677L181.329 106.257C183.346 108.664 185.433 111.163 186.924 112.955C187.143 113.217 187.212 113.574 187.107 113.9C187.003 114.225 186.74 114.475 186.409 114.562C185.71 114.745 184.961 114.944 184.17 115.153C185.091 116.535 185.952 117.829 186.658 118.893C186.847 119.178 186.877 119.54 186.738 119.852C186.599 120.164 186.311 120.384 185.973 120.435C184.957 120.587 183.92 120.733 182.863 120.88L181.638 123.289C181.5 123.558 181.247 123.752 180.951 123.814L129.639 134.57C129.5 134.599 129.36 134.597 129.227 134.569L125.646 134.231C124.074 136.14 123.08 138.409 123.354 140.95C123.764 144.764 125.442 150.207 127.052 154.765C127.851 157.029 128.625 159.049 129.198 160.503C129.485 161.23 129.721 161.815 129.886 162.217C129.968 162.418 130.033 162.574 130.076 162.679C130.098 162.732 130.115 162.772 130.126 162.798C130.131 162.811 130.136 162.821 130.139 162.828C130.14 162.831 130.141 162.834 130.142 162.835L130.143 162.837C130.355 163.343 130.121 163.927 129.616 164.144C129.112 164.361 128.527 164.131 128.306 163.628L128.305 163.627C128.304 163.626 128.304 163.624 128.303 163.622C128.3 163.616 128.296 163.607 128.291 163.595C128.28 163.572 128.264 163.535 128.242 163.488C128.198 163.392 128.132 163.249 128.044 163.067C127.869 162.702 127.609 162.179 127.273 161.552C126.601 160.295 125.633 158.632 124.44 156.993C123.243 155.347 121.849 153.762 120.335 152.631C118.82 151.499 117.266 150.88 115.714 150.994C114.309 151.097 112.768 152.248 111.166 154.521C109.597 156.746 108.131 159.82 106.815 163.275C104.188 170.176 102.235 178.394 101.244 183.855C101.147 184.392 100.637 184.752 100.099 184.664C99.5603 184.575 99.1915 184.072 99.2705 183.532L99.2715 183.531C99.2716 183.53 99.2712 183.528 99.2715 183.526C99.2721 183.521 99.2731 183.514 99.2744 183.504C99.2771 183.485 99.2817 183.456 99.2871 183.417C99.2979 183.34 99.314 183.224 99.334 183.072C99.374 182.767 99.4306 182.319 99.4961 181.748C99.627 180.605 99.7932 178.97 99.9346 177.011C100.218 173.087 100.399 167.881 99.999 162.712C99.5971 157.521 98.6162 152.474 96.6436 148.802C95.663 146.977 94.4575 145.532 92.9951 144.563C91.5445 143.602 89.7882 143.076 87.6299 143.164C78.4346 143.535 68.3933 147.571 59.5195 152.543C50.6626 157.506 43.0747 163.34 38.8125 167.181C38.4119 167.542 37.7971 167.521 37.4229 167.132C37.0487 166.744 37.05 166.129 37.4258 165.742L37.4268 165.741C37.4276 165.74 37.4288 165.738 37.4307 165.736C37.4344 165.732 37.4407 165.726 37.4482 165.718C37.4634 165.703 37.4865 165.679 37.5166 165.648C37.5772 165.585 37.667 165.491 37.7842 165.368C38.0186 165.122 38.3612 164.759 38.792 164.296C39.6538 163.371 40.8684 162.044 42.2744 160.442C45.0894 157.235 48.6611 152.94 51.7168 148.561C54.7957 144.149 57.2633 139.773 57.9932 136.382C58.3564 134.695 58.2555 133.403 57.75 132.487C57.2655 131.609 56.2941 130.871 54.4375 130.527C46.3286 129.023 36.3797 128.739 28.4219 128.836C24.4507 128.885 20.9899 129.028 18.5225 129.16C17.2892 129.225 16.3044 129.287 15.6289 129.333C15.2912 129.357 15.03 129.375 14.8545 129.388C14.7669 129.395 14.7005 129.4 14.6562 129.404C14.6341 129.406 14.6174 129.407 14.6064 129.408C14.6013 129.408 14.5974 129.408 14.5947 129.409H14.5908C14.0473 129.453 13.5683 129.053 13.5146 128.51C13.4612 127.968 13.8523 127.482 14.3936 127.418C21.1802 126.624 31.9122 125.098 42.0342 123.103C45.1769 122.484 48.2555 121.819 51.1357 121.12L9.39453 56.1655C9.11274 55.727 9.21442 55.1456 9.62891 54.8296L10.7002 54.0122C10.675 53.8696 10.6803 53.7215 10.7188 53.5786C10.7921 53.3065 10.9769 53.0775 11.2275 52.9487C11.7526 52.6791 12.5625 52.3271 13.6396 51.9312C13.5204 51.7063 13.4903 51.4438 13.5586 51.1968C13.633 50.9273 13.8168 50.7015 14.0654 50.5737C15.1098 50.0375 17.2805 49.1737 20.4434 48.2915C20.005 47.511 19.6308 46.8385 19.3359 46.2954C19.1197 45.8971 18.9422 45.5632 18.8115 45.3052C18.6977 45.0804 18.5761 44.8324 18.5215 44.6548C18.4299 44.357 18.3668 43.9675 18.4971 43.564C18.6391 43.1241 18.9519 42.8432 19.2695 42.6792C19.5617 42.5283 19.8879 42.4577 20.1797 42.4175C20.4821 42.3759 20.8236 42.3581 21.1865 42.3501C22.6968 42.3169 24.7528 42.4429 27.752 42.2593C30.8398 42.0702 36.5494 42.3848 42.7021 42.9204C48.8784 43.4581 55.5783 44.2258 60.6865 44.9644C64.8892 45.572 69.5453 47.2374 73.6162 49.1177C77.083 50.7189 80.1856 52.5057 82.2793 53.9868C83.2087 53.1527 84.8168 51.7951 86.6992 50.353C89.1694 48.4607 92.187 46.3647 94.8311 45.0981C98.0344 43.5637 102.212 41.7178 105.842 40.1333C109.494 38.5391 112.56 37.2228 113.599 36.7231C114.713 36.1871 116.433 35.5627 118.134 34.9302C119.873 34.2833 121.62 33.6183 122.899 32.979C124.15 32.354 126.203 30.9317 128.159 29.5347C129.117 28.8506 130.051 28.1737 130.806 27.6411C131.533 27.1277 132.19 26.6783 132.569 26.4897C132.81 26.3699 133.151 26.186 133.46 26.0757ZM129.082 131.115C128.568 131.474 128.054 131.868 127.557 132.295C127.52 132.327 127.484 132.36 127.447 132.392L128.774 132.517L129.308 131.244L129.334 131.175C129.3 131.164 129.265 131.154 129.229 131.142C129.181 131.133 129.132 131.124 129.082 131.115ZM11.5752 55.8608L53.1826 120.606C53.2289 120.594 53.2751 120.582 53.3213 120.57L11.7217 55.7485L11.5752 55.8608Z" stroke="white" stroke-width="2" stroke-linecap="round" stroke-linejoin="round"/>
<path d="M129.359 133.591L130.624 130.478C130.624 130.478 146.5 119.117 182.566 119.117C184.196 119.117 180.672 122.835 180.672 122.835L129.359 133.591Z" fill="#518FC0" stroke="#120101" stroke-linejoin="round"/>
<path d="M87.5169 142.164C106.372 141.403 100.187 183.677 100.187 183.677C102.183 172.68 108.054 150.547 115.568 149.996C123.083 149.445 129.148 163.225 129.148 163.225C129.148 163.225 123.136 148.942 122.286 141.057C121.436 133.173 124.891 132.87 127.5 132.5L79.4512 102.755C78.7046 105.244 75.0178 111.565 66.243 116.929C57.4682 122.293 28.0496 126.819 14.4372 128.412C14.4372 128.412 38.1329 126.5 54.5473 129.544C70.9618 132.589 38.07 166.439 38.07 166.439C46.6962 158.664 68.6622 142.925 87.5169 142.164Z" fill="#FF4646"/>
<path d="M132.942 27.3853C134.12 26.8001 134.618 26.3672 136.085 28.8628C137.259 30.8597 140.163 35.7015 141.468 37.8726L141.182 39.0728L144.081 41.9282L184.5 104L180.5 106C182.733 108.661 184.793 111.266 186.466 113.276C186.575 113.407 186.61 113.586 186.558 113.749C186.505 113.911 186.374 114.036 186.209 114.08C185.168 114.352 184.737 114.673 183.5 115C184.601 116.651 185.381 118.253 186.209 119.5C174.925 121.186 160.413 122.406 144.178 126.409C142.257 126.882 140.26 127.458 138.416 128.031C137.952 128.193 137.499 128.35 137.061 128.504C134.472 129.416 132.397 130.187 131.309 130.755C130.772 131.035 129.5 130.946 129.504 130.948C129.504 130.948 129.503 130.947 129.5 130.946L129.502 130.948C129.459 130.937 115.311 127.398 95.4111 125.072C80.1351 123.286 62.819 124.411 57.8887 125.952L11.6094 53.8394C12.2661 53.5021 13.4342 53.0129 15.0723 52.4644L14.4482 51.4634C15.5497 50.8978 18.088 49.9026 21.875 48.9243C20.4315 46.3758 19.5044 44.6797 19.4062 44.3618C18.9159 42.7683 21.7355 43.6261 27.7422 43.2583C33.7492 42.8907 50.2973 44.4837 60.4717 45.9546C68.4089 47.1021 78.2025 52.1879 82.2842 55.2817C83.5009 54.0845 90.1378 48.4214 95.1914 46.0005C101.563 42.9486 111.84 38.6451 113.961 37.6245C116.082 36.604 120.602 35.2097 123.274 33.8745C125.947 32.5393 131.765 27.9708 132.942 27.3853Z" fill="#FDF8F0"/>
<path d="M59.1016 123.359C90.5148 116.183 130.638 130.478 130.638 130.478L129.341 133.582L55.9121 126.666C55.913 126.663 55.9279 126.612 55.9561 126.524L55.7715 126.599L10.1611 55.625L14.5 52L59.1016 123.359Z" fill="#518FC0"/>
<path d="M130.637 130.477L129.34 133.582L55.9121 126.666" stroke="#120101" stroke-linecap="round" stroke-linejoin="round"/>
<path d="M14.4478 51.4634L59.2822 123.415C64.2125 121.874 83.0882 120.107 98.2488 122.696C116.97 125.892 130 131 130 131" stroke="#120101" stroke-linecap="round" stroke-linejoin="round"/>
<path d="M134.599 36.0669L155.301 68.2529L111.109 89.0664L99.6708 71.7772L98.9623 69.761L98.922 69.6474L98.8444 69.5696L97.3753 68.0898L91.4231 58.5238L134.599 36.0669Z" fill="#FDF8F0" stroke="#120101"/>
<path d="M91.371 58.4401C97.0939 54.1027 103.05 50.8408 109.954 47.5215C113.493 45.8196 117.277 44.1051 121.406 42.2201C125.445 40.3758 129.81 38.369 134.588 36.0595L138.433 42.2384L95.1764 64.5559L91.371 58.4401Z" fill="#518FC0" stroke="#120101"/>
<path d="M98.375 53.8696L118.24 85.0854" stroke="#120101"/>
<path d="M115.914 45.0311L135.995 77.7863" stroke="#120101"/>
<path d="M79.5809 59.5343C87.1684 70.1833 91.3037 77.0213 98.0244 90.1318C92.6798 89.1 82.7741 87.8444 73.3128 87.0383C68.3101 86.612 63.4176 86.3098 59.3749 86.2328C55.7233 86.1633 52.6965 86.2762 50.9219 86.6723L39.5716 68.8138L33.2938 57.5138L79.5809 59.5343Z" fill="#FDF8F0" stroke="#120101"/>
<path d="M32.5061 56.5042C47.5671 55.4137 62.5357 55.6314 79.4924 59.4615L82.3754 64.6509C61.3424 61.9968 51.0317 61.5081 36.0659 62.5287L32.5061 56.5042Z" fill="#518FC0" stroke="#120101"/>
<path d="M41.9868 55.8369C48.7431 67.1647 53.0184 73.8119 59.2373 85.9448" stroke="#120101"/>
<path d="M59.9492 56.457C66.7861 68.226 72.458 77.714 77.2146 87.2272" stroke="#120101"/>
<path d="M138.003 86.9645C142.76 83.8862 150.073 85.1221 154.338 89.7251C158.603 94.3281 158.205 100.554 153.449 103.633C151.447 104.928 148.993 105.456 146.504 105.295L134.23 94.9861C133.836 91.8635 135.115 88.8337 138.003 86.9645Z" fill="#8CE096"/>
<path d="M133.549 95.3612C137.038 93.1853 142.29 94.1258 145.279 97.4615C148.268 100.798 147.863 105.266 144.374 107.443C140.885 109.619 135.632 108.679 132.643 105.342C129.654 102.006 130.06 97.5373 133.549 95.3612Z" fill="#518FC0"/>
<path d="M81.1528 98.4316L93.2752 105.401" stroke="#120101" stroke-linecap="round"/>
<path d="M131 131L81.5 54" stroke="black"/>
<path d="M182.037 116.499C160.529 118.092 138.864 127.128 130.734 131.441L130.266 130.559C138.469 126.206 160.271 117.108 181.963 115.501L182.037 116.499Z" fill="black"/>
<path d="M180.602 106.989C157.505 111.768 137.78 124.919 130.825 130.88L130.175 130.12C137.221 124.081 157.095 110.832 180.398 106.011L180.602 106.989Z" fill="black"/>
</svg>
