<svg width="222" height="200" viewBox="0 0 222 200" fill="none" xmlns="http://www.w3.org/2000/svg">
<g clip-path="url(#clip0_0_5801)">
<path d="M185.652 78.4869L179.266 82.1739L160.256 49.2472L166.642 45.5602L185.652 78.4869Z" fill="#39A6D2" stroke="white"/>
<path d="M175.908 84.1129L169.522 87.7999L150.512 54.8731L156.898 51.1861L175.908 84.1129Z" fill="#39A6D2" stroke="white"/>
<path d="M133.015 108.877L126.628 112.564L107.618 79.6368L114.004 75.9498L133.015 108.877Z" fill="#39A6D2" stroke="white"/>
<path d="M122.443 114.981L116.057 118.668L97.0469 85.7413L103.433 82.0543L122.443 114.981Z" fill="#39A6D2" stroke="white"/>
<path d="M111.872 121.084L105.486 124.771L86.4756 91.8438L92.8617 88.1568L111.872 121.084Z" fill="#39A6D2" stroke="white"/>
<path d="M69.1435 145.753L62.7574 149.44L43.7471 116.513L50.1332 112.826L69.1435 145.753Z" fill="#39A6D2" stroke="white"/>
<path d="M59.2343 151.474L52.8482 155.161L33.8379 122.234L40.224 118.547L59.2343 151.474Z" fill="#39A6D2" stroke="white"/>
<path fill-rule="evenodd" clip-rule="evenodd" d="M179.397 35.9506C180.675 39.7585 178.621 43.914 174.801 45.2027C174.801 45.2027 174.746 45.2345 174.703 45.223C174.604 45.2433 174.423 45.3114 174.213 45.3955C173.768 45.5795 173.069 45.8361 172.194 46.2316C170.47 47.0069 168.1 48.1921 165.584 49.8276C160.416 53.1782 155.464 57.7968 153.384 63.6907C151.891 67.9255 150.85 72.8159 149.846 78.3445C149.632 79.5678 149.407 80.8345 149.17 82.1447C148.423 86.4616 147.623 91.0667 146.58 95.4446C143.895 106.857 139.147 119.35 126.726 126.521C116.375 132.497 105.622 132.803 95.4466 131.052C87.8086 129.743 79.8233 127.131 72.3321 124.674C70.2093 123.993 68.1417 123.28 66.1217 122.65C59.5519 120.577 52.23 120.772 45.3617 122.134C38.4933 123.497 32.6429 125.921 29.3659 127.703C25.8128 129.645 21.3698 128.324 19.4365 124.784C17.5191 121.272 18.8575 116.833 22.4264 114.919C26.9339 112.463 34.2085 109.51 42.573 107.87C50.9215 106.203 60.9085 105.716 70.5894 108.779C73.0324 109.568 75.3884 110.334 77.6851 111.061C84.959 113.461 91.533 115.604 98.0172 116.7C106.189 118.105 113.107 117.593 119.455 113.928C126.383 109.928 129.894 102.622 132.365 92.1769C133.29 88.2333 133.997 84.232 134.72 80.0019C134.953 78.6208 135.214 77.2238 135.459 75.7993C136.458 70.1997 137.654 64.3032 139.59 58.8595C143.227 48.5845 151.272 41.7396 157.651 37.6169C160.923 35.5077 163.972 33.9675 166.224 32.9604C167.364 32.4489 168.284 32.0648 168.954 31.8242C169.29 31.7039 169.554 31.588 169.763 31.5039C169.862 31.4836 169.945 31.4358 170 31.4039C170.027 31.388 170.055 31.3721 170.083 31.3561L170.098 31.3836L170.126 31.3677C170.126 31.3677 170.126 31.3677 172.472 38.2989L170.126 31.3677C173.973 30.0631 178.118 32.1427 179.397 35.9506Z" fill="#EF6179"/>
<path d="M178.709 33.642C179.206 34.2982 179.599 35.0482 179.874 35.8621L179.874 35.863C181.24 39.932 179.046 44.3707 174.964 45.7476L174.577 45.879L174.569 45.8654C174.524 45.883 174.471 45.9018 174.412 45.9269L174.395 45.9345L174.377 45.9399C173.94 46.0882 173.276 46.364 172.403 46.7585L172.402 46.759C170.909 47.4307 168.925 48.4131 166.786 49.7321L165.86 50.3184L165.858 50.3198C160.717 53.615 155.887 58.1841 153.843 63.9005C152.365 68.0936 151.357 72.9327 150.354 78.4588L149.677 82.2573L149.678 82.2581C148.932 86.5722 148.128 91.1917 147.082 95.5867C144.389 107.032 139.598 119.703 127.018 126.966C116.504 133.037 105.647 133.32 95.4045 131.557C87.7239 130.24 79.7032 127.616 72.2193 125.161L72.2127 125.159C70.1075 124.437 68.0331 123.768 66.0161 123.139L66.0139 123.139C59.5502 121.1 52.3194 121.284 45.5017 122.637L45.5009 122.637C38.713 123.973 32.9104 126.379 29.6753 128.138C25.8787 130.212 21.1326 128.8 19.0677 125.02L19.0663 125.017C18.5557 124.065 18.2527 123.065 18.1484 122.066L18.1479 122.057C17.9132 119.342 19.0746 116.594 21.3903 114.943L21.3917 114.943C21.6491 114.755 21.9468 114.582 22.2147 114.427L22.2283 114.42C26.7921 111.97 34.1137 108.998 42.5138 107.321L42.516 107.321C50.9298 105.671 61.0072 105.174 70.7782 108.243C73.2372 108.99 75.5967 109.757 77.8837 110.529L77.8869 110.53C78.7542 110.83 79.6071 111.103 80.4657 111.378L80.4684 111.378C86.725 113.414 92.4469 115.213 98.1107 116.164L98.1129 116.164C106.216 117.557 113.003 117.039 119.216 113.452C125.34 109.917 128.772 103.736 131.175 94.8387C131.421 93.9252 131.664 93.0234 131.876 92.0691L131.878 92.0603C132.814 88.1633 133.503 84.1524 134.243 79.946C134.475 78.5731 134.739 77.1482 134.981 75.7423L134.982 75.7396C135.562 72.4675 136.222 69.0684 137.058 65.7126L137.06 65.7033L137.061 65.7019L137.062 65.7015L137.061 65.7006L137.062 65.7001L137.061 65.6993L137.062 65.6988L137.062 65.6979L137.063 65.6975L137.062 65.6966L137.063 65.6961L137.063 65.6953L137.063 65.6948L137.064 65.6935L137.063 65.6926L137.064 65.6921L137.064 65.6913L137.064 65.6908L137.064 65.6899L137.065 65.6895L137.064 65.6886L137.065 65.6881L137.065 65.6873L137.066 65.6868L137.065 65.6859L137.066 65.6855L137.065 65.6846L137.066 65.6841L137.067 65.6828L137.066 65.6819L137.067 65.6815L137.066 65.6806L137.067 65.6801L137.067 65.6793L137.068 65.6788L137.068 65.6774L137.068 65.6766L137.068 65.6761L137.068 65.6753L137.069 65.6748L137.068 65.6739L137.069 65.6734L137.069 65.6721L137.069 65.6713L137.07 65.6708L137.07 65.6694L137.07 65.6686L137.071 65.6681L137.07 65.6673L137.071 65.6668L137.071 65.6654L137.071 65.6646L137.072 65.6641L137.071 65.6633L137.072 65.6628L137.071 65.6619L137.072 65.6614L137.073 65.6601L137.072 65.6593L137.073 65.6588L137.073 65.6579L137.073 65.6574L137.073 65.6566L137.074 65.6561L137.073 65.6553L137.074 65.6548L137.074 65.6539L137.074 65.6534L137.075 65.6521L137.074 65.6513L137.075 65.6508L137.075 65.6499L137.076 65.6494L137.075 65.6486L137.076 65.6481L137.075 65.6473L137.076 65.6468L137.076 65.6459L137.077 65.6454L137.076 65.6446L137.077 65.6441L137.076 65.6433L137.077 65.6428L137.077 65.6419L137.078 65.6414L137.077 65.6406L137.078 65.6401L137.078 65.6393L137.078 65.6388L137.078 65.6379L137.079 65.6374L137.078 65.6366L137.079 65.6361L137.079 65.6352L137.079 65.6348L137.079 65.6339L137.08 65.6334L137.079 65.6326L137.08 65.6321L137.08 65.6312L137.081 65.6308L137.08 65.6299L137.081 65.6294L137.08 65.6286L137.081 65.6281L137.081 65.6272L137.082 65.6268L137.081 65.6259L137.295 64.7875C137.801 62.8389 138.374 60.9131 139.018 59.0576C139.048 58.9479 139.08 58.8321 139.141 58.7015C140.021 56.1509 141.215 53.8311 142.543 51.697L142.543 51.6943C146.721 45.0497 152.547 40.3197 157.407 37.1813C160.677 35.072 163.748 33.52 166.019 32.5045L166.02 32.504C167.119 32.0146 168.069 31.6132 168.757 31.3649C169.048 31.2288 169.32 31.1344 169.487 31.073L169.481 31.0585L169.965 30.8943C173.255 29.7785 176.742 30.9811 178.71 33.6416L178.709 33.642Z" fill="#8CE096" stroke="white"/>
<path fill-rule="evenodd" clip-rule="evenodd" d="M95.7561 120.242C91.4092 119.343 87.0332 117.946 82.74 116.502C81.6054 116.131 80.4985 115.743 79.3639 115.372C76.2053 114.299 73.0901 113.238 70.0267 112.331C55.3066 107.998 42.1827 110.955 32.3037 114.753C27.309 116.683 24.84 117.889 23.0617 118.952C22.1667 119.505 21.4256 120.007 20.59 120.599C20.4679 120.706 20.3575 120.77 20.2195 120.85C19.7268 121.207 19.1789 121.597 18.5482 122.035C18.3002 119.501 19.4185 116.913 21.5825 115.37C21.8427 115.183 22.0911 115.04 22.3671 114.88C26.8745 112.425 34.1492 109.471 42.5136 107.831C50.8622 106.164 60.8492 105.678 70.5301 108.74C73.0007 109.514 75.3291 110.296 77.6258 111.023C78.4995 111.325 79.3573 111.599 80.2151 111.874C86.469 113.909 92.2362 115.675 97.9303 116.677C106.102 118.082 113.02 117.571 119.368 113.905C125.662 110.272 129.127 103.908 131.559 94.9888C132.08 93.405 132.51 91.727 132.892 89.9666C133.726 86.1852 134.371 82.3301 135.016 78.475C135.233 77.0664 135.494 75.6694 135.739 74.2449C136.24 71.3524 136.774 68.515 137.441 65.7831C137.453 65.7397 137.465 65.6963 137.465 65.6963C137.996 63.5565 138.559 61.4718 139.245 59.5361C139.28 59.4058 139.331 59.303 139.366 59.1727C140.212 56.8142 141.41 54.363 142.853 51.9536C147.065 45.4159 152.853 40.7173 157.651 37.6173C160.923 35.5081 163.972 33.9679 166.224 32.9608C167.364 32.4493 168.284 32.0652 168.954 31.8246C169.29 31.7043 169.554 31.5884 169.763 31.5043C169.862 31.484 169.945 31.4362 170.016 31.4318C170.043 31.4159 170.071 31.4 170.098 31.384L170.126 31.3681C170.126 31.3681 170.126 31.3681 170.313 31.8833L170.126 31.3681C173.204 30.3244 176.465 31.4476 178.305 33.8685C176.03 34.0086 173.717 34.4642 171.416 35.1326C166.452 36.6056 161.455 39.2338 156.986 42.5841C150.29 47.6233 144.968 54.2151 142.636 60.694C141.167 64.8419 140.165 69.6729 139.283 74.8382C139.034 76.1917 138.829 77.5569 138.568 78.9539C137.912 82.8525 137.259 86.8219 136.401 90.6902C134.088 101.154 130.333 111.351 121.293 117.047C113.203 122.158 104.438 122.085 95.7561 120.242Z" fill="#65C170"/>
<path fill-rule="evenodd" clip-rule="evenodd" d="M200.414 72.3553C197.756 69.3442 193.13 69.0453 190.104 71.7088C190.104 71.7088 190.049 71.7406 190.037 71.7841C189.97 71.8594 189.821 71.9825 189.643 72.1215C189.261 72.4156 188.69 72.8921 187.909 73.4527C186.376 74.5579 184.164 76.018 181.49 77.3785C176.004 80.1792 169.529 82.1582 163.384 81.0132C158.97 80.1887 154.215 78.645 148.925 76.7497C147.758 76.3232 146.549 75.8852 145.295 75.4356C141.184 73.9234 136.795 72.3143 132.483 71.028C121.241 67.62 108.032 65.4578 95.6106 72.629C85.2599 78.605 79.6179 87.7649 76.0469 97.4522C73.3501 104.765 71.6471 112.971 70.0296 120.687C69.5578 122.866 69.1412 125.012 68.6769 127.077C67.187 133.803 63.3576 140.047 58.7435 145.314C54.1294 150.58 49.1045 154.435 45.9227 156.382C42.4648 158.488 41.3874 162.996 43.4863 166.44C45.5852 169.885 50.0985 170.945 53.5563 168.839C57.9368 166.163 64.1319 161.34 69.7342 154.916C75.3523 148.519 80.7673 140.114 82.9552 130.198C83.4933 127.688 84.0078 125.265 84.5265 122.912C86.0854 115.413 87.516 108.648 89.8092 102.485C92.6786 94.7056 96.5805 88.97 102.929 85.3047C109.857 81.3047 117.939 81.9176 128.221 85.0004C132.099 86.1711 135.918 87.5589 139.942 89.048C141.255 89.5367 142.595 90.0094 143.951 90.5096C149.3 92.4439 155.005 94.3563 160.687 95.4017C171.431 97.374 181.382 93.8286 188.142 90.3657C191.605 88.5865 194.463 86.7164 196.434 85.2853C197.447 84.5538 198.239 83.9498 198.783 83.4892C199.054 83.2589 199.287 83.088 199.464 82.9489C199.531 82.8736 199.614 82.8258 199.669 82.794C199.697 82.778 199.724 82.7621 199.736 82.7187L199.764 82.7027L199.791 82.6868C199.791 82.6868 199.791 82.6868 194.962 77.1898L199.775 82.6593C202.785 79.9683 203.073 75.3664 200.414 72.3553Z" fill="#FDF8F0"/>
<path d="M200.863 72.0223C201.673 72.9536 202.239 73.9995 202.536 75.1293C203.237 77.7615 202.549 80.6724 200.505 82.71L200.585 82.8058L200.113 83.0783L199.766 83.384L199.75 83.3648C199.571 83.5033 199.373 83.6519 199.133 83.8551C198.575 84.328 197.77 84.9402 196.755 85.6735C194.767 87.1172 191.887 89.0022 188.398 90.7949L188.397 90.7954C181.595 94.2798 171.526 97.8782 160.625 95.8772L160.624 95.8777C154.898 94.8244 149.161 92.8994 143.809 90.9638L143.806 90.9623C142.467 90.4686 141.1 89.9868 139.795 89.501L139.796 89.4997C135.771 88.0107 131.965 86.6289 128.104 85.4632C117.855 82.3902 109.975 81.8141 103.206 85.7221C97.1875 89.197 93.3932 94.5791 90.5753 101.925L90.3059 102.642L90.3056 102.643L90.3051 102.643C88.3121 107.999 86.9736 113.82 85.6247 120.219L85.0433 122.998L85.0424 123.004C84.5288 125.333 84.0338 127.776 83.4707 130.291C82.602 134.162 81.2871 137.769 79.636 141.14L79.3012 141.81L79.2946 141.824L79.2871 141.836C79.2299 141.934 79.1751 142.04 79.1131 142.16C79.0534 142.275 78.9868 142.405 78.9143 142.528L78.9138 142.528C76.3917 147.341 73.2686 151.616 70.0947 155.217C64.4312 161.696 58.2263 166.534 53.85 169.247L53.6257 169.382C51.3046 170.732 48.5632 170.733 46.3287 169.635L46.3284 169.637C45.022 169.015 43.8954 168.015 43.0871 166.683L43.0868 166.684C40.8454 163.006 41.9952 158.191 45.6891 155.94L46.2942 155.56C49.4239 153.55 54.0741 149.885 58.3671 144.985C62.9472 139.756 66.7228 133.586 68.1887 126.969L68.1891 126.967C68.654 124.9 69.0646 122.782 69.5406 120.584C71.1563 112.876 72.8657 104.633 75.5496 97.2962L75.55 97.2949C79.1448 87.5429 84.8461 78.2665 95.3327 72.212C107.968 64.9167 121.354 67.1318 132.741 70.5564C137.071 71.8478 141.473 73.4625 145.582 74.9737L145.588 74.9752C146.813 75.4404 148.028 75.8551 149.211 76.2877C154.468 78.1969 159.191 79.7278 163.563 80.5443C169.534 81.6324 175.89 79.7073 181.334 76.9282L181.334 76.9291C183.98 75.5831 186.169 74.1369 187.687 73.0424L187.688 73.0419C188.46 72.4879 189.005 72.0322 189.406 71.7229L189.406 71.7234C189.563 71.5997 189.664 71.5128 189.711 71.4679C189.753 71.4082 189.795 71.3685 189.816 71.35C189.833 71.335 189.85 71.3225 189.864 71.3121C193.097 68.4844 198.025 68.809 200.86 72.0202L200.863 72.0223Z" fill="#FDF8F0" stroke="white"/>
<path fill-rule="evenodd" clip-rule="evenodd" d="M53.5413 168.811C51.3373 170.157 48.6873 170.22 46.5003 169.173C47.1786 168.818 47.7583 168.484 48.271 168.224C49.4461 167.582 50.2349 167.164 51.1575 166.594C52.699 165.631 54.4607 164.284 58.6575 160.908C66.8738 154.294 76.7271 142.74 79.9022 128.478C80.343 126.501 80.7679 124.496 81.1652 122.507C82.6075 115.698 84.0339 108.862 86.2878 102.758C89.2317 94.7894 93.6828 87.7102 101.577 83.1525C110.879 77.782 121.413 79.5822 131.462 82.8359C135.142 84.0472 138.863 85.4554 142.469 86.8564C143.797 87.3725 145.11 87.8612 146.395 88.3658C151.282 90.2004 155.911 91.7804 160.238 92.5817C167.003 93.8452 175.542 92.508 183.467 89.2154C188.817 87.0068 193.773 83.9255 197.613 80.315C199.276 78.732 200.732 77.0478 201.956 75.2783C202.65 77.8836 201.892 80.7776 199.721 82.6909L199.368 82.2712C199.721 82.6909 199.721 82.6909 199.721 82.6909L199.693 82.7068L199.666 82.7227C199.638 82.7387 199.611 82.7546 199.583 82.7705C199.528 82.8024 199.461 82.8777 199.394 82.953C199.217 83.0921 199.028 83.2745 198.712 83.4933C198.153 83.9264 197.349 84.5738 196.363 85.2893C194.365 86.7364 191.507 88.6065 188.072 90.3698C181.312 93.8326 171.334 97.394 160.617 95.4057C154.935 94.3604 149.23 92.448 143.881 90.5137C142.525 90.0134 141.185 89.5407 139.872 89.0521C135.863 87.5905 132.028 86.1751 128.15 85.0044C117.897 81.9057 109.814 81.2929 102.859 85.3087C96.5102 88.974 92.6083 94.7096 89.739 102.489C87.4457 108.652 86.0427 115.401 84.4563 122.916C83.981 125.28 83.4665 127.704 82.885 130.202C81.98 134.244 80.5491 138.077 78.758 141.604C78.6441 141.853 78.5144 142.074 78.3847 142.296C75.8822 147.077 72.8055 151.31 69.6204 154.908C64.0893 161.328 57.9217 166.135 53.5413 168.811Z" fill="#DFDFDF"/>
<path d="M179.408 109.617C181.95 114.021 180.425 119.653 176.013 122.201C171.601 124.748 165.961 123.252 163.418 118.849C160.876 114.445 162.401 108.813 166.813 106.265C171.225 103.718 176.865 105.214 179.408 109.617Z" fill="#222761" stroke="white" stroke-width="2"/>
<path d="M158.746 109.785C160.156 112.227 159.309 115.349 156.865 116.76C154.422 118.171 151.295 117.343 149.885 114.9C148.475 112.458 149.322 109.337 151.765 107.926C154.209 106.516 157.336 107.343 158.746 109.785Z" fill="#EF6179" stroke="white" stroke-width="2"/>
<path d="M73.9168 79.3746C75.327 81.817 74.48 84.939 72.0363 86.3499C69.5927 87.7605 66.4662 86.9326 65.0561 84.4903C63.6463 82.048 64.4929 78.9272 66.9362 77.5163C69.3798 76.1055 72.5066 76.9324 73.9168 79.3746Z" fill="#EF6179" stroke="white" stroke-width="2"/>
<ellipse cx="174.496" cy="110.414" rx="1.15751" ry="1.16198" transform="rotate(60 174.496 110.414)" fill="white"/>
<path d="M86.0731 62.0123C87.2716 64.0883 86.5515 66.7404 84.4757 67.939C82.3998 69.1375 79.743 68.435 78.5444 66.359C77.3458 64.283 78.0658 61.6308 80.1417 60.4323C82.2176 59.2339 84.8745 59.9363 86.0731 62.0123Z" fill="#39A6D2" stroke="white" stroke-width="2"/>
<path d="M55.0023 85.5603C57.3035 89.5463 55.9229 94.6442 51.9298 96.9496C47.9367 99.2549 42.8314 97.9016 40.5302 93.9158C38.2289 89.9299 39.6096 84.832 43.6026 82.5266C47.5958 80.2211 52.701 81.5744 55.0023 85.5603Z" fill="#1A7FA7" stroke="white" stroke-width="2"/>
<ellipse cx="51.0607" cy="86.5004" rx="1.15751" ry="1.16198" transform="rotate(60 51.0607 86.5004)" fill="white"/>
</g>
<defs>
<clipPath id="clip0_0_5801">
<rect width="114.934" height="188.683" fill="white" transform="translate(164.016 3) rotate(60)"/>
</clipPath>
</defs>
</svg>
