<svg width="156" height="156" viewBox="0 0 156 156" fill="none" xmlns="http://www.w3.org/2000/svg">
<path d="M89.5928 25.3486C97.3836 24.9919 104.476 25.8242 110.866 27.4932C117.739 29.2839 123.681 32.1535 128.449 35.6357L128.463 35.6455C129.704 36.583 130.871 37.5338 131.955 38.5742L132.415 39.0264L132.425 39.0361L132.435 39.0469C134.327 41.0655 135.941 43.1192 137.144 45.4004L137.379 45.8604L137.38 45.8633C144.278 59.8817 143.686 73.5779 138.21 85.6904C137.85 86.5337 137.491 87.2563 137.146 87.9531C135.011 92.2547 132.284 96.3123 129.089 100.01L129.09 100.011C126.366 103.232 123.177 106.325 119.761 109.173L119.754 109.179C117.883 110.71 115.893 112.242 113.9 113.66C112.914 114.517 111.765 115.175 110.821 115.809L110.804 115.82C98.7999 123.526 84.6724 128.749 71.2246 130.294L71.2236 130.293C65.3234 131.006 59.6474 131.008 54.1992 130.292L54.1973 130.291C47.071 129.334 40.3926 126.937 34.7705 123.081L34.7637 123.077L34.7568 123.072C29.5479 119.375 25.4926 115.299 22.6162 110.952L22.6084 110.94C19.9884 106.861 18.1856 102.636 17.3418 98.1484C15.5438 88.9705 17.3511 79.3679 21.3682 70.2031L21.373 70.1934L21.377 70.1846C23.0345 66.6064 25.0433 63.1554 27.2813 59.833L27.2871 59.8242C33.4186 50.9153 41.5525 42.9576 50.2871 37.25L50.2969 37.2432C54.784 34.3882 59.3921 32.1262 63.8867 30.458L63.8936 30.4561C66.8511 29.3835 69.8019 28.551 72.7393 27.8408C78.6203 26.4189 84.2777 25.5876 89.5928 25.3496L89.5928 25.3486ZM96.3857 61.3125C94.3284 58.7737 90.0889 57.1828 84.376 57.7471L84.3662 57.748C80.5554 58.0868 76.2582 59.3328 71.5859 61.8584L71.585 61.8574C70.3379 62.5429 69.2012 63.23 68.0469 63.9277L67.5635 64.251C65.1765 65.8799 63.2 67.6867 61.7275 69.3818C58.4746 73.3225 57.5702 77.0875 58.248 79.8057L58.3193 80.0654L58.3232 80.0791L58.3262 80.0918C58.702 81.5118 59.4984 82.6206 60.708 83.3135L60.9561 83.4463L60.9658 83.4512L60.9766 83.457C62.7897 84.424 65.0754 84.9861 67.7549 85.1006C73.0003 85.2124 79.5477 83.5258 85.5742 80.2217C85.6811 80.1386 85.7788 80.0882 85.835 80.0596L85.8965 79.998L86.042 79.9248C87.1205 79.3816 88.043 78.6513 89.1572 77.9004C91.966 75.7475 94.2062 73.1494 95.6514 70.6855L95.6592 70.6709L95.668 70.6572C96.4118 69.4796 96.8454 68.2915 97.1797 67.0566C97.701 65.0536 97.4828 63.206 96.7969 61.8047C96.7865 61.7935 96.7678 61.7729 96.7363 61.7412C96.6755 61.68 96.5182 61.53 96.3857 61.3125Z" fill="#E8E6E6" stroke="white" stroke-width="2"/>
<path d="M137.299 85.2784C136.949 85.9827 136.599 86.6871 136.25 87.5088C134.152 91.7349 131.472 95.7262 128.326 99.3653C125.413 102.3 122.266 105.352 119.12 108.404C117.256 109.931 115.275 111.457 113.294 112.865C112.245 113.57 111.313 114.274 110.264 114.978C98.3779 122.609 84.3944 127.657 71.1101 129.3C65.4002 130.004 59.6903 130.004 54.33 129.3C47.3382 128.361 40.8126 126.131 35.3358 122.257C30.2085 118.735 26.2465 114.626 23.4498 110.4C20.7696 106.409 19.1382 102.3 18.3225 97.9566C16.5746 89.0349 18.3225 79.6436 22.2845 70.7218C23.9159 67.2001 25.7804 63.7958 28.111 60.5088C34.0539 51.7045 42.0944 43.8392 50.8341 38.2045C55.1457 35.3871 59.6903 33.0392 64.2349 31.5131C67.1482 30.4566 74.2564 28.8131 62.2539 35.1523C35.6853 49.0045 25.5473 67.4349 28.111 81.874C35.3358 122.257 95.4647 106.174 117.139 80.3479C136.949 56.8697 118.887 31.3958 131.589 39.7305C133.686 41.8436 135.318 44.074 136.366 46.3045C143.242 60.0392 142.659 73.4218 137.299 85.2784Z" fill="#F2F2F2"/>
<path d="M54.3299 129.183C47.3381 128.244 40.8125 126.013 35.3356 122.139C30.2084 118.617 26.2464 114.509 23.4497 110.283C23.2166 96.4305 32.4087 87.4901 57.2431 80.2305C57.7092 81.9913 58.8745 83.2826 60.3894 84.2218C62.3703 85.2783 64.8175 85.8652 67.6142 85.9826C49.7852 96.9 52.4654 124.252 54.3299 129.183Z" fill="#DB3E3E"/>
<path d="M30.0918 90.0908C31.8397 95.9604 41.3951 107.347 65.6331 105.939" stroke="black"/>
<path d="M136.25 87.508C131.356 97.3689 123.082 105.938 113.294 112.865C108.167 92.6732 98.0286 83.2819 86.4922 80.8167C91.1533 78.1167 94.5327 74.595 96.5137 71.1906C117.023 68.8428 133.919 73.0689 136.25 87.508Z" fill="#DB3E3E"/>
<path d="M93.0176 98.073C102.573 92.7904 124.247 78.3513 127.044 54.873" stroke="black"/>
<path d="M127.744 36.3263C111.197 34.2133 100.592 51.1176 97.0966 60.8611C94.766 57.9263 90.1048 56.2828 84.1619 56.8698C79.9668 44.0741 83.4627 29.8698 89.5222 26.348C97.2131 25.9959 104.321 26.8176 110.497 28.4611C117.373 30.222 123.199 33.0394 127.744 36.3263Z" fill="#DB3E3E"/>
<path d="M70.9933 61.095C69.828 61.682 68.6627 62.3863 67.3809 63.208C64.5842 64.9689 62.4867 66.8472 60.8553 68.8428C52.3487 60.508 35.9181 59.9211 27.9941 60.7428C33.9371 51.9385 41.9776 44.0733 50.7173 38.4385C65.5165 41.608 70.6437 54.4037 70.9933 61.095Z" fill="#DB3E3E"/>
<path d="M98.1448 67.3173C98.7275 65.0869 98.4944 63.0912 97.5622 61.4478C97.4457 61.213 97.3291 60.9782 97.0961 60.8608C94.7655 57.926 90.1043 56.2825 84.1614 56.8695C80.1994 57.2217 75.7713 58.6304 70.9936 61.0956C69.8283 61.6825 68.663 62.3869 67.3812 63.2086C64.5845 64.9695 62.487 66.8478 60.8556 68.8434C57.3597 72.9521 56.311 77.2956 57.2432 80.4652C57.7093 82.226 58.8746 83.5173 60.3895 84.4565C62.3705 85.513 64.8176 86.0999 67.6143 86.2173C73.2076 86.4521 79.8498 84.6912 86.0258 81.1695C86.1424 81.0521 86.2589 81.0521 86.3754 80.9347C87.5407 80.2304 88.5895 79.526 89.6382 78.8217C76.3539 90.326 50.2515 91.8521 49.4357 76.7086C48.62 61.5652 74.606 44.0738 89.0556 48.7695C103.272 53.113 98.3779 66.4956 98.1448 67.3173Z" fill="#606060" style="mix-blend-mode:color-burn"/>
</svg>
