<svg width="156" height="156" viewBox="0 0 156 156" fill="none" xmlns="http://www.w3.org/2000/svg">
<path d="M51.0283 39.1025C53.8914 38.6244 57.7554 38.6187 62.3154 39.0293C71.4528 39.852 83.6035 42.368 96.6152 46.3682C109.627 50.3684 121.093 55.1129 129.114 59.5654C133.118 61.7876 136.311 63.9637 138.411 65.9678C139.46 66.9684 140.278 67.9653 140.775 68.9434C141.275 69.9261 141.489 70.9718 141.178 71.9853C141.148 72.0824 141.113 72.1776 141.074 72.2715L133.27 93.4043C126.978 110.441 112.146 121.962 95.3086 124.743L94.3799 127.768C94.1909 128.382 93.7127 128.76 93.251 128.983C92.7882 129.208 92.2253 129.338 91.626 129.413C90.4201 129.564 88.8222 129.519 86.9746 129.314C83.2629 128.904 78.3348 127.834 73.0576 126.212C67.7802 124.589 63.1019 122.706 59.8008 120.96C58.1579 120.091 56.8101 119.232 55.8975 118.43C55.4438 118.031 55.0518 117.606 54.7949 117.16C54.5387 116.716 54.355 116.135 54.5439 115.521L55.2109 113.347C48.7982 107.751 43.9757 100.585 41.1816 92.625C28.9045 85.3596 21.3252 77.9894 17.54 70.9756C13.5102 63.5082 13.6529 55.9361 18.0068 50.541C22.1796 45.3704 29.1504 43.6314 35.582 45.4619C38.4227 46.2704 41.124 47.7443 43.541 49.8564L45.2832 42.8232C45.3039 42.7235 45.3285 42.6247 45.3584 42.5273C45.6701 41.5136 46.4356 40.7696 47.4014 40.2373C48.3624 39.7077 49.5987 39.3413 51.0283 39.1025ZM32.4482 56.4707C29.8148 55.7213 27.8192 56.6079 26.9141 57.7295C26.1877 58.6297 25.1623 60.9984 27.6133 65.54C29.322 68.7061 32.6418 72.65 38.4287 77.0537C38.3806 72.9733 38.8443 68.8248 39.8682 64.6904L40.002 64.1484C37.7857 59.1932 34.744 57.1241 32.4482 56.4707Z" fill="#EED0BF" stroke="white" stroke-width="2"/>
<ellipse cx="92.9905" cy="58.1597" rx="45.3441" ry="7.55735" transform="rotate(17.0891 92.9905 58.1597)" fill="#B6886D"/>
<ellipse cx="92.4358" cy="59.9651" rx="41.5654" ry="5.66801" transform="rotate(17.0891 92.4358 59.9651)" fill="#481919"/>
<path d="M53.4707 54.9043C63.478 60.9471 76.3814 67.1785 90.2847 70.1753" stroke="black"/>
<path opacity="0.5" d="M103.533 40.681C105.537 54.7379 94.0919 58.5327 88.119 58.6731C95.4032 47.4707 86.1586 35.5515 93.9455 26.862C101.167 18.8037 111.895 19.1678 117.22 21.1343C111.247 21.2747 101.53 26.6241 103.533 40.681Z" fill="#D9D9D9"/>
<path opacity="0.5" d="M110.351 46.6946C110.741 53.1398 104.172 59.2903 100.839 61.5599C104.335 61.9758 111.66 61.724 112.993 57.3898C114.325 53.0556 111.787 48.4538 110.351 46.6946Z" fill="#D9D9D9"/>
<path d="M41.9485 85.9515C40.4476 83.1181 39.7515 80.5152 39.5196 79.1261C32.041 73.516 20.2318 62.7716 27.2723 56.0913C18.632 60.0118 25.8414 76.7471 41.9485 85.9515Z" fill="#DBB7A2"/>
<path d="M82.2398 122.155C73.0204 120.968 61.1259 115.449 56.3018 112.932L55.4211 115.797C55.3321 116.087 55.371 116.396 55.556 116.636C61.666 124.555 89.5909 130.489 93.1633 127.932C93.2875 127.843 93.3542 127.711 93.3991 127.565L94.6651 123.447C94.3647 123.511 91.4592 123.342 82.2398 122.155Z" fill="#DBB7A2"/>
<path d="M100.159 121.638C88.0059 125.808 74.1137 119.56 74.1137 119.56" stroke="black"/>
</svg>
