<svg width="800" height="800" viewBox="0 0 800 800" fill="none" xmlns="http://www.w3.org/2000/svg">
<path d="M743.299 477.783C730.035 457.797 703.138 417.459 701.673 416.001L523.674 522.563C524.518 522.057 552.304 511.72 577.008 505.629C641.948 489.617 698.162 484.527 743.299 477.783Z" fill="#EA494B"/>
<path d="M744.622 454.376C729.279 435.938 698.187 398.738 696.574 397.445L524.604 521.242C533.621 516.531 558.404 508.723 582.307 500.001C606.209 491.28 700.477 465.951 744.622 454.376Z" fill="#EA494B"/>
<path d="M350.36 568.654C425.779 565.611 401.042 734.705 401.042 734.705C409.025 690.716 432.507 602.185 462.564 599.982C492.622 597.778 516.883 652.899 516.883 652.899C516.883 652.899 492.835 595.766 489.436 564.227C486.038 532.688 525.743 512.087 536.179 510.605L318.097 411.016C315.11 420.975 300.363 446.258 265.264 467.713C230.165 489.169 112.49 507.275 58.0408 513.647C58.0408 513.647 152.823 505.997 218.481 518.174C284.139 530.352 152.572 665.752 152.572 665.752C187.077 634.654 274.941 571.698 350.36 568.654Z" fill="#EA494B"/>
<path d="M517.732 534.363L522.793 521.909L584.746 407.663L730.562 476.465L722.986 491.338L517.732 534.363Z" fill="#EA494B"/>
<path d="M46.736 215.353C54.3369 211.45 79.0291 202.411 116.995 197.481L524.599 521.943C524.599 521.943 461.661 509.601 381.94 500.283C320.836 493.141 251.572 497.64 231.851 503.802L46.736 215.353Z" fill="#EA494B"/>
<path d="M58.0892 205.85C65.69 201.947 90.3823 192.908 128.348 187.978L522.632 522.224C522.632 522.224 468.179 503.566 393.293 490.78C332.651 480.427 257.148 487.492 237.427 493.655L58.0892 205.85Z" fill="#EA494B"/>
<path d="M381.053 183.997C360.665 193.763 333.832 216.72 329.3 221.24L523.339 522.332L736.063 415.134L576.612 167.71L565.01 156.287L566.156 151.485C560.936 142.801 549.323 123.435 544.627 115.448C538.758 105.463 536.766 107.197 532.057 109.538C527.347 111.879 504.074 130.154 493.383 135.494C482.692 140.835 464.614 146.412 456.129 150.495C447.645 154.577 406.537 171.789 381.053 183.997Z" fill="#EA494B"/>
<path d="M242.173 183.815C274.732 188.522 315.102 209.791 330.63 222.05L523.675 521.901C523.542 521.764 492.007 498.135 416.199 480.9C318.909 458.782 259.266 480.9 252.47 479.493C246.457 478.248 199.022 389.27 174.015 347.59C175.486 344.812 178.428 338.079 178.428 333.371C178.428 328.664 167.64 324.872 162.246 323.565C134.788 276.981 79.4792 182.54 77.9101 177.441C75.9487 171.067 87.2259 174.5 111.253 173.029C135.28 171.558 201.475 177.931 242.173 183.815Z" fill="#EA494B"/>
<path d="M532.494 100.535C534.345 99.8741 537.029 99.2962 540.113 100.18C543.024 101.015 545.185 102.842 546.793 104.628C548.408 106.419 549.951 108.715 551.525 111.393C556.196 119.34 567.787 138.668 573.013 147.363C574.092 149.157 574.424 151.304 573.938 153.341L573.839 153.753L582.225 162.009L582.531 162.328C582.828 162.654 583.097 163.005 583.336 163.376L742.788 410.801C744.016 412.707 744.378 415.046 743.783 417.235C743.187 419.424 741.689 421.257 739.664 422.278L731.63 426.326C738.646 434.708 745.603 443.047 750.772 449.259C752.522 451.361 753.076 454.213 752.241 456.818C751.406 459.423 749.298 461.42 746.652 462.114C745.503 462.415 744.322 462.727 743.109 463.046C745.617 466.815 747.95 470.322 749.965 473.359C751.478 475.638 751.721 478.533 750.61 481.033C749.499 483.533 747.186 485.291 744.481 485.695C741.066 486.205 737.596 486.703 734.072 487.198L730.115 494.968C729.016 497.126 726.998 498.671 724.627 499.168L519.375 542.193C516.48 542.8 513.488 541.76 511.592 539.49C511.123 538.927 510.74 538.312 510.446 537.663L507.47 537.383C500.571 544.915 496.351 553.726 497.39 563.369C498.979 578.111 505.537 599.488 511.978 617.725C515.156 626.724 518.232 634.759 520.514 640.543C521.654 643.433 522.595 645.757 523.248 647.353C523.574 648.151 523.829 648.768 524 649.181C524.086 649.388 524.152 649.545 524.195 649.648C524.216 649.7 524.232 649.738 524.243 649.762C524.248 649.775 524.252 649.783 524.254 649.789C524.256 649.791 524.256 649.794 524.256 649.795V649.796L524.406 650.176C525.841 654.133 523.955 658.564 520.046 660.247C516.012 661.983 511.332 660.143 509.562 656.124V656.125L509.555 656.109C509.548 656.092 509.534 656.062 509.515 656.019C509.477 655.934 509.416 655.798 509.333 655.617C509.166 655.254 508.91 654.705 508.571 653.999C507.891 652.585 506.878 650.544 505.568 648.092C502.935 643.168 499.155 636.684 494.526 630.319C489.86 623.904 484.553 617.919 478.944 613.728C473.323 609.529 468.053 607.6 463.15 607.96C459.427 608.233 454.2 611.494 447.933 620.384C441.937 628.891 436.215 640.83 431.002 654.52C420.608 681.82 412.851 714.438 408.914 736.133C408.134 740.428 404.056 743.305 399.749 742.599C395.441 741.893 392.495 737.865 393.126 733.547V733.546C393.127 733.543 393.128 733.537 393.129 733.53C393.132 733.514 393.135 733.488 393.14 733.452C393.15 733.38 393.166 733.268 393.187 733.118C393.229 732.817 393.291 732.362 393.37 731.763C393.527 730.567 393.751 728.796 394.01 726.535C394.529 722.01 395.188 715.529 395.75 707.756C396.874 692.17 397.587 671.56 396.007 651.156C394.414 630.572 390.543 611.051 383.049 597.101C379.348 590.212 374.932 585.001 369.774 581.585C364.71 578.231 358.524 576.331 350.683 576.647C314.829 578.094 275.318 593.891 240.034 613.661C204.885 633.355 174.773 656.513 157.928 671.694C154.723 674.583 149.804 674.408 146.81 671.3C143.817 668.193 143.828 663.271 146.834 660.176C146.835 660.176 146.836 660.175 146.837 660.174C146.84 660.171 146.845 660.165 146.852 660.158C146.866 660.144 146.887 660.122 146.916 660.091C146.975 660.031 147.065 659.939 147.184 659.815C147.422 659.568 147.778 659.197 148.242 658.71C149.17 657.735 150.53 656.297 152.243 654.458C155.668 650.779 160.497 645.501 166.091 639.128C177.304 626.353 191.484 609.296 203.588 591.951C215.877 574.341 225.324 557.404 228.062 544.686C229.419 538.385 228.857 534.341 227.497 531.877C226.307 529.721 223.668 527.272 217.023 526.04C184.98 520.097 145.499 518.954 113.738 519.342C97.9178 519.536 84.1292 520.107 74.3013 520.63C69.3892 520.891 65.4705 521.14 62.7866 521.323C61.4447 521.414 60.411 521.49 59.7173 521.542C59.3707 521.568 59.1084 521.587 58.935 521.6C58.8488 521.607 58.7845 521.613 58.7427 521.616C58.7219 521.618 58.7064 521.619 58.6968 521.62C58.692 521.62 58.688 521.621 58.686 521.621H58.685L58.2788 521.643C54.1008 521.771 50.4952 518.639 50.0796 514.433C49.6505 510.092 52.7791 506.208 57.1118 505.701C84.1797 502.534 126.998 496.443 167.362 488.487C179.407 486.113 191.195 483.577 202.255 480.915L37.5766 224.661C36.4494 222.907 36.8586 220.58 38.5171 219.316L39.435 218.617C38.689 216.948 38.5299 215.062 39.0112 213.273C39.5974 211.095 41.0763 209.266 43.0825 208.236C44.7831 207.363 47.1411 206.306 50.1245 205.131C50.1673 204.657 50.2499 204.185 50.3784 203.719C50.9741 201.563 52.4453 199.755 54.435 198.733C58.297 196.75 65.5473 193.813 75.8237 190.721C75.0866 189.391 74.4181 188.177 73.8276 187.09C72.955 185.482 72.2262 184.107 71.6782 183.025C71.2656 182.21 70.6032 180.896 70.2641 179.794C69.7761 178.208 69.307 175.733 70.1821 173.023C71.1508 170.023 73.2804 168.175 75.2427 167.162C77.0014 166.253 78.825 165.892 80.1724 165.707C81.6058 165.509 83.1491 165.431 84.6606 165.398C91.1656 165.255 98.7837 165.777 110.764 165.044C123.453 164.267 146.574 165.554 171.156 167.694C195.926 169.851 222.801 172.931 243.318 175.897C260.66 178.404 279.679 185.233 296.143 192.838C308.794 198.681 320.334 205.169 328.819 210.877C332.715 207.494 338.194 202.963 344.366 198.235C354.304 190.621 366.638 182.031 377.597 176.781C390.482 170.609 407.248 163.203 421.766 156.866C436.464 150.45 448.597 145.241 452.662 143.285C457.332 141.038 464.451 138.455 471.141 135.967C478.139 133.365 484.916 130.782 489.809 128.338C494.472 126.008 502.403 120.53 510.315 114.881C514.108 112.172 517.893 109.429 520.917 107.295C523.723 105.313 526.639 103.297 528.497 102.374C529.248 102 530.962 101.081 532.494 100.535ZM544.627 115.447C538.759 105.463 536.767 107.197 532.057 109.538L531.562 109.802C525.905 113.007 503.741 130.32 493.384 135.494L492.361 135.996C481.573 141.182 464.349 146.539 456.129 150.494C447.645 154.576 406.538 171.788 381.053 183.996L380.093 184.464C360.011 194.387 334.22 216.4 329.424 221.119C313.359 208.942 275.172 189.055 243.706 184.048L242.173 183.815C201.475 177.931 135.28 171.557 111.253 173.028L109.039 173.152C86.5346 174.294 76.0105 171.266 77.9106 177.441C78.301 178.709 82.0103 185.494 87.7856 195.69C72.6417 199.603 62.4946 203.588 58.0893 205.85L60.5806 209.848C54.0302 212.042 49.3633 214.005 46.7368 215.353L219.621 484.746C169.282 498.378 97.2612 509.057 58.0415 513.646C58.2199 513.632 152.886 506.007 218.482 518.174C284.124 530.348 152.634 665.689 152.573 665.752C186.808 634.897 273.572 572.679 348.59 568.736L350.36 568.654C425.72 565.613 401.081 734.443 401.042 734.705C409.026 690.715 432.507 602.185 462.565 599.981C492.623 597.778 516.883 652.899 516.883 652.899C516.883 652.899 493.581 597.537 489.611 565.723L489.437 564.226C487.337 544.737 501.696 529.426 515.437 520.22C516.328 520.384 517.159 520.536 517.926 520.678C520.99 521.662 522.616 522.218 522.632 522.223L521.629 521.373C522.099 521.462 522.514 521.541 522.875 521.61L522.917 521.677L522.793 521.909L517.733 534.363L722.987 491.338L728.838 479.848C733.777 479.168 738.598 478.485 743.299 477.783C739.694 472.351 735.081 465.416 730.246 458.166C735.447 456.789 740.277 455.515 744.623 454.376C737.856 446.244 728.025 434.466 719.012 423.726L736.063 415.134L576.612 167.71L565.011 156.287L566.156 151.485C560.936 142.801 549.323 123.435 544.627 115.447Z" fill="white"/>
<path d="M350.068 568.657C425.487 565.613 400.75 734.708 400.75 734.708C408.733 690.718 432.215 602.188 462.273 599.984C492.33 597.781 516.591 652.902 516.591 652.902C516.591 652.902 492.543 595.768 489.144 564.229C485.746 532.69 525.451 512.089 535.887 510.608L317.805 411.018C314.818 420.978 300.071 446.261 264.972 467.716C229.873 489.171 112.199 507.278 57.7489 513.649C57.7489 513.649 152.531 505.999 218.189 518.177C283.847 530.354 152.28 665.754 152.28 665.754C186.785 634.657 274.649 571.7 350.068 568.657Z" fill="#FF4646"/>
<path d="M230.152 484.27L354.949 427.098L522.55 521.909L517.361 534.329L223.648 506.665V506.168L223.084 506.394L40.6445 222.502L51.9336 213.898L230.152 484.27Z" fill="#518FC0"/>
<path d="M223.836 504.673L516.082 532.199L520.704 521.138C521.13 520.119 522.301 519.638 523.32 520.063C524.34 520.489 524.821 521.661 524.396 522.68L519.206 535.1C518.869 535.907 518.046 536.402 517.174 536.32L223.461 508.655L223.258 508.626C222.264 508.429 221.56 507.507 221.657 506.477C221.755 505.445 222.618 504.671 223.632 504.664L223.836 504.673Z" fill="#120101"/>
<path d="M517.434 534.364L522.494 521.91L584.447 407.664L730.263 476.466L722.687 491.339L517.434 534.364Z" fill="#518FC0"/>
<path d="M582.791 406.542C583.337 405.734 584.401 405.431 585.301 405.856L731.117 474.658C731.606 474.888 731.981 475.308 732.156 475.82C732.331 476.331 732.291 476.892 732.046 477.374L724.47 492.247C724.195 492.787 723.69 493.172 723.097 493.296L517.844 536.322C517.12 536.473 516.372 536.214 515.898 535.647C515.424 535.079 515.303 534.296 515.581 533.612L520.64 521.158C520.668 521.089 520.7 521.022 520.735 520.957L582.689 406.711L582.791 406.542ZM524.304 522.765L520.7 531.635L721.339 489.578L727.545 477.395L585.303 410.28L524.304 522.765Z" fill="#120101"/>
<path d="M743.001 477.788C729.737 457.801 702.84 417.464 701.375 416.005L523.376 522.567C524.22 522.062 552.006 511.725 576.71 505.634C641.65 489.621 697.864 484.532 743.001 477.788Z" fill="#FDF8F0"/>
<path d="M744.323 454.38C728.98 435.941 697.888 398.741 696.274 397.449L524.305 521.245C533.322 516.535 558.105 508.727 582.007 500.005C605.91 491.284 700.177 465.954 744.323 454.38Z" fill="#FDF8F0"/>
<path d="M695.106 395.826C695.834 395.302 696.824 395.327 697.524 395.888C697.77 396.084 698.099 396.436 698.383 396.745C698.718 397.109 699.154 397.597 699.675 398.19C700.719 399.377 702.133 401.016 703.825 402.997C707.212 406.961 711.734 412.313 716.681 418.197C726.576 429.967 738.188 443.88 745.86 453.101C746.298 453.626 746.436 454.339 746.228 454.99C746.019 455.642 745.492 456.141 744.83 456.315C700.628 467.904 606.485 493.203 582.693 501.884C570.73 506.249 558.518 510.396 548.238 514.016C537.882 517.663 529.585 520.744 525.231 523.019C524.301 523.504 523.153 523.188 522.603 522.295C522.052 521.402 522.284 520.235 523.136 519.622L695.106 395.826ZM539.168 513.01C541.605 512.122 544.199 511.198 546.909 510.243C557.251 506.601 569.383 502.482 581.322 498.126C604.8 489.56 695.528 465.135 740.774 453.244C733.179 444.123 722.679 431.547 713.619 420.772C708.674 414.89 704.16 409.547 700.784 405.596C699.096 403.62 697.696 401.997 696.671 400.831C696.432 400.559 696.214 400.314 696.02 400.096L539.168 513.01Z" fill="#120101"/>
<path d="M46.4375 215.356C54.0383 211.453 78.7306 202.414 116.696 197.484L518.006 523.791C518.006 523.791 461.362 509.604 381.642 500.286C320.538 493.144 251.273 497.642 231.552 503.805L46.4375 215.356Z" fill="#FDF8F0"/>
<path d="M57.793 205.852C65.3938 201.949 90.0861 192.91 128.052 187.98L518.012 523.789C518.012 523.789 467.883 503.568 392.997 490.782C332.355 480.428 256.852 487.494 237.131 493.657L57.793 205.852Z" fill="#FDF8F0"/>
<path d="M56.7316 204.154C57.669 203.57 58.9023 203.857 59.4865 204.794L238.022 491.311C248.885 488.284 272.02 485.214 299.629 484.027C328.635 482.781 362.823 483.602 393.33 488.811C430.871 495.22 462.208 503.493 484.165 510.166C495.144 513.503 503.781 516.441 509.678 518.546C512.626 519.599 514.89 520.443 516.42 521.026C517.185 521.317 517.766 521.543 518.157 521.696C518.353 521.773 518.502 521.832 518.602 521.872C518.652 521.892 518.69 521.907 518.716 521.917C518.729 521.922 518.738 521.926 518.745 521.929C518.749 521.93 518.751 521.932 518.753 521.933C518.754 521.933 518.756 521.934 518.756 521.934C518.755 521.937 518.738 521.98 518.523 522.514L518.757 521.934C519.781 522.347 520.276 523.512 519.863 524.536C519.476 525.496 518.428 525.992 517.454 525.71L517.26 525.644L517.259 525.643C517.258 525.642 517.256 525.642 517.253 525.641C517.248 525.639 517.239 525.635 517.228 525.63C517.205 525.621 517.17 525.607 517.123 525.588C517.029 525.551 516.886 525.494 516.696 525.42C516.317 525.271 515.748 525.05 514.996 524.764C513.492 524.191 511.254 523.355 508.333 522.313C502.491 520.227 493.915 517.31 483.002 513.993C461.174 507.359 430.002 499.129 392.656 492.753C362.521 487.608 328.637 486.785 299.801 488.024C270.904 489.265 247.32 492.567 237.724 495.566C236.855 495.837 235.912 495.488 235.43 494.715L56.0919 206.909C55.5078 205.972 55.7941 204.739 56.7316 204.154Z" fill="#120101"/>
<path d="M362.852 233.238L539.019 141.608L624.131 273.939L443.796 358.869L397.126 288.322L394.195 279.995L388.176 273.938L362.852 233.238Z" fill="#FDF8F0"/>
<path d="M539.019 141.609L624.131 273.938L443.795 358.87L397.126 288.322L394.196 279.996L388.175 273.937L362.852 233.238L539.019 141.609ZM390.834 270.799L397.177 277.182L400.245 285.9L445.07 353.659L618.271 272.088L537.769 146.927L368.529 234.952L390.834 270.799Z" fill="#120101"/>
<path d="M362.852 233.238C409.99 196.986 460.675 179.548 539.019 141.608L556.573 169.82L380.057 260.89L362.852 233.238Z" fill="#518FC0"/>
<path d="M362.852 233.238C409.99 196.986 460.674 179.547 539.018 141.608L556.573 169.82L380.057 260.89L362.852 233.238ZM381.351 255.559L550.885 168.09L537.685 146.876C519.04 155.869 501.973 163.708 486.168 170.925C469.647 178.469 454.532 185.322 440.391 192.12C413.525 205.038 390.33 217.693 368.113 234.283L381.351 255.559Z" fill="#120101"/>
<path d="M474.396 338.941L471.527 341.738L392.065 216.876L394.935 214.077L474.396 338.941Z" fill="#120101"/>
<path d="M465.105 178.757L545.428 309.777L542.522 312.518L462.199 181.497L465.105 178.757Z" fill="#120101"/>
<path d="M129.93 228.145L319.352 236.415C350.816 280.501 367.508 308.156 395.507 362.949C355.175 354.53 228.151 341.35 202.871 348.894L156.355 275.709L149.454 263.288L129.93 228.145Z" fill="#FDF8F0"/>
<path d="M319.352 236.414C350.816 280.5 367.508 308.157 395.507 362.949C355.175 354.531 228.152 341.351 202.871 348.894L156.355 275.709L129.93 228.145L319.352 236.414ZM160.214 274.811L204.554 344.572C212.101 343.228 223.649 342.887 237.024 343.141C253.273 343.45 272.907 344.663 292.952 346.371C328.921 349.436 366.575 354.126 388.72 358.153C362.924 308 346.542 280.987 317.295 239.868L136.413 231.97L160.214 274.811Z" fill="#120101"/>
<path d="M126.883 224.41C188.472 219.809 249.708 220.517 319.352 236.412L332.886 260.773C245.871 249.71 204.561 247.741 143.195 252.019L126.883 224.41Z" fill="#518FC0"/>
<path d="M126.883 224.41C188.472 219.809 249.708 220.517 319.352 236.413L332.886 260.773C247.231 249.883 205.863 247.805 146.057 251.823L143.195 252.019L126.883 224.41ZM145.331 248.209C203.699 244.321 244.82 246.249 326.112 256.425L316.583 239.272C250.567 224.519 192.058 223.503 133.171 227.627L145.331 248.209Z" fill="#120101"/>
<path d="M169.874 222.899C196.874 268.169 214.025 294.84 238.94 343.448L234.954 344.111C210.117 295.656 193.066 269.149 166.017 223.797L169.874 222.899Z" fill="#120101"/>
<path d="M241.734 225.4C269.06 272.439 291.794 310.469 310.857 348.596L306.852 349.222C287.862 311.243 265.221 273.369 237.851 226.256L241.734 225.4Z" fill="#120101"/>
<path d="M552.017 347.858C571.043 335.545 600.297 340.488 617.357 358.9C634.417 377.312 632.823 402.22 613.797 414.533C605.798 419.709 595.992 421.835 586.044 421.193L536.914 379.933C535.343 367.447 540.467 355.332 552.017 347.858Z" fill="#8CE096"/>
<path d="M536.992 379.914C550.836 373.269 569.937 377.366 581.12 389.848C589.896 399.643 591.355 411.878 585.992 421.137L536.992 379.914Z" fill="#518FC0"/>
<path d="M322.876 392.73C323.392 391.833 324.499 391.486 325.424 391.9L325.606 391.994L374.096 419.873C375.053 420.423 375.384 421.646 374.833 422.603C374.282 423.561 373.06 423.89 372.103 423.339L323.612 395.46L323.44 395.35C322.617 394.759 322.36 393.628 322.876 392.73Z" fill="#120101"/>
<path d="M525.683 522.919L522.317 525.081L324.317 217.081L327.683 214.919L525.683 522.919Z" fill="black"/>
</svg>
