<svg width="165" height="164" viewBox="0 0 165 164" fill="none" xmlns="http://www.w3.org/2000/svg"><mask id="path-1-outside-1_0_5670" maskUnits="userSpaceOnUse" x="69.7334" y="12.2539" width="87" height="104" fill="black"><rect fill="white" x="69.7334" y="12.2539" width="87" height="104"/><path d="M87.3262 46.7384C103.836 22.7101 126.562 9.64974 138.086 17.5675C138.094 17.5728 138.102 17.5787 138.109 17.5841L147.858 24.2745C152.635 27.5751 154.746 33.9711 154.377 42.0479C154.131 47.6032 152.717 53.958 150.195 60.6407C147.571 67.6107 143.758 74.9501 138.838 82.1251C131.622 92.6413 123.197 101.046 115.059 106.52C108.581 110.886 102.266 113.388 96.8545 113.593C96.6906 113.613 96.5263 113.613 96.3623 113.613C94.0048 113.654 91.8313 113.244 89.9043 112.342L88.0801 111.317L78.2813 104.593C79.7876 105.615 81.4783 106.292 83.3155 106.627C81.48 106.284 79.7949 105.611 78.2989 104.583C66.7746 96.6648 70.8165 70.7668 87.3262 46.7384Z"/></mask><path d="M87.3262 46.7384C103.836 22.7101 126.562 9.64974 138.086 17.5675C138.094 17.5728 138.102 17.5787 138.109 17.5841L147.858 24.2745C152.635 27.5751 154.746 33.9711 154.377 42.0479C154.131 47.6032 152.717 53.958 150.195 60.6407C147.571 67.6107 143.758 74.9501 138.838 82.1251C131.622 92.6413 123.197 101.046 115.059 106.52C108.581 110.886 102.266 113.388 96.8545 113.593C96.6906 113.613 96.5263 113.613 96.3623 113.613C94.0048 113.654 91.8313 113.244 89.9043 112.342L88.0801 111.317L78.2813 104.593C79.7876 105.615 81.4783 106.292 83.3155 106.627C81.48 106.284 79.7949 105.611 78.2989 104.583C66.7746 96.6648 70.8165 70.7668 87.3262 46.7384Z" fill="#795EFF"/><path d="M87.3262 46.7384L85.6778 45.6058L85.6778 45.6058L87.3262 46.7384ZM138.086 17.5675L139.219 15.9191L139.219 15.919L138.086 17.5675ZM138.109 17.5841L136.973 19.2299L136.978 19.2331L138.109 17.5841ZM147.858 24.2745L148.995 22.6291L148.99 22.6255L147.858 24.2745ZM154.377 42.0479L152.379 41.9567L152.379 41.9594L154.377 42.0479ZM150.195 60.6407L148.324 59.9347L148.324 59.936L150.195 60.6407ZM138.838 82.1251L140.487 83.2566L140.487 83.2561L138.838 82.1251ZM115.059 106.52L113.942 104.86L113.941 104.861L115.059 106.52ZM96.8545 113.593L96.7788 111.594L96.6923 111.598L96.6065 111.608L96.8545 113.593ZM96.3623 113.613V111.613H96.3449L96.3276 111.614L96.3623 113.613ZM89.9043 112.342L88.925 114.086L88.9895 114.122L89.0564 114.153L89.9043 112.342ZM88.0801 111.317L86.9484 112.966L87.0225 113.017L87.1008 113.061L88.0801 111.317ZM78.2813 104.593L79.4039 102.938L77.1496 106.242L78.2813 104.593ZM83.3155 106.627L82.9563 108.595L83.6826 104.661L83.3155 106.627ZM78.2989 104.583L77.1663 106.231L77.1663 106.231L78.2989 104.583ZM87.3262 46.7384L88.9746 47.871C97.0981 36.048 106.699 27.0066 115.572 21.9072C124.584 16.7279 132.188 15.942 136.953 19.2159L138.086 17.5675L139.219 15.919C132.459 11.2752 122.938 13.0606 113.579 18.4391C104.081 23.8975 94.0639 33.4005 85.6778 45.6058L87.3262 46.7384ZM138.086 17.5675L136.953 19.2159C136.944 19.2096 136.937 19.2047 136.934 19.2024C136.931 19.2003 136.929 19.1987 136.931 19.2004C136.932 19.201 136.938 19.2051 136.944 19.2095C136.951 19.2142 136.961 19.2214 136.973 19.2299L138.109 17.5841L139.246 15.9382C139.254 15.9441 139.26 15.9485 139.263 15.9504C139.265 15.952 139.267 15.9533 139.264 15.9512C139.263 15.95 139.256 15.9456 139.25 15.9407C139.242 15.9356 139.232 15.928 139.219 15.9191L138.086 17.5675ZM138.109 17.5841L136.978 19.2331L146.727 25.9235L147.858 24.2745L148.99 22.6255L139.241 15.935L138.109 17.5841ZM147.858 24.2745L146.721 25.9198C150.668 28.6473 152.735 34.1743 152.379 41.9567L154.377 42.0479L156.375 42.1392C156.757 33.768 154.601 26.5029 148.995 22.6291L147.858 24.2745ZM154.377 42.0479L152.379 41.9594C152.144 47.2574 150.789 53.4014 148.324 59.9347L150.195 60.6407L152.067 61.3467C154.644 54.5146 156.118 47.9491 156.375 42.1364L154.377 42.0479ZM150.195 60.6407L148.324 59.936C145.76 66.7458 142.024 73.9429 137.188 80.994L138.838 82.1251L140.487 83.2561C145.492 75.9573 149.383 68.4756 152.067 61.3454L150.195 60.6407ZM138.838 82.1251L137.189 80.9935C130.094 91.3337 121.841 99.5475 113.942 104.86L115.059 106.52L116.175 108.179C124.552 102.545 133.15 93.9489 140.487 83.2566L138.838 82.1251ZM115.059 106.52L113.941 104.861C107.628 109.116 101.677 111.409 96.7788 111.594L96.8545 113.593L96.9303 115.591C102.856 115.367 109.533 112.656 116.176 108.178L115.059 106.52ZM96.8545 113.593L96.6065 111.608C96.6046 111.609 96.588 111.61 96.5459 111.612C96.5003 111.613 96.4494 111.613 96.3623 111.613V113.613V115.613C96.5061 115.613 96.7947 115.616 97.1026 115.577L96.8545 113.593ZM96.3623 113.613L96.3276 111.614C94.2243 111.65 92.3609 111.283 90.7522 110.53L89.9043 112.342L89.0564 114.153C91.3018 115.204 93.7853 115.658 96.3971 115.613L96.3623 113.613ZM89.9043 112.342L90.8836 110.598L89.0594 109.574L88.0801 111.317L87.1008 113.061L88.925 114.086L89.9043 112.342ZM88.0801 111.317L89.2118 109.668L79.413 102.944L78.2813 104.593L77.1496 106.242L86.9484 112.966L88.0801 111.317ZM78.2813 104.593L77.1586 106.248C78.9062 107.433 80.8594 108.212 82.9563 108.595L83.3155 106.627L83.6747 104.66C82.0972 104.372 80.669 103.796 79.4039 102.938L78.2813 104.593ZM83.3155 106.627L83.6826 104.661C82.0995 104.365 80.6794 103.792 79.4315 102.935L78.2989 104.583L77.1663 106.231C78.9103 107.43 80.8605 108.203 82.9483 108.593L83.3155 106.627ZM78.2989 104.583L79.4315 102.935C74.6663 99.6606 72.673 92.2808 74.2759 82.0104C75.854 71.8985 80.8511 59.694 88.9746 47.871L87.3262 46.7384L85.6778 45.6058C77.2916 57.8111 72.0129 70.5699 70.3237 81.3936C68.6592 92.0589 70.4071 101.587 77.1663 106.231L78.2989 104.583Z" fill="white" mask="url(#path-1-outside-1_0_5670)"/><mask id="path-3-outside-2_0_5670" maskUnits="userSpaceOnUse" x="8.99219" y="46.4707" width="89" height="106" fill="black"><rect fill="white" x="8.99219" y="46.4707" width="89" height="106"/><path d="M28.4324 52.7563C39.9847 44.8786 62.6654 58.0192 79.0906 82.106C95.5158 106.193 99.466 132.105 87.9139 139.983C87.3829 140.345 86.828 140.662 86.2518 140.936C86.8279 140.664 87.3839 140.35 87.9158 139.99L78.0965 146.694L76.2723 147.718C74.3453 148.6 72.1718 149.01 69.8143 148.969C69.6505 148.969 69.4868 148.969 69.323 148.949C63.9112 148.723 57.6173 146.202 51.1395 141.815C43.0214 136.321 34.6367 127.874 27.4412 117.337C22.5418 110.142 18.7488 102.803 16.1453 95.813C13.6443 89.1095 12.2507 82.7542 12.0252 77.1987C11.6972 69.1219 13.8085 62.7259 18.6053 59.4663L28.408 52.773C28.4161 52.7674 28.4243 52.7619 28.4324 52.7563ZM79.073 142.246C79.261 142.255 79.4478 142.263 79.6336 142.266C79.636 142.266 79.639 142.265 79.6414 142.265C79.453 142.262 79.2637 142.254 79.073 142.246ZM80.7352 142.247C80.7619 142.245 80.7886 142.245 80.8152 142.244C80.7886 142.245 80.7619 142.245 80.7352 142.247ZM78.5076 142.211C78.5591 142.215 78.6106 142.219 78.6619 142.222C78.6105 142.219 78.5591 142.215 78.5076 142.211ZM85.0711 141.426C85.0809 141.423 85.0906 141.419 85.1004 141.416C85.0906 141.419 85.0809 141.423 85.0711 141.426ZM85.5057 141.261C85.5414 141.247 85.5775 141.234 85.6131 141.219C85.5775 141.234 85.5414 141.247 85.5057 141.261ZM85.9568 141.072C86.0367 141.036 86.116 141 86.1951 140.963C86.1162 141 86.0366 141.036 85.9568 141.072ZM25.41 87.5689C25.4527 87.6906 25.4944 87.813 25.5379 87.9351C25.4945 87.813 25.4526 87.6907 25.41 87.5689ZM24.5154 84.8608C23.1012 80.2877 22.2319 75.9278 21.9305 71.9409C22.2284 75.9261 23.0971 80.2841 24.5154 84.8608ZM21.8758 71.103C21.8877 71.3196 21.9004 71.5374 21.9158 71.7563C21.9002 71.5375 21.888 71.3196 21.8758 71.103ZM21.8279 70.0259C21.6653 64.6065 22.6298 59.9725 24.7898 56.5659C22.6256 59.9719 21.6573 64.6023 21.8279 70.0259ZM25.115 56.0776C25.0362 56.1912 24.9586 56.3059 24.8826 56.4224C24.9584 56.3058 25.0364 56.1912 25.115 56.0776ZM25.368 55.7222C25.33 55.7734 25.293 55.8255 25.2557 55.8774C25.293 55.8255 25.33 55.7734 25.368 55.7222ZM25.6746 55.3237C25.6648 55.336 25.6551 55.3485 25.6453 55.3608C25.6551 55.3485 25.6648 55.336 25.6746 55.3237ZM27.5769 53.397C27.561 53.41 27.545 53.4229 27.5291 53.436C27.545 53.4229 27.561 53.41 27.5769 53.397ZM24.8865 86.0239C24.9807 86.3115 25.0762 86.6001 25.1746 86.8892C25.0764 86.6 24.9805 86.3116 24.8865 86.0239ZM24.531 84.9106C24.5259 84.894 24.5206 84.8775 24.5154 84.8608C24.5206 84.8775 24.5259 84.894 24.531 84.9106ZM21.8445 70.4956C21.8475 70.5687 21.8519 70.6419 21.8553 70.7153C21.8444 70.4841 21.8348 70.2543 21.8279 70.0259C21.8328 70.1816 21.8377 70.3386 21.8445 70.4956Z"/></mask><path d="M28.4324 52.7563C39.9847 44.8786 62.6654 58.0192 79.0906 82.106C95.5158 106.193 99.466 132.105 87.9139 139.983C87.3829 140.345 86.828 140.662 86.2518 140.936C86.8279 140.664 87.3839 140.35 87.9158 139.99L78.0965 146.694L76.2723 147.718C74.3453 148.6 72.1718 149.01 69.8143 148.969C69.6505 148.969 69.4868 148.969 69.323 148.949C63.9112 148.723 57.6173 146.202 51.1395 141.815C43.0214 136.321 34.6367 127.874 27.4412 117.337C22.5418 110.142 18.7488 102.803 16.1453 95.813C13.6443 89.1095 12.2507 82.7542 12.0252 77.1987C11.6972 69.1219 13.8085 62.7259 18.6053 59.4663L28.408 52.773C28.4161 52.7674 28.4243 52.7619 28.4324 52.7563ZM79.073 142.246C79.261 142.255 79.4478 142.263 79.6336 142.266C79.636 142.266 79.639 142.265 79.6414 142.265C79.453 142.262 79.2637 142.254 79.073 142.246ZM80.7352 142.247C80.7619 142.245 80.7886 142.245 80.8152 142.244C80.7886 142.245 80.7619 142.245 80.7352 142.247ZM78.5076 142.211C78.5591 142.215 78.6106 142.219 78.6619 142.222C78.6105 142.219 78.5591 142.215 78.5076 142.211ZM85.0711 141.426C85.0809 141.423 85.0906 141.419 85.1004 141.416C85.0906 141.419 85.0809 141.423 85.0711 141.426ZM85.5057 141.261C85.5414 141.247 85.5775 141.234 85.6131 141.219C85.5775 141.234 85.5414 141.247 85.5057 141.261ZM85.9568 141.072C86.0367 141.036 86.116 141 86.1951 140.963C86.1162 141 86.0366 141.036 85.9568 141.072ZM25.41 87.5689C25.4527 87.6906 25.4944 87.813 25.5379 87.9351C25.4945 87.813 25.4526 87.6907 25.41 87.5689ZM24.5154 84.8608C23.1012 80.2877 22.2319 75.9278 21.9305 71.9409C22.2284 75.9261 23.0971 80.2841 24.5154 84.8608ZM21.8758 71.103C21.8877 71.3196 21.9004 71.5374 21.9158 71.7563C21.9002 71.5375 21.888 71.3196 21.8758 71.103ZM21.8279 70.0259C21.6653 64.6065 22.6298 59.9725 24.7898 56.5659C22.6256 59.9719 21.6573 64.6023 21.8279 70.0259ZM25.115 56.0776C25.0362 56.1912 24.9586 56.3059 24.8826 56.4224C24.9584 56.3058 25.0364 56.1912 25.115 56.0776ZM25.368 55.7222C25.33 55.7734 25.293 55.8255 25.2557 55.8774C25.293 55.8255 25.33 55.7734 25.368 55.7222ZM25.6746 55.3237C25.6648 55.336 25.6551 55.3485 25.6453 55.3608C25.6551 55.3485 25.6648 55.336 25.6746 55.3237ZM27.5769 53.397C27.561 53.41 27.545 53.4229 27.5291 53.436C27.545 53.4229 27.561 53.41 27.5769 53.397ZM24.8865 86.0239C24.9807 86.3115 25.0762 86.6001 25.1746 86.8892C25.0764 86.6 24.9805 86.3116 24.8865 86.0239ZM24.531 84.9106C24.5259 84.894 24.5206 84.8775 24.5154 84.8608C24.5206 84.8775 24.5259 84.894 24.531 84.9106ZM21.8445 70.4956C21.8475 70.5687 21.8519 70.6419 21.8553 70.7153C21.8444 70.4841 21.8348 70.2543 21.8279 70.0259C21.8328 70.1816 21.8377 70.3386 21.8445 70.4956Z" fill="#699E34"/><path d="M28.4324 52.7563L26.7422 50.2778L26.7422 50.2778L28.4324 52.7563ZM79.0906 82.106L81.5692 80.4158V80.4158L79.0906 82.106ZM87.9139 139.983L89.604 142.461L89.6041 142.461L87.9139 139.983ZM86.2518 140.936L84.9626 138.227L87.5342 143.648L86.2518 140.936ZM87.9158 139.99L89.6074 142.467L86.2318 137.507L87.9158 139.99ZM78.0965 146.694L79.5654 149.31L79.6797 149.245L79.7881 149.171L78.0965 146.694ZM76.2723 147.718L77.5202 150.446L77.633 150.395L77.7412 150.334L76.2723 147.718ZM69.8143 148.969L69.8664 145.97L69.8403 145.969H69.8143V148.969ZM69.323 148.949L69.6944 145.972L69.5716 145.956L69.4479 145.951L69.323 148.949ZM51.1395 141.815L52.8216 139.331L52.8209 139.33L51.1395 141.815ZM27.4412 117.337L24.9615 119.026L24.9637 119.029L27.4412 117.337ZM16.1453 95.813L18.9567 94.7659L18.9561 94.7643L16.1453 95.813ZM12.0252 77.1987L15.0227 77.0771L15.0227 77.077L12.0252 77.1987ZM18.6053 59.4663L20.2914 61.9476L20.2969 61.9439L18.6053 59.4663ZM28.408 52.773L30.0997 55.2505L30.1041 55.2475L28.408 52.773ZM79.073 142.246L79.2099 139.249L78.9299 145.242L79.073 142.246ZM79.6336 142.266L79.5778 145.266L79.5859 145.266L79.5941 145.266L79.6336 142.266ZM79.6414 142.265L79.6031 145.265L79.6894 139.266L79.6414 142.265ZM80.7352 142.247L80.5956 139.25L80.8696 145.244L80.7352 142.247ZM80.8152 142.244L80.9684 145.24L80.6668 139.247L80.8152 142.244ZM78.5076 142.211L78.729 139.22L78.2804 145.203L78.5076 142.211ZM78.6619 142.222L78.4632 145.216L78.8666 139.229L78.6619 142.222ZM85.0711 141.426L84.0584 138.602L86.0775 144.252L85.0711 141.426ZM85.1004 141.416L86.1198 144.237L84.0873 138.592L85.1004 141.416ZM85.5057 141.261L84.3925 138.475L86.6122 144.05L85.5057 141.261ZM85.6131 141.219L86.7512 143.995L84.4816 138.441L85.6131 141.219ZM85.9568 141.072L84.7377 138.331L87.1692 143.816L85.9568 141.072ZM86.1951 140.963L87.4707 143.679L84.9263 138.245L86.1951 140.963ZM25.41 87.5689L28.241 86.5763L22.5781 88.5592L25.41 87.5689ZM25.5379 87.9351L22.7116 88.9411L28.365 86.9313L25.5379 87.9351ZM21.9305 71.9409L24.9219 71.7147L18.9388 72.1646L21.9305 71.9409ZM21.8758 71.103L24.871 70.9346L18.8803 71.2686L21.8758 71.103ZM21.9158 71.7563L18.9234 71.9701L24.9084 71.5453L21.9158 71.7563ZM24.7898 56.5659L27.3235 58.1724L22.2578 54.957L24.7898 56.5659ZM25.115 56.0776L27.581 57.7861L22.6506 54.3669L25.115 56.0776ZM24.8826 56.4224L22.368 54.7863L27.3957 58.0608L24.8826 56.4224ZM25.368 55.7222L27.7794 57.5068L22.9581 53.9354L25.368 55.7222ZM25.2557 55.8774L22.8198 54.1263L27.6899 57.6308L25.2557 55.8774ZM25.6746 55.3237L28.0185 57.1962L23.3322 53.4494L25.6746 55.3237ZM25.6453 55.3608L23.2949 53.4966L27.9942 57.227L25.6453 55.3608ZM27.5769 53.397L29.4745 55.7206L25.6795 51.0733L27.5769 53.397ZM24.8865 86.0239L27.7375 85.09L22.0349 86.9559L24.8865 86.0239ZM25.1746 86.8892L22.3347 87.8562L28.0152 85.9242L25.1746 86.8892ZM24.531 84.9106L21.6661 85.8007L27.3965 84.0223L24.531 84.9106ZM21.8445 70.4956L24.8421 70.3739L24.8417 70.3663L21.8445 70.4956ZM21.8553 70.7153L18.8586 70.8561L24.8521 70.5776L21.8553 70.7153ZM28.4324 52.7563L30.1226 55.2349C34.3997 52.3183 41.5223 52.8793 50.4303 58.0403C59.1301 63.0807 68.5955 72.0402 76.6121 83.7961L79.0906 82.106L81.5692 80.4158C73.1606 68.085 63.073 58.4308 53.4381 52.8487C44.0114 47.3871 34.0175 45.3167 26.7422 50.2778L28.4324 52.7563ZM79.0906 82.106L76.6121 83.7961C84.6286 95.5521 89.5127 107.635 91.028 117.575C92.5795 127.752 90.5007 134.588 86.2237 137.504L87.9139 139.983L89.6041 142.461C96.8792 137.5 98.6013 127.441 96.9595 116.671C95.2813 105.663 89.9778 92.7466 81.5692 80.4158L79.0906 82.106ZM87.9139 139.983L86.2237 137.504C85.8241 137.777 85.4036 138.017 84.9626 138.227L86.2518 140.936L87.5409 143.645C88.2524 143.306 88.9418 142.913 89.604 142.461L87.9139 139.983ZM86.2518 140.936L87.5342 143.648C88.2394 143.315 88.9309 142.926 89.5998 142.473L87.9158 139.99L86.2318 137.507C85.837 137.775 85.4164 138.013 84.9693 138.224L86.2518 140.936ZM87.9158 139.99L86.2242 137.512L76.4049 144.216L78.0965 146.694L79.7881 149.171L89.6074 142.467L87.9158 139.99ZM78.0965 146.694L76.6276 144.078L74.8033 145.102L76.2723 147.718L77.7412 150.334L79.5654 149.31L78.0965 146.694ZM76.2723 147.718L75.0243 144.99C73.5613 145.659 71.8421 146.004 69.8664 145.97L69.8143 148.969L69.7621 151.969C72.5014 152.016 75.1292 151.54 77.5202 150.446L76.2723 147.718ZM69.8143 148.969V145.969C69.7717 145.969 69.7425 145.969 69.7154 145.969C69.6895 145.969 69.6733 145.968 69.6629 145.968C69.6411 145.967 69.6568 145.967 69.6944 145.972L69.323 148.949L68.9516 151.926C69.3304 151.973 69.6794 151.969 69.8143 151.969L69.8143 148.969ZM69.323 148.949L69.4479 145.951C64.8066 145.758 59.0551 143.552 52.8216 139.331L51.1395 141.815L49.4573 144.299C56.1796 148.851 63.0157 151.689 69.1982 151.946L69.323 148.949ZM51.1395 141.815L52.8209 139.33C45.0644 134.081 36.937 125.923 29.9187 115.646L27.4412 117.337L24.9637 119.029C32.3364 129.826 40.9784 138.561 49.458 144.299L51.1395 141.815ZM27.4412 117.337L29.9209 115.649C25.147 108.638 21.4696 101.513 18.9567 94.7659L16.1453 95.813L13.334 96.86C16.028 104.094 19.9366 111.646 24.9615 119.026L27.4412 117.337ZM16.1453 95.813L18.9561 94.7643C16.5382 88.2838 15.2325 82.2451 15.0227 77.0771L12.0252 77.1987L9.02766 77.3204C9.2689 83.2633 10.7504 89.9353 13.3346 96.8616L16.1453 95.813ZM12.0252 77.1987L15.0227 77.077C14.712 69.4245 16.7591 64.3479 20.2914 61.9476L18.6053 59.4663L16.9191 56.985C10.8579 61.1038 8.68244 68.8193 9.02766 77.3205L12.0252 77.1987ZM18.6053 59.4663L20.2969 61.9439L30.0997 55.2505L28.408 52.773L26.7163 50.2954L16.9136 56.9888L18.6053 59.4663ZM28.408 52.773L30.1041 55.2475C30.1015 55.2492 30.1004 55.25 30.104 55.2475C30.1051 55.2468 30.1084 55.2445 30.111 55.2428C30.114 55.2408 30.118 55.238 30.1226 55.2349L28.4324 52.7563L26.7422 50.2778C26.7423 50.2778 26.7426 50.2776 26.7364 50.2818C26.7319 50.2848 26.7226 50.2911 26.7119 50.2984L28.408 52.773ZM79.073 142.246L78.9299 145.242C79.1232 145.251 79.3462 145.261 79.5778 145.266L79.6336 142.266L79.6894 139.267C79.5495 139.264 79.3988 139.258 79.2161 139.249L79.073 142.246ZM79.6336 142.266L79.5941 145.266C79.6493 145.267 79.7002 145.266 79.7462 145.264C79.7922 145.262 79.8344 145.26 79.872 145.257C79.9097 145.254 79.9439 145.25 79.9739 145.247C80.004 145.243 80.031 145.24 80.0542 145.237C80.0774 145.233 80.0978 145.23 80.1147 145.227C80.1316 145.225 80.146 145.222 80.1571 145.22C80.168 145.218 80.1769 145.217 80.1823 145.216C80.185 145.215 80.1873 145.215 80.1887 145.215C80.1894 145.214 80.19 145.214 80.1903 145.214C80.1907 145.214 80.191 145.214 80.191 145.214C80.1919 145.214 80.188 145.215 80.1834 145.216C80.1784 145.216 80.1699 145.218 80.1594 145.22C80.1487 145.222 80.1347 145.224 80.1182 145.227C80.1016 145.23 80.0816 145.233 80.0588 145.236C80.0359 145.239 80.0093 145.243 79.9796 145.246C79.9499 145.249 79.9161 145.253 79.8788 145.256C79.8415 145.259 79.7998 145.261 79.7541 145.263C79.7085 145.265 79.6579 145.266 79.6031 145.265L79.6414 142.265L79.6797 139.265C79.6246 139.265 79.5737 139.266 79.5278 139.267C79.4818 139.269 79.4397 139.272 79.4021 139.275C79.3645 139.278 79.3304 139.281 79.3004 139.285C79.2703 139.288 79.2434 139.291 79.2202 139.295C79.1971 139.298 79.1767 139.301 79.1598 139.304C79.143 139.307 79.1286 139.309 79.1176 139.311C79.1067 139.313 79.0979 139.315 79.0926 139.316C79.0899 139.316 79.0876 139.316 79.0863 139.317C79.0856 139.317 79.085 139.317 79.0846 139.317C79.0844 139.317 79.0843 139.317 79.0842 139.317C79.0841 139.317 79.084 139.317 79.084 139.317C79.0832 139.317 79.0871 139.317 79.0917 139.316C79.0968 139.315 79.1053 139.313 79.1159 139.311C79.1266 139.309 79.1407 139.307 79.1572 139.304C79.1738 139.302 79.1939 139.299 79.2168 139.295C79.2397 139.292 79.2663 139.289 79.2961 139.285C79.3258 139.282 79.3597 139.278 79.397 139.275C79.4343 139.273 79.4762 139.27 79.5219 139.268C79.5676 139.266 79.6182 139.266 79.6731 139.266L79.6336 142.266ZM79.6414 142.265L79.6894 139.266C79.5479 139.263 79.3956 139.257 79.2099 139.249L79.073 142.246L78.9361 145.242C79.1318 145.251 79.3581 145.261 79.5934 145.265L79.6414 142.265ZM80.7352 142.247L80.8747 145.243C80.8646 145.244 80.8578 145.244 80.8569 145.244C80.8563 145.244 80.8565 145.244 80.8583 145.244C80.8604 145.244 80.8621 145.244 80.8665 145.244C80.8734 145.244 80.8877 145.243 80.9037 145.243C80.9203 145.242 80.9426 145.241 80.9684 145.24L80.8152 142.244L80.662 139.248C80.6745 139.247 80.6834 139.247 80.6867 139.246C80.6895 139.246 80.6904 139.246 80.6839 139.247C80.6799 139.247 80.6667 139.247 80.6535 139.248C80.6392 139.248 80.619 139.249 80.5956 139.25L80.7352 142.247ZM80.8152 142.244L80.6668 139.247C80.6769 139.247 80.6839 139.247 80.686 139.246C80.6877 139.246 80.6877 139.246 80.6814 139.247C80.6773 139.247 80.665 139.247 80.6529 139.248C80.6399 139.248 80.6217 139.249 80.6007 139.25L80.7352 142.247L80.8696 145.244C80.8656 145.244 80.8625 145.244 80.8605 145.244C80.8595 145.244 80.8587 145.244 80.8582 145.244C80.8577 145.244 80.8574 145.244 80.8574 145.244C80.8574 145.244 80.8576 145.244 80.8581 145.244C80.8586 145.244 80.8593 145.244 80.8603 145.244C80.8628 145.244 80.8645 145.244 80.869 145.244C80.8812 145.243 80.9197 145.242 80.9636 145.24L80.8152 142.244ZM78.5076 142.211L78.2804 145.203C78.3469 145.208 78.4213 145.213 78.4572 145.215L78.6619 142.222L78.8666 139.229C78.7998 139.225 78.7713 139.223 78.7349 139.22L78.5076 142.211ZM78.6619 142.222L78.8606 139.229C78.813 139.226 78.7699 139.223 78.729 139.22L78.5076 142.211L78.2862 145.203C78.3483 145.208 78.4081 145.212 78.4632 145.216L78.6619 142.222ZM85.0711 141.426L86.0775 144.252C86.0918 144.247 86.1039 144.243 86.1124 144.24C86.1205 144.237 86.1276 144.234 86.13 144.233C86.1339 144.232 86.1322 144.232 86.1304 144.233C86.1279 144.234 86.1217 144.236 86.1135 144.239L85.1004 141.416L84.0873 138.592C84.0741 138.596 84.0631 138.601 84.0557 138.603C84.052 138.605 84.0488 138.606 84.0465 138.607C84.0444 138.607 84.0422 138.608 84.0415 138.609C84.039 138.609 84.0412 138.609 84.0445 138.607C84.0481 138.606 84.0553 138.603 84.0647 138.6L85.0711 141.426ZM85.1004 141.416L84.081 138.594C84.0709 138.598 84.0624 138.601 84.0565 138.603C84.0512 138.605 84.0458 138.607 84.0446 138.607C84.0424 138.608 84.0434 138.608 84.0452 138.607C84.0474 138.606 84.0521 138.605 84.0584 138.602L85.0711 141.426L86.0838 144.25C86.095 144.246 86.1046 144.243 86.1116 144.24C86.1183 144.238 86.1243 144.235 86.1268 144.234C86.1305 144.233 86.13 144.233 86.1296 144.233C86.1286 144.234 86.125 144.235 86.1198 144.237L85.1004 141.416ZM85.5057 141.261L86.6122 144.05C86.6102 144.05 86.6105 144.05 86.6152 144.049C86.6217 144.046 86.625 144.045 86.6382 144.04C86.6578 144.032 86.6985 144.016 86.7446 143.998L85.6131 141.219L84.4816 138.441C84.4921 138.437 84.497 138.435 84.4806 138.441C84.476 138.443 84.4613 138.448 84.4499 138.453C84.4366 138.458 84.419 138.465 84.3991 138.473L85.5057 141.261ZM85.6131 141.219L84.4749 138.444C84.4845 138.44 84.4908 138.437 84.492 138.437C84.4928 138.436 84.4915 138.437 84.484 138.44C84.4792 138.442 84.4639 138.447 84.4507 138.453C84.4359 138.458 84.4156 138.466 84.3925 138.475L85.5057 141.261L86.6188 144.047C86.6136 144.049 86.6112 144.05 86.6143 144.049C86.619 144.047 86.6217 144.046 86.6349 144.041C86.6537 144.034 86.6993 144.016 86.7512 143.995L85.6131 141.219ZM85.9568 141.072L87.1692 143.816C87.271 143.771 87.3695 143.726 87.464 143.682L86.1951 140.963L84.9263 138.245C84.8626 138.275 84.8024 138.302 84.7445 138.328L85.9568 141.072ZM86.1951 140.963L84.9195 138.248C84.8682 138.272 84.8104 138.298 84.7377 138.331L85.9568 141.072L87.1759 143.813C87.2628 143.774 87.3642 143.729 87.4707 143.679L86.1951 140.963ZM25.41 87.5689L22.5789 88.5614C22.6085 88.6459 22.6673 88.8166 22.7116 88.9411L25.5379 87.9351L28.3642 86.929C28.3216 86.8095 28.2968 86.7353 28.241 86.5763L25.41 87.5689ZM25.5379 87.9351L28.365 86.9313C28.324 86.8159 28.2928 86.7244 28.2418 86.5785L25.41 87.5689L22.5781 88.5592C22.6123 88.657 22.6651 88.8101 22.7108 88.9388L25.5379 87.9351ZM24.5154 84.8608L27.3815 83.9745C26.0218 79.5775 25.2037 75.4406 24.9219 71.7147L21.9305 71.9409L18.939 72.1671C19.2602 76.4149 20.1807 80.9979 21.6493 85.7472L24.5154 84.8608ZM21.9305 71.9409L18.9388 72.1646C19.2564 76.4126 20.1767 80.9951 21.6499 85.7489L24.5154 84.8608L27.381 83.9728C26.0175 79.5731 25.2004 75.4396 24.9221 71.7172L21.9305 71.9409ZM21.8758 71.103L18.8803 71.2686C18.8925 71.4891 18.9062 71.7252 18.9233 71.9674L21.9158 71.7563L24.9084 71.5453C24.8946 71.3497 24.883 71.1502 24.8712 70.9375L21.8758 71.103ZM21.9158 71.7563L24.9082 71.5426C24.8945 71.3502 24.8834 71.1551 24.871 70.9346L21.8758 71.103L18.8805 71.2714C18.8925 71.4841 18.9059 71.7247 18.9234 71.9701L21.9158 71.7563ZM21.8279 70.0259L24.8266 69.9359C24.6745 64.8709 25.5945 60.8992 27.3235 58.1724L24.7898 56.5659L22.2562 54.9595C19.6652 59.0459 18.656 64.3421 18.8293 70.1159L21.8279 70.0259ZM24.7898 56.5659L22.2578 54.957C19.6614 59.0432 18.6475 64.3375 18.8294 70.1202L21.8279 70.0259L24.8264 69.9316C24.6671 64.8672 25.5899 60.9006 27.3219 58.1748L24.7898 56.5659ZM25.115 56.0776L22.6506 54.3669C22.5586 54.4994 22.4643 54.6386 22.3696 54.7839L24.8826 56.4224L27.3957 58.0608C27.4528 57.9732 27.5138 57.8829 27.5795 57.7884L25.115 56.0776ZM24.8826 56.4224L27.3972 58.0584C27.4516 57.9748 27.5119 57.886 27.581 57.7861L25.115 56.0776L22.649 54.3692C22.5608 54.4965 22.4652 54.6368 22.368 54.7863L24.8826 56.4224ZM25.368 55.7222L22.9581 53.9354C22.9037 54.0087 22.8403 54.0978 22.8214 54.1241L25.2557 55.8774L27.6899 57.6308C27.7458 57.5532 27.7562 57.5381 27.7778 57.509L25.368 55.7222ZM25.2557 55.8774L27.6915 57.6286C27.7411 57.5596 27.7578 57.5361 27.7794 57.5068L25.368 55.7222L22.9565 53.9375C22.9023 54.0108 22.8448 54.0914 22.8198 54.1263L25.2557 55.8774ZM25.6746 55.3237L23.3322 53.4494C23.3181 53.467 23.3059 53.4826 23.3008 53.489C23.2973 53.4935 23.2965 53.4945 23.2952 53.4961C23.2944 53.4972 23.295 53.4964 23.2964 53.4947L25.6453 55.3608L27.9942 57.227C28.0005 57.2191 28.006 57.2121 28.01 57.207C28.0136 57.2025 28.0177 57.1973 28.0191 57.1955C28.0211 57.1929 28.0215 57.1924 28.0214 57.1926C28.0211 57.1929 28.0195 57.1949 28.017 57.1981L25.6746 55.3237ZM25.6453 55.3608L27.9958 57.2251C28.0013 57.2181 28.0062 57.2119 28.0098 57.2072C28.013 57.2032 28.017 57.1982 28.0183 57.1965C28.0228 57.1907 28.0215 57.1925 28.0185 57.1962L25.6746 55.3237L23.3307 53.4512C23.3179 53.4673 23.3068 53.4814 23.3016 53.4881C23.2943 53.4973 23.2947 53.4968 23.2949 53.4966L25.6453 55.3608ZM27.5769 53.397L25.6794 51.0733C25.6736 51.078 25.6709 51.0803 25.659 51.09C25.6495 51.0977 25.6356 51.109 25.6201 51.1218L27.5291 53.436L29.4381 55.7503C29.4381 55.7503 29.4387 55.7498 29.4403 55.7485C29.4418 55.7472 29.4439 55.7455 29.447 55.743C29.4509 55.7399 29.4531 55.7381 29.4585 55.7337C29.4629 55.7301 29.4685 55.7255 29.4745 55.7206L27.5769 53.397ZM27.5291 53.436L29.4381 55.7502C29.4381 55.7503 29.4388 55.7497 29.4403 55.7485C29.4419 55.7472 29.4439 55.7455 29.4471 55.743C29.4508 55.7399 29.4531 55.738 29.4584 55.7337C29.4629 55.7301 29.4685 55.7255 29.4744 55.7207L27.5769 53.397L25.6795 51.0733C25.6736 51.078 25.6709 51.0802 25.6589 51.09C25.6495 51.0977 25.6356 51.109 25.6201 51.1218L27.5291 53.436ZM24.8865 86.0239L22.0356 86.9578C22.1313 87.2502 22.2309 87.5512 22.3347 87.8562L25.1746 86.8892L28.0145 85.9221C27.9214 85.6489 27.8301 85.3728 27.7375 85.09L24.8865 86.0239ZM25.1746 86.8892L28.0152 85.9242C27.9212 85.6475 27.829 85.3702 27.7381 85.092L24.8865 86.0239L22.0349 86.9559C22.132 87.2529 22.2316 87.5525 22.334 87.8541L25.1746 86.8892ZM24.531 84.9106L27.3965 84.0223C27.3912 84.0051 27.3861 83.9889 27.384 83.9824C27.3811 83.9731 27.3811 83.973 27.3815 83.9745L24.5154 84.8608L21.6493 85.7472C21.6549 85.7653 21.6602 85.7817 21.6625 85.7891C21.6656 85.7992 21.6658 85.7996 21.6656 85.799L24.531 84.9106ZM24.5154 84.8608L21.6499 85.7489C21.655 85.7655 21.6598 85.7807 21.6622 85.7883C21.6637 85.7929 21.6645 85.7954 21.6652 85.7978C21.6659 85.8 21.6661 85.8007 21.6661 85.8007L24.531 84.9106L27.396 84.0206C27.3911 84.0049 27.3864 83.99 27.3843 83.9832C27.3829 83.979 27.3822 83.9766 27.3816 83.9747C27.381 83.9728 27.3808 83.9724 27.381 83.9728L24.5154 84.8608ZM21.8445 70.4956L18.847 70.6173C18.8492 70.6717 18.8518 70.7226 18.8537 70.7602C18.8559 70.8026 18.8573 70.8274 18.8584 70.8531L21.8553 70.7153L24.8521 70.5776C24.845 70.4235 24.8456 70.4607 24.8421 70.3739L21.8445 70.4956ZM21.8553 70.7153L24.852 70.5746C24.8415 70.3527 24.8327 70.1412 24.8266 69.9359L21.8279 70.0259L18.8293 70.1159C18.8368 70.3675 18.8473 70.6156 18.8586 70.8561L21.8553 70.7153ZM21.8279 70.0259L18.8294 70.1202C18.8342 70.2729 18.8397 70.4474 18.8473 70.6249L21.8445 70.4956L24.8417 70.3663C24.8358 70.2297 24.8314 70.0904 24.8264 69.9316L21.8279 70.0259Z" fill="white" mask="url(#path-3-outside-2_0_5670)"/><path d="M87.9139 140.233C99.4662 132.355 95.5159 106.443 79.0907 82.3558C62.6655 58.269 39.9853 45.1289 28.4329 53.0066C16.8806 60.8844 20.8309 86.7967 37.2561 110.884C53.6813 134.97 76.3616 148.11 87.9139 140.233Z" fill="url(#paint0_linear_0_5670)"/><path d="M87.9162 140.24L78.0967 146.944L76.2722 147.969C74.3452 148.85 72.1722 149.26 69.8147 149.219C69.6507 149.219 69.4867 149.219 69.3227 149.199C63.9107 148.973 57.6172 146.452 51.1392 142.065C43.0212 136.571 34.6367 128.125 27.4412 117.588C22.5417 110.392 18.7492 103.053 16.1457 96.0627C13.6447 89.3592 12.2507 83.0042 12.0252 77.4487C11.6972 69.3717 13.8087 62.9757 18.6057 59.7162L28.4252 53.0127C23.6282 56.2927 21.4962 62.6682 21.8447 70.7452C22.0702 76.3007 23.4642 82.6557 25.9652 89.3592C28.5687 96.3497 32.3612 103.689 37.2607 110.884C44.4562 121.421 52.8202 129.867 60.9587 135.361C67.6212 139.871 74.1197 142.413 79.6342 142.516C82.7502 142.557 85.5587 141.839 87.9162 140.24Z" fill="#699E34"/><path d="M50.4013 72.3858L48.7408 107.297C48.6998 107.994 49.4788 108.404 50.0528 108.035L60.1183 101.168C60.5898 100.84 61.2253 101.086 61.3893 101.619L67.8673 123.287C68.1338 124.189 69.4458 124.025 69.5073 123.103L71.7623 84.1938C71.8033 83.5378 71.1063 83.1073 70.5323 83.4148L58.7243 89.7903C58.2733 90.0363 57.6993 89.8108 57.5353 89.3188L52.0208 72.1603C51.7338 71.2788 50.4423 71.4633 50.4013 72.3858Z" fill="#3E601C"/><path d="M60.9585 135.361L51.139 142.065C43.021 136.571 34.6365 128.125 27.441 117.588C22.5415 110.392 18.749 103.053 16.1455 96.0629L25.965 89.3594C28.5685 96.3499 32.361 103.689 37.2605 110.884C44.456 121.421 52.82 129.867 60.9585 135.361Z" fill="#537D28"/><path d="M79.6346 142.516L69.3231 149.199C64.1981 148.973 57.8021 146.595 51.1396 142.065L60.9592 135.361C67.6217 139.892 74.1201 142.413 79.6346 142.516Z" fill="#3E601C"/><path d="M87.9167 140.24L78.0972 146.944L76.2727 147.969C74.3457 148.85 72.1727 149.26 69.8152 149.219C69.6512 149.219 69.4872 149.219 69.3232 149.199L79.6347 142.516C82.7507 142.557 85.5592 141.839 87.9167 140.24Z" fill="#537D28"/><path d="M56.838 132.348C56.838 132.348 60.1385 134.828 60.938 135.361L51.1185 142.065C51.1185 142.065 47.859 139.728 46.8955 138.949L56.838 132.348Z" fill="#48721E"/><path d="M21.8447 70.7452L12.0252 77.4487C11.6972 69.3717 13.8087 62.9757 18.6057 59.7162L28.4252 53.0127C23.6282 56.2722 21.5167 62.6682 21.8447 70.7452Z" fill="#9EDE60"/><path d="M24.5098 85.0957C24.5098 85.0957 31.7668 113.304 60.9383 135.362" stroke="black" stroke-miterlimit="10"/><path d="M129.059 76.1906C145.568 52.1621 149.61 26.2641 138.085 18.3458C126.561 10.4276 103.835 23.4875 87.3252 47.516C70.8154 71.5445 66.774 97.4425 78.2983 105.361C89.8227 113.279 112.549 100.219 129.059 76.1906Z" fill="#795EFF"/><path d="M78.2803 105.37L88.0793 112.094L89.9038 113.119C91.8308 114.021 94.0038 114.431 96.3613 114.39C96.5253 114.39 96.6893 114.39 96.8533 114.37C102.265 114.165 108.579 111.664 115.057 107.297C123.196 101.824 131.621 93.4187 138.837 82.9022C143.757 75.7272 147.57 68.3882 150.194 61.4182C152.716 54.7352 154.13 48.3801 154.376 42.8246C154.745 34.7476 152.634 28.3516 147.857 25.0511L138.058 18.3271C142.855 21.6276 144.946 28.0236 144.577 36.1006C144.331 41.6561 142.896 48.0111 140.395 54.6941C137.771 61.6641 133.958 69.0032 129.038 76.1782C121.822 86.6947 113.397 95.0997 105.258 100.573C98.5753 105.063 92.0768 107.584 86.5623 107.646C83.4463 107.728 80.6378 106.969 78.2803 105.37Z" fill="#795EFF"/><path d="M105.259 100.594L115.058 107.318C123.196 101.844 131.622 93.4393 138.838 82.9228C143.758 75.7478 147.571 68.4088 150.195 61.4388L140.396 54.7148C137.772 61.6848 133.959 69.0238 129.039 76.1988C121.823 86.7154 113.418 95.1203 105.259 100.594Z" fill="#5735FF"/><path d="M86.5625 107.687L96.8535 114.411C101.978 114.206 108.374 111.848 115.057 107.338L105.258 100.614C98.5755 105.083 92.077 107.605 86.5625 107.687Z" fill="#3015BC"/><path d="M78.2803 105.37L88.0793 112.094L89.9038 113.119C91.8308 114.021 94.0038 114.431 96.3613 114.39C96.5253 114.39 96.6893 114.39 96.8533 114.37L86.5623 107.646C83.4463 107.728 80.6378 106.969 78.2803 105.37Z" fill="#4224DE"/><path d="M109.379 97.6006C109.379 97.6006 106.079 100.061 105.259 100.594L115.058 107.318C115.058 107.318 118.338 105.001 119.301 104.222L109.379 97.6006Z" fill="#4224DE"/><path d="M144.578 35.293L154.377 42.017C154.746 33.94 152.634 27.544 147.858 24.2435L138.059 17.5195C142.835 20.82 144.947 27.216 144.578 35.293Z" fill="#9984FF"/><path d="M141.872 50.4717C141.872 50.4717 134.512 78.6387 105.259 100.594" stroke="black" stroke-miterlimit="10"/><path d="M92.1595 51.701L106.181 49.692L118.174 33.415L117.846 50.2865L129.92 53.6075L115.693 66.0305L111.163 84.378L102.696 75.1735L87.834 83.189L96.813 65.067L92.1595 51.701Z" fill="white"/><path d="M143.675 33.1013C144.095 25.2512 140.698 10.9425 123.75 16.5073" stroke="black"/><defs><linearGradient id="paint0_linear_0_5670" x1="33.1431" y1="60.3941" x2="98.5037" y2="136.914" gradientUnits="userSpaceOnUse"><stop stop-color="#AFF26D"/><stop offset="1" stop-color="#578A25"/></linearGradient></defs></svg>