<svg width="256" height="159" viewBox="0 0 256 159" fill="none" xmlns="http://www.w3.org/2000/svg"><g filter="url(#filter0_d_0_7173)"><path d="M150.331 42.5002L150.432 42.5307C150.437 42.5323 150.442 42.5337 150.448 42.5353L150.757 42.6297C150.762 42.6313 150.768 42.6329 150.774 42.6346L150.885 42.669L150.929 42.6831L151.438 42.853L151.467 42.8624C157.146 44.8308 162.132 48.9489 164.88 55.0547L165.139 55.6522L165.21 55.8297L165.372 56.2287C165.928 57.6437 166.333 59.0757 166.596 60.5099C166.869 60.5829 167.142 60.658 167.414 60.7374C167.423 60.7402 167.433 60.7439 167.442 60.7468L168.095 60.9453C168.104 60.9481 168.113 60.9506 168.123 60.9535C172.746 62.4221 176.922 64.9333 180.289 68.4541C185.548 67.4178 190.925 67.765 196.011 69.2296L196.548 69.3886L196.585 69.4005L197.078 69.5586L197.098 69.5653C197.618 69.7375 198.138 69.9253 198.657 70.1263C203.137 64.3224 210.807 61.6881 218.076 63.8096C224.54 65.6968 233.144 66.9553 237.409 75.4533L237.608 75.8636L237.622 75.8952L237.796 76.2755C237.806 76.2962 237.815 76.3175 237.824 76.3385L237.993 76.7357L238.005 76.7667C239.893 81.3996 239.782 86.6092 237.697 91.1575C237.693 91.1678 237.688 91.1787 237.683 91.1889L237.497 91.5792C237.492 91.5896 237.487 91.6 237.482 91.6103L230.458 105.88C230.253 106.295 230.031 106.705 229.793 107.107L222.758 118.987C222.667 122.282 221.848 125.381 220.57 128.115L220.289 128.695C220.267 128.739 220.247 128.778 220.237 128.796C220.23 128.809 220.229 128.811 220.226 128.818C220.225 128.819 220.224 128.82 220.224 128.821C217.67 133.873 213.558 137.758 208.463 140.042C208.455 140.046 208.447 140.049 208.439 140.053L207.989 140.249C207.981 140.253 207.971 140.257 207.963 140.26C207.921 140.278 207.883 140.293 207.863 140.301C207.849 140.306 207.849 140.306 207.839 140.31L207.832 140.314L207.831 140.313C202.984 142.357 197.704 142.788 192.58 141.524C192.572 141.522 192.563 141.52 192.555 141.518L192.103 141.401C192.094 141.399 192.085 141.395 192.075 141.393C192.05 141.386 192.01 141.376 191.968 141.365L191.967 141.365L191.688 141.286C191.646 141.274 191.604 141.263 191.564 141.251C188.777 140.437 185.99 139.078 183.501 137.075C183.344 137.034 183.186 136.992 183.027 136.946L175.125 134.639C172.424 134.862 169.592 134.642 166.713 133.853C166.707 133.851 166.7 133.849 166.694 133.848L166.339 133.748C166.332 133.746 166.325 133.744 166.318 133.742C162.492 132.625 158.712 130.651 155.543 127.662C151.527 128.196 147.41 128.004 143.299 126.991C143.291 126.989 143.282 126.987 143.273 126.984L142.632 126.819C142.62 126.816 142.608 126.812 142.596 126.809L142.499 126.783C142.494 126.782 142.489 126.78 142.484 126.779L142.017 126.647C141.986 126.639 141.948 126.628 141.907 126.616C137.912 125.45 133.95 123.548 130.494 120.719C128.668 120.764 126.808 120.535 124.975 120L114.886 117.055C113.051 116.519 111.335 115.702 109.789 114.653C107.941 114.705 106.058 114.478 104.202 113.936L94.112 110.991C93.3123 110.757 92.5389 110.466 91.7921 110.131C90.9888 110.012 90.1821 109.844 89.3798 109.609L80.2557 106.946C77.7517 107.13 75.139 106.954 72.477 106.316C72.4711 106.315 72.4649 106.313 72.4589 106.312L72.1155 106.227C72.1025 106.224 72.0885 106.221 72.0755 106.217L71.9313 106.178C71.9244 106.177 71.9173 106.175 71.9104 106.173L71.4414 106.044C71.3748 106.026 71.3116 106.009 71.2561 105.992C68.3005 105.13 65.3752 103.688 62.756 101.561C61.7465 101.446 60.734 101.247 59.7305 100.955L29.7821 92.2123C24.6419 90.7117 20.429 87.0141 18.2731 82.113L18.2725 82.1118C16.1168 77.2101 16.239 71.6057 18.6068 66.8031L38.2678 26.9298L38.2804 26.904L38.3661 26.7357L38.3764 26.7143L38.5171 26.4451L38.5315 26.4167L38.6314 26.2312L38.6571 26.1848L38.8242 25.8877L38.8385 25.8634C42.9911 18.687 51.5435 15.1974 59.5987 17.5488L89.5461 26.2907C94.5291 27.7453 98.6403 31.264 100.851 35.9419C100.856 35.9526 100.861 35.964 100.866 35.9747L101.045 36.3678C101.054 36.3879 101.064 36.4083 101.072 36.4286L101.236 36.814L101.249 36.8454C102.138 39.0268 102.582 41.3357 102.587 43.6421C102.819 43.6999 103.05 43.7631 103.281 43.8304L113.39 46.7814L113.516 46.819C113.521 46.8206 113.527 46.8221 113.532 46.8237L113.708 46.8782L113.718 46.8812L113.828 46.9154C113.835 46.9175 113.842 46.9202 113.849 46.9224C114.478 47.1251 115.093 47.3635 115.692 47.6312C116.498 47.7512 117.304 47.9238 118.103 48.1571L124.471 50.0159C126.872 47.3243 129.767 45.2677 132.891 43.8347L132.899 43.831L132.984 43.7926C132.989 43.7903 132.995 43.7884 133 43.7861L133.098 43.7416L133.116 43.7335L133.164 43.7129C133.17 43.7103 133.176 43.7076 133.182 43.7051L133.612 43.5213L133.634 43.5125C138.563 41.4585 144.364 40.7584 150.319 42.4966L150.331 42.5002Z" fill="#EB584E" stroke="white" stroke-width="5" stroke-linejoin="round"/><mask id="path-2-outside-1_0_7173" maskUnits="userSpaceOnUse" x="20.9375" y="18.1097" width="214.202" height="123.119" fill="black"><rect fill="white" x="20.9375" y="18.1097" width="214.202" height="123.119"/><path d="M147.425 53.5596C150.6 54.5722 153.218 56.758 154.594 60.0536L154.593 60.0539C155.96 63.2351 155.795 66.5551 154.448 69.5324L154.312 69.8236C154.103 70.2577 153.872 70.673 153.625 71.071C157.087 70.4522 160.643 70.6649 164.212 71.7066C168.973 73.0964 172.75 76.0844 174.981 80.5894L175.181 81.0084C175.369 81.4132 175.54 81.8225 175.695 82.2355C176.464 81.802 177.262 81.4079 178.089 81.0545C182.798 79.0031 187.763 78.721 192.698 80.1617L193.151 80.2983C196.988 81.5006 200.406 83.6415 202.682 86.9996L206.991 78.2479L207.131 77.979C208.635 75.2417 211.85 73.8958 214.873 74.7785L223.1 77.1798L223.277 77.2343C225.095 77.8199 226.579 79.1556 227.351 80.9091C228.148 82.7191 228.104 84.7892 227.23 86.5636L220.206 100.833C220.13 100.987 220.048 101.138 219.96 101.286L211.118 116.222C211.651 118.795 211.191 121.341 210.07 123.583L210.069 123.582C208.667 126.403 206.403 128.515 203.516 129.734L203.516 129.734C200.804 130.91 197.897 131.127 195.046 130.361L194.766 130.282C192.437 129.602 190.301 128.269 188.778 126.21C187.941 126.295 187.078 126.225 186.229 125.977L176.075 123.013C176.041 123.003 176.007 122.992 175.973 122.981C173.94 123.431 171.769 123.43 169.519 122.773C165.623 121.636 162.272 119.201 160.458 115.25L160.287 114.863C160.262 114.804 160.238 114.745 160.215 114.685C160.207 114.665 160.2 114.645 160.193 114.625C160.103 114.663 160.013 114.701 159.922 114.738L159.922 114.739C159.916 114.741 159.91 114.743 159.904 114.746C159.895 114.749 159.886 114.754 159.877 114.757L159.877 114.757C155.23 116.67 150.386 117.072 145.575 115.778L145.108 115.647C140.527 114.31 136.635 111.78 134.19 107.867C132.534 109.167 130.308 109.653 128.177 109.031L118.087 106.086C116.188 105.531 114.631 104.165 113.834 102.354C113.736 102.13 113.65 101.902 113.578 101.672C111.908 103.069 109.605 103.61 107.403 102.967L97.3134 100.022C96.4934 99.7824 95.7374 99.3915 95.0787 98.879C94.2581 98.9558 93.4125 98.883 92.5813 98.6404L82.4911 95.695C82.1115 95.5841 81.7466 95.4403 81.3988 95.2683C79.3322 95.7059 77.1586 95.723 74.9272 95.1522L74.4579 95.0237C72.1782 94.3583 70.0663 93.116 68.4092 91.1882C68.0131 90.7273 67.6604 90.2465 67.3466 89.7519C65.9832 90.3108 64.4346 90.4241 62.9325 89.9856L32.984 81.2434C31.085 80.689 29.5284 79.3231 28.7319 77.5122C27.9354 75.7013 27.9807 73.6307 28.8556 71.8563L48.5156 31.9835L48.6555 31.7144C50.16 28.9793 53.3736 27.6351 56.396 28.5174L86.344 37.2595C88.2442 37.8142 89.8014 39.1815 90.5975 40.9939C91.3686 42.7496 91.349 44.7487 90.5496 46.4853L90.4696 46.6526L88.162 51.3204L94.6158 53.2043C95.571 53.4831 96.4394 53.9673 97.1682 54.61C98.1159 54.4613 99.1071 54.5153 100.079 54.7989L110.168 57.7442L110.345 57.7987C111.097 58.0408 111.792 58.4111 112.403 58.8862C113.223 58.8094 114.069 58.8828 114.9 59.1255L124.99 62.0708L125.2 62.136C125.606 62.269 125.994 62.4395 126.361 62.6428C127.575 62.5434 128.83 62.6156 130.115 62.8999C130.32 62.1532 130.596 61.4203 130.939 60.7079L131.077 60.4288C132.534 57.5746 134.853 55.5065 137.655 54.2209L137.755 54.1766C140.658 52.9011 143.876 52.5194 147.116 53.4654L147.425 53.5596ZM201.386 114.291C199.973 113.879 198.544 113.996 197.099 114.644C195.655 115.292 194.598 116.285 193.928 117.623C193.246 119.005 193.174 120.286 193.713 121.466C194.252 122.646 195.228 123.443 196.642 123.856C198.099 124.281 199.522 124.185 200.911 123.567C202.343 122.962 203.4 121.969 204.082 120.588C204.752 119.249 204.823 117.968 204.297 116.745C203.813 115.534 202.843 114.717 201.386 114.291ZM183.227 105.922L183.226 105.921C182.662 107.058 181.988 107.931 181.206 108.54C180.479 109.118 179.773 109.307 179.088 109.107C177.803 108.732 177.513 107.81 178.221 106.343C178.655 105.494 179.574 104.972 180.979 104.777L184.122 104.116L183.227 105.922ZM212.997 81.2051L205.973 95.4742L199.59 111.605L205.117 113.218L214.199 97.8755L221.224 83.6064L212.997 81.2051Z"/></mask><path d="M147.425 53.5596C150.6 54.5722 153.218 56.758 154.594 60.0536L154.593 60.0539C155.96 63.2351 155.795 66.5551 154.448 69.5324L154.312 69.8236C154.103 70.2577 153.872 70.673 153.625 71.071C157.087 70.4522 160.643 70.6649 164.212 71.7066C168.973 73.0964 172.75 76.0844 174.981 80.5894L175.181 81.0084C175.369 81.4132 175.54 81.8225 175.695 82.2355C176.464 81.802 177.262 81.4079 178.089 81.0545C182.798 79.0031 187.763 78.721 192.698 80.1617L193.151 80.2983C196.988 81.5006 200.406 83.6415 202.682 86.9996L206.991 78.2479L207.131 77.979C208.635 75.2417 211.85 73.8958 214.873 74.7785L223.1 77.1798L223.277 77.2343C225.095 77.8199 226.579 79.1556 227.351 80.9091C228.148 82.7191 228.104 84.7892 227.23 86.5636L220.206 100.833C220.13 100.987 220.048 101.138 219.96 101.286L211.118 116.222C211.651 118.795 211.191 121.341 210.07 123.583L210.069 123.582C208.667 126.403 206.403 128.515 203.516 129.734L203.516 129.734C200.804 130.91 197.897 131.127 195.046 130.361L194.766 130.282C192.437 129.602 190.301 128.269 188.778 126.21C187.941 126.295 187.078 126.225 186.229 125.977L176.075 123.013C176.041 123.003 176.007 122.992 175.973 122.981C173.94 123.431 171.769 123.43 169.519 122.773C165.623 121.636 162.272 119.201 160.458 115.25L160.287 114.863C160.262 114.804 160.238 114.745 160.215 114.685C160.207 114.665 160.2 114.645 160.193 114.625C160.103 114.663 160.013 114.701 159.922 114.738L159.922 114.739C159.916 114.741 159.91 114.743 159.904 114.746C159.895 114.749 159.886 114.754 159.877 114.757L159.877 114.757C155.23 116.67 150.386 117.072 145.575 115.778L145.108 115.647C140.527 114.31 136.635 111.78 134.19 107.867C132.534 109.167 130.308 109.653 128.177 109.031L118.087 106.086C116.188 105.531 114.631 104.165 113.834 102.354C113.736 102.13 113.65 101.902 113.578 101.672C111.908 103.069 109.605 103.61 107.403 102.967L97.3134 100.022C96.4934 99.7824 95.7374 99.3915 95.0787 98.879C94.2581 98.9558 93.4125 98.883 92.5813 98.6404L82.4911 95.695C82.1115 95.5841 81.7466 95.4403 81.3988 95.2683C79.3322 95.7059 77.1586 95.723 74.9272 95.1522L74.4579 95.0237C72.1782 94.3583 70.0663 93.116 68.4092 91.1882C68.0131 90.7273 67.6604 90.2465 67.3466 89.7519C65.9832 90.3108 64.4346 90.4241 62.9325 89.9856L32.984 81.2434C31.085 80.689 29.5284 79.3231 28.7319 77.5122C27.9354 75.7013 27.9807 73.6307 28.8556 71.8563L48.5156 31.9835L48.6555 31.7144C50.16 28.9793 53.3736 27.6351 56.396 28.5174L86.344 37.2595C88.2442 37.8142 89.8014 39.1815 90.5975 40.9939C91.3686 42.7496 91.349 44.7487 90.5496 46.4853L90.4696 46.6526L88.162 51.3204L94.6158 53.2043C95.571 53.4831 96.4394 53.9673 97.1682 54.61C98.1159 54.4613 99.1071 54.5153 100.079 54.7989L110.168 57.7442L110.345 57.7987C111.097 58.0408 111.792 58.4111 112.403 58.8862C113.223 58.8094 114.069 58.8828 114.9 59.1255L124.99 62.0708L125.2 62.136C125.606 62.269 125.994 62.4395 126.361 62.6428C127.575 62.5434 128.83 62.6156 130.115 62.8999C130.32 62.1532 130.596 61.4203 130.939 60.7079L131.077 60.4288C132.534 57.5746 134.853 55.5065 137.655 54.2209L137.755 54.1766C140.658 52.9011 143.876 52.5194 147.116 53.4654L147.425 53.5596ZM201.386 114.291C199.973 113.879 198.544 113.996 197.099 114.644C195.655 115.292 194.598 116.285 193.928 117.623C193.246 119.005 193.174 120.286 193.713 121.466C194.252 122.646 195.228 123.443 196.642 123.856C198.099 124.281 199.522 124.185 200.911 123.567C202.343 122.962 203.4 121.969 204.082 120.588C204.752 119.249 204.823 117.968 204.297 116.745C203.813 115.534 202.843 114.717 201.386 114.291ZM183.227 105.922L183.226 105.921C182.662 107.058 181.988 107.931 181.206 108.54C180.479 109.118 179.773 109.307 179.088 109.107C177.803 108.732 177.513 107.81 178.221 106.343C178.655 105.494 179.574 104.972 180.979 104.777L184.122 104.116L183.227 105.922ZM212.997 81.2051L205.973 95.4742L199.59 111.605L205.117 113.218L214.199 97.8755L221.224 83.6064L212.997 81.2051Z" fill="#CDFE9C"/><path d="M82.5858 56.6668L83.1463 54.747C82.2156 54.4753 81.2242 54.9102 80.7938 55.7789L82.5858 56.6668ZM73.5891 74.8237L71.7971 73.9357C71.7938 73.9422 71.7907 73.9487 71.7875 73.9553L73.5891 74.8237ZM72.0124 83.5693L70.0446 83.9266C70.0463 83.9362 70.0482 83.9459 70.0501 83.9555L72.0124 83.5693ZM76.3339 88.5971L75.7735 90.517L75.7735 90.517L76.3339 88.5971ZM84.3359 86.7484L85.4684 88.3968L85.4684 88.3968L84.3359 86.7484ZM89.1695 82.0308L90.3951 80.4503C89.9666 80.118 89.4215 79.9739 88.8848 80.0511C88.3481 80.1283 87.8657 80.4201 87.5482 80.8597L89.1695 82.0308ZM90.1613 82.7999L91.651 84.1343C92.0213 83.7209 92.2032 83.1722 92.1531 82.6194C92.103 82.0666 91.8255 81.5595 91.3869 81.2194L90.1613 82.7999ZM84.3671 89.2684L82.8773 87.9339C82.4189 88.4457 82.2553 89.1569 82.4439 89.8175C82.6326 90.4781 83.1471 90.9957 83.8066 91.1882L84.3671 89.2684ZM89.5009 78.8771L91.2668 79.816C91.2764 79.798 91.2858 79.7798 91.2948 79.7614L89.5009 78.8771ZM87.1967 81.7251L88.3842 83.3344C88.3962 83.3256 88.408 83.3166 88.4198 83.3075L87.1967 81.7251ZM84.5533 82.4183L83.9926 84.3381L83.9929 84.3382L84.5533 82.4183ZM83.1938 80.6264L81.2002 80.7861C81.2033 80.8252 81.2076 80.8643 81.213 80.9031L83.1938 80.6264ZM84.0781 77.1187L85.8667 78.0135L85.8703 78.0064L84.0781 77.1187ZM92.7398 59.6309L94.532 60.5186C94.7946 59.9884 94.809 59.3692 94.5713 58.8274C94.3336 58.2856 93.8682 57.8768 93.3003 57.711L92.7398 59.6309ZM138.858 102.176L136.96 102.806L136.964 102.819L138.858 102.176ZM146.984 109.221L146.424 111.14L146.424 111.14L146.984 109.221ZM157.361 108.553L156.61 106.7C156.605 106.702 156.6 106.703 156.596 106.705L157.361 108.553ZM166.583 100.854L168.216 102.008C168.562 101.518 168.67 100.898 168.51 100.32C168.35 99.7419 167.939 99.2661 167.391 99.0239L166.583 100.854ZM157.254 96.7358L158.061 94.9061C157.143 94.5007 156.066 94.8391 155.545 95.697L157.254 96.7358ZM154.125 100.286L155.249 101.941L155.249 101.941L154.125 100.286ZM151.059 100.995L150.499 102.915L150.499 102.915L151.059 100.995ZM149.199 98.2899L147.2 98.3459L147.2 98.346L149.199 98.2899ZM150.887 92.5061L149.09 91.6276L149.088 91.6327L150.887 92.5061ZM154.549 87.3675L153.308 85.7993C153.296 85.8084 153.285 85.8175 153.274 85.8268L154.549 87.3675ZM158.279 86.2946L158.84 84.3748L158.84 84.3748L158.279 86.2946ZM159.451 92.0767L157.531 91.5163C157.37 92.0683 157.454 92.663 157.762 93.1485C158.071 93.634 158.573 93.9634 159.141 94.0525L159.451 92.0767ZM169.787 93.6989L169.477 95.6747C170.536 95.841 171.538 95.1423 171.748 94.0909L169.787 93.6989ZM168.981 83.5602L170.773 82.6727L170.773 82.6727L168.981 83.5602ZM190.822 86.5883L191.383 84.6685L191.383 84.6685L190.822 86.5883ZM184.334 95.4344L183.163 93.8133C183.144 93.8272 183.125 93.8414 183.106 93.856L184.334 95.4344ZM186.6 94.8409L187.161 92.9211L187.16 92.9211L186.6 94.8409ZM187.596 95.9682L189.563 95.6108L189.563 95.6106L187.596 95.9682ZM187.124 98.0621L185.351 97.1361C185.345 97.1484 185.339 97.1608 185.332 97.1733L187.124 98.0621ZM186.109 100.108L184.309 99.2357C183.829 100.226 184.24 101.419 185.229 101.903C186.217 102.388 187.412 101.983 187.901 100.997L186.109 100.108ZM186.985 98.3007L188.784 99.1726C189.1 98.5219 189.039 97.7516 188.626 97.1581C188.213 96.5646 187.512 96.2403 186.792 96.31L186.985 98.3007ZM179.808 98.9952L179.939 100.991C179.96 100.99 179.98 100.988 180 100.986L179.808 98.9952ZM171.632 100.724L172.46 102.544C172.47 102.54 172.479 102.535 172.489 102.531L171.632 100.724ZM167.025 105.516L165.23 104.632C165.228 104.637 165.225 104.642 165.223 104.647L167.025 105.516ZM166.453 112.254L164.589 112.98C164.596 112.998 164.603 113.016 164.611 113.033L166.453 112.254ZM171.395 116.346L170.835 118.266L170.835 118.266L171.395 116.346ZM178.321 114.602L179.511 116.209C179.516 116.206 179.52 116.202 179.525 116.198L178.321 114.602ZM182.841 109.625L184.247 108.202C183.821 107.781 183.228 107.573 182.632 107.636C182.035 107.698 181.499 108.025 181.169 108.526L182.841 109.625ZM183.87 110.642L185.287 112.054C185.662 111.677 185.872 111.166 185.87 110.635C185.868 110.103 185.654 109.594 185.276 109.22L183.87 110.642ZM177.951 116.586L176.534 115.175C176.036 115.675 175.838 116.401 176.014 117.084C176.19 117.768 176.713 118.308 177.39 118.506L177.951 116.586ZM188.105 119.55L187.544 121.47C188.475 121.742 189.467 121.307 189.897 120.438L188.105 119.55ZM197.613 100.357L199.405 101.245C199.408 101.24 199.41 101.235 199.413 101.23L197.613 100.357ZM197.872 92.0635L196.05 92.8875C196.053 92.8945 196.056 92.9016 196.059 92.9086L197.872 92.0635ZM122.474 71.1698L121.289 69.5584L121.284 69.5619L122.474 71.1698ZM118.322 75.6943L117.046 77.2343C117.483 77.5964 118.053 77.7558 118.615 77.6727C119.176 77.5896 119.676 77.2719 119.989 76.7987L118.322 75.6943ZM117.119 74.6979L115.681 73.3078C115.294 73.7083 115.092 74.2521 115.122 74.8082C115.153 75.3644 115.414 75.8826 115.843 76.238L117.119 74.6979ZM123.114 68.4974L124.552 69.8875C125.039 69.3839 125.227 68.6621 125.047 67.9849C124.868 67.3077 124.347 66.7738 123.674 66.5775L123.114 68.4974ZM113.024 65.5521L113.585 63.6323C112.653 63.3602 111.66 63.7967 111.231 64.6673L113.024 65.5521ZM99.1894 93.5951L97.3958 92.7102C97.1342 93.2403 97.1206 93.859 97.3585 94.4001C97.5964 94.9412 98.0615 95.3494 98.6289 95.515L99.1894 93.5951ZM109.279 96.5404L108.719 98.4603C109.651 98.7324 110.644 98.2956 111.073 97.4246L109.279 96.5404ZM116.61 81.6687L114.874 80.6749C114.853 80.7108 114.834 80.7473 114.816 80.7844L116.61 81.6687ZM119.515 78.6756L118.554 76.9217C118.542 76.9283 118.53 76.9349 118.518 76.9417L119.515 78.6756ZM54.5201 34.944L55.0805 33.0242C54.1485 32.7521 53.1556 33.1887 52.7263 34.0596L54.5201 34.944ZM34.86 74.8168L33.0662 73.9323C32.8049 74.4624 32.7913 75.081 33.0293 75.622C33.2672 76.163 33.7323 76.5711 34.2996 76.7367L34.86 74.8168ZM64.8085 83.559L64.2481 85.4789C65.1794 85.7508 66.1716 85.315 66.6015 84.4452L64.8085 83.559ZM69.2366 74.5997L71.0296 75.4859C71.2916 74.9557 71.3056 74.3368 71.0677 73.7954C70.8299 73.254 70.3647 72.8456 69.797 72.6798L69.2366 74.5997ZM49.3789 68.8031L47.5798 67.9293C47.3225 68.459 47.3118 69.0753 47.5505 69.6137C47.7892 70.1521 48.2531 70.5579 48.8184 70.7229L49.3789 68.8031ZM52.5239 62.328L53.0843 60.4082C52.148 60.1348 51.151 60.5768 50.7248 61.4542L52.5239 62.328ZM70.5187 67.5809L69.9582 69.5008C70.8896 69.7726 71.8817 69.3369 72.3116 68.4671L70.5187 67.5809ZM74.9473 58.6217L76.7402 59.508C77.0023 58.9779 77.0163 58.3589 76.7785 57.8175C76.5407 57.276 76.0754 56.8676 75.5077 56.7019L74.9473 58.6217ZM56.9525 53.3689L55.1602 52.4814C54.8977 53.0116 54.8833 53.6308 55.1211 54.1725C55.3588 54.7143 55.8241 55.123 56.3921 55.2888L56.9525 53.3689ZM119.963 99.6591L118.169 98.7742C117.908 99.3043 117.894 99.923 118.132 100.464C118.37 101.005 118.835 101.413 119.402 101.579L119.963 99.6591ZM145.24 59.892L145.801 57.9722L145.24 59.892ZM140.447 60.3061L139.642 58.475C139.633 58.4793 139.623 58.4837 139.613 58.4882L140.447 60.3061ZM148.281 66.9166L150.083 67.7851L150.083 67.785L148.281 66.9166ZM148.416 62.6323L146.57 63.4026C146.576 63.4167 146.582 63.4307 146.588 63.4446L148.416 62.6323ZM82.5858 56.6668L80.7938 55.7789L71.7971 73.9357L73.5891 74.8237L75.3812 75.7116L84.3779 57.5548L82.5858 56.6668ZM73.5891 74.8237L71.7875 73.9553C70.1282 77.3977 69.4674 80.7474 70.0446 83.9266L72.0124 83.5693L73.9802 83.212C73.5948 81.0889 73.9852 78.6079 75.3908 75.6921L73.5891 74.8237ZM72.0124 83.5693L70.0501 83.9555C70.3638 85.5498 70.9777 86.9741 71.9694 88.1278C72.9695 89.2915 74.2662 90.077 75.7735 90.517L76.3339 88.5971L76.8943 86.6773C76.0452 86.4294 75.4433 86.0329 75.0028 85.5205C74.5539 84.9983 74.1853 84.2526 73.9748 83.1831L72.0124 83.5693ZM76.3339 88.5971L75.7735 90.517C79.0137 91.4627 82.3012 90.5727 85.4684 88.3968L84.3359 86.7484L83.2034 85.0999C80.6713 86.8395 78.6238 87.1821 76.8943 86.6772L76.3339 88.5971ZM84.3359 86.7484L85.4684 88.3968C87.5454 86.9698 89.3216 85.2357 90.7907 83.2019L89.1695 82.0308L87.5482 80.8597C86.3487 82.5203 84.9034 83.9319 83.2034 85.0999L84.3359 86.7484ZM89.1695 82.0308L87.9439 83.6112L88.9356 84.3803L90.1613 82.7999L91.3869 81.2194L90.3951 80.4503L89.1695 82.0308ZM90.1613 82.7999L88.6715 81.4654L82.8773 87.9339L84.3671 89.2684L85.8568 90.6028L91.651 84.1343L90.1613 82.7999ZM84.3671 89.2684L83.8066 91.1882L93.8968 94.1337L94.4573 92.2138L95.0177 90.2939L84.9275 87.3485L84.3671 89.2684ZM98.2026 61.2255L96.4087 60.3412L87.7071 77.9928L89.5009 78.8771L91.2948 79.7614L99.9964 62.1098L98.2026 61.2255ZM89.5009 78.8771L87.735 77.9381C87.1986 78.947 86.601 79.6577 85.9737 80.1426L87.1967 81.7251L88.4198 83.3075C89.5807 82.4103 90.519 81.2224 91.2668 79.816L89.5009 78.8771ZM87.1967 81.7251L86.0093 80.1158C85.3547 80.5987 85.1172 80.4994 85.1137 80.4984L84.5533 82.4183L83.9929 84.3382C85.6175 84.8124 87.1425 84.2506 88.3842 83.3344L87.1967 81.7251ZM84.5533 82.4183L85.1139 80.4985C85.1009 80.4947 85.1181 80.4981 85.1501 80.5196C85.1833 80.5419 85.2108 80.5692 85.2286 80.5926C85.2624 80.6373 85.209 80.5962 85.1745 80.3496L83.1938 80.6264L81.213 80.9031C81.314 81.6259 81.5548 82.3682 82.0418 83.0101C82.5464 83.6753 83.2266 84.1144 83.9926 84.3381L84.5533 82.4183ZM83.1938 80.6264L85.1874 80.4666C85.1474 79.9672 85.2854 79.1755 85.8667 78.0135L84.0781 77.1187L82.2894 76.2239C81.5313 77.7394 81.08 79.286 81.2002 80.7861L83.1938 80.6264ZM84.0781 77.1187L85.8703 78.0064L94.532 60.5186L92.7398 59.6309L90.9476 58.7432L82.2859 76.231L84.0781 77.1187ZM92.7398 59.6309L93.3003 57.711L83.1463 54.747L82.5858 56.6668L82.0254 58.5867L92.1794 61.5508L92.7398 59.6309ZM140.733 89.542L138.937 88.6615C136.405 93.8274 135.566 98.6108 136.96 102.806L138.858 102.176L140.756 101.545C139.823 98.7383 140.236 95.0994 142.529 90.4225L140.733 89.542ZM138.858 102.176L136.964 102.819C138.395 107.029 141.705 109.763 146.424 111.14L146.984 109.221L147.545 107.301C143.78 106.202 141.672 104.24 140.752 101.532L138.858 102.176ZM146.984 109.221L146.424 111.14C150.315 112.276 154.241 112.01 158.126 110.401L157.361 108.553L156.596 106.705C153.5 107.987 150.508 108.166 147.545 107.301L146.984 109.221ZM157.361 108.553L158.113 110.407C162.063 108.805 165.423 105.961 168.216 102.008L166.583 100.854L164.95 99.6995C162.514 103.147 159.726 105.436 156.61 106.7L157.361 108.553ZM166.583 100.854L167.391 99.0239L158.061 94.9061L157.254 96.7358L156.446 98.5655L165.775 102.683L166.583 100.854ZM157.254 96.7358L155.545 95.697C154.651 97.1673 153.788 98.0975 153.002 98.6312L154.125 100.286L155.249 101.941C156.666 100.979 157.889 99.5422 158.963 97.7746L157.254 96.7358ZM154.125 100.286L153.002 98.6311C152.208 99.1702 151.804 99.1287 151.62 99.0749L151.059 100.995L150.499 102.915C152.2 103.411 153.839 102.897 155.249 101.941L154.125 100.286ZM151.059 100.995L151.62 99.0749C151.396 99.0096 151.355 98.9406 151.342 98.9226C151.312 98.8782 151.211 98.6989 151.198 98.2338L149.199 98.2899L147.2 98.346C147.227 99.3341 147.457 100.332 148.046 101.189C148.654 102.073 149.523 102.63 150.499 102.915L151.059 100.995ZM149.199 98.2899L151.198 98.2339C151.171 97.2705 151.561 95.6969 152.686 93.3794L150.887 92.5061L149.088 91.6327C147.88 94.1205 147.145 96.4028 147.2 98.3459L149.199 98.2899ZM150.887 92.5061L152.684 93.3845C153.777 91.1494 154.845 89.7185 155.824 88.9083L154.549 87.3675L153.274 85.8268C151.678 87.1476 150.305 89.143 149.09 91.6276L150.887 92.5061ZM154.549 87.3675L155.79 88.9357C156.835 88.1089 157.414 88.1256 157.719 88.2145L158.279 86.2946L158.84 84.3748C156.831 83.7884 154.924 84.5203 153.308 85.7993L154.549 87.3675ZM158.279 86.2946L157.719 88.2145C157.786 88.234 157.819 88.2521 157.83 88.2589C157.836 88.2625 157.838 88.2646 157.838 88.2649C157.839 88.2651 157.839 88.2652 157.839 88.2656C157.84 88.2661 157.842 88.269 157.846 88.2754C157.85 88.2819 157.857 88.2935 157.866 88.3118C157.883 88.3487 157.908 88.415 157.93 88.5219C158.028 89.0092 157.988 89.951 157.531 91.5163L159.451 92.0767L161.371 92.6372C161.889 90.8606 162.142 89.1678 161.85 87.7277C161.697 86.9749 161.386 86.241 160.842 85.6233C160.293 84.9987 159.596 84.5955 158.84 84.3748L158.279 86.2946ZM159.451 92.0767L159.141 94.0525L169.477 95.6747L169.787 93.6989L170.097 91.7231L159.761 90.1009L159.451 92.0767ZM169.787 93.6989L171.748 94.0909C172.612 89.7701 172.375 85.9073 170.773 82.6727L168.981 83.5602L167.189 84.4476C168.278 86.648 168.578 89.5445 167.826 93.3069L169.787 93.6989ZM168.981 83.5602L170.773 82.6727C169.164 79.4212 166.482 77.26 162.896 76.2133L162.336 78.1332L161.775 80.053C164.359 80.8073 166.108 82.2641 167.189 84.4476L168.981 83.5602ZM190.822 86.5883L191.383 84.6685C187.471 83.5267 183.628 83.7558 179.938 85.3697L180.74 87.2021L181.541 89.0345C184.354 87.8041 187.233 87.6239 190.262 88.5082L190.822 86.5883ZM182.167 98.0801L183.902 99.0754C184.478 98.0724 185.043 97.4169 185.562 97.0128L184.334 95.4344L183.106 93.856C182.061 94.6691 181.182 95.778 180.433 97.0849L182.167 98.0801ZM184.334 95.4344L185.506 97.0555C185.775 96.8606 185.948 96.7944 186.026 96.7739C186.087 96.758 186.076 96.7716 186.04 96.7608L186.6 94.8409L187.16 92.9211C185.661 92.4834 184.265 93.0166 183.163 93.8133L184.334 95.4344ZM186.6 94.8409L186.039 96.7608C186.013 96.7531 185.889 96.7064 185.768 96.5687C185.649 96.4342 185.627 96.3199 185.628 96.3257L187.596 95.9682L189.563 95.6106C189.457 95.0274 189.216 94.4308 188.765 93.9206C188.312 93.4072 187.744 93.0913 187.161 92.9211L186.6 94.8409ZM187.596 95.9682L185.628 96.3255C185.623 96.3014 185.668 96.529 185.351 97.1361L187.124 98.0621L188.897 98.9882C189.422 97.9817 189.782 96.8131 189.563 95.6108L187.596 95.9682ZM187.124 98.0621L185.332 97.1733L184.318 99.2188L186.109 100.108L187.901 100.997L188.916 98.951L187.124 98.0621ZM186.109 100.108L187.909 100.98L188.784 99.1726L186.985 98.3007L185.185 97.4287L184.309 99.2357L186.109 100.108ZM186.985 98.3007L186.792 96.31L179.615 97.0045L179.808 98.9952L180 100.986L187.177 100.291L186.985 98.3007ZM179.808 98.9952L179.676 96.9996C176.056 97.2383 173.044 97.8407 170.775 98.9162L171.632 100.724L172.489 102.531C174.104 101.765 176.543 101.215 179.939 100.991L179.808 98.9952ZM171.632 100.724L170.804 98.903C168.367 100.011 166.53 101.994 165.23 104.632L167.025 105.516L168.819 106.399C169.802 104.404 171.036 103.192 172.46 102.544L171.632 100.724ZM167.025 105.516L165.223 104.647C163.864 107.466 163.544 110.299 164.589 112.98L166.453 112.254L168.316 111.527C167.766 110.116 167.827 108.456 168.826 106.384L167.025 105.516ZM166.453 112.254L164.611 113.033C165.737 115.695 167.921 117.416 170.835 118.266L171.395 116.346L171.956 114.427C169.986 113.851 168.874 112.843 168.295 111.474L166.453 112.254ZM171.395 116.346L170.835 118.266C173.806 119.134 176.756 118.249 179.511 116.209L178.321 114.602L177.131 112.994C175.022 114.556 173.354 114.835 171.956 114.427L171.395 116.346ZM178.321 114.602L179.525 116.198C181.392 114.79 183.048 112.95 184.512 110.723L182.841 109.625L181.169 108.526C179.909 110.444 178.552 111.922 177.116 113.005L178.321 114.602ZM182.841 109.625L181.434 111.047L182.464 112.065L183.87 110.642L185.276 109.22L184.247 108.202L182.841 109.625ZM183.87 110.642L182.453 109.231L176.534 115.175L177.951 116.586L179.368 117.998L185.287 112.054L183.87 110.642ZM177.951 116.586L177.39 118.506L187.544 121.47L188.105 119.55L188.665 117.63L178.511 114.666L177.951 116.586ZM188.105 119.55L189.897 120.438L199.405 101.245L197.613 100.357L195.821 99.4694L186.313 118.663L188.105 119.55ZM197.613 100.357L199.413 101.23C201.046 97.8608 201.197 94.4626 199.685 91.2184L197.872 92.0635L196.059 92.9086C197.006 94.9387 196.984 97.0699 195.813 99.4846L197.613 100.357ZM197.872 92.0635L199.694 91.2396C198.205 87.9453 195.293 85.8099 191.383 84.6685L190.822 86.5883L190.262 88.5082C193.378 89.4179 195.166 90.9326 196.05 92.8875L197.872 92.0635ZM129.085 69.543L129.646 67.6231C126.772 66.7843 123.93 67.6168 121.289 69.5584L122.474 71.1698L123.658 72.7812C125.634 71.3284 127.2 71.0762 128.525 71.4629L129.085 69.543ZM122.474 71.1698L121.284 69.5619C119.552 70.8434 118.015 72.5361 116.654 74.5898L118.322 75.6943L119.989 76.7987C121.145 75.0534 122.376 73.7297 123.663 72.7777L122.474 71.1698ZM118.322 75.6943L119.598 74.1542L118.395 73.1579L117.119 74.6979L115.843 76.238L117.046 77.2343L118.322 75.6943ZM117.119 74.6979L118.557 76.0881L124.552 69.8875L123.114 68.4974L121.676 67.1073L115.681 73.3078L117.119 74.6979ZM123.114 68.4974L123.674 66.5775L113.585 63.6323L113.024 65.5521L112.464 67.472L122.554 70.4173L123.114 68.4974ZM113.024 65.5521L111.231 64.6673L97.3958 92.7102L99.1894 93.5951L100.983 94.48L114.818 66.437L113.024 65.5521ZM99.1894 93.5951L98.6289 95.515L108.719 98.4603L109.279 96.5404L109.839 94.6205L99.7498 91.6752L99.1894 93.5951ZM109.279 96.5404L111.073 97.4246L118.404 82.5529L116.61 81.6687L114.816 80.7844L107.485 95.6561L109.279 96.5404ZM116.61 81.6687L118.345 82.6625C118.941 81.6215 119.668 80.8948 120.512 80.4094L119.515 78.6756L118.518 76.9417C116.994 77.8181 115.783 79.0867 114.874 80.6749L116.61 81.6687ZM119.515 78.6756L120.476 80.4294C121.524 79.8554 122.265 79.8181 122.83 79.9831L123.39 78.0632L123.951 76.1434C122.117 75.608 120.274 75.9788 118.554 76.9217L119.515 78.6756ZM123.39 78.0632L122.83 79.9831L125.85 80.8648L126.411 78.9449L126.971 77.025L123.951 76.1434L123.39 78.0632ZM54.5201 34.944L52.7263 34.0596L33.0662 73.9323L34.86 74.8168L36.6538 75.7013L56.3139 35.8285L54.5201 34.944ZM34.86 74.8168L34.2996 76.7367L64.2481 85.4789L64.8085 83.559L65.3689 81.6391L35.4205 72.8969L34.86 74.8168ZM64.8085 83.559L66.6015 84.4452L71.0296 75.4859L69.2366 74.5997L67.4436 73.7136L63.0155 82.6729L64.8085 83.559ZM69.2366 74.5997L69.797 72.6798L49.9393 66.8832L49.3789 68.8031L48.8184 70.7229L68.6762 76.5196L69.2366 74.5997ZM49.3789 68.8031L51.1779 69.6769L54.3229 63.2018L52.5239 62.328L50.7248 61.4542L47.5798 67.9293L49.3789 68.8031ZM52.5239 62.328L51.9634 64.2479L69.9582 69.5008L70.5187 67.5809L71.0791 65.661L53.0843 60.4082L52.5239 62.328ZM70.5187 67.5809L72.3116 68.4671L76.7402 59.508L74.9473 58.6217L73.1544 57.7355L68.7258 66.6946L70.5187 67.5809ZM74.9473 58.6217L75.5077 56.7019L57.5129 51.449L56.9525 53.3689L56.3921 55.2888L74.3869 60.5416L74.9473 58.6217ZM56.9525 53.3689L58.7448 54.2564L61.9733 47.7365L60.181 46.849L58.3887 45.9615L55.1602 52.4814L56.9525 53.3689ZM84.468 43.6861L85.0284 41.7662L55.0805 33.0242L54.5201 34.944L53.9596 36.8639L83.9076 45.606L84.468 43.6861ZM133.798 71.6161L132.004 70.7312L118.169 98.7742L119.963 99.6591L121.756 100.544L135.591 72.501L133.798 71.6161ZM119.963 99.6591L119.402 101.579L129.492 104.524L130.053 102.604L130.613 100.684L120.523 97.7392L119.963 99.6591ZM145.24 59.892L145.801 57.9722C143.751 57.3738 141.669 57.5846 139.642 58.475L140.447 60.3061L141.251 62.1372C142.531 61.5751 143.645 61.5098 144.68 61.8119L145.24 59.892ZM140.447 60.3061L139.613 58.4882C137.619 59.4027 136.096 60.8217 135.168 62.7464L136.97 63.6149L138.772 64.4834C139.258 63.4736 140.054 62.6869 141.281 62.124L140.447 60.3061ZM144.721 70.2717L145.56 72.0875C147.591 71.1498 149.148 69.7229 150.083 67.7851L148.281 66.9166L146.479 66.0482C145.999 67.045 145.184 67.8553 143.883 68.4559L144.721 70.2717ZM148.281 66.9166L150.083 67.785C151.024 65.8316 151.118 63.7881 150.243 61.82L148.416 62.6323L146.588 63.4446C146.948 64.2545 146.952 65.0671 146.479 66.0483L148.281 66.9166ZM148.416 62.6323L150.261 61.862C149.434 59.8803 147.872 58.5768 145.801 57.9722L145.24 59.892L144.68 61.8119C145.693 62.1077 146.248 62.6311 146.57 63.4026L148.416 62.6323ZM147.425 53.5596L148.641 49.7488C148.625 49.7436 148.608 49.7384 148.592 49.7334L147.425 53.5596ZM154.594 60.0536L156.516 63.5613C158.31 62.5782 159.073 60.4004 158.285 58.5129L154.594 60.0536ZM154.593 60.0539L152.671 56.5463C150.863 57.537 150.104 59.7392 150.918 61.6331L154.593 60.0539ZM154.448 69.5324L158.072 71.226C158.079 71.2111 158.085 71.1963 158.092 71.1813L154.448 69.5324ZM154.312 69.8236L157.915 71.5605C157.922 71.5461 157.929 71.5316 157.936 71.5171L154.312 69.8236ZM153.625 71.071L150.227 68.9618C149.394 70.3037 149.429 72.01 150.315 73.3168C151.202 74.6237 152.775 75.2866 154.329 75.0086L153.625 71.071ZM164.212 71.7066L165.332 67.8668L164.212 71.7066ZM174.981 80.5894L178.588 78.8617C178.581 78.8459 178.573 78.8302 178.565 78.8145L174.981 80.5894ZM175.181 81.0084L178.811 79.3273C178.804 79.3117 178.796 79.2962 178.789 79.2806L175.181 81.0084ZM175.695 82.2355L171.951 83.6434C172.362 84.7366 173.23 85.5955 174.328 85.9947C175.425 86.3938 176.643 86.2933 177.66 85.7196L175.695 82.2355ZM178.089 81.0545L179.66 84.7327C179.669 84.7291 179.678 84.7254 179.686 84.7217L178.089 81.0545ZM192.698 80.1617L193.855 76.3325C193.843 76.3289 193.831 76.3254 193.819 76.322L192.698 80.1617ZM193.151 80.2983L194.346 76.4813C194.333 76.4771 194.32 76.473 194.307 76.469L193.151 80.2983ZM202.682 86.9996L199.371 89.244C200.17 90.4233 201.537 91.0884 202.958 90.9901C204.379 90.8917 205.641 90.0447 206.27 88.7665L202.682 86.9996ZM206.991 78.2479L203.445 76.397C203.43 76.4248 203.416 76.4528 203.402 76.481L206.991 78.2479ZM207.131 77.979L203.625 76.0531C203.612 76.0779 203.598 76.103 203.585 76.1281L207.131 77.979ZM223.1 77.1798L224.277 73.3569C224.258 73.3512 224.239 73.3455 224.221 73.34L223.1 77.1798ZM223.277 77.2343L224.503 73.427C224.487 73.4217 224.47 73.4165 224.454 73.4114L223.277 77.2343ZM227.351 80.9091L231.012 79.2976L231.012 79.2975L227.351 80.9091ZM227.23 86.5636L223.642 84.7968L227.23 86.5636ZM220.206 100.833L223.794 102.599L223.794 102.599L220.206 100.833ZM219.96 101.286L223.402 103.324L223.402 103.324L219.96 101.286ZM211.118 116.222L207.676 114.184C207.169 115.042 206.999 116.058 207.202 117.033L211.118 116.222ZM210.07 123.583L206.562 125.505C207.277 126.81 208.657 127.61 210.145 127.582C211.632 127.554 212.981 126.703 213.647 125.372L210.07 123.583ZM210.069 123.582L213.577 121.66C212.861 120.353 211.478 119.553 209.989 119.583C208.499 119.613 207.15 120.468 206.487 121.802L210.069 123.582ZM203.516 129.734L200.008 131.657C200.995 133.456 203.183 134.218 205.073 133.419L203.516 129.734ZM203.516 129.734L207.023 127.811C206.03 125.999 203.82 125.242 201.924 126.064L203.516 129.734ZM195.046 130.361L193.968 134.213C193.981 134.216 193.994 134.22 194.007 134.223L195.046 130.361ZM194.766 130.282L193.645 134.122C193.66 134.126 193.674 134.13 193.688 134.135L194.766 130.282ZM188.778 126.21L191.994 123.831C191.154 122.697 189.779 122.088 188.374 122.231L188.778 126.21ZM175.973 122.981L177.155 119.16C176.492 118.955 175.787 118.926 175.11 119.075L175.973 122.981ZM169.519 122.773L168.398 126.613L168.398 126.613L169.519 122.773ZM160.458 115.25L156.799 116.865C156.807 116.883 156.815 116.901 156.823 116.919L160.458 115.25ZM160.287 114.863L156.604 116.422C156.612 116.441 156.62 116.459 156.628 116.478L160.287 114.863ZM160.215 114.685L156.488 116.138L156.488 116.138L160.215 114.685ZM160.193 114.625L163.926 113.189C163.537 112.178 162.755 111.368 161.759 110.944C160.762 110.52 159.636 110.519 158.638 110.94L160.193 114.625ZM159.922 114.738L158.411 111.034C157.356 111.465 156.534 112.325 156.152 113.4C155.771 114.474 155.866 115.661 156.414 116.661L159.922 114.738ZM159.922 114.739L161.453 118.434C162.503 118 163.318 117.139 163.695 116.067C164.073 114.995 163.976 113.813 163.43 112.816L159.922 114.739ZM159.904 114.746L161.411 118.451C161.418 118.448 161.425 118.445 161.431 118.443L159.904 114.746ZM159.877 114.757L156.37 116.68C157.345 118.46 159.499 119.227 161.38 118.464L159.877 114.757ZM159.877 114.757L163.384 112.834C162.405 111.047 160.238 110.282 158.354 111.058L159.877 114.757ZM145.575 115.778L144.493 119.629C144.507 119.633 144.522 119.637 144.536 119.641L145.575 115.778ZM145.108 115.647L143.987 119.487C144 119.491 144.013 119.494 144.026 119.498L145.108 115.647ZM134.19 107.867L137.582 105.748C136.98 104.785 135.998 104.123 134.879 103.927C133.761 103.731 132.612 104.02 131.719 104.721L134.19 107.867ZM113.834 102.354L110.173 103.964L110.173 103.964L113.834 102.354ZM113.578 101.672L117.393 100.469C116.991 99.1957 115.981 98.2066 114.699 97.8322C113.418 97.4578 112.034 97.7474 111.01 98.6043L113.578 101.672ZM95.0787 98.879L97.5349 95.722C96.7314 95.0968 95.7197 94.8016 94.7061 94.8964L95.0787 98.879ZM81.3988 95.2683L83.1723 91.6829C82.3664 91.2843 81.4497 91.1688 80.5701 91.355L81.3988 95.2683ZM74.9272 95.1522L73.871 99.0103C73.8926 99.0162 73.9143 99.0219 73.936 99.0275L74.9272 95.1522ZM74.4579 95.0237L73.3371 98.8635C73.3585 98.8698 73.3801 98.8759 73.4017 98.8818L74.4579 95.0237ZM68.4092 91.1882L65.3758 93.7955L65.3758 93.7955L68.4092 91.1882ZM67.3466 89.7519L70.7239 87.6087C69.6854 85.9721 67.6228 85.3156 65.8293 86.0508L67.3466 89.7519ZM28.7319 77.5122L25.0703 79.1226L25.0704 79.1227L28.7319 77.5122ZM28.8556 71.8563L25.268 70.0873L25.268 70.0874L28.8556 71.8563ZM48.5156 31.9835L44.9663 30.1389C44.9533 30.164 44.9405 30.1892 44.928 30.2146L48.5156 31.9835ZM48.6555 31.7144L45.1507 29.7865C45.1355 29.8141 45.1207 29.8419 45.1062 29.8698L48.6555 31.7144ZM90.5975 40.9939L94.2598 39.3853L94.2598 39.3853L90.5975 40.9939ZM90.5496 46.4853L94.1579 48.2117C94.1664 48.1938 94.1749 48.1759 94.1832 48.1579L90.5496 46.4853ZM90.4696 46.6526L94.0553 48.4253C94.0629 48.4099 94.0704 48.3945 94.0778 48.379L90.4696 46.6526ZM88.162 51.3204L84.5763 49.5477C84.0521 50.608 84.0241 51.8459 84.4997 52.9288C84.9753 54.0118 85.9058 54.8287 87.0412 55.1601L88.162 51.3204ZM97.1682 54.61L94.5223 57.6099C95.415 58.3973 96.6121 58.7461 97.788 58.5617L97.1682 54.61ZM110.168 57.7442L111.345 53.9213C111.327 53.9156 111.308 53.9099 111.289 53.9044L110.168 57.7442ZM110.345 57.7987L111.572 53.9914C111.555 53.9861 111.539 53.9809 111.522 53.9759L110.345 57.7987ZM112.403 58.8862L109.947 62.0435C110.75 62.6685 111.762 62.9637 112.775 62.8688L112.403 58.8862ZM124.99 62.0708L126.177 58.2511C126.155 58.2442 126.133 58.2375 126.111 58.231L124.99 62.0708ZM125.2 62.136L126.446 58.3349C126.426 58.3286 126.407 58.3223 126.387 58.3163L125.2 62.136ZM126.361 62.6428L124.421 66.141C125.111 66.524 125.9 66.694 126.687 66.6295L126.361 62.6428ZM130.115 62.8999L129.251 66.8055C131.331 67.2657 133.407 66.0144 133.972 63.96L130.115 62.8999ZM130.939 60.7079L127.355 58.9329C127.348 58.9456 127.342 58.9583 127.336 58.9711L130.939 60.7079ZM131.077 60.4288L127.514 58.6107C127.507 58.625 127.5 58.6393 127.493 58.6537L131.077 60.4288ZM137.655 54.2209L136.025 50.568C136.013 50.5737 136 50.5794 135.988 50.5851L137.655 54.2209ZM137.755 54.1766L136.146 50.5143C136.139 50.5174 136.132 50.5206 136.125 50.5238L137.755 54.1766ZM147.116 53.4654L148.283 49.6392C148.267 49.6346 148.252 49.6301 148.237 49.6257L147.116 53.4654ZM201.386 114.291L202.507 110.452L202.507 110.451L201.386 114.291ZM197.099 114.644L195.463 110.994L195.463 110.994L197.099 114.644ZM193.928 117.623L190.351 115.834C190.348 115.84 190.345 115.846 190.342 115.852L193.928 117.623ZM193.713 121.466L190.074 123.127L190.074 123.127L193.713 121.466ZM196.642 123.856L195.521 127.696L195.521 127.696L196.642 123.856ZM200.911 123.567L199.354 119.883C199.331 119.892 199.309 119.902 199.286 119.912L200.911 123.567ZM204.082 120.588L200.505 118.798C200.502 118.804 200.499 118.81 200.496 118.816L204.082 120.588ZM204.297 116.745L200.582 118.229C200.595 118.261 200.609 118.294 200.623 118.326L204.297 116.745ZM183.227 105.922L182.106 109.761C183.967 110.305 185.95 109.435 186.811 107.698L183.227 105.922ZM183.226 105.921L184.347 102.082C182.487 101.538 180.505 102.407 179.643 104.143L183.226 105.921ZM181.206 108.54L178.75 105.383C178.738 105.392 178.727 105.401 178.716 105.41L181.206 108.54ZM179.088 109.107L177.966 112.946L177.967 112.947L179.088 109.107ZM178.221 106.343L174.658 104.524C174.644 104.551 174.631 104.579 174.617 104.607L178.221 106.343ZM180.979 104.777L181.527 108.74C181.619 108.727 181.711 108.711 181.803 108.692L180.979 104.777ZM184.122 104.116L187.706 105.893C188.386 104.52 188.222 102.879 187.284 101.667C186.346 100.455 184.798 99.8865 183.298 100.202L184.122 104.116ZM212.997 81.2051L214.118 77.3653C212.253 76.8209 210.267 77.6953 209.409 79.4384L212.997 81.2051ZM205.973 95.4742L202.384 93.7075C202.337 93.8041 202.293 93.9025 202.253 94.0025L205.973 95.4742ZM199.59 111.605L195.871 110.133C195.457 111.179 195.503 112.352 195.997 113.362C196.492 114.373 197.389 115.129 198.47 115.444L199.59 111.605ZM205.117 113.218L203.996 117.058C205.75 117.57 207.628 116.828 208.559 115.255L205.117 113.218ZM214.199 97.8755L217.641 99.9131C217.693 99.8248 217.742 99.7344 217.788 99.6422L214.199 97.8755ZM221.224 83.6064L224.812 85.3731C225.334 84.313 225.361 83.0764 224.885 81.9949C224.409 80.9134 223.479 80.0977 222.345 79.7666L221.224 83.6064ZM147.425 53.5596L146.21 57.3704C148.36 58.0564 150.016 59.4704 150.902 61.5943L154.594 60.0536L158.285 58.5129C156.421 54.0456 152.839 51.088 148.641 49.7488L147.425 53.5596ZM154.594 60.0536L152.671 56.5459L152.671 56.5463L154.593 60.0539L156.516 63.5616L156.516 63.5613L154.594 60.0536ZM154.593 60.0539L150.918 61.6331C151.808 63.7042 151.723 65.8506 150.804 67.8835L154.448 69.5324L158.092 71.1813C159.867 67.2595 160.112 62.766 158.268 58.4748L154.593 60.0539ZM154.448 69.5324L150.824 67.8389L150.688 68.13L154.312 69.8236L157.936 71.5171L158.072 71.226L154.448 69.5324ZM154.312 69.8236L150.709 68.0867C150.564 68.3857 150.403 68.6769 150.227 68.9618L153.625 71.071L157.024 73.1803C157.341 72.6691 157.641 72.1298 157.915 71.5605L154.312 69.8236ZM153.625 71.071L154.329 75.0086C157.149 74.5044 160.081 74.6678 163.091 75.5463L164.212 71.7066L165.332 67.8668C161.205 66.6621 157.024 66.3999 152.921 67.1335L153.625 71.071ZM164.212 71.7066L163.091 75.5463C166.852 76.6443 169.695 78.9291 171.396 82.3643L174.981 80.5894L178.565 78.8145C175.805 73.2398 171.093 69.5485 165.332 67.8668L164.212 71.7066ZM174.981 80.5894L171.373 82.3171L171.574 82.7361L175.181 81.0084L178.789 79.2806L178.588 78.8617L174.981 80.5894ZM175.181 81.0084L171.552 82.6894C171.696 83.0016 171.829 83.3196 171.951 83.6434L175.695 82.2355L179.439 80.8276C179.25 80.3253 179.041 79.8248 178.811 79.3273L175.181 81.0084ZM175.695 82.2355L177.66 85.7196C178.3 85.3585 178.967 85.0291 179.66 84.7327L178.089 81.0545L176.517 77.3762C175.556 77.7866 174.627 78.2455 173.73 78.7514L175.695 82.2355ZM178.089 81.0545L179.686 84.7217C183.519 83.0518 187.521 82.8175 191.577 84.0015L192.698 80.1617L193.819 76.322C188.004 74.6245 182.076 74.9544 176.491 77.3873L178.089 81.0545ZM192.698 80.1617L191.542 83.991L191.994 84.1275L193.151 80.2983L194.307 76.469L193.855 76.3325L192.698 80.1617ZM193.151 80.2983L191.955 84.1153C195.159 85.1193 197.722 86.8112 199.371 89.244L202.682 86.9996L205.993 84.7552C203.089 80.4718 198.817 77.8819 194.346 76.4813L193.151 80.2983ZM202.682 86.9996L206.27 88.7665L210.58 80.0148L206.991 78.2479L203.402 76.481L199.093 85.2327L202.682 86.9996ZM206.991 78.2479L210.537 80.0988L210.677 79.8299L207.131 77.979L203.585 76.1281L203.445 76.397L206.991 78.2479ZM207.131 77.979L210.637 79.9049C211.242 78.8046 212.536 78.2631 213.753 78.6182L214.873 74.7785L215.994 70.9387C211.163 69.5284 206.028 71.6787 203.625 76.0531L207.131 77.979ZM214.873 74.7785L213.753 78.6182L221.979 81.0195L223.1 77.1798L224.221 73.34L215.994 70.9387L214.873 74.7785ZM223.1 77.1798L221.923 81.0026L222.1 81.0571L223.277 77.2343L224.454 73.4114L224.277 73.3569L223.1 77.1798ZM223.277 77.2343L222.05 81.0416C222.782 81.2774 223.38 81.8153 223.69 82.5206L227.351 80.9091L231.012 79.2975C229.779 76.496 227.407 74.3624 224.503 73.427L223.277 77.2343ZM227.351 80.9091L223.69 82.5206C224.011 83.2492 223.993 84.0827 223.642 84.7968L227.23 86.5636L230.819 88.3303C232.214 85.4958 232.285 82.1891 231.012 79.2976L227.351 80.9091ZM227.23 86.5636L223.642 84.7968L216.617 99.066L220.206 100.833L223.794 102.599L230.819 88.3303L227.23 86.5636ZM220.206 100.833L216.617 99.0659C216.586 99.1285 216.553 99.1894 216.518 99.2485L219.96 101.286L223.402 103.324C223.543 103.087 223.673 102.845 223.794 102.599L220.206 100.833ZM219.96 101.286L216.518 99.2484L207.676 114.184L211.118 116.222L214.56 118.259L223.402 103.324L219.96 101.286ZM211.118 116.222L207.202 117.033C207.529 118.611 207.267 120.244 206.492 121.793L210.07 123.583L213.647 125.372C215.115 122.438 215.774 118.979 215.035 115.41L211.118 116.222ZM210.07 123.583L213.577 121.66L213.577 121.66L210.069 123.582L206.562 125.505L206.562 125.505L210.07 123.583ZM210.069 123.582L206.487 121.802C205.515 123.758 203.974 125.199 201.959 126.05L203.516 129.734L205.073 133.419C208.831 131.831 211.819 129.049 213.651 125.362L210.069 123.582ZM203.516 129.734L207.024 127.812L207.023 127.811L203.516 129.734L200.008 131.656L200.008 131.657L203.516 129.734ZM203.516 129.734L201.924 126.064C200.038 126.882 198.058 127.028 196.084 126.498L195.046 130.361L194.007 134.223C197.736 135.226 201.57 134.937 205.107 133.403L203.516 129.734ZM195.046 130.361L196.123 126.509L195.844 126.43L194.766 130.282L193.688 134.135L193.968 134.213L195.046 130.361ZM194.766 130.282L195.887 126.443C194.275 125.972 192.926 125.092 191.994 123.831L188.778 126.21L185.562 128.589C187.676 131.446 190.599 133.233 193.645 134.122L194.766 130.282ZM188.778 126.21L188.374 122.231C188.035 122.265 187.69 122.236 187.35 122.137L186.229 125.977L185.108 129.817C186.465 130.213 187.847 130.325 189.181 130.19L188.778 126.21ZM186.229 125.977L187.35 122.137L177.196 119.173L176.075 123.013L174.954 126.853L185.108 129.817L186.229 125.977ZM176.075 123.013L177.196 119.173C177.216 119.179 177.231 119.184 177.24 119.186C177.247 119.189 177.252 119.19 177.247 119.189C177.245 119.188 177.243 119.187 177.238 119.186C177.233 119.184 177.227 119.182 177.219 119.18C177.205 119.175 177.182 119.168 177.155 119.16L175.973 122.981L174.792 126.803C174.782 126.8 174.776 126.798 174.778 126.798C174.779 126.799 174.781 126.799 174.785 126.8C174.788 126.801 174.795 126.804 174.801 126.806C174.823 126.813 174.883 126.832 174.954 126.853L176.075 123.013ZM175.973 122.981L175.11 119.075C173.684 119.391 172.198 119.388 170.64 118.933L169.519 122.773L168.398 126.613C171.341 127.472 174.197 127.471 176.837 126.887L175.973 122.981ZM169.519 122.773L170.64 118.933C167.646 118.059 165.339 116.293 164.093 113.581L160.458 115.25L156.823 116.919C159.205 122.108 163.6 125.212 168.398 126.613L169.519 122.773ZM160.458 115.25L164.118 113.635L163.947 113.248L160.287 114.863L156.628 116.478L156.799 116.865L160.458 115.25ZM160.287 114.863L163.971 113.304C163.959 113.275 163.949 113.251 163.942 113.232L160.215 114.685L156.488 116.138C156.527 116.238 156.566 116.333 156.604 116.422L160.287 114.863ZM160.215 114.685L163.942 113.232C163.95 113.253 163.956 113.269 163.959 113.278C163.962 113.285 163.964 113.291 163.962 113.286C163.962 113.285 163.96 113.28 163.958 113.276C163.957 113.271 163.954 113.264 163.951 113.256C163.946 113.241 163.937 113.217 163.926 113.189L160.193 114.625L156.459 116.061C156.452 116.043 156.447 116.03 156.445 116.024C156.444 116.02 156.442 116.016 156.445 116.024C156.447 116.03 156.453 116.045 156.459 116.062C156.466 116.081 156.476 116.107 156.488 116.138L160.215 114.685ZM160.193 114.625L158.638 110.94C158.549 110.977 158.478 111.007 158.411 111.034L159.922 114.738L161.432 118.442C161.547 118.395 161.657 118.349 161.747 118.311L160.193 114.625ZM159.922 114.738L156.414 116.661L156.415 116.661L159.922 114.739L163.43 112.816L163.43 112.815L159.922 114.738ZM159.922 114.739L158.392 111.043C158.417 111.033 158.438 111.024 158.456 111.017C158.475 111.01 158.49 111.004 158.502 110.999C158.514 110.995 158.523 110.991 158.528 110.99C158.531 110.988 158.533 110.988 158.535 110.987C158.536 110.987 158.536 110.987 158.536 110.987C158.536 110.987 158.534 110.987 158.533 110.988C158.531 110.989 158.528 110.99 158.525 110.991C158.518 110.993 158.507 110.997 158.494 111.002C158.481 111.007 158.464 111.014 158.445 111.021C158.425 111.029 158.402 111.038 158.376 111.049L159.904 114.746L161.431 118.443C161.407 118.453 161.385 118.461 161.368 118.468C161.35 118.475 161.334 118.481 161.323 118.486C161.311 118.49 161.302 118.493 161.297 118.495C161.292 118.497 161.288 118.498 161.29 118.498C161.29 118.498 161.296 118.496 161.302 118.493C161.309 118.491 161.32 118.487 161.334 118.482C161.347 118.476 161.364 118.47 161.384 118.462C161.403 118.454 161.427 118.445 161.453 118.434L159.922 114.739ZM159.904 114.746L158.396 111.041C158.354 111.058 158.319 111.073 158.297 111.082C158.286 111.087 158.277 111.091 158.272 111.094C158.266 111.096 158.261 111.098 158.261 111.098C158.26 111.099 158.262 111.098 158.266 111.096C158.27 111.094 158.277 111.091 158.286 111.087C158.304 111.079 158.335 111.066 158.374 111.05L159.877 114.757L161.38 118.464C161.424 118.446 161.459 118.431 161.481 118.422C161.493 118.417 161.502 118.412 161.508 118.41C161.514 118.407 161.519 118.405 161.52 118.405C161.522 118.404 161.519 118.405 161.516 118.406C161.512 118.408 161.506 118.411 161.497 118.415C161.48 118.422 161.45 118.435 161.411 118.451L159.904 114.746ZM159.877 114.757L163.385 112.835L163.384 112.834L159.877 114.757L156.369 116.679L156.37 116.68L159.877 114.757ZM159.877 114.757L158.354 111.058C154.466 112.659 150.521 112.966 146.614 111.916L145.575 115.778L144.536 119.641C150.251 121.178 155.995 120.681 161.4 118.455L159.877 114.757ZM145.575 115.778L146.657 111.927L146.19 111.796L145.108 115.647L144.026 119.498L144.493 119.629L145.575 115.778ZM145.108 115.647L146.229 111.807C142.36 110.678 139.392 108.644 137.582 105.748L134.19 107.867L130.797 109.987C133.878 114.916 138.695 117.942 143.987 119.487L145.108 115.647ZM134.19 107.867L131.719 104.721C131.047 105.249 130.151 105.441 129.297 105.191L128.177 109.031L127.056 112.871C130.465 113.866 134.022 113.085 136.66 111.013L134.19 107.867ZM128.177 109.031L129.297 105.191L119.208 102.246L118.087 106.086L116.966 109.925L127.056 112.871L128.177 109.031ZM118.087 106.086L119.208 102.246C118.443 102.023 117.817 101.473 117.496 100.744L113.834 102.354L110.173 103.964C111.445 106.857 113.932 109.04 116.966 109.925L118.087 106.086ZM113.834 102.354L117.496 100.744C117.457 100.654 117.422 100.562 117.393 100.469L113.578 101.672L109.763 102.874C109.879 103.242 110.015 103.606 110.173 103.964L113.834 102.354ZM113.578 101.672L111.01 98.6043C110.332 99.1721 109.406 99.3846 108.524 99.1272L107.403 102.967L106.282 106.807C109.805 107.835 113.483 106.967 116.145 104.739L113.578 101.672ZM107.403 102.967L108.524 99.1272L98.4342 96.182L97.3134 100.022L96.1925 103.861L106.282 106.807L107.403 102.967ZM97.3134 100.022L98.4342 96.182C98.1048 96.0858 97.8008 95.9288 97.5349 95.722L95.0787 98.879L92.6225 102.036C93.674 102.854 94.882 103.479 96.1925 103.861L97.3134 100.022ZM95.0787 98.879L94.7061 94.8964C94.3744 94.9275 94.0362 94.8982 93.7021 94.8006L92.5813 98.6404L91.4604 102.48C92.7888 102.868 94.1418 102.984 95.4514 102.862L95.0787 98.879ZM92.5813 98.6404L93.7021 94.8006L83.6119 91.8552L82.4911 95.695L81.3702 99.5347L91.4604 102.48L92.5813 98.6404ZM82.4911 95.695L83.6119 91.8552C83.4645 91.8122 83.3176 91.7548 83.1723 91.6829L81.3988 95.2683L79.6253 98.8536C80.1756 99.1258 80.7585 99.3561 81.3702 99.5347L82.4911 95.695ZM81.3988 95.2683L80.5701 91.355C79.0535 91.6762 77.5052 91.6828 75.9184 91.277L74.9272 95.1522L73.936 99.0275C76.812 99.7631 79.6108 99.7356 82.2274 99.1815L81.3988 95.2683ZM74.9272 95.1522L75.9834 91.2942L75.5141 91.1657L74.4579 95.0237L73.4017 98.8818L73.871 99.0103L74.9272 95.1522ZM74.4579 95.0237L75.5788 91.184C73.9559 90.7103 72.5392 89.8565 71.4426 88.5808L68.4092 91.1882L65.3758 93.7955C67.5934 96.3755 70.4006 98.0063 73.3371 98.8635L74.4579 95.0237ZM68.4092 91.1882L71.4427 88.5809C71.1783 88.2732 70.9396 87.9486 70.7239 87.6087L67.3466 89.7519L63.9692 91.8951C64.3813 92.5445 64.8479 93.1813 65.3758 93.7955L68.4092 91.1882ZM67.3466 89.7519L65.8293 86.0508C65.2747 86.2782 64.6556 86.3217 64.0534 86.1459L62.9325 89.9856L61.8116 93.8254C64.2137 94.5265 66.6918 94.3434 68.8638 93.453L67.3466 89.7519ZM62.9325 89.9856L64.0534 86.1459L34.1049 77.4036L32.984 81.2434L31.8632 85.0831L61.8116 93.8254L62.9325 89.9856ZM32.984 81.2434L34.1049 77.4036C33.3405 77.1805 32.714 76.6307 32.3933 75.9018L28.7319 77.5122L25.0704 79.1227C26.3428 82.0155 28.8294 84.1976 31.8632 85.0831L32.984 81.2434ZM28.7319 77.5122L32.3934 75.9019C32.0728 75.173 32.091 74.3394 32.4432 73.6252L28.8556 71.8563L25.268 70.0874C23.8704 72.9219 23.798 76.2296 25.0703 79.1226L28.7319 77.5122ZM28.8556 71.8563L32.4432 73.6252L52.1032 33.7524L48.5156 31.9835L44.928 30.2146L25.268 70.0873L28.8556 71.8563ZM48.5156 31.9835L52.0649 33.8281L52.2047 33.5591L48.6555 31.7144L45.1062 29.8698L44.9663 30.1389L48.5156 31.9835ZM48.6555 31.7144L52.1602 33.6423C52.7648 32.5432 54.059 32.0022 55.2752 32.3572L56.396 28.5174L57.5169 24.6777C52.6881 23.2681 47.5553 25.4153 45.1507 29.7865L48.6555 31.7144ZM56.396 28.5174L55.2752 32.3572L85.2231 41.0993L86.344 37.2595L87.4649 33.4198L57.5169 24.6777L56.396 28.5174ZM86.344 37.2595L85.2231 41.0993C85.9878 41.3225 86.6147 41.8728 86.9352 42.6025L90.5975 40.9939L94.2598 39.3853C92.9882 36.4902 90.5006 34.3059 87.4649 33.4198L86.344 37.2595ZM90.5975 40.9939L86.9352 42.6024C87.2457 43.3094 87.2377 44.1142 86.9161 44.8127L90.5496 46.4853L94.1832 48.1579C95.4604 45.3833 95.4916 42.1898 94.2598 39.3853L90.5975 40.9939ZM90.5496 46.4853L86.9414 44.7589L86.8613 44.9262L90.4696 46.6526L94.0778 48.379L94.1579 48.2117L90.5496 46.4853ZM90.4696 46.6526L86.8838 44.88L84.5763 49.5477L88.162 51.3204L91.7478 53.093L94.0553 48.4253L90.4696 46.6526ZM88.162 51.3204L87.0412 55.1601L93.495 57.044L94.6158 53.2043L95.7367 49.3645L89.2829 47.4806L88.162 51.3204ZM94.6158 53.2043L93.495 57.044C93.8793 57.1562 94.2286 57.3508 94.5223 57.6099L97.1682 54.61L99.814 51.6101C98.6503 50.5837 97.2626 49.81 95.7367 49.3645L94.6158 53.2043ZM97.1682 54.61L97.788 58.5617C98.1654 58.5025 98.5618 58.5231 98.9577 58.6387L100.079 54.7989L101.199 50.9592C99.6525 50.5076 98.0665 50.4202 96.5483 50.6583L97.1682 54.61ZM100.079 54.7989L98.9577 58.6387L109.047 61.5839L110.168 57.7442L111.289 53.9044L101.199 50.9592L100.079 54.7989ZM110.168 57.7442L108.991 61.567L109.168 61.6216L110.345 57.7987L111.522 53.9759L111.345 53.9213L110.168 57.7442ZM110.345 57.7987L109.119 61.606C109.422 61.7037 109.701 61.8526 109.947 62.0435L112.403 58.8862L114.858 55.7289C113.882 54.9695 112.772 54.378 111.572 53.9914L110.345 57.7987ZM112.403 58.8862L112.775 62.8688C113.105 62.8379 113.443 62.8671 113.779 62.9653L114.9 59.1255L116.021 55.2858C114.695 54.8986 113.342 54.7808 112.03 54.9036L112.403 58.8862ZM114.9 59.1255L113.779 62.9653L123.869 65.9105L124.99 62.0708L126.111 58.231L116.021 55.2858L114.9 59.1255ZM124.99 62.0708L123.803 65.8905L124.012 65.9557L125.2 62.136L126.387 58.3163L126.177 58.2511L124.99 62.0708ZM125.2 62.136L123.954 65.937C124.116 65.9902 124.272 66.0585 124.421 66.141L126.361 62.6428L128.3 59.1447C127.716 58.8204 127.095 58.5479 126.446 58.3349L125.2 62.136ZM126.361 62.6428L126.687 66.6295C127.515 66.5616 128.369 66.6103 129.251 66.8055L130.115 62.8999L130.979 58.9943C129.291 58.621 127.634 58.5251 126.034 58.6562L126.361 62.6428ZM130.115 62.8999L133.972 63.96C134.112 63.4514 134.301 62.9447 134.542 62.4448L130.939 60.7079L127.336 58.9711C126.89 59.8959 126.529 60.855 126.258 61.8398L130.115 62.8999ZM130.939 60.7079L134.524 62.483L134.662 62.2039L131.077 60.4288L127.493 58.6537L127.355 58.9329L130.939 60.7079ZM131.077 60.4288L134.64 62.2468C135.649 60.2696 137.259 58.8036 139.323 57.8566L137.655 54.2209L135.988 50.5851C132.447 52.2094 129.418 54.8796 127.514 58.6107L131.077 60.4288ZM137.655 54.2209L139.285 57.8737L139.385 57.8294L137.755 54.1766L136.125 50.5238L136.025 50.568L137.655 54.2209ZM137.755 54.1766L139.363 57.8389C141.523 56.8904 143.772 56.6561 145.996 57.3052L147.116 53.4654L148.237 49.6257C143.979 48.3827 139.794 48.9118 136.146 50.5143L137.755 54.1766ZM147.116 53.4654L145.95 57.2917L146.259 57.3859L147.425 53.5596L148.592 49.7334L148.283 49.6392L147.116 53.4654ZM201.386 114.291L202.507 110.451C200.11 109.752 197.704 109.989 195.463 110.994L197.099 114.644L198.736 118.294C199.383 118.004 199.835 118.006 200.266 118.131L201.386 114.291ZM197.099 114.644L195.463 110.994C193.228 111.996 191.458 113.62 190.351 115.834L193.928 117.623L197.505 119.413C197.737 118.95 198.081 118.587 198.736 118.294L197.099 114.644ZM193.928 117.623L190.342 115.852C189.238 118.087 188.94 120.644 190.074 123.127L193.713 121.466L197.352 119.805C197.345 119.792 197.349 119.797 197.353 119.816C197.357 119.836 197.356 119.848 197.356 119.844C197.357 119.838 197.365 119.698 197.515 119.395L193.928 117.623ZM193.713 121.466L190.074 123.127C191.164 125.514 193.159 127.006 195.521 127.696L196.642 123.856L197.763 120.016C197.484 119.935 197.387 119.857 197.378 119.849C197.374 119.846 197.372 119.845 197.373 119.845C197.373 119.845 197.373 119.845 197.373 119.846C197.374 119.846 197.374 119.846 197.374 119.846C197.374 119.846 197.373 119.845 197.372 119.844C197.372 119.843 197.37 119.841 197.369 119.838C197.365 119.832 197.359 119.822 197.351 119.805L193.713 121.466ZM196.642 123.856L195.521 127.696C197.888 128.386 200.284 128.223 202.535 127.222L200.911 123.567L199.286 119.912C198.76 120.146 198.309 120.175 197.763 120.016L196.642 123.856ZM200.911 123.567L202.468 127.252C204.775 126.277 206.557 124.61 207.669 122.359L204.082 120.588L200.496 118.816C200.243 119.329 199.91 119.648 199.354 119.883L200.911 123.567ZM204.082 120.588L207.659 122.377C208.783 120.13 209.025 117.611 207.971 115.164L204.297 116.745L200.623 118.326C200.64 118.367 200.644 118.386 200.644 118.388C200.644 118.389 200.645 118.391 200.644 118.4C200.644 118.412 200.636 118.536 200.505 118.798L204.082 120.588ZM204.297 116.745L208.011 115.261C206.993 112.712 204.926 111.158 202.507 110.452L201.386 114.291L200.265 118.131C200.562 118.218 200.644 118.295 200.628 118.282C200.622 118.276 200.607 118.262 200.592 118.241C200.577 118.22 200.576 118.212 200.582 118.229L204.297 116.745ZM183.227 105.922L184.348 102.082L184.347 102.082L183.226 105.921L182.105 109.761L182.106 109.761L183.227 105.922ZM183.226 105.921L179.643 104.143C179.273 104.887 178.944 105.232 178.75 105.383L181.206 108.54L183.663 111.696C185.033 110.63 186.05 109.229 186.809 107.7L183.226 105.921ZM181.206 108.54L178.716 105.41C178.67 105.446 178.797 105.331 179.097 105.251C179.433 105.161 179.831 105.157 180.208 105.267L179.088 109.107L177.967 112.947C180.264 113.617 182.291 112.788 183.697 111.67L181.206 108.54ZM179.088 109.107L180.209 105.267C180.252 105.28 180.523 105.363 180.853 105.635C181.22 105.937 181.55 106.384 181.724 106.937C182.034 107.926 181.629 108.484 181.824 108.08L178.221 106.343L174.617 104.607C174.105 105.67 173.491 107.422 174.091 109.332C174.779 111.527 176.583 112.542 177.966 112.946L179.088 109.107ZM178.221 106.343L181.783 108.163C181.703 108.319 181.6 108.46 181.484 108.577C181.371 108.692 181.27 108.759 181.21 108.793C181.107 108.852 181.165 108.79 181.527 108.74L180.979 104.777L180.431 100.815C178.396 101.097 175.937 102.02 174.658 104.524L178.221 106.343ZM180.979 104.777L181.803 108.692L184.945 108.031L184.122 104.116L183.298 100.202L180.156 100.863L180.979 104.777ZM184.122 104.116L180.538 102.34L179.643 104.145L183.227 105.922L186.811 107.698L187.706 105.893L184.122 104.116ZM212.997 81.2051L209.409 79.4384L202.384 93.7075L205.973 95.4742L209.562 97.2409L216.586 82.9718L212.997 81.2051ZM205.973 95.4742L202.253 94.0025L195.871 110.133L199.59 111.605L203.31 113.076L209.692 96.9459L205.973 95.4742ZM199.59 111.605L198.47 115.444L203.996 117.058L205.117 113.218L206.238 109.378L200.711 107.765L199.59 111.605ZM205.117 113.218L208.559 115.255L217.641 99.9131L214.199 97.8755L210.757 95.8379L201.675 111.18L205.117 113.218ZM214.199 97.8755L217.788 99.6422L224.812 85.3731L221.224 83.6064L217.635 81.8397L210.61 96.1088L214.199 97.8755ZM221.224 83.6064L222.345 79.7666L214.118 77.3653L212.997 81.2051L211.877 85.0448L220.103 87.4461L221.224 83.6064Z" fill="#E38EE6" mask="url(#path-2-outside-1_0_7173)"/><path d="M201.388 114.291C202.844 114.717 203.815 115.534 204.298 116.745C204.824 117.968 204.753 119.249 204.083 120.588C203.401 121.969 202.344 122.962 200.912 123.567C199.523 124.185 198.1 124.281 196.643 123.856C195.229 123.443 194.253 122.646 193.714 121.466C193.175 120.286 193.247 119.005 193.929 117.624C194.599 116.285 195.656 115.292 197.101 114.644C198.545 113.996 199.974 113.879 201.388 114.291ZM84.0793 77.1189C83.4096 78.4576 83.1149 79.6268 83.195 80.6265C83.3305 81.5959 83.7835 82.1933 84.5546 82.4185C85.3686 82.6561 86.2499 82.4249 87.198 81.7252C88.0921 81.0342 88.8601 80.0849 89.5022 78.8773L98.2038 61.2257L108.294 64.171L94.4585 92.214L84.3683 89.2685L90.1625 82.8L89.1707 82.0309C87.8364 83.8782 86.2257 85.4511 84.3372 86.7485C81.4875 88.7063 78.82 89.3226 76.3352 88.5973C73.9787 87.9095 72.538 86.2332 72.0137 83.5695C71.5323 80.9183 72.058 78.003 73.5904 74.8239L82.5871 56.667L92.7411 59.6311L84.0793 77.1189ZM162.337 78.1333C165.422 79.0338 167.637 80.8429 168.982 83.5603C170.328 86.2778 170.596 89.6574 169.789 93.6991L159.452 92.0769C160.428 88.7351 160.037 86.8076 158.281 86.2948C157.124 85.9572 155.88 86.3148 154.55 87.3677C153.263 88.4332 152.042 90.1463 150.888 92.5062C149.722 94.9089 149.159 96.8369 149.2 98.2901C149.241 99.7432 149.861 100.645 151.06 100.995C152.003 101.27 153.025 101.034 154.127 100.286C155.228 99.5384 156.271 98.3549 157.255 96.736L166.584 100.854C163.97 104.554 160.896 107.121 157.362 108.553C153.872 109.999 150.413 110.221 146.985 109.221C142.744 107.983 140.035 105.634 138.859 102.176C137.696 98.6748 138.321 94.4636 140.734 89.5422C143.19 84.6332 146.33 81.2022 150.154 79.25C154.034 77.2674 158.095 76.8952 162.337 78.1333ZM190.824 86.5885C194.337 87.6141 196.687 89.4391 197.873 92.0637C199.103 94.7008 199.016 97.4655 197.614 100.357L188.106 119.551L177.952 116.586L183.871 110.643L182.842 109.625C181.48 111.697 179.973 113.356 178.322 114.602C175.89 116.403 173.581 116.984 171.396 116.347C168.954 115.634 167.307 114.27 166.454 112.254C165.656 110.208 165.847 107.961 167.026 105.516C168.167 103.199 169.703 101.602 171.633 100.724C173.576 99.803 176.301 99.2267 179.809 98.9954L186.986 98.3009L186.11 100.108L187.125 98.0623C187.547 97.2555 187.704 96.5575 187.597 95.9683C187.49 95.3793 187.158 95.0037 186.601 94.8411C185.916 94.641 185.16 94.8385 184.335 95.4346C183.553 96.0432 182.831 96.9254 182.169 98.0803L172.775 93.9432C174.847 90.8284 177.502 88.5815 180.741 87.2023C183.992 85.7801 187.353 85.5755 190.824 86.5885ZM80.0405 52.646L60.1822 46.8492L56.9538 53.3691L74.9486 58.6219L70.5199 67.5811L52.5251 62.3282L49.3801 68.8032L69.2379 74.5999L64.8097 83.5592L34.8613 74.817L54.5213 34.9442L84.4693 43.6863L80.0405 52.646ZM126.412 78.9451L123.392 78.0634C122.192 77.7132 120.9 77.9173 119.516 78.6757C118.332 79.3566 117.364 80.3542 116.611 81.6688L109.28 96.5406L99.1906 93.5953L113.026 65.5523L123.115 68.4976L117.121 74.6981L118.323 75.6944C119.581 73.7949 120.965 72.2867 122.475 71.17C124.783 69.4728 126.987 68.9304 129.087 69.5432L130.822 70.0497L126.412 78.9451ZM130.054 102.605L119.964 99.6593L133.799 71.6163L143.889 74.5616L130.054 102.605ZM180.98 104.777C179.575 104.972 178.656 105.494 178.222 106.344C177.515 107.811 177.804 108.732 179.089 109.107C179.774 109.307 180.481 109.118 181.207 108.54C181.989 107.931 182.663 107.058 183.227 105.921L183.228 105.922L184.123 104.116L180.98 104.777ZM214.2 97.8757L205.118 113.218L199.592 111.605L205.974 95.4744L212.999 81.2052L221.225 83.6066L214.2 97.8757ZM145.242 59.8922C146.784 60.3424 147.842 61.2559 148.417 62.6325C149.034 64.0215 148.989 65.4495 148.282 66.9168C147.575 68.3841 146.388 69.5028 144.723 70.2719C143.069 70.9981 141.471 71.1361 139.929 70.6859C138.387 70.2357 137.328 69.3221 136.754 67.9456C136.192 66.5262 136.264 65.0824 136.971 63.6151C137.679 62.1478 138.838 61.045 140.448 60.3063C142.101 59.58 143.699 59.442 145.242 59.8922Z" fill="#5735FF"/></g><defs><filter id="filter0_d_0_7173" x="0.239258" y="0.319336" width="255.606" height="158.417" filterUnits="userSpaceOnUse" color-interpolation-filters="sRGB"><feFlood flood-opacity="0" result="BackgroundImageFix"/><feColorMatrix in="SourceAlpha" type="matrix" values="0 0 0 0 0 0 0 0 0 0 0 0 0 0 0 0 0 0 127 0" result="hardAlpha"/><feOffset/><feGaussianBlur stdDeviation="7"/><feComposite in2="hardAlpha" operator="out"/><feColorMatrix type="matrix" values="0 0 0 0 0 0 0 0 0 0 0 0 0 0 0 0 0 0 0.25 0"/><feBlend mode="normal" in2="BackgroundImageFix" result="effect1_dropShadow_0_7173"/><feBlend mode="normal" in="SourceGraphic" in2="effect1_dropShadow_0_7173" result="shape"/></filter></defs></svg>