<svg width="156" height="156" viewBox="0 0 156 156" fill="none" xmlns="http://www.w3.org/2000/svg"><path d="M79.4673 19.7685C79.0634 16.7472 84.645 15.7741 86.2596 15.7435C84.4301 14.4215 77.6158 12.2645 74.8081 13.5865C71.2985 15.239 71.2616 17.5635 73.0513 22.4344C74.841 27.3054 79.1285 33.6664 79.82 37.6325C80.7951 43.2248 76.4185 42.74 81.4629 46.4533C88.292 40.7211 80.3566 26.4218 79.4673 19.7685Z" fill="#518FC0"/><path d="M93.0299 33.297C89.0959 35.9347 85.1778 43.6079 85.1778 43.6079L89.2911 47.2218C89.2911 47.2218 91.6116 37.4899 100.843 35.2797C110.075 33.0695 112.362 27.33 107.912 21.1849C103.463 15.0399 89.8644 11.3258 84.5062 10.3455C80.4351 9.60074 75.6489 12.7523 73.5843 14.3094C73.1963 14.6021 73.3869 15.1528 73.8693 15.1811C83.6228 15.7538 95.9841 21.3293 98.6447 24.6458C101.427 28.1138 97.9473 30 93.0299 33.297Z" fill="#8CE096"/><path d="M121.291 137.378C127.917 138.716 129.803 133.862 130.521 132.818C131.106 133.628 129.822 138.119 128.565 140.007C126.994 142.366 121.794 146.012 115.756 144.428C109.718 142.843 105.043 138.717 105.043 138.717L107.935 136.624C110.741 136.551 114.666 136.04 121.291 137.378Z" fill="#518FC0"/><path d="M93.2709 131.799L109.009 136.807L106.026 139.171L91.0607 135.099L93.2709 131.799Z" fill="#8CE096"/><path d="M126.003 106.771C124.149 94.0248 126.377 24.1054 129.533 63.5075C130.07 70.2052 131.783 79.3197 133.819 89.1769C135.854 99.0342 139.686 120.296 138.698 124.705C137.711 129.113 137.215 130.741 130.668 139.292C124.12 147.843 115.797 144.288 115.797 144.288C115.797 144.288 120.092 144.558 125.472 140.942C130.853 137.325 129.624 131.649 126.003 106.771Z" fill="#8CE096"/><path d="M118.849 42.6091L97.3725 36.7665C91.7279 35.2308 92.9857 98.7527 87.9869 117.127L76.7772 114.078L71.91 131.968L95.7397 138.421C101.984 139.667 108.216 135.879 109.912 129.642L128.84 60.0681C130.902 52.4879 126.429 44.6713 118.849 42.6091Z" fill="#518FC0"/><path d="M51.9569 24.342C44.3768 22.2798 36.5602 26.753 34.498 34.3331L24.2053 72.1668C22.368 72.7792 20.8617 74.2698 20.3152 76.2787L11.3365 109.282C10.4683 112.474 12.3517 115.765 15.5433 116.633L26.0127 119.481C26.0317 119.487 26.0508 119.492 26.0699 119.497L70.2511 131.517C77.8312 133.579 85.6478 129.106 87.71 121.526L106.129 53.8205C108.191 46.2403 103.718 38.4237 96.1381 36.3615L51.9569 24.342Z" fill="#518FC0"/><path d="M20.3451 76.2865C21.2134 73.0949 24.5046 71.2114 27.6962 72.0797L77.7112 85.6864C80.9029 86.5547 82.7863 89.8459 81.918 93.0375L72.9394 126.041C72.0711 129.233 68.7799 131.116 65.5883 130.248L15.5732 116.641C12.3816 115.773 10.4982 112.482 11.3665 109.29L20.3451 76.2865Z" fill="#518FC0"/><path d="M77.8799 10.5537C79.9155 9.63161 82.3557 8.9359 84.6865 9.3623C87.4195 9.86231 92.222 11.0513 96.916 12.8975C101.559 14.7235 106.315 17.2744 108.723 20.5986C111.072 23.8438 111.793 27.2086 110.413 30.1348C109.056 33.0109 105.824 35.1153 101.076 36.252C100.773 36.3246 100.477 36.4066 100.189 36.4961L119.111 41.6445C126.745 43.7213 131.433 51.25 130.122 58.8906C130.256 60.2115 130.393 61.7198 130.53 63.4277C131.061 70.0547 132.761 79.111 134.798 88.9746C135.818 93.9161 137.289 101.713 138.381 108.832C138.927 112.39 139.38 115.793 139.635 118.589C139.762 119.987 139.841 121.245 139.855 122.303C139.87 123.342 139.824 124.253 139.674 124.923C139.176 127.144 138.783 128.761 137.653 130.91C136.544 133.02 134.735 135.625 131.462 139.9C127.997 144.426 124.001 145.799 120.839 145.995C119.294 146.091 117.967 145.905 117.016 145.692C116.518 145.624 116.012 145.528 115.502 145.395C112.347 144.567 109.571 143.083 107.597 141.82C106.606 141.187 105.809 140.604 105.257 140.178C105.129 140.079 105.017 139.985 104.916 139.904L101.928 139.092C99.9113 139.7 97.729 139.838 95.5439 139.401L95.5107 139.395L95.4785 139.386L71.6484 132.934L70.6826 132.672L70.6875 132.653C70.4545 132.601 70.221 132.545 69.9883 132.481L39.082 124.073L15.3105 117.606C15.3007 117.604 15.2911 117.6 15.2812 117.598L14.9365 117.495C11.4222 116.345 9.39043 112.628 10.3721 109.02L19.3506 76.0166C19.9364 73.8634 21.4682 72.2229 23.3721 71.416L33.5332 34.0703C35.7405 25.9575 44.1068 21.1698 52.2197 23.377L75.3604 29.6719C74.1602 27.3526 72.9018 24.9282 72.1123 22.7793C71.2208 20.3528 70.6849 18.3273 70.9551 16.6445C71.1898 15.1835 71.9984 14.1154 73.292 13.2812C74.3731 12.4882 76.0116 11.4 77.8799 10.5537ZM110.877 129.904C110.301 132.022 109.24 133.878 107.849 135.388L108.515 135.6C111.251 135.485 115.205 135.128 121.489 136.397C124.508 137.007 126.324 136.203 127.476 135.228C127.667 135.066 127.839 134.9 127.996 134.734C128.093 133.91 128.133 132.958 128.113 131.847C128.027 126.949 126.831 119.405 125.014 106.915C124.538 103.645 124.332 96.8124 124.329 89.0938C124.328 86.2073 124.355 83.1854 124.409 80.1631L110.877 129.904ZM82.2295 17.668C81.638 17.9308 81.1655 18.2329 80.8555 18.5586C80.5289 18.9017 80.405 19.2386 80.458 19.6357C80.6661 21.1928 81.297 23.2439 82.0664 25.6318C82.7083 27.6238 83.434 29.8194 84.0254 32.0293L90.7783 33.8662C91.3303 33.3301 91.898 32.8522 92.4727 32.4668C93.723 31.6285 94.8332 30.9112 95.792 30.2275C96.7515 29.5434 97.4805 28.9464 97.9678 28.3818C98.4482 27.8251 98.6262 27.3788 98.6328 26.9805C98.6394 26.5789 98.4745 26.0321 97.8643 25.2715C97.3159 24.5881 96.1735 23.6924 94.5127 22.709C92.8782 21.7411 90.8249 20.7365 88.541 19.8115C86.5538 19.0067 84.4085 18.2683 82.2295 17.668Z" stroke="white" stroke-width="2" stroke-linecap="round"/><path d="M78.9331 19.8177C78.5293 16.7964 84.1108 15.8233 85.7254 15.7927C83.8959 14.4707 77.0816 12.3137 74.2739 13.6357C70.7643 15.2882 70.7274 17.6127 72.5171 22.4836C74.3068 27.3546 78.5943 33.7156 79.2859 37.6817C79.8391 40.8546 78.2759 43.1649 77.4252 43.9235L80.9287 46.5025C81.2536 46.2298 82.152 44.9638 83.1462 42.0813C84.3889 38.4782 79.4379 23.5944 78.9331 19.8177Z" fill="#518FC0"/><path d="M92.4962 33.346C88.5622 35.9837 84.6442 43.6569 84.6442 43.6569L88.7574 47.2708C88.7574 47.2708 91.0779 37.5389 100.31 35.3287C109.541 33.1185 111.828 27.379 107.379 21.2339C102.929 15.0889 89.3308 11.3748 83.9726 10.3945C79.8635 9.64278 75.0257 12.8605 72.9935 14.4016C72.627 14.6795 72.8086 15.2003 73.2653 15.226C83.0296 15.7759 95.444 21.3703 98.1111 24.6948C100.893 28.1627 97.4137 30.049 92.4962 33.346Z" fill="#8CE096"/><path d="M120.756 137.426C127.381 138.764 129.268 133.91 129.986 132.866C130.571 133.676 129.287 138.168 128.03 140.055C126.459 142.415 121.259 146.061 115.221 144.476C109.183 142.892 104.508 138.765 104.508 138.765L107.399 136.672C110.206 136.599 114.13 136.088 120.756 137.426Z" fill="#518FC0"/><path d="M92.7365 131.848L108.474 136.856L105.492 139.22L90.5264 135.148L92.7365 131.848Z" fill="#8CE096"/><path d="M125.469 106.82C122.573 86.9177 120.685 65.0045 120.103 56.5357C120.691 51.7209 124.871 46.8136 124.871 46.8136C127.957 51.8463 128.462 56.8583 128.999 63.556C129.535 70.2537 131.249 79.3682 133.284 89.2255C135.32 99.0827 139.151 120.344 138.164 124.753C137.176 129.162 136.68 130.79 130.133 139.341C123.586 147.892 115.262 144.337 115.262 144.337C115.262 144.337 119.558 144.606 124.938 140.99C130.318 137.374 129.089 131.698 125.469 106.82Z" fill="#8CE096"/><path d="M122.804 86.3711L125.469 106.821C127.21 118.779 128.397 126.301 128.564 131.29" stroke="#120101" stroke-width="0.708555" stroke-linecap="round"/><path d="M118.315 42.6575L96.8385 36.8148C89.8759 34.9206 83.6341 41.5933 85.9883 48.4142L96.3649 78.4789C96.9534 80.1843 97.0149 82.0273 96.5414 83.7681L87.4528 117.176L76.2432 114.126L71.376 132.017L95.198 138.498L95.2057 138.469C101.45 139.716 107.681 135.927 109.378 129.69L128.306 60.1164C130.368 52.5363 125.895 44.7196 118.315 42.6575Z" fill="#518FC0"/><path d="M96.3374 36.6104C103.512 38.5622 107.746 45.9609 105.794 53.1353L86.975 122.31C85.0231 129.484 77.6247 133.717 70.4504 131.765L15.0084 116.682C11.8168 115.814 9.93326 112.522 10.8015 109.331L19.7801 76.3271C20.3267 74.3182 21.8333 72.8283 23.6706 72.2159L34.1631 33.648C36.1149 26.4736 43.5127 22.2394 50.687 24.1911L96.3374 36.6104Z" fill="#8CE096"/><rect x="21.6317" y="70.9905" width="63.1023" height="45.4724" rx="5.31416" transform="rotate(15.2191 21.6317 70.9905)" fill="#FF4646" stroke="#120101" stroke-width="0.708555"/><path d="M110.63 79.9538L116.642 57.8523C118.594 50.6779 114.361 43.2796 107.186 41.3278L80.4374 34.0509" stroke="#120101" stroke-width="0.708555" stroke-linecap="round" stroke-dasharray="4.25 4.25"/><path d="M51.4925 125.922L70.2649 131.432C77.4996 133.556 85.0676 129.324 87.0469 122.049L105.795 53.1353C107.747 45.9609 103.513 38.5626 96.3385 36.6108L65.7568 28.291" stroke="#120101" stroke-width="0.708555" stroke-linecap="round"/><path d="M68.2553 84.0834L26.936 72.8424L27.1325 72.12L68.4518 83.361C71.6434 84.2293 73.5269 87.5205 72.6586 90.7121L63.68 123.716C62.8117 126.907 59.5205 128.791 56.3288 127.922L15.0095 116.681C11.8179 115.813 9.93444 112.522 10.8027 109.33L11.5251 109.527C10.7653 112.319 12.4134 115.199 15.206 115.959L56.5253 127.2C59.318 127.96 62.1978 126.312 62.9576 123.519L71.9362 90.5156C72.6959 87.7229 71.0479 84.8431 68.2553 84.0834Z" fill="black"/><path d="M111.533 76.6315C112.578 76.9159 113.195 77.9935 112.911 79.0387L111.088 85.7404L107.303 84.7107L109.126 78.0089C109.41 76.9639 110.488 76.3473 111.533 76.6315Z" fill="#FDF8F0" stroke="#120101" stroke-width="0.708555"/><path d="M24.5264 81.5127L67.1123 93.0983" stroke="#120101" stroke-width="0.708555"/><path d="M28.0379 81.3703C28.8611 81.8982 29.1004 82.9932 28.5726 83.8164L25.1476 89.1574L22.1669 87.2459L25.5918 81.905C26.1197 81.0818 27.2146 80.8424 28.0379 81.3703Z" fill="#FDF8F0" stroke="#120101" stroke-width="0.708555"/><path d="M44.7037 114.156C46.6007 121.56 53.0469 119.698 51.5482 112.117C50.3493 106.051 42.8068 106.752 44.7037 114.156Z" fill="#FDF8F0" stroke="#120101" stroke-width="0.708555" stroke-linejoin="round"/><mask id="path-19-inside-1_0_5769" fill="white"><path d="M45.9283 113.825C44.7545 109.243 49.4206 108.808 50.1637 112.56L48.3164 113.985L50.2954 114.157C50.1336 117.453 46.9551 117.831 45.9283 113.825Z"/></mask><path d="M45.9283 113.825C44.7545 109.243 49.4206 108.808 50.1637 112.56L48.3164 113.985L50.2954 114.157C50.1336 117.453 46.9551 117.831 45.9283 113.825Z" fill="#120101"/><path d="M45.9283 113.825L45.2419 114L45.242 114L45.9283 113.825ZM50.1637 112.56L50.5966 113.121L50.944 112.853L50.8588 112.422L50.1637 112.56ZM48.3164 113.985L47.8835 113.425L46.445 114.534L48.2552 114.691L48.3164 113.985ZM50.2954 114.157L51.0031 114.192L51.0365 113.51L50.3565 113.451L50.2954 114.157ZM45.9283 113.825L46.6147 113.649C46.3481 112.608 46.4374 111.896 46.6357 111.459C46.828 111.035 47.1378 110.825 47.46 110.763C48.0933 110.642 49.152 111.099 49.4686 112.698L50.1637 112.56L50.8588 112.422C50.4323 110.269 48.7865 109.067 47.1943 109.371C46.4038 109.522 45.7208 110.045 45.3451 110.874C44.9754 111.689 44.9217 112.75 45.2419 114L45.9283 113.825ZM50.1637 112.56L49.7308 111.999L47.8835 113.425L48.3164 113.985L48.7493 114.546L50.5966 113.121L50.1637 112.56ZM48.3164 113.985L48.2552 114.691L50.2342 114.863L50.2954 114.157L50.3565 113.451L48.3776 113.28L48.3164 113.985ZM50.2954 114.157L49.5877 114.122C49.515 115.603 48.8205 116.018 48.4319 116.021C47.9878 116.023 47.1006 115.545 46.6147 113.649L45.9283 113.825L45.242 114C45.7828 116.111 46.9982 117.447 48.4405 117.438C49.9384 117.429 50.914 116.006 51.0031 114.192L50.2954 114.157Z" fill="#120101" mask="url(#path-19-inside-1_0_5769)"/><path d="M53.0963 110.937C54.9932 118.341 61.4394 116.479 59.9408 108.897C58.7419 102.831 51.1994 103.533 53.0963 110.937Z" fill="#FDF8F0" stroke="#120101" stroke-width="0.708555" stroke-linejoin="round"/><mask id="path-22-inside-2_0_5769" fill="white"><path d="M54.3207 110.603C53.1474 106.022 57.8125 105.588 58.5561 109.339L56.7079 110.764L58.6881 110.937C58.5263 114.233 55.3474 114.61 54.3207 110.603Z"/></mask><path d="M54.3207 110.603C53.1474 106.022 57.8125 105.588 58.5561 109.339L56.7079 110.764L58.6881 110.937C58.5263 114.233 55.3474 114.61 54.3207 110.603Z" fill="#120101"/><path d="M54.3207 110.603L53.6343 110.779L53.6343 110.779L54.3207 110.603ZM58.5561 109.339L58.9889 109.9L59.3365 109.632L59.2511 109.201L58.5561 109.339ZM56.7079 110.764L56.2751 110.203L54.8367 111.313L56.6465 111.47L56.7079 110.764ZM58.6881 110.937L59.3958 110.971L59.4292 110.29L58.7494 110.231L58.6881 110.937ZM54.3207 110.603L55.0071 110.427C54.7406 109.387 54.83 108.675 55.0283 108.238C55.2205 107.814 55.5303 107.604 55.8524 107.542C56.4856 107.422 57.5442 107.878 57.861 109.476L58.5561 109.339L59.2511 109.201C58.8243 107.048 57.1786 105.847 55.5867 106.151C54.7963 106.301 54.1133 106.824 53.7376 107.653C53.3679 108.468 53.3142 109.529 53.6343 110.779L54.3207 110.603ZM58.5561 109.339L58.1233 108.778L56.2751 110.203L56.7079 110.764L57.1407 111.325L58.9889 109.9L58.5561 109.339ZM56.7079 110.764L56.6465 111.47L58.6267 111.642L58.6881 110.937L58.7494 110.231L56.7692 110.059L56.7079 110.764ZM58.6881 110.937L57.9804 110.902C57.9077 112.383 57.2131 112.798 56.8245 112.8C56.3803 112.803 55.4929 112.324 55.0071 110.427L54.3207 110.603L53.6343 110.779C54.1751 112.89 55.3906 114.226 56.8329 114.217C58.3309 114.208 59.3067 112.786 59.3958 110.971L58.6881 110.937Z" fill="#120101" mask="url(#path-22-inside-2_0_5769)"/><path d="M48.5472 33.5505L52.8203 39.862L60.3191 38.4975L56.9898 45.3538L61.9209 51.1657L54.3185 51.7107L51.7508 58.8871L47.4776 52.5757L39.9788 53.9401L43.3081 47.0838L38.377 41.2719L45.9795 40.7269L48.5472 33.5505Z" fill="#14141A"/></svg>