<svg width="203" height="200" viewBox="0 0 203 200" fill="none" xmlns="http://www.w3.org/2000/svg"><mask id="path-1-outside-1_1051_4100" maskUnits="userSpaceOnUse" x="91.2666" y="123.241" width="57" height="44" fill="black"><rect fill="white" x="91.2666" y="123.241" width="57" height="44"/><path d="M101.927 144.57C97.5386 138.865 120.184 126.241 120.184 126.241C120.184 126.241 151.143 136.527 145.081 144.4C142.983 147.125 133.769 145.159 127.199 143.317C140.873 148.403 143.605 155.485 131.676 161.81C117.962 169.083 91.5069 161.465 94.5007 152.679C95.6803 149.218 101.387 148.268 107.487 148.372C105.16 147.408 103.15 146.16 101.927 144.57Z"/><path d="M107.487 148.372C114.624 151.33 124.734 151.617 124.182 150.904C123.772 150.372 115.306 148.506 107.487 148.372Z"/><path d="M120.337 141.177C120.337 141.177 123.303 142.225 127.199 143.317C125.152 142.556 122.861 141.839 120.337 141.177Z"/></mask><path d="M101.927 144.57C97.5386 138.865 120.184 126.241 120.184 126.241C120.184 126.241 151.143 136.527 145.081 144.4C142.983 147.125 133.769 145.159 127.199 143.317C140.873 148.403 143.605 155.485 131.676 161.81C117.962 169.083 91.5069 161.465 94.5007 152.679C95.6803 149.218 101.387 148.268 107.487 148.372C105.16 147.408 103.15 146.16 101.927 144.57Z" fill="#8CE096"/><path d="M107.487 148.372C114.624 151.33 124.734 151.617 124.182 150.904C123.772 150.372 115.306 148.506 107.487 148.372Z" fill="#8CE096"/><path d="M120.337 141.177C120.337 141.177 123.303 142.225 127.199 143.317C125.152 142.556 122.861 141.839 120.337 141.177Z" fill="#8CE096"/><path d="M138.101 152.459C138.239 152.994 138.784 153.315 139.319 153.177C139.854 153.039 140.175 152.493 140.037 151.959L138.101 152.459ZM139.069 152.209L140.037 151.959C139.539 150.032 138.103 148.279 136.013 146.713C133.912 145.139 131.058 143.686 127.547 142.38L127.199 143.317L126.85 144.254C130.255 145.521 132.918 146.894 134.814 148.314C136.72 149.742 137.762 151.149 138.101 152.459L139.069 152.209ZM120.184 126.241L120.815 124.343L119.979 124.066L119.21 124.494L120.184 126.241ZM101.927 144.57L103.512 143.351L103.512 143.351L101.927 144.57ZM124.182 150.904L125.765 149.68L125.765 149.68L124.182 150.904ZM94.5007 152.679L92.6076 152.034L92.6076 152.034L94.5007 152.679ZM131.676 161.81L132.613 163.577L132.613 163.577L131.676 161.81ZM120.337 141.177L120.845 139.242C119.807 138.97 118.74 139.564 118.425 140.589C118.11 141.614 118.659 142.705 119.67 143.063L120.337 141.177ZM145.081 144.4L146.666 145.62L145.081 144.4ZM120.184 126.241C119.21 124.494 119.21 124.494 119.209 124.495C119.209 124.495 119.209 124.495 119.208 124.495C119.207 124.496 119.206 124.497 119.204 124.498C119.201 124.5 119.196 124.502 119.19 124.506C119.178 124.512 119.16 124.522 119.138 124.535C119.092 124.561 119.026 124.598 118.941 124.646C118.77 124.744 118.523 124.885 118.211 125.067C117.588 125.431 116.705 125.956 115.661 126.603C113.577 127.893 110.827 129.686 108.203 131.671C105.609 133.634 103.011 135.88 101.335 138.091C100.5 139.192 99.7878 140.42 99.4998 141.708C99.1942 143.075 99.3717 144.528 100.342 145.79L101.927 144.57L103.512 143.351C103.385 143.186 103.311 142.996 103.403 142.581C103.514 142.087 103.851 141.392 104.522 140.508C105.857 138.747 108.098 136.767 110.617 134.861C113.105 132.978 115.742 131.258 117.767 130.003C118.777 129.377 119.63 128.871 120.227 128.522C120.526 128.348 120.761 128.213 120.92 128.122C121 128.077 121.061 128.043 121.101 128.02C121.121 128.009 121.136 128.001 121.145 127.995C121.15 127.992 121.153 127.991 121.156 127.989C121.157 127.989 121.157 127.988 121.158 127.988C121.158 127.988 121.158 127.988 121.158 127.988C121.158 127.988 121.158 127.988 120.184 126.241ZM101.927 144.57L100.342 145.79C101.875 147.783 104.259 149.199 106.721 150.22L107.487 148.372L108.253 146.524C106.061 145.616 104.425 144.537 103.512 143.351L101.927 144.57ZM107.487 148.372L106.721 150.22C110.535 151.8 115.056 152.641 118.509 153.004C120.242 153.186 121.77 153.255 122.866 153.224C123.386 153.21 123.926 153.171 124.365 153.07C124.516 153.035 124.989 152.927 125.413 152.587C125.655 152.394 126.071 151.971 126.179 151.276C126.293 150.545 125.998 149.982 125.765 149.68L124.182 150.904L122.6 152.127C122.401 151.869 122.12 151.349 122.227 150.659C122.329 150.004 122.719 149.62 122.915 149.463C123.115 149.303 123.292 149.232 123.349 149.21C123.422 149.182 123.467 149.172 123.468 149.172C123.472 149.171 123.458 149.174 123.421 149.18C123.385 149.185 123.335 149.191 123.271 149.197C123.14 149.21 122.968 149.22 122.755 149.226C121.887 149.25 120.545 149.196 118.927 149.026C115.679 148.684 111.576 147.902 108.253 146.524L107.487 148.372ZM124.182 150.904L125.765 149.68C125.43 149.248 124.988 149.04 124.902 148.997C124.717 148.906 124.52 148.828 124.34 148.764C123.974 148.633 123.515 148.499 123.001 148.366C121.962 148.098 120.567 147.8 118.957 147.518C115.74 146.956 111.562 146.441 107.521 146.372L107.487 148.372L107.453 150.372C111.231 150.436 115.195 150.922 118.268 151.459C119.804 151.727 121.09 152.004 121.999 152.239C122.458 152.358 122.789 152.458 122.995 152.531C123.102 152.569 123.136 152.587 123.124 152.581C123.118 152.578 123.07 152.554 123.001 152.507C122.952 152.474 122.774 152.352 122.6 152.127L124.182 150.904ZM107.487 148.372L107.521 146.372C104.391 146.319 101.216 146.529 98.607 147.263C96.0716 147.976 93.5226 149.349 92.6076 152.034L94.5007 152.679L96.3939 153.324C96.6584 152.548 97.5523 151.715 99.69 151.114C101.754 150.533 104.482 150.321 107.453 150.372L107.487 148.372ZM94.5007 152.679L92.6076 152.034C91.457 155.411 93.3223 158.341 95.8612 160.391C98.4344 162.469 102.185 164.114 106.314 165.201C114.523 167.362 125.139 167.541 132.613 163.577L131.676 161.81L130.739 160.043C124.499 163.352 115.03 163.359 107.332 161.332C103.507 160.326 100.348 158.873 98.3744 157.279C96.3664 155.658 96.0476 154.34 96.3939 153.324L94.5007 152.679ZM131.676 161.81L132.613 163.577C135.726 161.927 138.083 160.127 139.54 158.157C141.044 156.124 141.613 153.857 140.964 151.556C140.345 149.362 138.71 147.469 136.536 145.856C134.341 144.228 131.419 142.753 127.896 141.443L127.199 143.317L126.502 145.192C129.815 146.424 132.363 147.741 134.153 149.069C135.965 150.413 136.831 151.639 137.114 152.641C137.366 153.537 137.236 154.545 136.324 155.778C135.366 157.073 133.591 158.531 130.739 160.043L131.676 161.81ZM127.199 143.317L127.896 141.443C125.778 140.655 123.422 139.919 120.845 139.242L120.337 141.177L119.829 143.111C122.299 143.76 124.527 144.457 126.502 145.192L127.199 143.317ZM120.337 141.177C119.67 143.063 119.67 143.063 119.671 143.063C119.671 143.063 119.671 143.063 119.671 143.063C119.671 143.063 119.671 143.063 119.672 143.063C119.672 143.063 119.673 143.064 119.674 143.064C119.676 143.065 119.678 143.065 119.682 143.067C119.688 143.069 119.698 143.072 119.71 143.076C119.734 143.085 119.77 143.097 119.816 143.114C119.908 143.146 120.043 143.192 120.217 143.251C120.564 143.369 121.065 143.537 121.69 143.74C122.937 144.145 124.679 144.688 126.659 145.243L127.199 143.317L127.739 141.391C125.822 140.854 124.133 140.327 122.924 139.935C122.32 139.739 121.836 139.577 121.505 139.464C121.34 139.408 121.213 139.364 121.128 139.335C121.085 139.32 121.053 139.309 121.032 139.301C121.022 139.298 121.014 139.295 121.009 139.293C121.007 139.293 121.005 139.292 121.004 139.292C121.004 139.291 121.003 139.291 121.003 139.291C121.003 139.291 121.003 139.291 121.003 139.291C121.003 139.291 121.003 139.291 121.003 139.291C121.003 139.291 121.003 139.291 120.337 141.177ZM127.199 143.317L126.659 145.243C129.977 146.173 134.045 147.159 137.593 147.558C139.36 147.757 141.098 147.823 142.593 147.621C144.013 147.43 145.65 146.94 146.666 145.62L145.081 144.4L143.497 143.18C143.464 143.222 143.162 143.508 142.059 143.657C141.03 143.796 139.661 143.766 138.041 143.583C134.815 143.22 130.991 142.303 127.739 141.391L127.199 143.317ZM145.081 144.4L146.666 145.62C147.792 144.157 148.112 142.504 147.689 140.86C147.297 139.337 146.311 137.987 145.17 136.834C142.884 134.524 139.342 132.383 135.813 130.586C132.239 128.766 128.49 127.207 125.649 126.106C124.225 125.555 123.021 125.116 122.172 124.814C121.747 124.663 121.411 124.546 121.179 124.467C121.063 124.427 120.973 124.397 120.912 124.376C120.881 124.366 120.858 124.358 120.841 124.352C120.833 124.349 120.827 124.347 120.822 124.346C120.82 124.345 120.818 124.344 120.817 124.344C120.816 124.344 120.816 124.344 120.815 124.344C120.815 124.343 120.815 124.343 120.184 126.241C119.553 128.139 119.553 128.139 119.553 128.139C119.553 128.139 119.553 128.139 119.554 128.139C119.554 128.14 119.555 128.14 119.557 128.14C119.56 128.141 119.565 128.143 119.571 128.145C119.585 128.15 119.606 128.157 119.633 128.166C119.689 128.185 119.772 128.213 119.881 128.25C120.1 128.326 120.423 128.437 120.833 128.583C121.653 128.875 122.821 129.301 124.204 129.836C126.979 130.911 130.591 132.415 133.998 134.15C137.452 135.909 140.513 137.815 142.327 139.648C143.236 140.567 143.675 141.312 143.815 141.858C143.925 142.284 143.886 142.674 143.497 143.18L145.081 144.4Z" fill="white" mask="url(#path-1-outside-1_1051_4100)"/><path d="M161.037 78.4591C165.524 84.8461 168.382 91.0048 169.25 93.2857L104.793 177L74.2932 133.147C74.4326 132.621 74.627 131.342 74.2882 130.436C73.9495 129.53 72.3541 129.195 71.5988 129.141L58.2637 108.416L111.231 39.6227L114.721 37.0302L114.704 35.1116C116.47 32.6452 120.402 27.1416 122.001 24.8586C123.999 22.0047 124.394 22.9146 125.426 24.4212C126.458 25.9278 131.187 35.832 133.528 39.2617C135.869 42.6915 138.037 46.0868 141.885 49.8892C144.963 52.931 146.348 56.4963 146.533 57.8098C145.916 57.9638 143.963 57.8985 143.5 58.5C142.921 59.2518 145.083 61.0057 148.776 63.5848C152.47 66.164 155.427 70.4754 161.037 78.4591Z" fill="#F4EAEA"/><path d="M122.575 22.6221C122.992 22.2572 123.54 21.9313 124.198 22.0127C124.829 22.0908 125.25 22.5117 125.5 22.8076C125.757 23.1113 126.022 23.5223 126.251 23.8564C126.551 24.2939 127.071 25.259 127.684 26.4297C128.309 27.6249 129.076 29.1214 129.874 30.6602C131.488 33.7728 133.226 37.0444 134.354 38.6982C136.708 42.1465 138.822 45.4561 142.588 49.1777C144.211 50.7815 145.385 52.52 146.18 54.0322C146.964 55.5251 147.41 56.8592 147.523 57.6709C147.594 58.1774 147.272 58.6562 146.775 58.7803C146.531 58.8414 146.208 58.8706 145.953 58.8936C145.662 58.9198 145.372 58.9433 145.083 58.9795C144.922 58.9997 144.777 59.0225 144.65 59.0479C144.782 59.2016 144.965 59.393 145.213 59.6211C146.087 60.425 147.5 61.4734 149.349 62.7646C151.309 64.1333 153.042 65.9406 154.972 68.374C156.897 70.8008 159.059 73.9047 161.854 77.8838C166.392 84.3413 169.288 90.5742 170.185 92.9297C170.308 93.2544 170.254 93.6202 170.042 93.8955L105.586 177.61C105.392 177.863 105.088 178.008 104.77 178C104.451 177.992 104.155 177.833 103.973 177.571L73.4727 133.719C73.305 133.478 73.251 133.174 73.3262 132.891C73.3785 132.693 73.4505 132.312 73.4707 131.887C73.4915 131.449 73.4529 131.057 73.3516 130.786C73.3411 130.759 73.2225 130.586 72.7441 130.404C72.3195 130.243 71.8315 130.161 71.5273 130.139C71.2134 130.116 70.9282 129.947 70.7578 129.683L64.0898 119.319C64.0892 119.318 64.0885 119.317 64.0879 119.316L57.4229 108.957C57.1942 108.602 57.2138 108.141 57.4717 107.806L98.0391 55.1172L110.438 39.0127L110.529 38.9092C110.562 38.877 110.598 38.8478 110.635 38.8203L113.578 36.6328C113.593 36.6205 113.609 36.6082 113.625 36.5967L113.699 36.543L113.717 36.5303L113.704 35.1201C113.702 34.9084 113.767 34.7014 113.891 34.5293C115.658 32.0616 119.587 26.5629 121.182 24.2852C121.694 23.5534 122.149 22.9955 122.575 22.6221Z" stroke="white" stroke-width="2" stroke-linecap="round" stroke-linejoin="round"/><path d="M193.85 77.5989C195.165 79.7648 179.565 86.6689 176.366 87.8039L174.409 83.4998L189.447 70.3589L193.85 77.5989Z" fill="#EA494B"/><path d="M199.104 88.3755C196.048 87.7471 183.459 90.6145 177.547 92.1267C177.035 93.3006 176.235 95.758 177.125 96.1961C178.016 96.6342 192.619 97.676 199.809 98.1422C200.847 95.1484 202.16 89.0039 199.104 88.3755Z" fill="#EA494B"/><path d="M179.107 100.919C181.194 101.053 186.405 101.782 190.554 103.622L189.91 110.071L178.799 104.808L179.107 100.919Z" fill="#EA494B"/><path d="M179.171 99.9204C181.32 100.059 186.661 100.801 190.959 102.708L191.622 103.001L191.549 103.721L190.905 110.17L190.764 111.583L189.482 110.975L178.371 105.711L177.748 105.417L177.802 104.729L178.11 100.839L178.188 99.8569L179.171 99.9204ZM195.159 87.4907C196.845 87.2886 198.36 87.2017 199.305 87.396C200.467 87.6349 201.188 88.4217 201.575 89.3677C201.943 90.2698 202.031 91.3548 201.991 92.4097C201.91 94.534 201.29 96.9227 200.753 98.4702L200.504 99.189L199.744 99.1401C196.146 98.9069 190.692 98.5298 186.025 98.1558C183.692 97.9688 181.549 97.7815 179.931 97.6138C179.123 97.53 178.437 97.4505 177.919 97.3765C177.662 97.3396 177.435 97.3023 177.25 97.2651C177.106 97.2359 176.873 97.186 176.684 97.0933C176.025 96.7689 175.814 96.1264 175.752 95.6753C175.689 95.2105 175.743 94.7041 175.828 94.2534C175.999 93.3379 176.356 92.3543 176.629 91.7271L176.825 91.2788L177.298 91.1577C180.268 90.3982 184.914 89.2984 189.207 88.4663C191.352 88.0505 193.423 87.6989 195.159 87.4907ZM190.301 69.8394L194.705 77.0796C195.221 77.9296 194.745 78.7752 194.4 79.2231C194.005 79.7353 193.399 80.2541 192.712 80.7554C191.321 81.7713 189.339 82.9008 187.26 83.9761C183.096 86.1296 178.354 88.16 176.701 88.7466L175.835 89.0532L175.456 88.2183L173.499 83.9136L173.19 83.2368L173.75 82.7466L188.789 69.606L189.684 68.8237L190.301 69.8394Z" fill="#EA494B" stroke="white" stroke-width="2"/><path d="M177.547 92.1271C177.036 93.301 176.236 95.7584 177.126 96.1965C178.016 96.6346 192.619 97.6764 199.809 98.1426" stroke="#120101" stroke-linecap="round" stroke-linejoin="round"/><path d="M193.85 77.599L189.447 70.359L174.409 83.4999" stroke="#120101" stroke-linecap="round" stroke-linejoin="round"/><path d="M154.462 100.738L107.361 161.912L68.8556 105.596L101.868 62.7194L103.959 61.0236L104.048 60.9516L104.097 60.8476L105.31 58.2501L114.411 46.4299L154.462 100.738Z" fill="#FDF8F0" stroke="#120101"/><path d="M154.462 100.738L148.486 108.499L108.563 54.0245L114.411 46.4299L154.462 100.738Z" fill="#518FC0" stroke="#120101"/><path d="M127.035 63.333L80.8545 123.311" stroke="#120101"/><path d="M133.717 72.0303L87.1851 132.567" stroke="#120101"/><path d="M139.819 80.8564L93.2274 141.369" stroke="#120101"/><path d="M101.927 144.57C97.5386 138.865 120.184 126.241 120.184 126.241C120.184 126.241 151.143 136.527 145.081 144.4C142.983 147.125 133.769 145.159 127.199 143.317C140.873 148.403 143.605 155.485 131.676 161.81C117.962 169.083 91.5069 161.465 94.5007 152.679C95.6803 149.218 101.387 148.268 107.487 148.372C105.16 147.408 103.15 146.16 101.927 144.57Z" fill="#8CE096"/><path d="M107.487 148.372C114.624 151.33 124.734 151.617 124.182 150.904C123.772 150.372 115.306 148.506 107.487 148.372Z" fill="#8CE096"/><path d="M120.337 141.177C120.337 141.177 123.303 142.225 127.199 143.317C125.152 142.556 122.861 141.839 120.337 141.177Z" fill="#8CE096"/><path d="M120.184 126.241L120.342 125.767L120.133 125.697L119.94 125.804L120.184 126.241ZM101.927 144.57L102.323 144.265L102.323 144.265L101.927 144.57ZM124.182 150.904L124.578 150.598L124.578 150.598L124.182 150.904ZM94.5007 152.679L94.0275 152.518L94.0275 152.518L94.5007 152.679ZM131.676 161.81L131.91 162.252L131.91 162.252L131.676 161.81ZM120.337 141.177L120.464 140.693C120.204 140.625 119.938 140.774 119.859 141.03C119.78 141.286 119.917 141.559 120.17 141.648L120.337 141.177ZM145.081 144.4L145.478 144.705L145.081 144.4ZM138.585 152.334C138.654 152.602 138.927 152.762 139.194 152.693C139.461 152.624 139.622 152.351 139.553 152.084L138.585 152.334ZM120.184 126.241C119.94 125.804 119.94 125.805 119.94 125.805C119.94 125.805 119.94 125.805 119.939 125.805C119.938 125.806 119.937 125.806 119.936 125.807C119.933 125.809 119.929 125.811 119.923 125.814C119.912 125.82 119.895 125.83 119.874 125.842C119.83 125.866 119.766 125.903 119.683 125.95C119.517 126.045 119.274 126.184 118.967 126.363C118.354 126.721 117.482 127.239 116.451 127.878C114.389 129.155 111.681 130.92 109.108 132.867C106.542 134.809 104.078 136.955 102.53 138.997C101.756 140.017 101.185 141.045 100.964 142.035C100.738 143.046 100.877 144.025 101.531 144.875L101.927 144.57L102.323 144.265C101.88 143.689 101.767 143.026 101.94 142.254C102.117 141.462 102.594 140.567 103.327 139.601C104.79 137.672 107.164 135.592 109.712 133.665C112.251 131.743 114.93 129.996 116.977 128.728C118 128.094 118.864 127.581 119.471 127.227C119.775 127.049 120.015 126.912 120.178 126.819C120.26 126.772 120.322 126.737 120.365 126.713C120.386 126.701 120.401 126.692 120.412 126.687C120.417 126.684 120.421 126.681 120.424 126.68C120.425 126.679 120.426 126.679 120.427 126.678C120.427 126.678 120.427 126.678 120.427 126.678C120.427 126.678 120.427 126.678 120.184 126.241ZM101.927 144.57L101.531 144.875C102.831 146.566 104.935 147.856 107.295 148.834L107.487 148.372L107.678 147.91C105.386 146.96 103.469 145.754 102.323 144.265L101.927 144.57ZM107.487 148.372L107.295 148.834C110.925 150.338 115.29 151.157 118.666 151.512C120.355 151.69 121.814 151.753 122.824 151.725C123.322 151.711 123.741 151.674 124.028 151.608C124.155 151.579 124.336 151.528 124.477 151.416C124.554 151.354 124.668 151.234 124.697 151.045C124.728 150.847 124.649 150.69 124.578 150.598L124.182 150.904L123.787 151.209C123.75 151.162 123.685 151.048 123.709 150.89C123.733 150.742 123.82 150.66 123.852 150.635C123.901 150.595 123.915 150.608 123.804 150.634C123.617 150.677 123.28 150.712 122.796 150.725C121.843 150.752 120.431 150.692 118.77 150.517C115.445 150.168 111.186 149.364 107.678 147.91L107.487 148.372ZM124.182 150.904L124.578 150.598C124.475 150.465 124.322 150.384 124.235 150.341C124.124 150.286 123.988 150.231 123.836 150.177C123.53 150.067 123.119 149.946 122.625 149.819C121.635 149.563 120.281 149.273 118.699 148.996C115.536 148.443 111.438 147.94 107.495 147.872L107.487 148.372L107.478 148.872C111.355 148.938 115.399 149.435 118.527 149.981C120.09 150.254 121.417 150.539 122.375 150.787C122.855 150.911 123.234 151.024 123.5 151.119C123.634 151.166 123.729 151.206 123.791 151.237C123.878 151.28 123.838 151.276 123.787 151.209L124.182 150.904ZM107.487 148.372L107.495 147.872C104.425 147.82 101.418 148.031 99.0131 148.707C96.6269 149.378 94.6985 150.549 94.0275 152.518L94.5007 152.679L94.974 152.84C95.4825 151.348 96.9971 150.313 99.2839 149.67C101.552 149.032 104.448 148.82 107.478 148.872L107.487 148.372ZM94.5007 152.679L94.0275 152.518C93.1784 155.009 94.4638 157.335 96.8036 159.224C99.152 161.121 102.681 162.693 106.696 163.75C114.713 165.861 124.899 165.97 131.91 162.252L131.676 161.81L131.442 161.369C124.739 164.923 114.84 164.86 106.95 162.783C103.011 161.746 99.6304 160.222 97.4319 158.446C95.2249 156.664 94.3261 154.742 94.974 152.84L94.5007 152.679ZM131.676 161.81L131.91 162.252C134.925 160.653 137.064 158.982 138.334 157.265C139.616 155.532 140.02 153.737 139.52 151.963C139.028 150.216 137.681 148.573 135.643 147.061C133.599 145.546 130.818 144.13 127.373 142.848L127.199 143.317L127.024 143.786C130.417 145.047 133.105 146.424 135.047 147.864C136.994 149.309 138.149 150.785 138.558 152.234C138.959 153.657 138.664 155.137 137.53 156.67C136.385 158.218 134.392 159.804 131.442 161.369L131.676 161.81ZM127.199 143.317L127.373 142.848C125.309 142.081 123.001 141.359 120.464 140.693L120.337 141.177L120.21 141.661C122.721 142.32 124.996 143.031 127.024 143.786L127.199 143.317ZM120.337 141.177C120.17 141.648 120.17 141.648 120.17 141.648C120.17 141.648 120.17 141.648 120.17 141.648C120.171 141.648 120.171 141.649 120.171 141.649C120.171 141.649 120.172 141.649 120.173 141.649C120.174 141.65 120.176 141.651 120.179 141.652C120.185 141.654 120.194 141.657 120.206 141.661C120.229 141.669 120.263 141.681 120.308 141.696C120.398 141.728 120.53 141.773 120.7 141.831C121.041 141.947 121.536 142.113 122.152 142.313C123.386 142.713 125.108 143.25 127.064 143.799L127.199 143.317L127.334 142.836C125.394 142.292 123.685 141.759 122.461 141.362C121.849 141.163 121.359 140.999 121.022 140.884C120.854 140.827 120.724 140.782 120.636 140.752C120.592 140.737 120.559 140.725 120.536 140.717C120.525 140.713 120.517 140.71 120.511 140.708C120.509 140.707 120.507 140.707 120.505 140.706C120.505 140.706 120.504 140.706 120.504 140.706C120.504 140.706 120.504 140.706 120.503 140.706C120.503 140.706 120.503 140.706 120.503 140.706C120.503 140.705 120.503 140.706 120.337 141.177ZM127.199 143.317L127.064 143.799C130.357 144.722 134.334 145.682 137.761 146.068C139.473 146.26 141.073 146.313 142.393 146.135C143.694 145.959 144.83 145.546 145.478 144.705L145.081 144.4L144.685 144.095C144.284 144.616 143.481 144.979 142.259 145.144C141.056 145.306 139.548 145.262 137.873 145.074C134.526 144.697 130.61 143.754 127.334 142.836L127.199 143.317ZM145.081 144.4L145.478 144.705C146.327 143.601 146.542 142.421 146.236 141.234C145.938 140.077 145.158 138.954 144.104 137.889C141.995 135.758 138.633 133.705 135.133 131.923C131.621 130.134 127.923 128.596 125.107 127.505C123.698 126.959 122.508 126.525 121.67 126.227C121.251 126.078 120.919 125.963 120.692 125.886C120.579 125.847 120.492 125.817 120.432 125.797C120.403 125.787 120.38 125.78 120.365 125.775C120.357 125.772 120.352 125.77 120.348 125.769C120.346 125.768 120.344 125.768 120.343 125.767C120.343 125.767 120.342 125.767 120.342 125.767C120.342 125.767 120.342 125.767 120.184 126.241C120.026 126.716 120.026 126.716 120.027 126.716C120.027 126.716 120.027 126.716 120.027 126.716C120.028 126.716 120.03 126.717 120.031 126.717C120.035 126.719 120.04 126.72 120.048 126.723C120.062 126.728 120.084 126.735 120.113 126.745C120.17 126.764 120.256 126.793 120.368 126.832C120.592 126.908 120.919 127.022 121.335 127.17C122.166 127.465 123.347 127.896 124.746 128.438C127.545 129.522 131.209 131.046 134.679 132.814C138.161 134.587 141.402 136.581 143.393 138.593C144.389 139.599 145.033 140.571 145.268 141.484C145.495 142.366 145.351 143.23 144.685 144.095L145.081 144.4ZM139.069 152.209L139.553 152.084C139.094 150.311 137.757 148.645 135.713 147.114C133.663 145.578 130.857 144.144 127.373 142.848L127.199 143.317L127.024 143.786C130.456 145.062 133.167 146.456 135.114 147.914C137.066 149.376 138.206 150.87 138.585 152.334L139.069 152.209Z" fill="#120101"/><path d="M143.208 69.143L137.469 72.372" stroke="#120101" stroke-linecap="round"/><mask id="path-17-outside-2_1051_4100" maskUnits="userSpaceOnUse" x="0.731934" y="46.6562" width="83" height="75" fill="black"><rect fill="white" x="0.731934" y="46.6562" width="83" height="75"/><path fill-rule="evenodd" clip-rule="evenodd" d="M37.9179 60.6523C38.3441 61.2062 38.7715 61.7937 39.1971 62.4165C40.7653 64.711 41.949 66.6848 42.8397 68.3331C39.2228 65.5751 35.3233 64.4253 31.7195 65.4421C23.1056 67.8725 19.4431 81.7607 23.5389 96.4622C27.6348 111.164 37.9381 121.111 46.5519 118.681C53.0484 116.848 56.7286 108.498 56.3883 98.1968C60.9458 103.49 66.4317 106.157 71.3638 104.765C79.9777 102.335 83.6403 88.4465 79.5444 73.745C75.4486 59.0435 65.1453 49.0959 56.5314 51.5263C50.7508 53.1573 47.2 59.9482 46.7274 68.6822C45.0717 64.8144 42.4976 59.7464 39.2845 55.7154C33.3567 48.2784 33.2073 48.6595 33.2073 48.6595L27.9753 52.2374C27.9753 52.2374 30.7388 53.2824 34.2568 56.5898C31.8254 55.0834 28.4075 53.4871 24.0255 52.6727C14.3182 50.8685 2.73193 57.6725 2.73193 57.6725C2.73193 57.6725 10.4313 63.9041 20.2897 65.1707C28.3719 66.2092 35.5821 62.1491 37.9179 60.6523Z"/></mask><path fill-rule="evenodd" clip-rule="evenodd" d="M37.9179 60.6523C38.3441 61.2062 38.7715 61.7937 39.1971 62.4165C40.7653 64.711 41.949 66.6848 42.8397 68.3331C39.2228 65.5751 35.3233 64.4253 31.7195 65.4421C23.1056 67.8725 19.4431 81.7607 23.5389 96.4622C27.6348 111.164 37.9381 121.111 46.5519 118.681C53.0484 116.848 56.7286 108.498 56.3883 98.1968C60.9458 103.49 66.4317 106.157 71.3638 104.765C79.9777 102.335 83.6403 88.4465 79.5444 73.745C75.4486 59.0435 65.1453 49.0959 56.5314 51.5263C50.7508 53.1573 47.2 59.9482 46.7274 68.6822C45.0717 64.8144 42.4976 59.7464 39.2845 55.7154C33.3567 48.2784 33.2073 48.6595 33.2073 48.6595L27.9753 52.2374C27.9753 52.2374 30.7388 53.2824 34.2568 56.5898C31.8254 55.0834 28.4075 53.4871 24.0255 52.6727C14.3182 50.8685 2.73193 57.6725 2.73193 57.6725C2.73193 57.6725 10.4313 63.9041 20.2897 65.1707C28.3719 66.2092 35.5821 62.1491 37.9179 60.6523Z" fill="white"/><path d="M3.02697 58.9378C3.57856 58.9654 4.04816 58.5407 4.07586 57.9892C4.10355 57.4376 3.67885 56.968 3.12726 56.9403L3.02697 58.9378ZM3.00526 56.9341C2.45367 56.9065 1.98407 57.3312 1.95637 57.8827C1.92868 58.4343 2.35338 58.9039 2.90497 58.9316L3.00526 56.9341ZM10.6977 61.7901C10.2221 62.0708 10.064 62.6839 10.3446 63.1596C10.6252 63.6352 11.2384 63.7933 11.714 63.5127L10.6977 61.7901ZM11.7651 63.4825C12.2408 63.2019 12.3989 62.5888 12.1183 62.1131C11.8376 61.6374 11.2245 61.4793 10.7488 61.76L11.7651 63.4825ZM3.07712 57.939L3.12726 56.9403L3.00526 56.9341L2.95511 57.9329L2.90497 58.9316L3.02697 58.9378L3.07712 57.939ZM11.2059 62.6514L11.714 63.5127L11.7651 63.4825L11.257 62.6213L10.7488 61.76L10.6977 61.7901L11.2059 62.6514ZM39.1971 62.4165L40.8483 61.288L40.8483 61.288L39.1971 62.4165ZM37.9179 60.6523L39.503 59.4327C38.87 58.61 37.7129 58.4083 36.8389 58.9684L37.9179 60.6523ZM42.8397 68.3331L41.627 69.9235C42.3764 70.495 43.4231 70.4657 44.1394 69.8533C44.8557 69.2408 45.0473 68.2114 44.5992 67.3823L42.8397 68.3331ZM31.7195 65.4421L32.2626 67.367L32.2626 67.367L31.7195 65.4421ZM23.5389 96.4622L21.6123 96.9989L21.6123 96.9989L23.5389 96.4622ZM46.5519 118.681L47.095 120.606L47.095 120.606L46.5519 118.681ZM56.3883 98.1968L57.9039 96.8919C57.3505 96.249 56.4517 96.0253 55.6615 96.3335C54.8712 96.6418 54.3614 97.415 54.3894 98.2628L56.3883 98.1968ZM71.3638 104.765L71.9069 106.69L71.9069 106.69L71.3638 104.765ZM56.5314 51.5263L57.0745 53.4511L57.0745 53.4511L56.5314 51.5263ZM46.7274 68.6822L44.8888 69.4692C45.2546 70.3237 46.1608 70.8136 47.076 70.6516C47.9913 70.4895 48.6743 69.7184 48.7245 68.7902L46.7274 68.6822ZM39.2845 55.7154L37.7206 56.962L37.7206 56.962L39.2845 55.7154ZM33.2073 48.6595L34.3363 50.3104C34.6675 50.0839 34.9229 49.7631 35.0694 49.3895L33.2073 48.6595ZM27.9753 52.2374L26.8463 50.5865C26.2311 51.0072 25.9009 51.7351 25.9895 52.4751C26.0781 53.2152 26.5708 53.8445 27.2679 54.1081L27.9753 52.2374ZM34.2568 56.5898L33.2034 58.2899C34.0767 58.831 35.2178 58.6224 35.8433 57.8075C36.4688 56.9925 36.3751 55.8363 35.6267 55.1326L34.2568 56.5898ZM24.0255 52.6727L24.391 50.7063L24.391 50.7063L24.0255 52.6727ZM2.73193 57.6725L1.71916 55.9479C1.15334 56.2801 0.786496 56.8688 0.737514 57.5232C0.688531 58.1775 0.963638 58.8143 1.47369 59.2271L2.73193 57.6725ZM20.2897 65.1707L20.0349 67.1544L20.0349 67.1544L20.2897 65.1707ZM39.1971 62.4165L40.8483 61.288C40.4014 60.6341 39.952 60.0162 39.503 59.4327L37.9179 60.6523L36.3328 61.8719C36.7362 62.3963 37.1415 62.9534 37.5459 63.545L39.1971 62.4165ZM42.8397 68.3331L44.5992 67.3823C43.6737 65.6695 42.4534 63.6365 40.8483 61.288L39.1971 62.4165L37.5459 63.545C39.0772 65.7855 40.2243 67.7001 41.0802 69.2839L42.8397 68.3331ZM31.7195 65.4421L32.2626 67.367C35.0633 66.5768 38.3204 67.4021 41.627 69.9235L42.8397 68.3331L44.0524 66.7427C40.1252 63.7481 35.5833 62.2739 31.1764 63.5173L31.7195 65.4421ZM23.5389 96.4622L25.4655 95.9254C23.4961 88.8563 23.4219 82.0747 24.7969 76.8605C26.1862 71.5926 28.9176 68.3108 32.2626 67.367L31.7195 65.4421L31.1764 63.5173C25.9075 65.0039 22.5007 69.8813 20.9292 75.8405C19.3435 81.8534 19.4859 89.3665 21.6123 96.9989L23.5389 96.4622ZM46.5519 118.681L46.0088 116.756C42.6673 117.699 38.6449 116.327 34.7403 112.557C30.8746 108.825 27.4351 102.995 25.4655 95.9254L23.5389 96.4622L21.6123 96.9989C23.7386 104.631 27.4987 111.126 31.962 115.435C36.3865 119.707 41.8227 122.093 47.095 120.606L46.5519 118.681ZM56.3883 98.1968L54.3894 98.2628C54.5518 103.179 53.7478 107.513 52.223 110.765C50.6995 114.016 48.5388 116.042 46.0088 116.756L46.5519 118.681L47.095 120.606C51.0616 119.487 53.9892 116.422 55.8448 112.463C57.6991 108.508 58.5651 103.515 58.3872 98.1307L56.3883 98.1968ZM71.3638 104.765L70.8207 102.84C66.9948 103.92 62.2524 101.943 57.9039 96.8919L56.3883 98.1968L54.8727 99.5017C59.6391 105.038 65.8686 108.394 71.9069 106.69L71.3638 104.765ZM79.5444 73.745L77.6178 74.2818C79.5873 81.3509 79.6615 88.1325 78.2864 93.3467C76.8971 98.6146 74.1657 101.896 70.8207 102.84L71.3638 104.765L71.9069 106.69C77.1758 105.203 80.5826 100.326 82.1542 94.3667C83.7399 88.3538 83.5974 80.8406 81.471 73.2082L79.5444 73.745ZM56.5314 51.5263L57.0745 53.4511C60.4161 52.5083 64.4384 53.8802 68.343 57.65C72.2087 61.3823 75.6483 67.2125 77.6178 74.2818L79.5444 73.745L81.471 73.2082C79.3447 65.5761 75.5847 59.0816 71.1213 54.7724C66.6968 50.5006 61.2606 48.1138 55.9883 49.6014L56.5314 51.5263ZM46.7274 68.6822L48.7245 68.7902C49.1836 60.3058 52.5785 54.7197 57.0745 53.4511L56.5314 51.5263L55.9883 49.6014C48.9232 51.5949 45.2164 59.5906 44.7303 68.5741L46.7274 68.6822ZM39.2845 55.7154L37.7206 56.962C40.7749 60.794 43.2661 65.6787 44.8888 69.4692L46.7274 68.6822L48.566 67.8951C46.8773 63.9502 44.2202 58.6989 40.8485 54.4688L39.2845 55.7154ZM33.2073 48.6595C35.0694 49.3895 35.062 49.408 35.0545 49.4264C35.0519 49.4326 35.0439 49.4514 35.0384 49.4639C35.0273 49.4892 35.0154 49.5149 35.0026 49.5409C34.9771 49.5929 34.948 49.6464 34.9149 49.7007C34.8485 49.8096 34.7666 49.9204 34.6665 50.0271C34.4596 50.2477 34.2064 50.417 33.9272 50.5242C33.3906 50.7302 32.9283 50.6474 32.7183 50.5924C32.4934 50.5334 32.3348 50.4482 32.2667 50.4092C32.1881 50.3642 32.1365 50.3262 32.1185 50.3126C32.0775 50.2817 32.1825 50.3576 32.5605 50.7629C33.283 51.5374 34.7622 53.2505 37.7206 56.962L39.2845 55.7154L40.8485 54.4688C37.879 50.7433 36.3196 48.9286 35.4854 48.0343C35.0852 47.6053 34.7823 47.3116 34.5281 47.1198C34.4406 47.0538 34.1491 46.8322 33.7323 46.723C33.5066 46.6639 33.0354 46.582 32.4936 46.7899C32.2119 46.8981 31.9572 47.0687 31.7493 47.2903C31.6488 47.3975 31.5666 47.5087 31.5 47.6179C31.4668 47.6723 31.4376 47.7259 31.412 47.7781C31.3993 47.8041 31.3873 47.8298 31.3762 47.8551C31.3708 47.8677 31.3628 47.8865 31.3602 47.8927C31.3526 47.9111 31.3453 47.9296 33.2073 48.6595ZM27.9753 52.2374L29.1043 53.8883L34.3363 50.3104L33.2073 48.6595L32.0784 47.0086L26.8463 50.5865L27.9753 52.2374ZM34.2568 56.5898L35.6267 55.1326C33.7534 53.3715 32.0653 52.1979 30.8216 51.4558C30.2 51.0849 29.6895 50.8218 29.3224 50.6469C29.1388 50.5594 28.9911 50.494 28.8832 50.4481C28.8292 50.4252 28.7852 50.4071 28.7516 50.3936C28.7348 50.3869 28.7206 50.3813 28.7091 50.3768C28.7034 50.3746 28.6983 50.3726 28.6939 50.3709C28.6917 50.3701 28.6896 50.3693 28.6878 50.3686C28.6868 50.3683 28.6859 50.3679 28.6851 50.3676C28.6847 50.3674 28.6841 50.3672 28.6839 50.3671C28.6833 50.3669 28.6827 50.3667 27.9753 52.2374C27.2679 54.1081 27.2674 54.1079 27.2668 54.1077C27.2666 54.1077 27.2661 54.1074 27.2658 54.1073C27.2651 54.1071 27.2644 54.1068 27.2639 54.1066C27.2627 54.1061 27.2616 54.1057 27.2608 54.1054C27.259 54.1047 27.258 54.1043 27.2576 54.1042C27.2567 54.1038 27.2585 54.1045 27.2628 54.1063C27.2714 54.1097 27.2902 54.1174 27.3187 54.1294C27.3756 54.1536 27.4712 54.1957 27.6017 54.2579C27.8628 54.3822 28.263 54.5871 28.7719 54.8908C29.7896 55.498 31.2421 56.5007 32.8868 58.0469L34.2568 56.5898ZM24.0255 52.6727L23.6601 54.639C27.7606 55.4011 30.9477 56.8924 33.2034 58.2899L34.2568 56.5898L35.3101 54.8896C32.7031 53.2745 29.0544 51.5731 24.391 50.7063L24.0255 52.6727ZM2.73193 57.6725C3.74471 59.3971 3.74435 59.3973 3.74403 59.3975C3.74398 59.3975 3.74371 59.3977 3.74361 59.3977C3.74342 59.3978 3.7434 59.3978 3.74356 59.3978C3.74387 59.3976 3.74488 59.397 3.74657 59.396C3.74996 59.394 3.7561 59.3905 3.76493 59.3854C3.7826 59.3752 3.81106 59.3588 3.84989 59.3369C3.92756 59.2929 4.04666 59.2263 4.20392 59.1408C4.51858 58.9697 4.98518 58.7235 5.57763 58.4317C6.76465 57.8471 8.44577 57.085 10.4142 56.3784C14.4125 54.943 19.3301 53.8342 23.6601 54.639L24.0255 52.6727L24.391 50.7063C19.0136 49.7069 13.2844 51.0981 9.0627 52.6136C6.9212 53.3824 5.09904 54.2086 3.81029 54.8433C3.16486 55.1612 2.65044 55.4325 2.29356 55.6265C2.11505 55.7235 1.97574 55.8013 1.87896 55.8561C1.83055 55.8835 1.79277 55.9052 1.766 55.9206C1.75262 55.9284 1.74199 55.9345 1.73416 55.9391C1.73025 55.9414 1.72704 55.9432 1.72454 55.9447C1.72329 55.9454 1.72221 55.9461 1.72132 55.9466C1.72087 55.9469 1.72033 55.9472 1.7201 55.9473C1.71961 55.9476 1.71916 55.9479 2.73193 57.6725ZM20.2897 65.1707L20.5446 63.187C15.9443 62.596 11.7976 60.8357 8.76911 59.1894C7.26256 58.3705 6.05243 57.5905 5.22442 57.0195C4.81087 56.7343 4.49393 56.5021 4.28438 56.3445C4.17964 56.2657 4.10185 56.2056 4.05234 56.1669C4.02758 56.1476 4.00992 56.1336 3.9995 56.1253C3.99429 56.1211 3.99089 56.1184 3.98933 56.1172C3.98855 56.1165 3.98823 56.1163 3.98837 56.1164C3.98844 56.1165 3.98863 56.1166 3.98893 56.1168C3.98908 56.117 3.98939 56.1172 3.98947 56.1173C3.98981 56.1176 3.99018 56.1179 2.73193 57.6725C1.47369 59.2271 1.47412 59.2274 1.47457 59.2278C1.47477 59.228 1.47526 59.2283 1.47564 59.2287C1.47641 59.2293 1.4773 59.23 1.47831 59.2308C1.48032 59.2324 1.48281 59.2344 1.48577 59.2368C1.49169 59.2416 1.49949 59.2478 1.50915 59.2555C1.52846 59.2709 1.55523 59.292 1.58928 59.3186C1.65737 59.3718 1.75461 59.4469 1.87966 59.5409C2.12967 59.729 2.49127 59.9936 2.95357 60.3124C3.87727 60.9494 5.20812 61.8065 6.85872 62.7038C10.1445 64.4899 14.7767 66.4788 20.0349 67.1544L20.2897 65.1707ZM37.9179 60.6523L36.8389 58.9684C34.592 60.4081 27.8957 64.1315 20.5446 63.187L20.2897 65.1707L20.0349 67.1544C28.8482 68.2868 36.5722 63.89 38.997 62.3363L37.9179 60.6523Z" fill="white" mask="url(#path-17-outside-2_1051_4100)"/><path d="M24.0595 52.6865C33.7668 54.4907 38.7431 60.1321 38.7431 60.1321C38.7431 60.1321 30.1821 66.4512 20.3237 65.1845C10.4652 63.9179 2.76587 57.6863 2.76587 57.6863C2.76587 57.6863 14.3521 50.8823 24.0595 52.6865Z" fill="#8CE096"/><path d="M39.231 62.4303C33.7603 54.4259 28.0092 52.2513 28.0092 52.2513L33.2412 48.6734C33.2412 48.6734 33.3906 48.2923 39.3185 55.7292C45.2463 63.1662 48.9996 74.1329 48.8221 74.5797L45.4927 74.5357C45.4927 74.5357 44.7017 70.4348 39.231 62.4303Z" fill="#120101"/><ellipse cx="16.2057" cy="27.6332" rx="16.2057" ry="27.6332" transform="matrix(-0.962425 0.271549 0.268381 0.963313 47.3501 61.0552)" fill="#FFE4B8"/><ellipse cx="16.2057" cy="27.6332" rx="16.2057" ry="27.6332" transform="matrix(-0.962425 0.271549 0.268381 0.963313 72.1621 47.1396)" fill="#EA494B"/><path d="M51.8058 54.686C47.0726 60.1809 45.5911 70.9467 48.6508 82.2198C52.2801 95.5917 61.0513 105.079 69.0945 104.939C73.8268 99.4435 75.3085 88.6784 72.2491 77.4061C68.6199 64.0348 59.8487 54.5466 51.8058 54.686Z" fill="#FDF8F0"/><path d="M51.3511 55.007C46.6552 60.5339 45.2451 71.3093 48.3798 82.5611C52.0982 95.9075 60.9326 105.335 68.9743 105.142C73.6698 99.6144 75.0794 88.8393 71.9448 77.5881C68.2265 64.2421 59.3926 54.8139 51.3511 55.007Z" fill="#FFE4B8"/><ellipse cx="0.957377" cy="2.19698" rx="0.957377" ry="2.19698" transform="matrix(-0.962425 0.271549 0.268381 0.963313 55.5522 80.9268)" fill="#120101"/><ellipse cx="0.957377" cy="2.19698" rx="0.957377" ry="2.19698" transform="matrix(-0.962425 0.271549 0.268381 0.963313 47.4292 85.0449)" fill="#120101"/><path d="M56.6299 98.5322C59.3159 101.675 66.5993 107.019 74.2453 103.247C81.8913 99.4752 81.554 84.4508 80.4295 77.4102" stroke="black"/><path d="M5.27539 58.2965C8.92546 57.8742 16.2068 57.4737 24.1807 58.0068M37.381 59.8629C33.0932 58.8671 28.5338 58.2978 24.1807 58.0068M24.1807 58.0068L20.7774 60.9241" stroke="black"/><path d="M19.6642 57.6187L16.7783 54.5732" stroke="black"/></svg>