<svg width="200" height="200" viewBox="0 0 200 200" fill="none" xmlns="http://www.w3.org/2000/svg"><path d="M155.834 80.7234C149.802 70.0899 169.787 47.6808 180.533 37.8055C166.988 47.9723 135.333 67.9365 117.077 66.4583C98.821 64.9801 88.015 26.128 87.2232 21.7895C86.1568 28.0722 84.9291 71.3292 69.9161 74.8734C54.9031 78.4176 18.5365 70.1279 2.22975 65.5399C14.2219 73.1018 38.5357 90.3332 39.8533 98.7638C41.1709 107.194 21.9209 115.082 12.1312 117.972C21.0186 116.59 39.9014 116.546 44.3332 127.428C48.765 138.31 29.0251 160.538 18.6011 170.291C34.5429 161.622 69.7592 143.767 83.0903 141.693C96.4214 139.62 109.163 174.549 111.996 180.297C111.65 175.17 111.321 139.72 127.75 134.747C144.178 129.773 180.698 137.881 196.905 142.556C185.092 133.959 161.177 114.91 160.017 107.491C158.858 100.072 178.702 93.0704 188.768 90.497C180.303 91.6698 161.865 91.357 155.834 80.7234Z" fill="#5735FF" stroke="white" stroke-width="2"/><path d="M94.2762 41.6311C94.7339 40.2689 95.5499 39.0572 96.9356 38.4844C98.3696 37.8918 99.7013 38.2765 100.784 39.1148C101.822 39.9193 102.693 41.1745 103.413 42.531C103.801 43.263 104.158 44.0523 104.483 44.8603C104.667 44.2324 104.939 43.6277 105.341 43.1128C106.03 42.2321 107.043 41.6911 108.377 41.6822C109.892 41.6722 111.048 42.581 112.063 44.0262C113.07 45.4601 114.086 47.6274 115.295 50.5762C116.511 53.5419 117.96 57.3915 119.812 62.2318C121.426 66.4472 123.353 71.4307 125.717 77.2758C127.046 73.2469 129.164 69.6289 133.421 66.8321C136.772 64.6304 139.668 64.9143 141.47 66.4195C142.332 67.139 142.894 68.1097 143.081 69.0979C143.268 70.0838 143.087 71.1722 142.328 71.9749C137.373 77.2171 137.385 82.5568 138.121 87.7202C138.482 90.2511 139.057 92.9256 139.219 95.3167C139.371 97.5644 139.183 99.7812 138.092 101.806C139.076 103.467 139.989 104.783 141.211 105.974C142.55 107.28 144.304 108.481 147.014 109.787L147.788 110.16L147.538 110.978C144.325 121.525 136.135 129.523 125.472 132.387L125.155 132.473L124.848 132.353C107.004 125.406 94.5863 108.974 87.557 93.8638C84.0367 86.2966 81.8386 79.0012 80.9864 73.2981C80.5611 70.452 80.4644 67.9558 80.7295 66.0013C80.9853 64.1152 81.621 62.4326 82.9635 61.6593L83.173 61.5533C83.6665 61.3407 84.1852 61.3582 84.6594 61.5503C85.1503 61.7493 85.5599 62.1185 85.8936 62.5073C86.2649 62.9398 86.6201 63.4929 86.9616 64.1168C86.7166 61.851 86.5701 59.6828 86.5266 57.7014C86.4714 55.1886 86.5805 52.9448 86.8749 51.1695C87.022 50.2823 87.2194 49.4848 87.4798 48.8184C87.735 48.1655 88.0816 47.5569 88.5741 47.1356C89.0461 46.7317 89.5725 46.4662 90.1444 46.3787C90.717 46.2912 91.2617 46.3933 91.7522 46.6067C92.544 46.9513 93.2333 47.6034 93.8193 48.3361C93.7548 47.6367 93.7133 46.9371 93.7021 46.2522C93.6754 44.612 93.8201 42.9886 94.2762 41.6311Z" fill="url(#paint0_linear_0_5745)" stroke="white" stroke-width="2"/><path d="M95.796 53.7333C96.0179 54.6009 96.9884 64.9904 100.614 77.5477" stroke="black"/><path d="M105.292 50.6962C105.954 55.2006 107.962 66.185 110.701 74.0871" stroke="black"/><path d="M125.694 80.7312C120.448 82.2285 110.08 87.9582 110.576 98.8984" stroke="black"/><path d="M92.2395 88.0073C94.2706 84.1476 102.144 75.8472 117.387 73.5226" stroke="black"/><path d="M35.0323 87.2853C35.3701 86.5652 36.0125 86.0673 36.8101 85.7407C38.2898 85.1349 39.9945 85.0744 41.7105 85.3197C43.4342 85.5662 45.2413 86.132 46.9777 86.8546C47.4641 87.0571 47.9471 87.2738 48.4243 87.5C47.9277 86.7515 47.5401 85.9403 47.5146 85.1502C47.4962 84.5804 47.6661 84.0136 48.0957 83.5477C48.5027 83.1064 49.068 82.8357 49.6988 82.6739C51.0489 82.3277 52.7269 82.5696 54.4177 83.0585C56.1422 83.5572 58.0294 84.3587 59.8733 85.2873C61.7647 86.2399 63.644 87.3446 65.2948 88.4283C65.2059 88.2116 65.1286 87.9968 65.0659 87.787C64.8408 87.0337 64.6824 85.8975 65.5332 85.1163C65.9336 84.7487 66.4508 84.5743 66.9889 84.5123C67.5266 84.4503 68.1552 84.4911 68.8711 84.616C72.3653 85.2254 78.4262 87.7817 84.8123 91.5205C91.2239 95.2742 98.0939 100.296 103.183 105.935C115.428 119.504 117.865 130.295 117.122 136.482L117.079 136.837L116.82 137.084C110.532 143.099 103.666 145.986 97.9221 147.115C95.0527 147.678 92.4546 147.805 90.3393 147.659C88.2585 147.516 86.54 147.103 85.501 146.503L85.3176 146.397L85.1925 146.225C80.8346 140.235 76.4637 136.937 71.9373 135.204C67.3944 133.465 62.5957 133.264 57.3034 133.639C55.229 133.786 53.3919 133.755 51.8534 133.561C50.3306 133.369 49.0305 133.008 48.0817 132.446C47.118 131.874 46.3915 131.004 46.3962 129.832C46.4006 128.741 47.0477 127.701 48.0136 126.752C50.6254 124.186 54.6531 123.079 58.3829 122.738C60.3088 122.562 62.2183 122.587 63.9077 122.743C62.7304 121.879 61.3039 120.866 59.7026 119.747C56.2308 117.32 52.0186 114.434 48.0497 111.578C44.0855 108.726 40.3162 105.871 37.7279 103.495C36.4427 102.315 35.3919 101.203 34.7621 100.232C34.4493 99.7497 34.1932 99.2318 34.1034 98.7079C34.0078 98.1489 34.1008 97.5412 34.5404 97.0453L34.7074 96.868C35.5617 96.0201 36.7118 95.6856 37.8709 95.6217C38.7227 95.5748 39.6333 95.671 40.5468 95.851C39.5988 95.0942 38.6996 94.3177 37.9112 93.5486C36.5531 92.2239 35.3882 90.8004 34.9644 89.4668C34.7438 88.7723 34.6944 88.0057 35.0323 87.2853Z" fill="#FFA9A9" stroke="white" stroke-width="2"/><path d="M67.4844 90.8301C67.4844 90.8301 77.5222 98.8776 82.3043 104.007" stroke="black"/><path d="M54.0215 91.9541C59.2236 95.5374 70.8768 104.161 75.8729 109.988" stroke="black"/><path d="M46.5332 99.1777C50.3627 101.485 60.0628 107.96 68.2267 115.405" stroke="black"/><path d="M88.5651 70.084C88.7833 71.6661 90.4633 78.5728 91.8693 82.3174" stroke="black"/><path d="M51.8729 85.5909C50.0567 86.637 53.6002 89.1798 55.2768 90.3333C55.7975 89.4733 56.8226 88.2104 57.5923 87.6736C56.6404 86.5795 53.6891 84.5449 51.8729 85.5909Z" stroke="black"/><path d="M39.0926 88.5002C40.569 87.0309 44.5449 89.0992 46.3484 90.3171L43.8532 94.1478L43.8071 94.1168C41.6773 92.6839 37.6269 89.9589 39.0926 88.5002Z" stroke="black"/><path d="M37.5503 98.9805C36.477 99.8947 39.4254 101.921 41.0338 102.82C41.3272 101.584 42.5378 100.079 43.1065 99.4805C41.7016 98.933 38.6236 98.0664 37.5503 98.9805Z" stroke="black"/><path d="M54.7523 132.521L55.0585 129.096C53.2711 129.187 49.7248 129.391 49.0829 132.012" stroke="black"/><defs><linearGradient id="paint0_linear_0_5745" x1="95.3074" y1="83.1569" x2="66.9776" y2="127.438" gradientUnits="userSpaceOnUse"><stop stop-color="#EEA795"/><stop offset="1" stop-color="#886055"/></linearGradient></defs></svg>