<svg width="119" height="115" viewBox="0 0 119 115" fill="none" xmlns="http://www.w3.org/2000/svg"><path d="M61.0744 48.3112C58.4645 43.3083 59.8265 37.1534 64.3034 33.7186L73.5218 26.646C78.124 23.1152 83.3058 20.4119 88.8348 18.6575L99.9096 15.1434C105.288 13.4368 111.115 15.8412 113.725 20.8441C117.064 27.2448 113.819 35.1095 106.938 37.2931L99.4122 39.6803C94.1045 41.3645 89.1302 43.9595 84.7122 47.349L78.4486 52.1554C72.7208 56.5499 64.4138 54.7118 61.0744 48.3112Z" stroke="white" stroke-width="2"/><path d="M79.3125 1.35156C94.2331 2.02441 109.759 18.4518 108.983 45.8896C108.694 56.2765 106.73 66.9271 104.302 76.4082L104.301 76.4111C101.689 86.5053 98.4137 96.3494 94.4971 105.875L93.7051 107.776C93.3398 108.641 93.0513 109.308 92.8418 109.775L92.8408 109.777L92.5146 110.5L92.5117 110.507C92.0431 111.527 91.2671 112.359 90.2832 112.872C89.299 113.385 88.1727 113.546 87.0674 113.347L87.0537 113.345L87.04 113.342L86.9824 113.33V113.329L86.8574 113.307L86.8496 113.306L86.2812 113.196L86.2715 113.194C74.8131 110.875 63.4774 107.638 52.3662 103.512L52.3633 103.511C43.1953 100.072 33.3358 95.5895 24.6514 89.8838C1.49606 74.6591 -3.22767 54.1224 4.88477 42.3037C8.93466 36.4037 16.0789 32.9178 25.2578 33.4844C33.9186 34.019 44.3822 38.152 55.9111 47.207C53.8414 31.6848 55.8072 20.2884 60.1123 12.7119C64.6704 4.69024 71.8246 1.01406 79.3125 1.35156Z" fill="#F04343" stroke="white" stroke-width="2"/><path d="M77.8394 51.3618C72.6045 55.3782 65.0127 53.6983 61.9609 47.8484C59.5756 43.2761 60.8203 37.651 64.9119 34.5118L74.1306 27.4391C78.6407 23.9789 83.7186 21.3299 89.137 19.6106L100.212 16.0963C105.128 14.5365 110.453 16.734 112.838 21.3063C115.89 27.1563 112.924 34.3438 106.635 36.3394L99.1099 38.7274C93.6915 40.4467 88.6137 43.0957 84.1035 46.556L77.8394 51.3618Z" fill="#EDB798"/><path d="M69.7329 24.7398C65.7166 19.5049 67.3964 11.9131 73.2464 8.86129C77.8187 6.47599 83.4438 7.72066 86.5829 11.8123L93.6556 21.031C97.1158 25.5411 99.7649 30.619 101.484 36.0373L104.998 47.1124C106.558 52.028 104.361 57.3535 99.7884 59.7388C93.9385 62.7907 86.7509 59.8249 84.7553 53.5358L82.3674 46.0103C80.648 40.5919 77.999 35.5141 74.5388 31.0039L69.7329 24.7398Z" fill="#EED0BF"/><path d="M89.9237 22.9023C86.5222 23.692 81.5851 26.5751 78.7377 28.6183C77.8132 29.2817 77.7636 30.5838 78.4583 31.4849C80.2107 33.7581 81.7939 36.6881 82.8641 38.9417C83.4112 40.0936 84.8643 40.5279 85.9451 39.8511C89.5365 37.6019 93.1466 35.8108 95.7722 34.7329C96.7804 34.3191 97.3498 33.2048 96.9672 32.1844C95.1864 27.4355 93.0472 24.9039 91.5075 23.3802C91.0886 22.9655 90.4978 22.769 89.9237 22.9023Z" fill="#D6AC93"/><path d="M73.583 30.7861C75.4186 32.7227 79.6073 38.0624 81.6772 43.9285" stroke="black"/><rect x="71.0654" y="16.8838" width="2.79925" height="2.79925" rx="1.39963" transform="rotate(-27.5504 71.0654 16.8838)" fill="#D6AC93"/><rect x="91.4941" y="53.0156" width="2.79925" height="2.79925" rx="1.39963" transform="rotate(-27.5504 91.4941 53.0156)" fill="#D6AC93"/><rect x="75.2461" y="21.8721" width="2.79925" height="2.93525" rx="1.39963" transform="rotate(-27.5504 75.2461 21.8721)" fill="#D6AC93"/><rect x="89.498" y="46.1631" width="2.79925" height="2.79925" rx="1.39963" transform="rotate(-27.5504 89.498 46.1631)" fill="#D6AC93"/><rect x="77.6172" y="12.7422" width="2.79925" height="2.79925" rx="1.39963" transform="rotate(-27.5504 77.6172 12.7422)" fill="#D6AC93"/><rect x="98.3418" y="49.4434" width="2.79925" height="2.79925" rx="1.39963" transform="rotate(-27.5504 98.3418 49.4434)" fill="#D6AC93"/><rect x="81.4512" y="18.6348" width="2.79925" height="2.93525" rx="1.39963" transform="rotate(-27.5504 81.4512 18.6348)" fill="#D6AC93"/><rect x="95.7021" y="42.9268" width="2.79925" height="2.79925" rx="1.39963" transform="rotate(-27.5504 95.7021 42.9268)" fill="#D6AC93"/><path d="M18.4659 43.2219C22.1646 43.9146 23.7867 48.3028 21.4278 51.2347C19.339 53.8306 18.6172 56.6096 17.6269 59.76C16.8786 62.1407 14.448 63.5671 12.0046 63.0593C3.64136 61.3214 10.6051 41.7498 18.4659 43.2219Z" fill="#FFC9C9"/><path d="M102.869 40.1378C101.891 35.5869 98.042 24.462 90.4697 16.3701" stroke="black"/></svg>