<svg width="121" height="121" viewBox="0 0 121 121" fill="none" xmlns="http://www.w3.org/2000/svg">
<path d="M120.99 60.4949C120.99 93.9053 93.9053 120.99 60.4949 120.99C27.0845 120.99 0 93.9053 0 60.4949C0 27.0845 27.0845 0 60.4949 0C93.9053 0 120.99 27.0845 120.99 60.4949ZM9.67918 60.4949C9.67918 88.5596 32.4301 111.311 60.4949 111.311C88.5596 111.311 111.311 88.5596 111.311 60.4949C111.311 32.4301 88.5596 9.67918 60.4949 9.67918C32.4301 9.67918 9.67918 32.4301 9.67918 60.4949Z" fill="#4B4B55"/>
<path d="M60.4949 4.83959C60.4949 2.16676 62.6652 -0.0201367 65.3295 0.193433C76.8317 1.11546 87.8678 5.3128 97.1071 12.3371C106.347 19.3614 113.342 28.873 117.307 39.7097C118.225 42.2198 116.698 44.8959 114.123 45.6107C111.547 46.3255 108.902 44.8059 107.945 42.3101C104.572 33.5082 98.8035 25.7855 91.2492 20.0423C83.6949 14.2991 74.7107 10.8057 65.3274 9.90943C62.6667 9.65527 60.4949 7.51242 60.4949 4.83959Z" fill="#AFF26D"/>
<path d="M102.841 60.4939C102.841 83.8811 83.8821 102.84 60.4948 102.84C37.1076 102.84 18.1484 83.8811 18.1484 60.4939C18.1484 37.1066 37.1076 18.1475 60.4948 18.1475C83.8821 18.1475 102.841 37.1066 102.841 60.4939ZM29.1585 60.4939C29.1585 77.8005 43.1883 91.8302 60.4948 91.8302C77.8014 91.8302 91.8312 77.8005 91.8312 60.4939C91.8312 43.1873 77.8014 29.1575 60.4948 29.1575C43.1883 29.1575 29.1585 43.1873 29.1585 60.4939Z" fill="#4B4B55"/>
<path d="M60.4948 23.6525C60.4948 20.6121 62.9697 18.1107 65.9844 18.5048C69.6587 18.9852 73.262 19.9468 76.7001 21.3709C81.8378 23.499 86.5061 26.6182 90.4383 30.5504C94.3705 34.4827 97.4897 39.1509 99.6178 44.2886C101.746 49.4263 102.841 54.9329 102.841 60.4939C102.841 66.0549 101.746 71.5614 99.6178 76.6991C97.4897 81.8368 94.3705 86.5051 90.4383 90.4373C86.506 94.3695 81.8378 97.4887 76.7001 99.6169C73.262 101.041 69.6587 102.003 65.9844 102.483C62.9697 102.877 60.4948 100.376 60.4948 97.3352C60.4948 94.2949 62.9781 91.8793 65.9716 91.3479C68.2005 90.9523 70.3853 90.3153 72.4867 89.4449C76.2886 87.8701 79.7431 85.5619 82.653 82.652C85.5628 79.7422 87.871 76.2877 89.4459 72.4858C91.0207 68.6839 91.8312 64.609 91.8312 60.4939C91.8312 56.3787 91.0207 52.3039 89.4459 48.502C87.8711 44.7001 85.5628 41.2456 82.653 38.3357C79.7431 35.4259 76.2886 33.1177 72.4867 31.5429C70.3853 30.6724 68.2005 30.0355 65.9716 29.6398C62.9781 29.1085 60.4948 26.6928 60.4948 23.6525Z" fill="#FDBCFF"/>
<path d="M84.6918 60.4948C84.6918 73.859 73.858 84.6928 60.4938 84.6928C47.1297 84.6928 36.2959 73.859 36.2959 60.4948C36.2959 47.1307 47.1297 36.2969 60.4938 36.2969C73.858 36.2969 84.6918 47.1307 84.6918 60.4948ZM46.943 60.4948C46.943 67.9788 53.0099 74.0457 60.4938 74.0457C67.9778 74.0457 74.0447 67.9788 74.0447 60.4948C74.0447 53.0109 67.9778 46.944 60.4938 46.944C53.0099 46.944 46.943 53.0109 46.943 60.4948Z" fill="#4B4B55"/>
<path d="M60.4938 41.6204C60.4938 38.6803 62.9055 36.2384 65.7747 36.8801C69.8601 37.7938 73.67 39.7592 76.8067 42.6222C81.265 46.6914 84.0415 52.2801 84.5913 58.2912C85.1409 64.3023 83.4242 70.3019 79.7778 75.1123C77.2124 78.4967 73.8222 81.1205 69.9703 82.76C67.2651 83.9115 64.4505 81.9475 63.9172 79.0562C63.384 76.1648 65.3992 73.4643 67.8661 71.8647C69.1733 71.0172 70.3356 69.9434 71.2929 68.6806C73.3348 65.9868 74.2962 62.627 73.9884 59.2608C73.6806 55.8946 72.1257 52.7649 69.629 50.4861C68.4586 49.4179 67.1209 48.5728 65.6816 47.9763C62.9655 46.8508 60.4938 44.5605 60.4938 41.6204Z" fill="#4224DE"/>
</svg>
